<svg width="48" height="31" viewBox="0 0 48 31" fill="none" xmlns="http://www.w3.org/2000/svg">
<path d="M0.941125 22.456C0.941125 20.088 1.51713 17.784 2.66913 15.544C3.82113 13.24 5.26113 11.16 6.98913 9.304C8.78113 7.384 10.7651 5.72 12.9411 4.31199C15.1811 2.83999 17.3571 1.688 19.4691 0.855999L22.2531 4.888C19.8851 6.68 18.0931 8.28 16.8771 9.688C15.7251 11.096 15.1491 12.504 15.1491 13.912C15.1491 16.152 16.9411 18.584 20.5251 21.208C20.5251 22.744 20.2371 24.12 19.6611 25.336C19.0851 26.552 18.2851 27.576 17.2611 28.408C16.3011 29.24 15.1811 29.88 13.9011 30.328C12.6851 30.776 11.4051 31 10.0611 31C7.43713 31 5.26113 30.296 3.53313 28.888C1.80513 27.48 0.941125 25.336 0.941125 22.456ZM26.3811 22.456C26.3811 20.088 26.9571 17.784 28.1091 15.544C29.2611 13.24 30.7011 11.16 32.4291 9.304C34.2211 7.384 36.2051 5.72 38.3811 4.31199C40.6211 2.83999 42.7971 1.688 44.9091 0.855999L47.5971 4.888C45.2931 6.68 43.5331 8.28 42.3171 9.688C41.1651 11.096 40.5891 12.504 40.5891 13.912C40.5891 16.152 42.3811 18.584 45.9651 21.208C45.9651 22.744 45.6771 24.12 45.1011 25.336C44.5251 26.552 43.7251 27.576 42.7011 28.408C41.7411 29.24 40.6211 29.88 39.3411 30.328C38.0611 30.776 36.7491 31 35.4051 31C32.8451 31 30.7011 30.296 28.9731 28.888C27.2451 27.48 26.3811 25.336 26.3811 22.456Z" fill="#15AA7A"/>
</svg>
