<svg width="24" height="24" viewBox="0 0 24 24" fill="none" xmlns="http://www.w3.org/2000/svg">
<mask id="path-1-inside-1_521_1856" fill="white">
<path fill-rule="evenodd" clipRule="evenodd" d="M2.02945 6.51219L10.2355 12.4802C11.2874 13.2453 12.7126 13.2453 13.7645 12.4802L21.9706 6.51219C21.7299 4.53314 20.044 3 18 3H6C3.95599 3 2.27007 4.53314 2.02945 6.51219ZM22 8.96377L14.9409 14.0977C13.1876 15.3728 10.8124 15.3728 9.05914 14.0977L2 8.96377V17C2 19.2091 3.79086 21 6 21H18C20.2091 21 22 19.2091 22 17V8.96377Z"/>
</mask>
<path fill-rule="evenodd" clipRule="evenodd" d="M2.02945 6.51219L10.2355 12.4802C11.2874 13.2453 12.7126 13.2453 13.7645 12.4802L21.9706 6.51219C21.7299 4.53314 20.044 3 18 3H6C3.95599 3 2.27007 4.53314 2.02945 6.51219ZM22 8.96377L14.9409 14.0977C13.1876 15.3728 10.8124 15.3728 9.05914 14.0977L2 8.96377V17C2 19.2091 3.79086 21 6 21H18C20.2091 21 22 19.2091 22 17V8.96377Z" fill="#1AD598"/>
<path fill-rule="evenodd" clipRule="evenodd" d="M2.02945 6.51219L10.2355 12.4802C11.2874 13.2453 12.7126 13.2453 13.7645 12.4802L21.9706 6.51219C21.7299 4.53314 20.044 3 18 3H6C3.95599 3 2.27007 4.53314 2.02945 6.51219ZM22 8.96377L14.9409 14.0977C13.1876 15.3728 10.8124 15.3728 9.05914 14.0977L2 8.96377V17C2 19.2091 3.79086 21 6 21H18C20.2091 21 22 19.2091 22 17V8.96377Z" fill="url(#paint0_radial_521_1856)"/>
<path d="M2.02945 6.51219L0.540411 6.33115L0.433971 7.20659L1.14719 7.72529L2.02945 6.51219ZM10.2355 12.4802L11.1177 11.2671L11.1177 11.2671L10.2355 12.4802ZM13.7645 12.4802L12.8823 11.2671L12.8823 11.2671L13.7645 12.4802ZM21.9706 6.51219L22.8528 7.7253L23.566 7.20659L23.4596 6.33115L21.9706 6.51219ZM22 8.96377H23.5V6.01812L21.1177 7.75067L22 8.96377ZM14.9409 14.0977L15.8231 15.3108L14.9409 14.0977ZM9.05914 14.0977L8.17688 15.3108L9.05914 14.0977ZM2 8.96377L2.88226 7.75067L0.5 6.01811V8.96377H2ZM1.14719 7.72529L9.35323 13.6933L11.1177 11.2671L2.9117 5.29909L1.14719 7.72529ZM9.35323 13.6933C10.9312 14.8409 13.0688 14.8409 14.6468 13.6933L12.8823 11.2671C12.3563 11.6496 11.6437 11.6496 11.1177 11.2671L9.35323 13.6933ZM14.6468 13.6933L22.8528 7.7253L21.0883 5.29909L12.8823 11.2671L14.6468 13.6933ZM18 4.5C19.2764 4.5 20.3313 5.45788 20.4815 6.69323L23.4596 6.33115C23.1285 3.6084 20.8116 1.5 18 1.5V4.5ZM6 4.5H18V1.5H6V4.5ZM3.51848 6.69323C3.66868 5.45788 4.7236 4.5 6 4.5V1.5C3.18838 1.5 0.871455 3.6084 0.540411 6.33115L3.51848 6.69323ZM21.1177 7.75067L14.0586 12.8846L15.8231 15.3108L22.8823 10.1769L21.1177 7.75067ZM14.0586 12.8846C12.8313 13.7772 11.1687 13.7772 9.9414 12.8846L8.17688 15.3108C10.4561 16.9684 13.5439 16.9684 15.8231 15.3108L14.0586 12.8846ZM9.9414 12.8846L2.88226 7.75067L1.11774 10.1769L8.17688 15.3108L9.9414 12.8846ZM3.5 17V8.96377H0.5V17H3.5ZM6 19.5C4.61929 19.5 3.5 18.3807 3.5 17H0.5C0.5 20.0376 2.96243 22.5 6 22.5V19.5ZM18 19.5H6V22.5H18V19.5ZM20.5 17C20.5 18.3807 19.3807 19.5 18 19.5V22.5C21.0376 22.5 23.5 20.0376 23.5 17H20.5ZM20.5 8.96377V17H23.5V8.96377H20.5Z" fill="url(#paint1_radial_521_1856)" mask="url(#path-1-inside-1_521_1856)"/>
<defs>
<radialGradient id="paint0_radial_521_1856" cx="0" cy="0" r="1" gradientUnits="userSpaceOnUse" gradientTransform="translate(12 3) rotate(90) scale(18 20)">
<stop stop-color="white" stop-opacity="0.3"/>
<stop offset="1" stop-color="white" stop-opacity="0"/>
</radialGradient>
<radialGradient id="paint1_radial_521_1856" cx="0" cy="0" r="1" gradientUnits="userSpaceOnUse" gradientTransform="translate(12 4.125) rotate(90) scale(16.875 10)">
<stop stop-color="#A3EED6"/>
<stop offset="1" stop-color="white" stop-opacity="0"/>
</radialGradient>
</defs>
</svg>
