<svg width="28" height="28" viewBox="0 0 28 28" fill="none" xmlns="http://www.w3.org/2000/svg">
<g clipPath="url(#clip0_4027_6645)">
<path fill-rule="evenodd" clip-rule="evenodd" d="M12.7579 0.0930176H15.2314C18.6286 0.0930176 20.6138 0.591974 22.376 1.53681C24.1383 2.48163 25.529 3.86172 26.4632 5.62402C27.408 7.38628 27.907 9.37148 27.907 12.7686V15.2315C27.907 18.6287 27.408 20.6139 26.4632 22.3761C25.5184 24.1384 24.1383 25.5292 22.376 26.4634C20.6138 27.4082 18.6286 27.9071 15.2314 27.9071H12.7685C9.37138 27.9071 7.38618 27.4082 5.62392 26.4634C3.86167 25.5185 2.47096 24.1384 1.53675 22.3761C0.591923 20.6139 0.0929718 18.6287 0.0929718 15.2315V12.7686C0.0929718 9.37148 0.591923 7.38628 1.53675 5.62402C2.48158 3.86172 3.86167 2.47102 5.62392 1.53681C7.3756 0.591974 9.37138 0.0930176 12.7579 0.0930176Z" fill="white"/>
<path opacity="0.12" fill-rule="evenodd" clip-rule="evenodd" d="M27.9068 14.8252V15.2316C27.9068 18.6288 27.4079 20.614 26.4631 22.3762C25.5182 24.1385 24.1381 25.5292 22.3759 26.4635C20.6136 27.4083 18.6284 27.9072 15.2313 27.9072H12.7684C9.98866 27.9072 8.15427 27.5731 6.61382 26.9341L4.07422 24.3189L27.9068 14.8252Z" fill="#001A33"/>
<path fill-rule="evenodd" clip-rule="evenodd" d="M4.35624 24.41C5.65707 24.5538 7.28342 24.1828 8.43819 23.6222C13.4526 26.3938 21.291 26.2614 26.0357 23.225C26.2197 22.949 26.3916 22.6619 26.5512 22.3643C27.4995 20.5956 28.0002 18.6032 28.0002 15.1937V12.7218C28.0002 9.31224 27.4995 7.31982 26.5512 5.55113C25.6136 3.78244 24.2178 2.39732 22.4491 1.44904C20.6804 0.500774 18.688 0 15.2785 0H12.7959C9.89207 0 8.00699 0.365542 6.42315 1.0634C6.33657 1.14093 6.25162 1.21978 6.16846 1.29996C1.52171 5.77937 1.16849 15.4892 5.10877 20.7638C5.11316 20.7716 5.11803 20.7794 5.12338 20.7874C5.73071 21.6824 5.14469 23.2486 4.22838 24.1649C4.07922 24.3034 4.13249 24.3887 4.35624 24.41Z" fill="#15AA7A"/>
<path d="M11.5154 9.52002H6.06939V10.6878H9.84867L6.12243 15.3058C6.00567 15.4756 5.92077 15.6349 5.92077 15.9958V16.2931H11.0589C11.3137 16.2931 11.526 16.0808 11.526 15.826V15.1996H7.55563L11.0589 10.8045C11.112 10.7409 11.2075 10.6241 11.25 10.571L11.2712 10.5392C11.4729 10.2419 11.5154 9.98712 11.5154 9.67928V9.52002Z" fill="white"/>
<path d="M18.4473 16.2931H19.2223V9.52002H18.0545V15.9003C18.0545 16.1126 18.2244 16.2931 18.4473 16.2931Z" fill="white"/>
<path d="M14.4558 11.0277C12.9908 11.0277 11.8018 12.2167 11.8018 13.6817C11.8018 15.1467 12.9908 16.3357 14.4558 16.3357C15.9209 16.3357 17.1099 15.1467 17.1099 13.6817C17.1205 12.2167 15.9315 11.0277 14.4558 11.0277ZM14.4558 15.2423C13.596 15.2423 12.8953 14.5416 12.8953 13.6817C12.8953 12.8218 13.596 12.1212 14.4558 12.1212C15.3157 12.1212 16.0164 12.8218 16.0164 13.6817C16.0164 14.5416 15.3264 15.2423 14.4558 15.2423Z" fill="white"/>
<path d="M22.6726 10.9851C21.1969 10.9851 19.9973 12.1847 19.9973 13.6603C19.9973 15.136 21.1969 16.3356 22.6726 16.3356C24.1482 16.3356 25.3478 15.136 25.3478 13.6603C25.3478 12.1847 24.1482 10.9851 22.6726 10.9851ZM22.6726 15.2422C21.802 15.2422 21.1014 14.5415 21.1014 13.671C21.1014 12.8005 21.802 12.0998 22.6726 12.0998C23.5431 12.0998 24.2437 12.8005 24.2437 13.671C24.2437 14.5415 23.5431 15.2422 22.6726 15.2422Z" fill="white"/>
<path d="M16.4955 16.2928H17.1218V11.1759H16.0284V15.8364C16.0284 16.0806 16.2407 16.2928 16.4955 16.2928Z" fill="white"/>
</g>
<defs>
<clipPath id="clip0_4027_6645">
<rect width="28" height="28" fill="white"/>
</clipPath>
</defs>
</svg>
