<svg width="36" height="36" viewBox="0 0 36 36" fill="none" xmlns="http://www.w3.org/2000/svg">
<path fill-rule="evenodd" clip-rule="evenodd" d="M18 4.14514C10.1951 4.14514 4.14508 9.86224 4.14508 17.5844C4.14508 21.6236 5.80047 25.114 8.49631 27.5248C8.72261 27.7273 8.85922 28.0111 8.8685 28.3148L8.94396 30.7793C8.96807 31.5654 9.78008 32.077 10.4994 31.7594L13.2494 30.5454C13.4826 30.4426 13.7438 30.4235 13.9894 30.4911C15.2531 30.8386 16.5981 31.0237 18 31.0237C25.8049 31.0237 31.8549 25.3066 31.8549 17.5844C31.8549 9.86224 25.8049 4.14514 18 4.14514Z" fill="white"/>
<path fill-rule="evenodd" clip-rule="evenodd" d="M9.67987 21.5148L13.7498 15.0578C14.3971 14.0306 15.7835 13.7748 16.7548 14.5033L19.9918 16.9311C20.2888 17.1539 20.6975 17.1527 20.9932 16.9282L25.3649 13.6104C25.9484 13.1676 26.7101 13.8659 26.3196 14.4855L22.2497 20.9425C21.6023 21.9697 20.2159 22.2255 19.2446 21.497L16.0076 19.0692C15.7106 18.8464 15.3019 18.8476 15.0062 19.0721L10.6345 22.3899C10.051 22.8327 9.2893 22.1344 9.67987 21.5148Z" fill="#15AA7A"/>
</svg>
