<svg width="24" height="25" viewBox="0 0 24 25" fill="none" xmlns="http://www.w3.org/2000/svg">
<g clipPath="url(#clip0_516_115)">
<mask id="path-1-inside-1_516_115" fill="white">
<path fillRule="evenodd" clipRule="evenodd" d="M10.9354 0.40625H13.0555C15.9673 0.40625 17.6689 0.833927 19.1794 1.64378C20.69 2.45363 21.882 3.63657 22.6827 5.14711C23.4926 6.65762 23.9203 8.35922 23.9203 11.271V13.3821C23.9203 16.294 23.4926 17.9956 22.6827 19.5061C21.8729 21.0166 20.69 22.2087 19.1794 23.0094C17.6689 23.8193 15.9673 24.2469 13.0555 24.2469H10.9444C8.0326 24.2469 6.331 23.8193 4.82049 23.0094C3.30999 22.1995 2.11796 21.0166 1.31721 19.5061C0.507354 17.9956 0.0796814 16.294 0.0796814 13.3821V11.271C0.0796814 8.35922 0.507354 6.65762 1.31721 5.14711C2.12706 3.63657 3.30999 2.44454 4.82049 1.64378C6.32193 0.833927 8.0326 0.40625 10.9354 0.40625ZM3.73391 21.249C4.84891 21.3723 6.24292 21.0543 7.23273 20.5738C11.5308 22.9494 18.2494 22.836 22.3163 20.2333C22.474 19.9967 22.6214 19.7507 22.7581 19.4956C23.571 17.9796 24.0002 16.2718 24.0002 13.3493V11.2306C24.0002 8.30809 23.571 6.6003 22.7581 5.08428C21.9545 3.56826 20.7581 2.38102 19.2421 1.56821C17.7261 0.755407 16.0183 0.326172 13.0958 0.326172H10.9679C8.47891 0.326172 6.86313 0.639494 5.50555 1.23766C5.43134 1.30411 5.35852 1.3717 5.28724 1.44042C1.30432 5.27992 1.00155 13.6026 4.37893 18.1237C4.3827 18.1304 4.38687 18.1371 4.39146 18.1439C4.91203 18.9111 4.40973 20.2536 3.62432 21.0389C3.49646 21.1577 3.54212 21.2307 3.73391 21.249Z"/>
</mask>
<path fillRule="evenodd" clipRule="evenodd" d="M10.9354 0.40625H13.0555C15.9673 0.40625 17.6689 0.833927 19.1794 1.64378C20.69 2.45363 21.882 3.63657 22.6827 5.14711C23.4926 6.65762 23.9203 8.35922 23.9203 11.271V13.3821C23.9203 16.294 23.4926 17.9956 22.6827 19.5061C21.8729 21.0166 20.69 22.2087 19.1794 23.0094C17.6689 23.8193 15.9673 24.2469 13.0555 24.2469H10.9444C8.0326 24.2469 6.331 23.8193 4.82049 23.0094C3.30999 22.1995 2.11796 21.0166 1.31721 19.5061C0.507354 17.9956 0.0796814 16.294 0.0796814 13.3821V11.271C0.0796814 8.35922 0.507354 6.65762 1.31721 5.14711C2.12706 3.63657 3.30999 2.44454 4.82049 1.64378C6.32193 0.833927 8.0326 0.40625 10.9354 0.40625ZM3.73391 21.249C4.84891 21.3723 6.24292 21.0543 7.23273 20.5738C11.5308 22.9494 18.2494 22.836 22.3163 20.2333C22.474 19.9967 22.6214 19.7507 22.7581 19.4956C23.571 17.9796 24.0002 16.2718 24.0002 13.3493V11.2306C24.0002 8.30809 23.571 6.6003 22.7581 5.08428C21.9545 3.56826 20.7581 2.38102 19.2421 1.56821C17.7261 0.755407 16.0183 0.326172 13.0958 0.326172H10.9679C8.47891 0.326172 6.86313 0.639494 5.50555 1.23766C5.43134 1.30411 5.35852 1.3717 5.28724 1.44042C1.30432 5.27992 1.00155 13.6026 4.37893 18.1237C4.3827 18.1304 4.38687 18.1371 4.39146 18.1439C4.91203 18.9111 4.40973 20.2536 3.62432 21.0389C3.49646 21.1577 3.54212 21.2307 3.73391 21.249Z" fill="white"/>
<path d="M19.1794 1.64378L18.9432 2.08444L18.9432 2.08444L19.1794 1.64378ZM22.6827 5.14711L22.241 5.38129L22.2421 5.38337L22.6827 5.14711ZM19.1794 23.0094L18.9453 22.5676L18.9432 22.5687L19.1794 23.0094ZM4.82049 23.0094L4.58423 23.4501L4.58423 23.4501L4.82049 23.0094ZM1.31721 19.5061L1.75898 19.2719L1.75787 19.2698L1.31721 19.5061ZM1.31721 5.14711L1.75787 5.38337L1.75787 5.38336L1.31721 5.14711ZM4.82049 1.64378L5.05469 2.08556L5.05786 2.08385L4.82049 1.64378ZM3.73391 21.249L3.78886 20.752L3.78125 20.7512L3.73391 21.249ZM7.23273 20.5738L7.47461 20.1362L7.24765 20.0107L7.01436 20.124L7.23273 20.5738ZM22.3163 20.2333L22.5858 20.6545L22.6741 20.5979L22.7323 20.5107L22.3163 20.2333ZM22.7581 19.4956L22.3175 19.2593L22.3175 19.2593L22.7581 19.4956ZM22.7581 5.08428L22.3164 5.31847L22.3175 5.32055L22.7581 5.08428ZM19.2421 1.56821L19.4783 1.12755L19.4783 1.12755L19.2421 1.56821ZM5.50555 1.23766L5.30394 0.780104L5.23121 0.812151L5.172 0.865174L5.50555 1.23766ZM5.28724 1.44042L5.63425 1.8004L5.63428 1.80037L5.28724 1.44042ZM4.37893 18.1237L4.8143 17.8778L4.79861 17.85L4.7795 17.8245L4.37893 18.1237ZM4.39146 18.1439L3.9767 18.4232L3.97772 18.4247L4.39146 18.1439ZM3.62432 21.0389L3.96459 21.4053L3.97135 21.399L3.97787 21.3925L3.62432 21.0389ZM10.9354 0.90625H13.0555V-0.09375H10.9354V0.90625ZM13.0555 0.90625C15.9117 0.90625 17.5258 1.32451 18.9432 2.08444L19.4157 1.20312C17.8121 0.343346 16.0229 -0.09375 13.0555 -0.09375V0.90625ZM18.9432 2.08444C20.3683 2.84849 21.4878 3.96048 22.241 5.38129L23.1245 4.91292C22.2762 3.31266 21.0117 2.05878 19.4157 1.20312L18.9432 2.08444ZM22.2421 5.38337C23.002 6.80077 23.4203 8.41483 23.4203 11.271H24.4203C24.4203 8.30361 23.9832 6.51447 23.1234 4.91085L22.2421 5.38337ZM23.4203 11.271V13.3821H24.4203V11.271H23.4203ZM23.4203 13.3821C23.4203 16.2383 23.002 17.8524 22.2421 19.2698L23.1234 19.7423C23.9832 18.1387 24.4203 16.3496 24.4203 13.3821H23.4203ZM22.2421 19.2698C21.478 20.6949 20.366 21.8145 18.9453 22.5676L19.4136 23.4512C21.0139 22.6029 22.2677 21.3383 23.1234 19.7423L22.2421 19.2698ZM18.9432 22.5687C17.5258 23.3287 15.9117 23.7469 13.0555 23.7469V24.7469C16.0229 24.7469 17.8121 24.3098 19.4157 23.4501L18.9432 22.5687ZM13.0555 23.7469H10.9444V24.7469H13.0555V23.7469ZM10.9444 23.7469C8.08821 23.7469 6.47415 23.3287 5.05675 22.5687L4.58423 23.4501C6.18785 24.3098 7.97699 24.7469 10.9444 24.7469V23.7469ZM5.05675 22.5687C3.63169 21.8047 2.51216 20.6927 1.75897 19.2719L0.875445 19.7403C1.72376 21.3405 2.9883 22.5944 4.58423 23.4501L5.05675 22.5687ZM1.75787 19.2698C0.997935 17.8524 0.579681 16.2383 0.579681 13.3821H-0.420319C-0.420319 16.3496 0.0167725 18.1387 0.876549 19.7423L1.75787 19.2698ZM0.579681 13.3821V11.271H-0.420319V13.3821H0.579681ZM0.579681 11.271C0.579681 8.41482 0.997935 6.80077 1.75787 5.38337L0.876549 4.91085C0.0167725 6.51447 -0.420319 8.30361 -0.420319 11.271H0.579681ZM1.75787 5.38336C2.52192 3.95826 3.63391 2.83874 5.05468 2.08555L4.5863 1.20202C2.98608 2.05034 1.7322 3.31488 0.876547 4.91085L1.75787 5.38336ZM5.05786 2.08385C6.46527 1.32471 8.08764 0.90625 10.9354 0.90625V-0.09375C7.97756 -0.09375 6.17859 0.343148 4.58312 1.20372L5.05786 2.08385ZM3.67897 21.746C4.90689 21.8817 6.3957 21.5359 7.4511 21.0236L7.01436 20.124C6.09015 20.5727 4.79092 20.8628 3.78885 20.752L3.67897 21.746ZM6.99085 21.0114C9.2328 22.2506 12.0782 22.8285 14.8716 22.7703C17.6642 22.7122 20.4565 22.0172 22.5858 20.6545L22.0468 19.8122C20.1093 21.0521 17.5088 21.7152 14.8508 21.7705C12.1937 21.8258 9.53072 21.2726 7.47461 20.1362L6.99085 21.0114ZM22.7323 20.5107C22.8991 20.2605 23.0546 20.0007 23.1988 19.7318L22.3175 19.2593C22.1881 19.5006 22.049 19.7329 21.9003 19.956L22.7323 20.5107ZM23.1988 19.7319C24.0616 18.1227 24.5002 16.3274 24.5002 13.3493H23.5002C23.5002 16.2162 23.0804 17.8364 22.3175 19.2593L23.1988 19.7319ZM24.5002 13.3493V11.2306H23.5002V13.3493H24.5002ZM24.5002 11.2306C24.5002 8.25249 24.0616 6.45715 23.1988 4.84802L22.3175 5.32055C23.0804 6.74345 23.5002 8.36369 23.5002 11.2306H24.5002ZM23.1999 4.8501C22.3487 3.24435 21.0798 1.98616 19.4783 1.12755L19.0058 2.00887C20.4364 2.77588 21.5603 3.89218 22.3164 5.31847L23.1999 4.8501ZM19.4783 1.12755C17.8692 0.264826 16.0739 -0.173828 13.0958 -0.173828V0.826172C15.9627 0.826172 17.5829 1.24599 19.0058 2.00887L19.4783 1.12755ZM13.0958 -0.173828H10.9679V0.826172H13.0958V-0.173828ZM10.9679 -0.173828C8.43624 -0.173828 6.74566 0.14487 5.30394 0.780104L5.70715 1.69521C6.9806 1.13412 8.52157 0.826172 10.9679 0.826172V-0.173828ZM5.172 0.865174C5.09336 0.935587 5.01604 1.00735 4.94021 1.08047L5.63428 1.80037C5.701 1.73605 5.76931 1.67263 5.8391 1.61014L5.172 0.865174ZM4.94023 1.08044C2.82912 3.11553 1.72893 6.29417 1.57356 9.50229C1.41807 12.7127 2.20344 16.047 3.97836 18.4229L4.7795 17.8245C3.17704 15.6794 2.4251 12.5917 2.57239 9.55066C2.71978 6.50728 3.76244 3.6048 5.63425 1.8004L4.94023 1.08044ZM3.94356 18.3696C3.95434 18.3887 3.9655 18.4065 3.9767 18.4231L4.80622 17.8647C4.80824 17.8677 4.81106 17.8721 4.8143 17.8778L3.94356 18.3696ZM3.97772 18.4247C4.11775 18.631 4.15664 18.9805 4.01866 19.4411C3.88442 19.8892 3.60661 20.3496 3.27077 20.6854L3.97787 21.3925C4.42744 20.9429 4.79348 20.3394 4.9766 19.7281C5.15598 19.1293 5.18573 18.4239 4.8052 17.8632L3.97772 18.4247ZM3.28405 20.6726C3.22964 20.7231 3.15426 20.8034 3.10441 20.9145C3.04843 21.0391 3.01602 21.2309 3.12085 21.4221C3.2118 21.5879 3.35787 21.6608 3.43816 21.6917C3.52605 21.7256 3.6145 21.7399 3.68657 21.7467L3.78125 20.7512C3.75743 20.749 3.76826 20.7473 3.79764 20.7586C3.81942 20.767 3.92611 20.8108 3.99765 20.9412C4.08307 21.097 4.05123 21.2471 4.01666 21.3241C3.98821 21.3875 3.95508 21.4141 3.96459 21.4053L3.28405 20.6726Z" fill="white" mask="url(#path-1-inside-1_516_115)"/>
<path d="M9.87034 8.48633H5.20234V9.48727H8.44172L5.2478 13.4455C5.14772 13.5911 5.07495 13.7276 5.07495 14.037V14.2918H9.47905C9.69745 14.2918 9.87946 14.1098 9.87946 13.8914V13.3545H6.47626L9.47905 9.58735C9.52455 9.53278 9.60644 9.4327 9.64287 9.38719L9.66106 9.35988C9.83396 9.1051 9.87034 8.8867 9.87034 8.62284V8.48633Z" fill="white"/>
<path d="M15.812 14.2918H16.4762V8.48633H15.4753V13.9551C15.4753 14.1371 15.6209 14.2918 15.812 14.2918Z" fill="white"/>
<path d="M12.3907 9.77832C11.135 9.77832 10.1158 10.7975 10.1158 12.0532C10.1158 13.3089 11.135 14.328 12.3907 14.328C13.6464 14.328 14.6656 13.3089 14.6656 12.0532C14.6747 10.7975 13.6556 9.77832 12.3907 9.77832ZM12.3907 13.3908C11.6537 13.3908 11.0531 12.7902 11.0531 12.0532C11.0531 11.3161 11.6537 10.7156 12.3907 10.7156C13.1277 10.7156 13.7283 11.3161 13.7283 12.0532C13.7283 12.7902 13.1369 13.3908 12.3907 13.3908Z" fill="white"/>
<path d="M19.4336 9.74219C18.1688 9.74219 17.1406 10.7704 17.1406 12.0352C17.1406 13.3001 18.1688 14.3283 19.4336 14.3283C20.6984 14.3283 21.7267 13.3001 21.7267 12.0352C21.7267 10.7704 20.6984 9.74219 19.4336 9.74219ZM19.4336 13.3911C18.6875 13.3911 18.0869 12.7905 18.0869 12.0444C18.0869 11.2982 18.6875 10.6976 19.4336 10.6976C20.1798 10.6976 20.7804 11.2982 20.7804 12.0444C20.7804 12.7905 20.1798 13.3911 19.4336 13.3911Z" fill="white"/>
<path d="M14.139 14.2912H14.6759V9.90527H13.7386V13.9C13.7386 14.1093 13.9206 14.2912 14.139 14.2912Z" fill="white"/>
<path d="M19.1209 22.899L19.1204 22.8992C17.6332 23.6966 15.9534 24.1219 13.0555 24.1219H10.9444C8.0465 24.1219 6.36679 23.6966 4.87955 22.8992C3.39042 22.1008 2.21651 20.9356 1.42765 19.4475L1.42737 19.447C0.629999 17.9598 0.204681 16.2801 0.204681 13.3821V11.271C0.204681 8.37312 0.629999 6.69341 1.42737 5.20617L1.31721 5.14711L1.42738 5.20617C2.22518 3.71809 3.56937 2.39989 5.05854 1.61044L5.05933 1.61002C6.53399 0.814606 8.04074 0.53125 10.9354 0.53125H13.0555C15.9534 0.53125 17.6332 0.956572 19.1204 1.75395C20.6095 2.55235 21.7834 3.71755 22.5723 5.20565L22.5726 5.20617C23.3699 6.69341 23.7953 8.37312 23.7953 11.271V13.3821C23.7953 16.2801 23.3699 17.9598 22.5726 19.447C21.7742 20.9362 20.609 22.1101 19.1209 22.899Z" stroke="white" stroke-width="0.25"/>
</g>
<defs>
<clipPath id="clip0_516_115">
<rect width="24" height="24" fill="white" transform="translate(0 0.326172)"/>
</clipPath>
</defs>
</svg>
