<svg width="32" height="32" viewBox="0 0 32 32" fill="none" xmlns="http://www.w3.org/2000/svg">
<g clipPath="url(#clip0_4101_6621)">
<path fill-rule="evenodd" clip-rule="evenodd" d="M14.5805 0.106201H17.4074C21.2898 0.106201 23.5586 0.676437 25.5726 1.75625C27.5866 2.83605 29.176 4.4133 30.2436 6.42734C31.3235 8.44136 31.8937 10.7102 31.8937 14.5926V17.4074C31.8937 21.2898 31.3235 23.5586 30.2436 25.5726C29.1638 27.5866 27.5866 29.1761 25.5726 30.2437C23.5586 31.3235 21.2898 31.8938 17.4074 31.8938H14.5926C10.7101 31.8938 8.44134 31.3235 6.42732 30.2437C4.41333 29.1639 2.82395 27.5866 1.75628 25.5726C0.676477 23.5586 0.106247 21.2898 0.106247 17.4074V14.5926C0.106247 10.7102 0.676477 8.44136 1.75628 6.42734C2.83609 4.4133 4.41333 2.82392 6.42732 1.75625C8.42924 0.676437 10.7101 0.106201 14.5805 0.106201Z" fill="#0068FF"/>
<path opacity="0.12" fill-rule="evenodd" clip-rule="evenodd" d="M31.8935 16.9431V17.4076C31.8935 21.2901 31.3233 23.5589 30.2435 25.5729C29.1637 27.5869 27.5864 29.1763 25.5724 30.244C23.5584 31.3238 21.2896 31.894 17.4072 31.894H14.5924C11.4156 31.894 9.31917 31.5122 7.55866 30.7818L4.65625 27.7931L31.8935 16.9431Z" fill="#001A33"/>
<path fill-rule="evenodd" clip-rule="evenodd" d="M4.97856 27.8971C6.46521 28.0614 8.3239 27.6375 9.64364 26.9968C15.3744 30.1644 24.3326 30.0131 29.7551 26.5428C29.9654 26.2274 30.1619 25.8993 30.3442 25.5592C31.428 23.5379 32.0003 21.2608 32.0003 17.3642V14.5392C32.0003 10.6426 31.428 8.3655 30.3442 6.34415C29.2726 4.32279 27.6775 2.7398 25.6561 1.65605C23.6347 0.572313 21.3577 0 17.4611 0H14.6239C11.3052 0 9.15084 0.417763 7.34073 1.21532C7.24179 1.30392 7.1447 1.39404 7.04966 1.48566C1.73909 6.60499 1.33541 17.702 5.83858 23.73C5.84361 23.7389 5.84917 23.7479 5.85529 23.757C6.54937 24.7798 5.87964 26.5699 4.83243 27.617C4.66195 27.7754 4.72284 27.8728 4.97856 27.8971Z" fill="white"/>
<path d="M13.1604 10.88H6.93645V12.2146H11.2556L6.99706 17.4923C6.86362 17.6864 6.76659 17.8684 6.76659 18.2809V18.6206H12.6387C12.9299 18.6206 13.1726 18.378 13.1726 18.0868V17.3709H8.63501L12.6387 12.348C12.6994 12.2753 12.8086 12.1418 12.8572 12.0812L12.8814 12.0447C13.1119 11.705 13.1604 11.4138 13.1604 11.062V10.88Z" fill="#0068FF"/>
<path d="M21.0826 18.6206H21.9683V10.88H20.6337V18.1717C20.6337 18.4144 20.8278 18.6206 21.0826 18.6206Z" fill="#0068FF"/>
<path d="M16.521 12.6031C14.8467 12.6031 13.4878 13.962 13.4878 15.6363C13.4878 17.3106 14.8467 18.6695 16.521 18.6695C18.1953 18.6695 19.5541 17.3106 19.5541 15.6363C19.5663 13.962 18.2074 12.6031 16.521 12.6031ZM16.521 17.4198C15.5382 17.4198 14.7375 16.619 14.7375 15.6363C14.7375 14.6536 15.5382 13.8528 16.521 13.8528C17.5037 13.8528 18.3044 14.6536 18.3044 15.6363C18.3044 16.619 17.5158 17.4198 16.521 17.4198Z" fill="#0068FF"/>
<path d="M25.9115 12.5543C24.225 12.5543 22.8541 13.9253 22.8541 15.6117C22.8541 17.2982 24.225 18.6692 25.9115 18.6692C27.5979 18.6692 28.9689 17.2982 28.9689 15.6117C28.9689 13.9253 27.5979 12.5543 25.9115 12.5543ZM25.9115 17.4195C24.9166 17.4195 24.1158 16.6188 24.1158 15.6239C24.1158 14.629 24.9166 13.8282 25.9115 13.8282C26.9064 13.8282 27.7071 14.629 27.7071 15.6239C27.7071 16.6188 26.9064 17.4195 25.9115 17.4195Z" fill="#0068FF"/>
<path d="M18.852 18.6204H19.5678V12.7725H18.3181V18.0987C18.3181 18.3778 18.5608 18.6204 18.852 18.6204Z" fill="#0068FF"/>
</g>
<defs>
<clipPath id="clip0_4101_6621">
<rect width="32" height="32" fill="white"/>
</clipPath>
</defs>
</svg>
