<svg width="30" height="30" viewBox="0 0 30 30" fill="none" xmlns="http://www.w3.org/2000/svg">
<g clipPath="url(#clip0_529_4115)" filter="url(#filter0_dd_529_4115)">
<path fillRule="evenodd" clipRule="evenodd" d="M13.9354 2.07971H16.0555C18.9674 2.07971 20.669 2.50739 22.1795 3.31725C23.69 4.1271 24.882 5.31003 25.6828 6.82057C26.4926 8.33108 26.9203 10.0327 26.9203 12.9445V15.0556C26.9203 17.9674 26.4926 19.669 25.6828 21.1795C24.8729 22.69 23.69 23.8821 22.1795 24.6829C20.669 25.4927 18.9674 25.9204 16.0555 25.9204H13.9445C11.0326 25.9204 9.33103 25.4927 7.82052 24.6829C6.31002 23.873 5.11799 22.69 4.31724 21.1795C3.50738 19.669 3.07971 17.9674 3.07971 15.0556V12.9445C3.07971 10.0327 3.50738 8.33108 4.31724 6.82057C5.12709 5.31003 6.31002 4.118 7.82052 3.31725C9.32196 2.50739 11.0326 2.07971 13.9354 2.07971Z" fill="#0068FF"/>
<path opacity="0.12" fillRule="evenodd" clipRule="evenodd" d="M26.9201 14.7073V15.0557C26.9201 17.9675 26.4925 19.6691 25.6826 21.1796C24.8728 22.6901 23.6898 23.8821 22.1793 24.6829C20.6688 25.4928 18.9672 25.9205 16.0554 25.9205H13.9443C11.5617 25.9205 9.98938 25.6341 8.66899 25.0863L6.49219 22.8448L26.9201 14.7073Z" fill="#001A33"/>
<path fillRule="evenodd" clipRule="evenodd" d="M6.73394 22.9228C7.84894 23.0461 9.24295 22.7281 10.2328 22.2476C14.5308 24.6233 21.2495 24.5098 25.3163 21.9071C25.4741 21.6705 25.6214 21.4245 25.7582 21.1694C26.571 19.6534 27.0002 17.9456 27.0002 15.0232V12.9044C27.0002 9.98192 26.571 8.27413 25.7582 6.75811C24.9545 5.24209 23.7582 4.05485 22.2421 3.24204C20.7261 2.42923 19.0183 2 16.0959 2H13.968C11.4789 2 9.86316 2.31332 8.50558 2.91149C8.43137 2.97794 8.35855 3.04553 8.28727 3.11425C4.30435 6.95374 4.00158 15.2765 7.37896 19.7975C7.38273 19.8042 7.3869 19.8109 7.39149 19.8177C7.91206 20.5849 7.40976 21.9274 6.62435 22.7128C6.49649 22.8315 6.54216 22.9046 6.73394 22.9228Z" fill="white"/>
<path d="M12.8703 10.16H8.20234V11.161H11.4417L8.2478 15.1193C8.14772 15.2648 8.07495 15.4013 8.07495 15.7107V15.9655H12.479C12.6974 15.9655 12.8795 15.7835 12.8795 15.5651V15.0282H9.47626L12.479 11.2611C12.5246 11.2065 12.6064 11.1064 12.6429 11.0609L12.6611 11.0336C12.834 10.7788 12.8703 10.5604 12.8703 10.2965V10.16Z" fill="#0068FF"/>
<path d="M18.812 15.9655H19.4763V10.16H18.4753V15.6288C18.4753 15.8108 18.6209 15.9655 18.812 15.9655Z" fill="#0068FF"/>
<path d="M15.3907 11.4524C14.135 11.4524 13.1158 12.4715 13.1158 13.7273C13.1158 14.983 14.135 16.0021 15.3907 16.0021C16.6464 16.0021 17.6656 14.983 17.6656 13.7273C17.6747 12.4715 16.6556 11.4524 15.3907 11.4524ZM15.3907 15.0649C14.6537 15.0649 14.0531 14.4643 14.0531 13.7273C14.0531 12.9902 14.6537 12.3896 15.3907 12.3896C16.1277 12.3896 16.7283 12.9902 16.7283 13.7273C16.7283 14.4643 16.1369 15.0649 15.3907 15.0649Z" fill="#0068FF"/>
<path d="M22.4336 11.4158C21.1687 11.4158 20.1405 12.444 20.1405 13.7088C20.1405 14.9737 21.1687 16.0019 22.4336 16.0019C23.6984 16.0019 24.7266 14.9737 24.7266 13.7088C24.7266 12.444 23.6984 11.4158 22.4336 11.4158ZM22.4336 15.0647C21.6874 15.0647 21.0868 14.4641 21.0868 13.7179C21.0868 12.9718 21.6874 12.3712 22.4336 12.3712C23.1797 12.3712 23.7803 12.9718 23.7803 13.7179C23.7803 14.4641 23.1797 15.0647 22.4336 15.0647Z" fill="#0068FF"/>
<path d="M17.139 15.9653H17.6759V11.5793H16.7386V15.574C16.7386 15.7833 16.9206 15.9653 17.139 15.9653Z" fill="#0068FF"/>
</g>
<defs>
<filter id="filter0_dd_529_4115" x="0" y="0" width="30" height="30" filterUnits="userSpaceOnUse" color-interpolation-filters="sRGB">
<feFlood flood-opacity="0" result="BackgroundImageFix"/>
<feColorMatrix in="SourceAlpha" type="matrix" values="0 0 0 0 0 0 0 0 0 0 0 0 0 0 0 0 0 0 127 0" result="hardAlpha"/>
<feOffset dy="1"/>
<feGaussianBlur stdDeviation="1"/>
<feColorMatrix type="matrix" values="0 0 0 0 0.0705882 0 0 0 0 0.0705882 0 0 0 0 0.0901961 0 0 0 0.06 0"/>
<feBlend mode="normal" in2="BackgroundImageFix" result="effect1_dropShadow_529_4115"/>
<feColorMatrix in="SourceAlpha" type="matrix" values="0 0 0 0 0 0 0 0 0 0 0 0 0 0 0 0 0 0 127 0" result="hardAlpha"/>
<feOffset dy="1"/>
<feGaussianBlur stdDeviation="1.5"/>
<feColorMatrix type="matrix" values="0 0 0 0 0.0705882 0 0 0 0 0.0705882 0 0 0 0 0.0901961 0 0 0 0.1 0"/>
<feBlend mode="normal" in2="effect1_dropShadow_529_4115" result="effect2_dropShadow_529_4115"/>
<feBlend mode="normal" in="SourceGraphic" in2="effect2_dropShadow_529_4115" result="shape"/>
</filter>
<clipPath id="clip0_529_4115">
<rect width="24" height="24" fill="white" transform="translate(3 2)"/>
</clipPath>
</defs>
</svg>
