<svg width="50" height="46" viewBox="0 0 50 46" fill="none" xmlns="http://www.w3.org/2000/svg">
<path fillRule="evenodd" clipRule="evenodd" d="M22.616 0.15271H27.033C33.0993 0.15271 36.6443 0.972424 39.7912 2.52465C42.9381 4.07686 45.4215 6.34416 47.0897 9.23935C48.7769 12.1345 49.6679 15.3959 49.6679 20.9769V25.0231C49.6679 30.6041 48.7769 33.8655 47.0897 36.7607C45.4025 39.6558 42.9381 41.9407 39.7912 43.4754C36.6443 45.0276 33.0993 45.8473 27.033 45.8473H22.6349C16.5686 45.8473 13.0236 45.0276 9.87668 43.4754C6.72981 41.9232 4.24641 39.6558 2.57818 36.7607C0.890984 33.8655 0 30.6041 0 25.0231V20.9769C0 15.3959 0.890984 12.1345 2.57818 9.23935C4.26537 6.34416 6.72981 4.05943 9.87668 2.52465C13.0047 0.972424 16.5686 0.15271 22.616 0.15271Z" fill="#0068FF"/>
<path opacity="0.12" fillRule="evenodd" clipRule="evenodd" d="M49.6676 24.3557V25.0234C49.6676 30.6044 48.7767 33.8658 47.0895 36.761C45.4023 39.6561 42.9378 41.9409 39.7909 43.4757C36.644 45.0279 33.099 45.8476 27.0327 45.8476H22.6347C17.6709 45.8476 14.3952 45.2988 11.6444 44.2489L7.10938 39.9526L49.6676 24.3557Z" fill="#001A33"/>
<path fillRule="evenodd" clipRule="evenodd" d="M7.61298 40.1021C9.93588 40.3383 12.8401 39.7289 14.9022 38.8079C23.8565 43.3613 37.8537 43.1438 46.3263 38.1553C46.6549 37.7019 46.9619 37.2303 47.2468 36.7414C48.9402 33.8357 49.8344 30.5624 49.8344 24.9611V20.9001C49.8344 15.2987 48.9402 12.0254 47.2468 9.11971C45.5725 6.21401 43.0801 3.93846 39.9217 2.38057C36.7633 0.8227 33.2054 0 27.117 0H22.6839C17.4984 0 14.1322 0.600534 11.3039 1.74702C11.1493 1.87438 10.9976 2.00393 10.8491 2.13564C2.55132 9.49468 1.92056 25.4466 8.95677 34.1119C8.96462 34.1247 8.97331 34.1376 8.98287 34.1507C10.0674 35.621 9.02092 38.1942 7.38466 39.6995C7.11829 39.9271 7.21342 40.0671 7.61298 40.1021Z" fill="white"/>
<path d="M20.3971 15.64H10.6721V17.5585H17.4208L10.7668 25.1452C10.5583 25.4242 10.4067 25.6859 10.4067 26.2788V26.7671H19.5819C20.0369 26.7671 20.4161 26.4184 20.4161 25.9998V24.9707H13.3261L19.5819 17.7503C19.6767 17.6457 19.8473 17.4539 19.9232 17.3667L19.9611 17.3143C20.3213 16.826 20.3971 16.4074 20.3971 15.9017V15.64Z" fill="#0068FF"/>
<path d="M32.7756 26.7671H34.1595V15.64H32.0742V26.1219C32.0742 26.4707 32.3775 26.7671 32.7756 26.7671Z" fill="#0068FF"/>
<path d="M25.648 18.1171C23.0319 18.1171 20.9087 20.0704 20.9087 22.4772C20.9087 24.884 23.0319 26.8374 25.648 26.8374C28.2641 26.8374 30.3873 24.884 30.3873 22.4772C30.4063 20.0704 28.2831 18.1171 25.648 18.1171ZM25.648 25.041C24.1125 25.041 22.8613 23.8899 22.8613 22.4772C22.8613 21.0646 24.1125 19.9135 25.648 19.9135C27.1835 19.9135 28.4347 21.0646 28.4347 22.4772C28.4347 23.8899 27.2025 25.041 25.648 25.041Z" fill="#0068FF"/>
<path d="M40.3207 18.0469C37.6856 18.0469 35.5435 20.0177 35.5435 22.4419C35.5435 24.8662 37.6856 26.837 40.3207 26.837C42.9557 26.837 45.0979 24.8662 45.0979 22.4419C45.0979 20.0177 42.9557 18.0469 40.3207 18.0469ZM40.3207 25.0406C38.7662 25.0406 37.515 23.8895 37.515 22.4594C37.515 21.0292 38.7662 19.8781 40.3207 19.8781C41.8752 19.8781 43.1264 21.0292 43.1264 22.4594C43.1264 23.8895 41.8752 25.0406 40.3207 25.0406Z" fill="#0068FF"/>
<path d="M29.2902 26.7669H30.4087V18.3605H28.4561V26.017C28.4561 26.4181 28.8352 26.7669 29.2902 26.7669Z" fill="#0068FF"/>
</svg>
