<svg width="200" height="160" viewBox="0 0 200 160" fill="none" xmlns="http://www.w3.org/2000/svg">
<path d="M168.327 58.1977C167.609 58.1977 166.878 58.0476 166.182 57.7309C163.571 56.5443 162.417 53.4659 163.603 50.8552L185.109 3.5449C186.295 0.934144 189.375 -0.219875 191.984 0.966686C194.595 2.15325 195.749 5.23165 194.563 7.84241L173.057 55.1526C172.188 57.0664 170.301 58.1977 168.327 58.1977Z" fill="#505458"/>
<path d="M31.6727 58.1977C29.6993 58.1977 27.8125 57.0664 26.9427 55.1527L5.43733 7.84253C4.25077 5.23178 5.40516 2.15338 8.01554 0.96682C10.6254 -0.219127 13.7053 0.93427 14.8913 3.54502L36.3966 50.8553C37.5832 53.4661 36.4288 56.5445 33.8184 57.731C33.1217 58.0476 32.3916 58.1977 31.6727 58.1977Z" fill="#505458"/>
<path d="M59.2466 159.319H39.5233C37.874 159.319 36.3705 158.374 35.6553 156.887L32.7617 150.875H66.0083L63.1147 156.887C62.3993 158.374 60.8959 159.319 59.2466 159.319Z" fill="#FDA612"/>
<path d="M140.752 159.319H160.475C162.125 159.319 163.628 158.374 164.343 156.887L167.237 150.875H133.99L136.884 156.887C137.599 158.374 139.103 159.319 140.752 159.319Z" fill="#FDA612"/>
<path d="M11.2568 61.4724L23.4141 144.43C24.2966 150.452 29.4619 154.916 35.5482 154.916H164.452C170.538 154.916 175.704 150.452 176.586 144.43L188.743 61.4724H11.2568ZM50.3329 139.623L46.3949 140.152C44.9731 140.343 43.6657 139.346 43.4745 137.924L36.6329 87.0529C36.4417 85.6309 37.4393 84.3233 38.8611 84.1326L42.7992 83.6029C44.2209 83.4121 45.5285 84.4095 45.7195 85.8311L52.5614 136.702C52.7524 138.124 51.7546 139.432 50.3329 139.623ZM76.2929 139.749L72.3276 140.026C70.8964 140.125 69.6555 139.046 69.5558 137.615L66.0145 86.7775C65.9149 85.3464 66.994 84.1056 68.4251 84.0061L72.3904 83.7295C73.8215 83.6297 75.0624 84.709 75.1623 86.1401L78.7035 136.978C78.8032 138.409 77.7241 139.649 76.2929 139.749ZM102.244 139.878L98.2694 139.897C96.8348 139.904 95.6661 138.747 95.6592 137.312L95.4139 86.4874C95.407 85.0528 96.5643 83.8842 97.9987 83.8772L101.973 83.858C103.408 83.851 104.576 85.0081 104.583 86.4429L104.829 137.268C104.835 138.702 103.678 139.871 102.244 139.878ZM130.934 137.57C130.848 139.001 129.617 140.093 128.186 140.007L124.218 139.768C122.786 139.682 121.695 138.452 121.781 137.02L124.833 86.1857C124.919 84.7534 126.149 83.6623 127.581 83.7484L131.549 83.9867C132.981 84.0728 134.072 85.3033 133.986 86.7352L130.934 137.57ZM157.019 137.878C156.842 139.302 155.544 140.311 154.12 140.134L150.176 139.642C148.753 139.464 147.742 138.165 147.92 136.742L154.272 85.8772C154.449 84.4537 155.747 83.4437 157.171 83.6214L161.115 84.1137C162.538 84.2914 163.548 85.5892 163.371 87.013L157.019 137.878Z" fill="#FFDA71"/>
<path d="M12.9286 72.88H187.072L188.743 61.4725H11.2568L12.9286 72.88Z" fill="#FFBE38"/>
<path d="M191.487 66.8019H8.51335C3.81156 66.8019 0 62.9904 0 58.2886V50.6107C0 45.9089 3.81156 42.0973 8.51335 42.0973H191.487C196.188 42.0973 200 45.9089 200 50.6107V58.2886C200 62.9904 196.188 66.8019 191.487 66.8019Z" fill="#FDA612"/>
<path d="M31.6698 58.6297C34.3977 58.6297 36.6091 56.4183 36.6091 53.6904C36.6091 50.9625 34.3977 48.7511 31.6698 48.7511C28.9419 48.7511 26.7305 50.9625 26.7305 53.6904C26.7305 56.4183 28.9419 58.6297 31.6698 58.6297Z" fill="#505458"/>
<path d="M168.33 58.6297C171.058 58.6297 173.269 56.4183 173.269 53.6904C173.269 50.9625 171.058 48.7511 168.33 48.7511C165.602 48.7511 163.391 50.9625 163.391 53.6904C163.391 56.4183 165.602 58.6297 168.33 58.6297Z" fill="#505458"/>
</svg>
