<svg width="112" height="118" viewBox="0 0 112 118" fill="none" xmlns="http://www.w3.org/2000/svg">
<path d="M56 64C73.6731 64 88 60.866 88 57C88 53.134 73.6731 50 56 50C38.3269 50 24 53.134 24 57C24 60.866 38.3269 64 56 64Z" fill="#DCDFE1"/>
<path d="M79 36.76L68.854 25.258C68.367 24.474 67.656 24 66.907 24H45.093C44.344 24 43.633 24.474 43.146 25.257L33 36.761V46H79V36.76Z" stroke="#919BA0"/>
<path d="M65.613 39.931C65.613 38.326 66.607 37.001 67.84 37H79V55.137C79 57.26 77.68 59 76.05 59H35.95C34.32 59 33 57.259 33 55.137V37H44.16C45.393 37 46.387 38.323 46.387 39.928V39.95C46.387 41.555 47.392 42.851 48.624 42.851H63.376C64.608 42.851 65.613 41.543 65.613 39.938V39.931Z" fill="white" stroke="#919BA0"/>
<g clipPath="url(#clip0_1209_26261)">
<path d="M31.6709 88V77.8145H33.1748L37.3311 84.3564C37.4359 84.516 37.5635 84.7256 37.7139 84.9854C37.8643 85.2406 38.026 85.5277 38.1992 85.8467C38.377 86.1657 38.5501 86.5029 38.7188 86.8584L38.5479 86.9131C38.516 86.5531 38.4909 86.1976 38.4727 85.8467C38.459 85.4958 38.4499 85.1722 38.4453 84.876C38.4408 84.5752 38.4385 84.3291 38.4385 84.1377V77.8145H39.7168V88H38.1992L34.501 82.1826C34.346 81.9365 34.182 81.6722 34.0088 81.3896C33.8402 81.1071 33.6442 80.7721 33.4209 80.3848C33.2021 79.9974 32.9378 79.5303 32.6279 78.9834L32.8467 78.9082C32.8695 79.4186 32.8877 79.888 32.9014 80.3164C32.9196 80.7402 32.9333 81.1094 32.9424 81.4238C32.9515 81.7383 32.9561 81.9867 32.9561 82.1689V88H31.6709ZM45.0215 88.1641C44.3333 88.1641 43.7295 88.0023 43.21 87.6787C42.695 87.3506 42.2917 86.8926 42 86.3047C41.7129 85.7168 41.5693 85.0378 41.5693 84.2676C41.5693 83.4837 41.7129 82.7979 42 82.21C42.2917 81.6175 42.695 81.1595 43.21 80.8359C43.7295 80.5078 44.3333 80.3438 45.0215 80.3438C45.7096 80.3438 46.3135 80.5078 46.833 80.8359C47.3525 81.1595 47.7559 81.6175 48.043 82.21C48.3346 82.7979 48.4805 83.4837 48.4805 84.2676C48.4805 85.0378 48.3346 85.7168 48.043 86.3047C47.7559 86.8926 47.3525 87.3506 46.833 87.6787C46.3135 88.0023 45.7096 88.1641 45.0215 88.1641ZM45.0215 87.0771C45.5228 87.0771 45.9375 86.9495 46.2656 86.6943C46.5983 86.4391 46.8444 86.0996 47.0039 85.6758C47.168 85.2474 47.25 84.778 47.25 84.2676C47.25 83.7526 47.168 83.2809 47.0039 82.8525C46.8444 82.4196 46.5983 82.0755 46.2656 81.8203C45.9375 81.5605 45.5228 81.4307 45.0215 81.4307C44.5247 81.4307 44.1123 81.5605 43.7842 81.8203C43.4561 82.0755 43.21 82.4173 43.0459 82.8457C42.8818 83.2741 42.7998 83.748 42.7998 84.2676C42.7998 84.778 42.8818 85.2474 43.0459 85.6758C43.21 86.0996 43.4538 86.4391 43.7773 86.6943C44.1055 86.9495 44.5202 87.0771 45.0215 87.0771ZM56.8682 88.1572C56.2347 88.1572 55.6764 87.9977 55.1934 87.6787C54.7103 87.3551 54.332 86.9017 54.0586 86.3184C53.7897 85.7305 53.6553 85.0378 53.6553 84.2402C53.6553 83.4473 53.7897 82.7591 54.0586 82.1758C54.332 81.5924 54.7103 81.1413 55.1934 80.8223C55.681 80.5033 56.2393 80.3438 56.8682 80.3438C57.3239 80.3438 57.6976 80.4189 57.9893 80.5693C58.2809 80.7152 58.5133 80.8883 58.6865 81.0889C58.8597 81.2894 58.9964 81.474 59.0967 81.6426H59.1719V77.8145H60.3887V88H59.2129V86.8379H59.1035C58.9987 87.0111 58.8574 87.2002 58.6797 87.4053C58.502 87.6104 58.2673 87.7881 57.9756 87.9385C57.6839 88.0843 57.3148 88.1572 56.8682 88.1572ZM57.0459 87.0703C57.5062 87.0703 57.8958 86.9518 58.2148 86.7148C58.5384 86.4733 58.7845 86.1406 58.9531 85.7168C59.1217 85.2884 59.2061 84.7939 59.2061 84.2334C59.2061 83.6729 59.1217 83.1829 58.9531 82.7637C58.7891 82.3444 58.5452 82.0186 58.2217 81.7861C57.9027 81.5492 57.5107 81.4307 57.0459 81.4307C56.5811 81.4307 56.1868 81.5514 55.8633 81.793C55.5443 82.0345 55.3005 82.3672 55.1318 82.791C54.9678 83.2103 54.8857 83.6911 54.8857 84.2334C54.8857 84.7757 54.9678 85.2611 55.1318 85.6895C55.3005 86.1178 55.5465 86.4551 55.8701 86.7012C56.1937 86.9473 56.5856 87.0703 57.0459 87.0703ZM64.6133 88.1641C64.1302 88.1641 63.6927 88.0752 63.3008 87.8975C62.9134 87.7197 62.6035 87.4577 62.3711 87.1113C62.1432 86.765 62.0293 86.3434 62.0293 85.8467C62.0293 85.4137 62.1136 85.0628 62.2822 84.7939C62.4554 84.5251 62.6833 84.3132 62.9658 84.1582C63.2529 83.9987 63.5697 83.8802 63.916 83.8027C64.2669 83.7253 64.6201 83.6637 64.9756 83.6182C65.4359 83.5589 65.805 83.5133 66.083 83.4814C66.3656 83.4495 66.5729 83.3971 66.7051 83.3242C66.8418 83.2467 66.9102 83.1146 66.9102 82.9277V82.8799C66.9102 82.5745 66.8486 82.3125 66.7256 82.0938C66.6071 81.875 66.4294 81.7087 66.1924 81.5947C65.9554 81.4762 65.6615 81.417 65.3105 81.417C64.9505 81.417 64.6406 81.474 64.3809 81.5879C64.1257 81.6973 63.916 81.8408 63.752 82.0186C63.5924 82.1917 63.4808 82.3763 63.417 82.5723L62.2344 82.2646C62.3893 81.8044 62.624 81.4352 62.9385 81.1572C63.2529 80.8747 63.613 80.6696 64.0186 80.542C64.4287 80.4098 64.8503 80.3438 65.2832 80.3438C65.5749 80.3438 65.8848 80.3825 66.2129 80.46C66.541 80.5329 66.8486 80.6628 67.1357 80.8496C67.4274 81.0365 67.6644 81.3031 67.8467 81.6494C68.029 81.9912 68.1201 82.4333 68.1201 82.9756V88H66.9238V86.9609H66.8555C66.7689 87.1387 66.6322 87.321 66.4453 87.5078C66.2585 87.6947 66.0146 87.8519 65.7139 87.9795C65.4131 88.1025 65.0462 88.1641 64.6133 88.1641ZM64.8115 87.084C65.2718 87.084 65.6569 86.9974 65.9668 86.8242C66.2767 86.6465 66.5114 86.4163 66.6709 86.1338C66.8304 85.8512 66.9102 85.555 66.9102 85.2451V84.2197C66.86 84.2744 66.7552 84.3245 66.5957 84.3701C66.4408 84.4157 66.2585 84.4567 66.0488 84.4932C65.8438 84.5296 65.6387 84.5615 65.4336 84.5889C65.2331 84.6117 65.0622 84.6322 64.9209 84.6504C64.6292 84.6868 64.3558 84.7507 64.1006 84.8418C63.8454 84.9284 63.6403 85.056 63.4854 85.2246C63.3304 85.3932 63.2529 85.6211 63.2529 85.9082C63.2529 86.1634 63.319 86.3799 63.4512 86.5576C63.5879 86.7308 63.7725 86.863 64.0049 86.9541C64.2373 87.0407 64.5062 87.084 64.8115 87.084ZM73.2266 80.4531V81.4922H69.2822V80.4531H73.2266ZM70.458 78.6006H71.6748V86.0723C71.6748 86.3958 71.7409 86.6328 71.873 86.7832C72.0098 86.929 72.2376 87.002 72.5566 87.002C72.6387 87.002 72.7389 86.9951 72.8574 86.9814C72.9805 86.9678 73.0921 86.9541 73.1924 86.9404L73.3906 87.9658C73.263 88.0023 73.1195 88.0296 72.96 88.0479C72.805 88.0661 72.6523 88.0752 72.502 88.0752C71.8503 88.0752 71.3467 87.9089 70.9912 87.5762C70.6357 87.2435 70.458 86.7741 70.458 86.168V78.6006ZM76.9727 88.1641C76.4896 88.1641 76.0521 88.0752 75.6602 87.8975C75.2728 87.7197 74.9629 87.4577 74.7305 87.1113C74.5026 86.765 74.3887 86.3434 74.3887 85.8467C74.3887 85.4137 74.473 85.0628 74.6416 84.7939C74.8148 84.5251 75.0426 84.3132 75.3252 84.1582C75.6123 83.9987 75.929 83.8802 76.2754 83.8027C76.6263 83.7253 76.9795 83.6637 77.335 83.6182C77.7952 83.5589 78.1644 83.5133 78.4424 83.4814C78.7249 83.4495 78.9323 83.3971 79.0645 83.3242C79.2012 83.2467 79.2695 83.1146 79.2695 82.9277V82.8799C79.2695 82.5745 79.208 82.3125 79.085 82.0938C78.9665 81.875 78.7887 81.7087 78.5518 81.5947C78.3148 81.4762 78.0208 81.417 77.6699 81.417C77.3099 81.417 77 81.474 76.7402 81.5879C76.485 81.6973 76.2754 81.8408 76.1113 82.0186C75.9518 82.1917 75.8402 82.3763 75.7764 82.5723L74.5938 82.2646C74.7487 81.8044 74.9834 81.4352 75.2979 81.1572C75.6123 80.8747 75.9723 80.6696 76.3779 80.542C76.7881 80.4098 77.2096 80.3438 77.6426 80.3438C77.9342 80.3438 78.2441 80.3825 78.5723 80.46C78.9004 80.5329 79.208 80.6628 79.4951 80.8496C79.7868 81.0365 80.0238 81.3031 80.2061 81.6494C80.3883 81.9912 80.4795 82.4333 80.4795 82.9756V88H79.2832V86.9609H79.2148C79.1283 87.1387 78.9915 87.321 78.8047 87.5078C78.6178 87.6947 78.374 87.8519 78.0732 87.9795C77.7725 88.1025 77.4056 88.1641 76.9727 88.1641ZM77.1709 87.084C77.6312 87.084 78.0163 86.9974 78.3262 86.8242C78.6361 86.6465 78.8708 86.4163 79.0303 86.1338C79.1898 85.8512 79.2695 85.555 79.2695 85.2451V84.2197C79.2194 84.2744 79.1146 84.3245 78.9551 84.3701C78.8001 84.4157 78.6178 84.4567 78.4082 84.4932C78.2031 84.5296 77.998 84.5615 77.793 84.5889C77.5924 84.6117 77.4215 84.6322 77.2803 84.6504C76.9886 84.6868 76.7152 84.7507 76.46 84.8418C76.2048 84.9284 75.9997 85.056 75.8447 85.2246C75.6898 85.3932 75.6123 85.6211 75.6123 85.9082C75.6123 86.1634 75.6784 86.3799 75.8105 86.5576C75.9473 86.7308 76.1318 86.863 76.3643 86.9541C76.5967 87.0407 76.8656 87.084 77.1709 87.084Z" fill="#919BA0"/>
</g>
<defs>
<clipPath id="clip0_1209_26261">
<rect width="80" height="22" fill="white" transform="translate(16 72)"/>
</clipPath>
</defs>
</svg>
