<svg width="30" height="31" viewBox="0 0 30 31" fill="none" xmlns="http://www.w3.org/2000/svg">
<g clipPath="url(#clip0_1185_63973)" filter="url(#filter0_dd_1185_63973)">
<path fillRule="evenodd" clipRule="evenodd" d="M13.9354 2.48975H16.0555C18.9673 2.48975 20.6689 2.91742 22.1794 3.72728C23.69 4.53713 24.882 5.72007 25.6827 7.2306C26.4926 8.74111 26.9203 10.4427 26.9203 13.3545V15.4656C26.9203 18.3774 26.4926 20.0791 25.6827 21.5896C24.8729 23.1001 23.69 24.2922 22.1794 25.0929C20.6689 25.9027 18.9673 26.3304 16.0555 26.3304H13.9444C11.0326 26.3304 9.331 25.9027 7.82049 25.0929C6.30999 24.283 5.11796 23.1001 4.31721 21.5896C3.50735 20.0791 3.07968 18.3774 3.07968 15.4656V13.3545C3.07968 10.4427 3.50735 8.74111 4.31721 7.2306C5.12706 5.72007 6.30999 4.52803 7.82049 3.72728C9.32193 2.91742 11.0326 2.48975 13.9354 2.48975Z" fill="#0068FF"/>
<path opacity="0.12" fillRule="evenodd" clipRule="evenodd" d="M26.9201 15.1173V15.4657C26.9201 18.3775 26.4925 20.0791 25.6826 21.5896C24.8728 23.1001 23.6898 24.2922 22.1793 25.093C20.6688 25.9028 18.9672 26.3305 16.0554 26.3305H13.9443C11.5617 26.3305 9.98938 26.0441 8.66899 25.4963L6.49219 23.2548L26.9201 15.1173Z" fill="#001A33"/>
<path fillRule="evenodd" clipRule="evenodd" d="M6.73391 23.3328C7.84891 23.4561 9.24292 23.1382 10.2327 22.6576C14.5308 25.0333 21.2494 24.9198 25.3163 22.3172C25.474 22.0806 25.6214 21.8345 25.7581 21.5795C26.571 20.0634 27.0002 18.3556 27.0002 15.4332V13.3144C27.0002 10.392 26.571 8.68416 25.7581 7.16814C24.9545 5.65213 23.7581 4.46488 22.2421 3.65207C20.7261 2.83927 19.0183 2.41003 16.0958 2.41003H13.9679C11.4789 2.41003 9.86313 2.72336 8.50555 3.32152C8.43134 3.38797 8.35852 3.45556 8.28724 3.52428C4.30432 7.36378 4.00155 15.6865 7.37893 20.2076C7.3827 20.2142 7.38687 20.221 7.39146 20.2278C7.91203 20.9949 7.40972 22.3374 6.62432 23.1228C6.49646 23.2416 6.54212 23.3146 6.73391 23.3328Z" fill="white"/>
<path d="M12.8703 10.5701H8.20234V11.571H11.4417L8.2478 15.5293C8.14772 15.6749 8.07495 15.8114 8.07495 16.1207V16.3755H12.479C12.6974 16.3755 12.8795 16.1936 12.8795 15.9752V15.4383H9.47626L12.479 11.6711C12.5246 11.6165 12.6064 11.5164 12.6429 11.4709L12.6611 11.4436C12.834 11.1888 12.8703 10.9704 12.8703 10.7066V10.5701Z" fill="#0068FF"/>
<path d="M18.812 16.3755H19.4762V10.5701H18.4753V16.0389C18.4753 16.2209 18.6209 16.3755 18.812 16.3755Z" fill="#0068FF"/>
<path d="M15.3907 11.8624C14.135 11.8624 13.1158 12.8816 13.1158 14.1373C13.1158 15.393 14.135 16.4122 15.3907 16.4122C16.6464 16.4122 17.6656 15.393 17.6656 14.1373C17.6747 12.8816 16.6556 11.8624 15.3907 11.8624ZM15.3907 15.4749C14.6537 15.4749 14.0531 14.8743 14.0531 14.1373C14.0531 13.4003 14.6537 12.7997 15.3907 12.7997C16.1277 12.7997 16.7283 13.4003 16.7283 14.1373C16.7283 14.8743 16.1369 15.4749 15.3907 15.4749Z" fill="#0068FF"/>
<path d="M22.4336 11.8258C21.1688 11.8258 20.1406 12.8541 20.1406 14.1189C20.1406 15.3837 21.1688 16.412 22.4336 16.412C23.6984 16.412 24.7267 15.3837 24.7267 14.1189C24.7267 12.8541 23.6984 11.8258 22.4336 11.8258ZM22.4336 15.4747C21.6875 15.4747 21.0869 14.8741 21.0869 14.128C21.0869 13.3818 21.6875 12.7812 22.4336 12.7812C23.1798 12.7812 23.7804 13.3818 23.7804 14.128C23.7804 14.8741 23.1798 15.4747 22.4336 15.4747Z" fill="#0068FF"/>
<path d="M17.139 16.3753H17.6759V11.9894H16.7386V15.9841C16.7386 16.1934 16.9206 16.3753 17.139 16.3753Z" fill="#0068FF"/>
</g>
<defs>
<filter id="filter0_dd_1185_63973" x="0" y="0.410034" width="30" height="30" filterUnits="userSpaceOnUse" color-interpolation-filters="sRGB">
<feFlood flood-opacity="0" result="BackgroundImageFix"/>
<feColorMatrix in="SourceAlpha" type="matrix" values="0 0 0 0 0 0 0 0 0 0 0 0 0 0 0 0 0 0 127 0" result="hardAlpha"/>
<feOffset dy="1"/>
<feGaussianBlur stdDeviation="1"/>
<feColorMatrix type="matrix" values="0 0 0 0 0.0705882 0 0 0 0 0.0705882 0 0 0 0 0.0901961 0 0 0 0.06 0"/>
<feBlend mode="normal" in2="BackgroundImageFix" result="effect1_dropShadow_1185_63973"/>
<feColorMatrix in="SourceAlpha" type="matrix" values="0 0 0 0 0 0 0 0 0 0 0 0 0 0 0 0 0 0 127 0" result="hardAlpha"/>
<feOffset dy="1"/>
<feGaussianBlur stdDeviation="1.5"/>
<feColorMatrix type="matrix" values="0 0 0 0 0.0705882 0 0 0 0 0.0705882 0 0 0 0 0.0901961 0 0 0 0.1 0"/>
<feBlend mode="normal" in2="effect1_dropShadow_1185_63973" result="effect2_dropShadow_1185_63973"/>
<feBlend mode="normal" in="SourceGraphic" in2="effect2_dropShadow_1185_63973" result="shape"/>
</filter>
<clipPath id="clip0_1185_63973">
<rect width="24" height="24" fill="white" transform="translate(3 2.41003)"/>
</clipPath>
</defs>
</svg>
