<svg width="64" height="64" viewBox="0 0 64 64" fill="none" xmlns="http://www.w3.org/2000/svg">
<path opacity="0.2" d="M60 32L42 48H22L4 32L22 16H42L60 32Z" fill="url(#paint0_linear_1442_5940)"/>
<path d="M23.3275 17.5L6.99998 32L23.3175 46.5C23.5145 46.6744 23.6752 46.8858 23.7905 47.1222C23.9057 47.3587 23.9733 47.6155 23.9893 47.8781C24.0053 48.1406 23.9695 48.4038 23.8838 48.6525C23.7981 48.9012 23.6643 49.1305 23.49 49.3275C23.3156 49.5245 23.1042 49.6852 22.8678 49.8005C22.6313 49.9158 22.3745 49.9834 22.112 49.9994C21.8494 50.0154 21.5863 49.9795 21.3376 49.8939C21.0889 49.8082 20.8595 49.6744 20.6625 49.5L2.66248 33.5C2.44966 33.3123 2.27922 33.0815 2.16248 32.8229C2.04573 32.5643 1.98535 32.2838 1.98535 32C1.98535 31.7163 2.04573 31.4358 2.16248 31.1772C2.27922 30.9185 2.44966 30.6877 2.66248 30.5L20.6625 14.5C20.8595 14.325 21.089 14.1906 21.3379 14.1043C21.5869 14.018 21.8504 13.9816 22.1134 13.9972C22.3764 14.0127 22.6338 14.0799 22.8709 14.1949C23.1079 14.31 23.32 14.4705 23.495 14.6675C23.67 14.8645 23.8044 15.094 23.8907 15.343C23.977 15.5919 24.0134 15.8555 23.9979 16.1185C23.9823 16.3815 23.9151 16.6389 23.8001 16.8759C23.685 17.113 23.5245 17.325 23.3275 17.5ZM61.3275 30.5L43.3275 14.5C42.9297 14.148 42.4083 13.9683 41.878 14.0007C41.3477 14.033 40.8521 14.2747 40.5 14.6725C40.1479 15.0704 39.9683 15.5917 40.0006 16.122C40.033 16.6523 40.2747 17.148 40.6725 17.5L57 32L40.6825 46.5C40.4855 46.6744 40.3248 46.8858 40.2095 47.1222C40.0942 47.3587 40.0266 47.6155 40.0106 47.8781C39.9946 48.1406 40.0305 48.4038 40.1161 48.6525C40.2018 48.9012 40.3356 49.1305 40.51 49.3275C40.6843 49.5245 40.8957 49.6852 41.1322 49.8005C41.3686 49.9158 41.6254 49.9834 41.888 49.9994C42.1506 50.0154 42.4137 49.9795 42.6624 49.8939C42.9111 49.8082 43.1405 49.6744 43.3375 49.5L61.3375 33.5C61.5503 33.3123 61.7207 33.0815 61.8375 32.8229C61.9542 32.5643 62.0146 32.2838 62.0146 32C62.0146 31.7163 61.9542 31.4358 61.8375 31.1772C61.7207 30.9185 61.5503 30.6877 61.3375 30.5H61.3275Z" fill="url(#paint1_linear_1442_5940)"/>
<defs>
<linearGradient id="paint0_linear_1442_5940" x1="32" y1="16" x2="32" y2="48" gradientUnits="userSpaceOnUse">
<stop stopColor="#9DFFB3"/>
<stop offset="1" stopColor="#1AA37A"/>
</linearGradient>
<linearGradient id="paint1_linear_1442_5940" x1="32" y1="13.9937" x2="32" y2="50.0031" gradientUnits="userSpaceOnUse">
<stop stopColor="#9DFFB3"/>
<stop offset="1" stopColor="#1AA37A"/>
</linearGradient>
</defs>
</svg>
