<svg width="64" height="64" viewBox="0 0 64 64" fill="none" xmlns="http://www.w3.org/2000/svg">
<path opacity="0.2" d="M4 38H12V52H4C3.46957 52 2.96086 51.7893 2.58579 51.4142C2.21071 51.0391 2 50.5304 2 50V40C2 39.4695 2.21071 38.9608 2.58579 38.5858C2.96086 38.2107 3.46957 38 4 38ZM51 14C49.9621 14.0006 48.9374 14.232 48 14.6775C47.9319 13.1761 47.3825 11.7366 46.4329 10.5717C45.4834 9.4068 44.1841 8.57845 42.7273 8.20914C41.2705 7.83984 39.7335 7.94919 38.3437 8.52103C36.9539 9.09287 35.785 10.0968 35.0099 11.3844C34.2348 12.672 33.8947 14.1749 34.0399 15.6707C34.1851 17.1666 34.8078 18.576 35.816 19.6905C36.8243 20.805 38.1644 21.5654 39.6382 21.8593C41.1121 22.1533 42.6414 21.965 44 21.3225C44.0631 22.6914 44.5267 24.0117 45.3333 25.1197C46.1398 26.2276 47.2538 27.0745 48.5371 27.5552C49.8205 28.0359 51.2167 28.1293 52.5527 27.8239C53.8886 27.5185 55.1055 26.8276 56.0525 25.837C56.9995 24.8464 57.6348 23.5997 57.8798 22.2513C58.1248 20.903 57.9686 19.5124 57.4306 18.252C56.8926 16.9916 55.9965 15.9168 54.8534 15.161C53.7103 14.4051 52.3704 14.0014 51 14Z" fill="url(#paint0_linear_1442_5932)"/>
<path d="M57.5825 35.265C56.8383 34.6924 55.972 34.2991 55.0511 34.1157C54.1301 33.9323 53.1793 33.9637 52.2725 34.2075L41.8125 36.6125C42.0559 35.5845 42.0634 34.5147 41.8345 33.4834C41.6056 32.452 41.1462 31.4859 40.4909 30.6573C39.8355 29.8288 39.001 29.1593 38.0501 28.6991C37.0992 28.2389 36.0564 27.9999 35 28H22.485C21.434 27.9974 20.3929 28.203 19.4218 28.6051C18.4508 29.0072 17.569 29.5977 16.8275 30.3425L11.1725 36H4C2.93913 36 1.92172 36.4214 1.17157 37.1716C0.421427 37.9217 0 38.9391 0 40L0 50C0 51.0609 0.421427 52.0783 1.17157 52.8284C1.92172 53.5786 2.93913 54 4 54H30C30.1635 54.0001 30.3264 53.9799 30.485 53.94L46.485 49.94C46.587 49.9157 46.6866 49.8823 46.7825 49.84L56.5 45.705L56.61 45.655C57.5439 45.1883 58.3437 44.4916 58.9339 43.6304C59.5241 42.7692 59.8854 41.772 59.9837 40.7326C60.082 39.6932 59.914 38.6459 59.4957 37.6893C59.0774 36.7328 58.4224 35.8985 57.5925 35.265H57.5825ZM4 40H10V50H4V40ZM54.8575 42.0525L45.3575 46.0975L29.75 50H14V38.8275L19.6575 33.1725C20.0276 32.7995 20.4681 32.5037 20.9535 32.3024C21.4389 32.1011 21.9595 31.9983 22.485 32H35C35.7957 32 36.5587 32.3161 37.1213 32.8787C37.6839 33.4413 38 34.2044 38 35C38 35.7957 37.6839 36.5587 37.1213 37.1213C36.5587 37.6839 35.7957 38 35 38H28C27.4696 38 26.9609 38.2107 26.5858 38.5858C26.2107 38.9609 26 39.4696 26 40C26 40.5304 26.2107 41.0391 26.5858 41.4142C26.9609 41.7893 27.4696 42 28 42H36C36.1505 41.9996 36.3006 41.9828 36.4475 41.95L53.1975 38.0975L53.275 38.0775C53.7863 37.9356 54.3321 37.9877 54.8073 38.224C55.2824 38.4602 55.6535 38.8638 55.8489 39.3572C56.0444 39.8505 56.0505 40.3987 55.8661 40.8963C55.6817 41.3939 55.3198 41.8057 54.85 42.0525H54.8575ZM41 24C41.4941 24.0006 41.9875 23.9604 42.475 23.88C43.0234 25.5089 44.0267 26.9466 45.3663 28.0234C46.7059 29.1001 48.3259 29.7707 50.0345 29.956C51.7432 30.1412 53.4692 29.8333 55.0085 29.0687C56.5477 28.3041 57.8358 27.1147 58.7206 25.6413C59.6053 24.1678 60.0496 22.4718 60.001 20.7538C59.9524 19.0357 59.4128 17.3676 58.4462 15.9465C57.4795 14.5254 56.1262 13.4108 54.5462 12.7345C52.9661 12.0582 51.2255 11.8484 49.53 12.13C49.002 10.5606 48.0512 9.16732 46.7824 8.10345C45.5135 7.03957 43.9758 6.34636 42.3384 6.1001C40.701 5.85383 39.0274 6.06407 37.5017 6.70766C35.9761 7.35126 34.6576 8.40327 33.6913 9.74791C32.725 11.0926 32.1484 12.6777 32.0249 14.3289C31.9015 15.9802 32.2359 17.6334 32.9915 19.1068C33.7471 20.5802 34.8945 21.8166 36.3075 22.6799C37.7204 23.5432 39.3442 24 41 24ZM56 21C56 21.9889 55.7068 22.9556 55.1573 23.7779C54.6079 24.6001 53.827 25.241 52.9134 25.6194C51.9998 25.9978 50.9945 26.0969 50.0245 25.9039C49.0546 25.711 48.1637 25.2348 47.4645 24.5355C46.7652 23.8363 46.289 22.9454 46.0961 21.9755C45.9031 21.0056 46.0022 20.0002 46.3806 19.0866C46.759 18.173 47.3999 17.3921 48.2221 16.8427C49.0444 16.2932 50.0111 16 51 16C52.3261 16 53.5979 16.5268 54.5355 17.4645C55.4732 18.4022 56 19.6739 56 21ZM41 10C42.0908 10.0005 43.1514 10.3578 44.0203 11.0172C44.8892 11.6766 45.5185 12.6021 45.8125 13.6525C44.7882 14.3732 43.9256 15.2998 43.2798 16.373C42.6341 17.4462 42.2195 18.6424 42.0625 19.885C41.7133 19.9604 41.3572 19.999 41 20C39.6739 20 38.4021 19.4732 37.4645 18.5355C36.5268 17.5979 36 16.3261 36 15C36 13.6739 36.5268 12.4022 37.4645 11.4645C38.4021 10.5268 39.6739 10 41 10Z" fill="url(#paint1_linear_1442_5932)"/>
<defs>
<linearGradient id="paint0_linear_1442_5932" x1="29.9963" y1="7.99451" x2="29.9963" y2="52" gradientUnits="userSpaceOnUse">
<stop stopColor="#9DFFB3"/>
<stop offset="1" stopColor="#1AA37A"/>
</linearGradient>
<linearGradient id="paint1_linear_1442_5932" x1="30.0055" y1="6" x2="30.0055" y2="54" gradientUnits="userSpaceOnUse">
<stop stopColor="#9DFFB3"/>
<stop offset="1" stopColor="#1AA37A"/>
</linearGradient>
</defs>
</svg>
