<svg width="64" height="64" viewBox="0 0 64 64" fill="none" xmlns="http://www.w3.org/2000/svg">
<path opacity="0.2" d="M20 36V46C20 47.0609 19.5786 48.0783 18.8284 48.8284C18.0783 49.5786 17.0609 50 16 50H12C10.9391 50 9.92172 49.5786 9.17157 48.8284C8.42143 48.0783 8 47.0609 8 46V32H16C17.0609 32 18.0783 32.4214 18.8284 33.1716C19.5786 33.9217 20 34.9391 20 36ZM48 32C46.9391 32 45.9217 32.4214 45.1716 33.1716C44.4214 33.9217 44 34.9391 44 36V46C44 47.0609 44.4214 48.0783 45.1716 48.8284C45.9217 49.5786 46.9391 50 48 50H56V32H48Z" fill="url(#paint0_linear_1442_7841)"/>
<path d="M50.4725 13.6649C46.8402 10.0114 42.2051 7.51838 37.1546 6.50176C32.104 5.48513 26.8653 5.99068 22.1023 7.95434C17.3394 9.918 13.2666 13.2514 10.4 17.5321C7.53335 21.8128 6.00202 26.8481 6 31.9999V45.9999C6 47.5912 6.63214 49.1174 7.75736 50.2426C8.88258 51.3678 10.4087 51.9999 12 51.9999H16C17.5913 51.9999 19.1174 51.3678 20.2426 50.2426C21.3679 49.1174 22 47.5912 22 45.9999V35.9999C22 34.4086 21.3679 32.8825 20.2426 31.7573C19.1174 30.6321 17.5913 29.9999 16 29.9999H10.09C10.4757 25.8298 12.0421 21.856 14.6056 18.5442C17.169 15.2325 20.6234 12.72 24.5637 11.3014C28.5041 9.88269 32.7672 9.61658 36.8534 10.5342C40.9396 11.4518 44.6796 13.5152 47.635 16.4824C51.2472 20.1132 53.4691 24.8976 53.9125 29.9999H48C46.4087 29.9999 44.8826 30.6321 43.7574 31.7573C42.6321 32.8825 42 34.4086 42 35.9999V45.9999C42 47.5912 42.6321 49.1174 43.7574 50.2426C44.8826 51.3678 46.4087 51.9999 48 51.9999H54C54 53.5912 53.3679 55.1174 52.2426 56.2426C51.1174 57.3678 49.5913 57.9999 48 57.9999H34C33.4696 57.9999 32.9609 58.2107 32.5858 58.5857C32.2107 58.9608 32 59.4695 32 59.9999C32 60.5304 32.2107 61.0391 32.5858 61.4142C32.9609 61.7892 33.4696 61.9999 34 61.9999H48C50.6522 61.9999 53.1957 60.9464 55.0711 59.071C56.9464 57.1957 58 54.6521 58 51.9999V31.9999C58.013 28.5989 57.3548 25.2287 56.0631 22.0824C54.7714 18.9362 52.8716 16.0757 50.4725 13.6649ZM16 33.9999C16.5304 33.9999 17.0391 34.2107 17.4142 34.5857C17.7893 34.9608 18 35.4695 18 35.9999V45.9999C18 46.5304 17.7893 47.0391 17.4142 47.4142C17.0391 47.7892 16.5304 47.9999 16 47.9999H12C11.4696 47.9999 10.9609 47.7892 10.5858 47.4142C10.2107 47.0391 10 46.5304 10 45.9999V33.9999H16ZM48 47.9999C47.4696 47.9999 46.9609 47.7892 46.5858 47.4142C46.2107 47.0391 46 46.5304 46 45.9999V35.9999C46 35.4695 46.2107 34.9608 46.5858 34.5857C46.9609 34.2107 47.4696 33.9999 48 33.9999H54V47.9999H48Z" fill="url(#paint1_linear_1442_7841)"/>
<defs>
<linearGradient id="paint0_linear_1442_7841" x1="32" y1="32" x2="32" y2="50" gradientUnits="userSpaceOnUse">
<stop stopColor="#9DFFB3"/>
<stop offset="1" stopColor="#1AA37A"/>
</linearGradient>
<linearGradient id="paint1_linear_1442_7841" x1="32.0001" y1="5.99011" x2="32.0001" y2="62" gradientUnits="userSpaceOnUse">
<stop stopColor="#9DFFB3"/>
<stop offset="1" stopColor="#1AA37A"/>
</linearGradient>
</defs>
</svg>
