<svg width="56" height="56" viewBox="0 0 56 56" fill="none" xmlns="http://www.w3.org/2000/svg">
<path d="M52.465 21.705C51.5225 20.72 50.5475 19.705 50.18 18.8125C49.84 17.995 49.82 16.64 49.8 15.3275C49.7625 12.8875 49.7225 10.1225 47.8 8.2C45.8775 6.2775 43.1125 6.2375 40.6725 6.2C39.36 6.18 38.005 6.16 37.1875 5.82C36.2975 5.4525 35.28 4.4775 34.295 3.535C32.57 1.8775 30.61 0 28 0C25.39 0 23.4325 1.8775 21.705 3.535C20.72 4.4775 19.705 5.4525 18.8125 5.82C18 6.16 16.64 6.18 15.3275 6.2C12.8875 6.2375 10.1225 6.2775 8.2 8.2C6.2775 10.1225 6.25 12.8875 6.2 15.3275C6.18 16.64 6.16 17.995 5.82 18.8125C5.4525 19.7025 4.4775 20.72 3.535 21.705C1.8775 23.43 0 25.39 0 28C0 30.61 1.8775 32.5675 3.535 34.295C4.4775 35.28 5.4525 36.295 5.82 37.1875C6.16 38.005 6.18 39.36 6.2 40.6725C6.2375 43.1125 6.2775 45.8775 8.2 47.8C10.1225 49.7225 12.8875 49.7625 15.3275 49.8C16.64 49.82 17.995 49.84 18.8125 50.18C19.7025 50.5475 20.72 51.5225 21.705 52.465C23.43 54.1225 25.39 56 28 56C30.61 56 32.5675 54.1225 34.295 52.465C35.28 51.5225 36.295 50.5475 37.1875 50.18C38.005 49.84 39.36 49.82 40.6725 49.8C43.1125 49.7625 45.8775 49.7225 47.8 47.8C49.7225 45.8775 49.7625 43.1125 49.8 40.6725C49.82 39.36 49.84 38.005 50.18 37.1875C50.5475 36.2975 51.5225 35.28 52.465 34.295C54.1225 32.57 56 30.61 56 28C56 25.39 54.1225 23.4325 52.465 21.705ZM49.5775 31.5275C48.38 32.7775 47.14 34.07 46.4825 35.6575C45.8525 37.1825 45.825 38.925 45.8 40.6125C45.775 42.3625 45.7475 44.195 44.97 44.97C44.1925 45.745 42.3725 45.775 40.6125 45.8C38.925 45.825 37.1825 45.8525 35.6575 46.4825C34.07 47.14 32.7775 48.38 31.5275 49.5775C30.2775 50.775 29 52 28 52C27 52 25.7125 50.77 24.4725 49.5775C23.2325 48.385 21.93 47.14 20.3425 46.4825C18.8175 45.8525 17.075 45.825 15.3875 45.8C13.6375 45.775 11.805 45.7475 11.03 44.97C10.255 44.1925 10.225 42.3725 10.2 40.6125C10.175 38.925 10.1475 37.1825 9.5175 35.6575C8.86 34.07 7.62 32.7775 6.4225 31.5275C5.225 30.2775 4 29 4 28C4 27 5.23 25.7125 6.4225 24.4725C7.615 23.2325 8.86 21.93 9.5175 20.3425C10.1475 18.8175 10.175 17.075 10.2 15.3875C10.225 13.6375 10.2525 11.805 11.03 11.03C11.8075 10.255 13.6275 10.225 15.3875 10.2C17.075 10.175 18.8175 10.1475 20.3425 9.5175C21.93 8.86 23.2225 7.62 24.4725 6.4225C25.7225 5.225 27 4 28 4C29 4 30.2875 5.23 31.5275 6.4225C32.7675 7.615 34.07 8.86 35.6575 9.5175C37.1825 10.1475 38.925 10.175 40.6125 10.2C42.3625 10.225 44.195 10.2525 44.97 11.03C45.745 11.8075 45.775 13.6275 45.8 15.3875C45.825 17.075 45.8525 18.8175 46.4825 20.3425C47.14 21.93 48.38 23.2225 49.5775 24.4725C50.775 25.7225 52 27 52 28C52 29 50.77 30.2875 49.5775 31.5275ZM39.415 20.585C39.601 20.7707 39.7485 20.9913 39.8491 21.2341C39.9498 21.4769 40.0016 21.7372 40.0016 22C40.0016 22.2628 39.9498 22.5231 39.8491 22.7659C39.7485 23.0087 39.601 23.2293 39.415 23.415L25.415 37.415C25.2293 37.601 25.0087 37.7485 24.7659 37.8491C24.5231 37.9498 24.2628 38.0016 24 38.0016C23.7372 38.0016 23.4769 37.9498 23.2341 37.8491C22.9913 37.7485 22.7707 37.601 22.585 37.415L16.585 31.415C16.2097 31.0397 15.9989 30.5307 15.9989 30C15.9989 29.4693 16.2097 28.9603 16.585 28.585C16.9603 28.2097 17.4693 27.9989 18 27.9989C18.5307 27.9989 19.0397 28.2097 19.415 28.585L24 33.1725L36.585 20.585C36.7707 20.399 36.9913 20.2515 37.2341 20.1509C37.4769 20.0502 37.7372 19.9984 38 19.9984C38.2628 19.9984 38.5231 20.0502 38.7659 20.1509C39.0087 20.2515 39.2293 20.399 39.415 20.585Z" fill="url(#paint0_linear_1442_5896)"/>
<defs>
<linearGradient id="paint0_linear_1442_5896" x1="28" y1="0" x2="28" y2="56" gradientUnits="userSpaceOnUse">
<stop stopColor="#9DFFB3"/>
<stop offset="1" stopColor="#1AA37A"/>
</linearGradient>
</defs>
</svg>
