<svg width="54" height="31" viewBox="0 0 54 31" fill="none" xmlns="http://www.w3.org/2000/svg">
<path d="M52.5099 11.013C52.6835 11.2278 52.9983 11.2612 53.2131 11.0876C53.4279 10.914 53.4613 10.5992 53.2877 10.3844L52.5099 11.013ZM3.60206 30.8029C3.76915 31.0227 4.08283 31.0655 4.30268 30.8984L7.88541 28.1755C8.10526 28.0084 8.14803 27.6947 7.98094 27.4749C7.81385 27.255 7.50017 27.2123 7.28032 27.3794L4.09568 29.7997L1.67533 26.6151C1.50824 26.3952 1.19456 26.3524 0.97471 26.5195C0.754857 26.6866 0.712084 27.0003 0.879174 27.2201L3.60206 30.8029ZM53.2877 10.3844C46.2123 1.62922 34.9031 -1.73819 24.7813 1.29612C14.6362 4.3374 5.77624 13.7745 3.50473 30.4328L4.49556 30.5679C6.7239 14.2263 15.3638 5.16325 25.0684 2.254C34.7963 -0.662217 45.6865 2.56949 52.5099 11.013L53.2877 10.3844Z" fill="#4D5F6E"/>
</svg>
