<svg width="66" height="75" viewBox="0 0 66 75" fill="none" xmlns="http://www.w3.org/2000/svg">
<path d="M1.50235 18.1039C1.54025 18.6549 2.01763 19.0708 2.56861 19.0329L11.5474 18.4154C12.0984 18.3775 12.5143 17.9001 12.4764 17.3491C12.4385 16.7981 11.9611 16.3822 11.4102 16.4201L3.42902 16.969L2.88007 8.9879C2.84217 8.43691 2.36479 8.02097 1.8138 8.05887C1.26282 8.09677 0.846882 8.57415 0.88478 9.12513L1.50235 18.1039ZM60.8882 74.9945C64.7656 67.4982 65.7866 56.9594 64.5244 46.254C63.2599 35.5298 59.6876 24.489 54.2175 15.9341C48.7565 7.39335 41.2983 1.18152 32.2331 0.483572C23.1581 -0.215126 12.8449 4.63994 1.74603 17.3784L3.25396 18.6922C14.1551 6.18069 23.9045 1.84826 32.0795 2.47767C40.2643 3.10783 47.2435 8.73971 52.5325 17.0114C57.8124 25.2689 61.3026 36.0094 62.5381 46.4882C63.7759 56.9858 62.7343 67.072 59.1118 74.0756L60.8882 74.9945Z" fill="#4D5F6E"/>
</svg>
