<svg width="14" height="15" viewBox="0 0 14 15" fill="none" xmlns="http://www.w3.org/2000/svg">
<path d="M10.9375 4.17813V9.86563C10.9375 9.98166 10.8914 10.0929 10.8094 10.175C10.7273 10.257 10.616 10.3031 10.5 10.3031C10.384 10.3031 10.2727 10.257 10.1906 10.175C10.1086 10.0929 10.0625 9.98166 10.0625 9.86563V5.23415L3.80953 11.4877C3.72744 11.5698 3.6161 11.6159 3.5 11.6159C3.3839 11.6159 3.27256 11.5698 3.19047 11.4877C3.10838 11.4056 3.06226 11.2942 3.06226 11.1781C3.06226 11.062 3.10838 10.9507 3.19047 10.8686L9.44398 4.61563H4.8125C4.69647 4.61563 4.58519 4.56954 4.50314 4.48749C4.42109 4.40544 4.375 4.29416 4.375 4.17813C4.375 4.0621 4.42109 3.95082 4.50314 3.86877C4.58519 3.78672 4.69647 3.74063 4.8125 3.74063H10.5C10.616 3.74063 10.7273 3.78672 10.8094 3.86877C10.8914 3.95082 10.9375 4.0621 10.9375 4.17813Z" fill="white"/>
</svg>
