<svg width="24" height="24" viewBox="0 0 24 24" fill="none" xmlns="http://www.w3.org/2000/svg">
<path d="M17.0306 12.5306L9.53063 20.0306C9.42573 20.1356 9.29204 20.2072 9.14648 20.2362C9.00092 20.2651 8.85002 20.2503 8.71291 20.1935C8.57579 20.1367 8.45861 20.0404 8.37621 19.917C8.29381 19.7936 8.24988 19.6484 8.25 19.5V4.50001C8.24988 4.35159 8.29381 4.20647 8.37621 4.08302C8.45861 3.95958 8.57579 3.86336 8.71291 3.80654C8.85002 3.74973 9.00092 3.73488 9.14648 3.76386C9.29204 3.79285 9.42573 3.86438 9.53063 3.96939L17.0306 11.4694C17.1004 11.539 17.1557 11.6218 17.1934 11.7128C17.2312 11.8039 17.2506 11.9015 17.2506 12C17.2506 12.0986 17.2312 12.1962 17.1934 12.2872C17.1557 12.3783 17.1004 12.461 17.0306 12.5306Z" fill="#33404A"/>
</svg>
