<svg width="20" height="20" viewBox="0 0 20 20" fill="none" xmlns="http://www.w3.org/2000/svg">
<path d="M9.97091 8.42088V11.7542M9.97091 11.7542L11.2501 10.4167C11.7284 9.95696 12.3097 9.61809 12.9454 9.4283C13.5812 9.23852 14.2531 9.20329 14.9052 9.32556C15.5573 9.44783 16.1708 9.72407 16.6946 10.1313C17.2184 10.5385 17.6374 11.0649 17.9167 11.6667M9.97091 11.7542H13.3042M14.9709 15.0875H18.3042M18.3042 15.0875L17.0251 16.425C16.5467 16.8848 15.9655 17.2237 15.3297 17.4134C14.694 17.6032 14.0221 17.6385 13.37 17.5162C12.7179 17.3939 12.1044 17.1177 11.5806 16.7105C11.0567 16.3033 10.6377 15.7769 10.3584 15.175M18.3042 15.0875V18.4209M1.66675 7.35004C3.95851 5.30023 6.92536 4.16699 10.0001 4.16699C13.0748 4.16699 16.0417 5.30023 18.3334 7.35004M4.16675 10.7167C4.89002 10.0047 5.73725 9.43088 6.66675 9.02338M7.08341 13.6909H7.09175" stroke="#33404A" stroke-width="1.1" stroke-linecap="round" stroke-linejoin="round"/>
</svg>
