<svg width="20" height="20" viewBox="0 0 20 20" fill="none" xmlns="http://www.w3.org/2000/svg">
<path d="M16.04 4C16.3 4 16.547 4.052 16.781 4.156C17.0157 4.26067 17.224 4.404 17.406 4.586C17.5887 4.768 17.732 4.97633 17.836 5.211C17.94 5.445 17.9947 5.695 18 5.961V11C18 11.354 17.9113 11.6873 17.734 12C17.5622 12.3081 17.3081 12.5622 17 12.734V14.5C17 14.7033 16.961 14.896 16.883 15.078C16.7309 15.4417 16.4417 15.7309 16.078 15.883C15.8913 15.9663 15.6987 16.0053 15.5 16H11.5C11.4343 16.0007 11.3692 15.988 11.3087 15.9625C11.2481 15.9371 11.1934 15.8994 11.148 15.852L10 14.703L8.852 15.852C8.80658 15.8994 8.7519 15.9371 8.69135 15.9625C8.6308 15.988 8.56568 16.0007 8.5 16H4.5C4.29667 16 4.104 15.961 3.922 15.883C3.55831 15.7309 3.26912 15.4417 3.117 15.078C3.03424 14.8968 2.99421 14.6991 3 14.5V12.734C2.69547 12.5599 2.44413 12.3062 2.273 12C2.09825 11.6954 2.00427 11.3512 2 11V5.96C2 5.7 2.052 5.453 2.156 5.219C2.2602 4.98629 2.40591 4.7745 2.586 4.594C2.7665 4.41391 2.97829 4.2682 3.211 4.164C3.44693 4.059 3.70178 4.0032 3.96 4H16.04ZM17 6C17.0008 5.86831 16.9743 5.73788 16.922 5.617C16.8709 5.49881 16.7995 5.3905 16.711 5.297C16.6215 5.20162 16.5123 5.12688 16.391 5.078C16.2672 5.02602 16.1342 4.99949 16 5H4C3.86933 4.99849 3.7397 5.0234 3.6189 5.07324C3.49809 5.12307 3.3886 5.1968 3.297 5.29C3.20563 5.38286 3.13148 5.49121 3.078 5.61C3.02152 5.732 2.99479 5.86566 3 6V11C3 11.14 3.026 11.27 3.078 11.39C3.13067 11.51 3.201 11.6167 3.289 11.71C3.3761 11.8033 3.48308 11.8757 3.602 11.922C3.722 11.9687 3.85467 11.9947 4 12H16C16.1307 12.0015 16.2603 11.9766 16.3811 11.9268C16.5019 11.8769 16.6114 11.8032 16.703 11.71C16.7917 11.622 16.8647 11.5153 16.922 11.39C16.9785 11.268 17.0052 11.1343 17 11V6ZM15 6C15.1317 5.99917 15.2621 6.02573 15.383 6.078C15.503 6.13067 15.6097 6.201 15.703 6.289C15.7984 6.37849 15.8731 6.48769 15.922 6.609C15.974 6.73433 16 6.86467 16 7V10C16.0015 10.1307 15.9766 10.2603 15.9268 10.3811C15.8769 10.5019 15.8032 10.6114 15.71 10.703C15.6171 10.7944 15.5088 10.8685 15.39 10.922C15.268 10.9785 15.1343 11.0052 15 11H5C4.86609 11.0004 4.73347 10.9739 4.61 10.922C4.49181 10.8709 4.3835 10.7995 4.29 10.711C4.19673 10.6239 4.12428 10.5169 4.078 10.398C4.02961 10.2707 4.00323 10.1361 4 10V7C3.99849 6.86933 4.0234 6.7397 4.07324 6.6189C4.12307 6.49809 4.1968 6.3886 4.29 6.297C4.38286 6.20563 4.49121 6.13148 4.61 6.078C4.732 6.02152 4.86566 5.99479 5 6H15ZM7.5 7H5V10H7.5V7ZM11.5 10V7H8.5V10H11.5ZM12.5 10H15V7H12.5V10ZM16 13H4V14.5C4 14.6353 4.04933 14.7527 4.148 14.852C4.19342 14.8994 4.2481 14.9371 4.30865 14.9625C4.3692 14.988 4.43432 15.0007 4.5 15H8.297L9.648 13.648C9.69342 13.6006 9.7481 13.5629 9.80865 13.5375C9.8692 13.512 9.93432 13.4993 10 13.5C10.0657 13.4993 10.1308 13.512 10.1913 13.5375C10.2519 13.5629 10.3066 13.6006 10.352 13.648L11.71 15H15.5C15.5657 15.0007 15.6308 14.988 15.6913 14.9625C15.7519 14.9371 15.8066 14.8994 15.852 14.852C15.8994 14.8066 15.9371 14.7519 15.9625 14.6913C15.988 14.6308 16.0007 14.5657 16 14.5V13Z" fill="#33404A"/>
</svg>
