<svg width="118" height="46" viewBox="0 0 118 46" fill="none" xmlns="http://www.w3.org/2000/svg">
<path d="M110.091 17.9928C111.553 18.2922 112.646 19.7402 112.301 21.3345C112.012 22.6642 110.77 23.5727 109.409 23.5727H95.4224V29.2083H109.527C109.569 29.2083 109.607 29.2083 109.645 29.2048C112.59 29.0134 114.912 26.5663 114.912 23.5727C114.912 20.7358 112.82 18.3862 110.091 17.9928ZM109.269 17.9302C109.221 17.9302 109.172 17.9302 109.127 17.9337H109.416C109.367 17.9302 109.318 17.9302 109.269 17.9302Z" fill="white"/>
<path d="M67.725 13.8785V34.8474H62.0581V20.346L66.7051 13.5687C66.7051 13.5687 66.7086 13.5617 66.7121 13.5582C66.733 13.5304 66.7538 13.5025 66.7817 13.4782C66.8757 13.3877 67.0045 13.3285 67.1472 13.3215H67.1924C67.37 13.3285 67.5266 13.4225 67.6241 13.5582C67.6275 13.5617 67.631 13.5652 67.631 13.5687C67.6902 13.6592 67.725 13.7636 67.725 13.8785Z" fill="white"/>
<path d="M59.6947 22.6538H53.2063C52.7538 22.6538 52.3465 22.4519 52.075 22.1316L50.8428 20.5583V13.8819C50.8428 13.5721 51.0934 13.325 51.3997 13.325C51.5877 13.325 51.7548 13.4189 51.8557 13.5617C51.8592 13.5651 51.8627 13.5686 51.8627 13.5721L56.454 19.4304L58.4694 22.0028C58.5007 22.0481 58.5321 22.0899 58.5669 22.1316C58.8384 22.4519 59.2457 22.6538 59.6982 22.6538H59.6947Z" fill="white"/>
<path d="M67.1475 13.3215C67.0048 13.3285 66.876 13.3877 66.782 13.4782C66.7541 13.5025 66.7333 13.5304 66.7124 13.5582C66.7089 13.5617 66.7054 13.5652 66.7054 13.5687L62.0584 20.346L60.9236 22.0029C60.8923 22.0481 60.861 22.0899 60.8227 22.1317C60.5547 22.4519 60.1474 22.6538 59.6949 22.6538C59.2424 22.6538 58.8351 22.4519 58.5636 22.1317C58.5288 22.0899 58.4974 22.0481 58.4661 22.0029L56.4507 19.4305L61.0385 13.5722C61.0385 13.5722 61.042 13.5652 61.0455 13.5617C61.1464 13.419 61.3135 13.325 61.5015 13.325H66.8725L67.1475 13.3215Z" fill="white"/>
<path d="M33.5114 21.6338C33.4348 22.0411 33.3478 22.4448 33.2399 22.8417C32.2479 26.5976 29.94 29.8243 26.835 31.9895C25.3487 33.0268 23.6918 33.8135 21.9444 34.3043C21.0394 34.5584 20.1099 34.7324 19.1736 34.8229C18.1641 34.9239 17.1268 34.8438 16.1069 34.8751C14.2446 34.9273 12.4729 35.1362 10.7046 35.7488C9.15209 36.2884 7.68313 37.0681 6.36039 38.0497C4.79051 39.2158 3.54435 40.6395 2.43046 42.2338C1.80738 43.184 1.28526 44.2005 0.874512 45.2761C1.46278 42.286 2.47921 39.4456 3.85416 36.8279C3.8646 36.8035 3.87852 36.7792 3.88896 36.7548C4.14307 36.271 4.41109 35.7906 4.68956 35.3207C4.70001 35.2998 4.71394 35.2824 4.72439 35.265C5.58765 33.9144 6.66671 32.717 7.9094 31.718C9.30872 30.5901 10.9099 29.7164 12.6225 29.1595C14.5405 28.5364 16.5351 28.4668 18.5296 28.2997C21.3492 28.063 24.2174 27.2311 26.842 26.1972C26.8525 26.1972 26.8629 26.1903 26.8699 26.1833C27.4198 25.9849 27.9629 25.7552 28.4815 25.4976C30.403 24.5543 32.1121 23.2315 33.5045 21.6338H33.5114Z" fill="white"/>
<path d="M48.5557 0C48.5557 0 48.5522 0.0243663 48.5488 0.0382899C48.4478 0.574348 48.3295 1.11041 48.1937 1.63254C46.8466 6.72858 43.7138 11.1006 39.5089 14.035C37.3333 15.5492 34.8862 16.6735 32.3104 17.3175C29.3969 18.0485 26.3824 17.8431 23.4062 18.0589C16.5071 18.5532 10.224 22.0828 6.42638 27.9168C5.58401 29.2117 4.87042 30.6006 4.31348 32.066C5.13497 27.889 6.56215 23.9347 8.50449 20.2902C8.78993 19.7576 9.0858 19.232 9.39212 18.7133C10.5895 16.7884 12.1003 15.0758 13.8581 13.659C15.6856 12.1901 17.7602 11.0414 19.9775 10.2861C23.166 9.20002 26.5181 9.32185 29.8041 8.81364C33.1284 8.29846 36.3935 7.41432 39.5228 6.18208C39.5332 6.17512 39.5471 6.16815 39.5611 6.16467C40.3617 5.87576 41.1449 5.54159 41.9002 5.16217C44.4448 3.88468 46.7074 2.12335 48.5557 0Z" fill="white"/>
<path d="M48.5557 0C48.5557 0 48.5522 0.0243663 48.5488 0.0382899C46.8292 3.63754 44.4622 6.73554 41.6392 9.09907C39.3313 11.031 36.7381 12.4616 34.009 13.2831C30.918 14.216 27.7191 13.9514 24.5619 14.223C17.245 14.853 10.5826 19.3503 6.55518 26.7786C5.66059 28.432 4.90175 30.2003 4.31348 32.066C5.13497 27.889 6.56215 23.9347 8.50449 20.2902C8.78993 19.7576 9.0858 19.232 9.39212 18.7133C10.5895 16.7884 12.1003 15.0758 13.8581 13.659C15.6856 12.1901 17.7602 11.0414 19.9775 10.2861C23.166 9.20002 26.5181 9.32185 29.8041 8.81364C33.1284 8.29846 36.3935 7.41432 39.5228 6.18208C39.5332 6.17512 39.5471 6.16815 39.5611 6.16467C40.3617 5.87576 41.1449 5.54159 41.9002 5.16217C44.4448 3.88468 46.7074 2.12335 48.5557 0Z" fill="white"/>
<path d="M33.5113 21.6339C33.5113 21.6339 33.5113 21.6513 33.5078 21.6617C32.2408 24.3176 30.4934 26.6011 28.4118 28.345C26.7096 29.7687 24.7986 30.8234 22.7832 31.4326C20.5032 32.1218 18.1431 31.9269 15.8144 32.1253C10.419 32.5882 5.50398 35.9055 2.53477 41.3845C1.8734 42.6028 1.31646 43.9081 0.881348 45.2831C1.48702 42.2025 2.53826 39.2855 3.97239 36.5982C4.18124 36.2049 4.40054 35.8185 4.6268 35.4356C5.51095 34.0154 6.62484 32.7518 7.91974 31.7076C9.26684 30.625 10.7984 29.7757 12.4345 29.2187C14.7875 28.4181 17.259 28.5086 19.6817 28.1327C22.1322 27.7533 24.541 27.0989 26.8489 26.1903C26.8558 26.1869 26.8663 26.1799 26.8767 26.1764C27.4685 25.9641 28.0463 25.7169 28.6032 25.4385C30.4794 24.4952 32.1503 23.1968 33.5113 21.6304V21.6339Z" fill="white"/>
<path d="M87.0617 26.2842H87.0687C88.7395 25.6925 89.9335 24.0982 89.9335 22.229C89.9335 19.8515 88.005 17.9231 85.6276 17.9231C85.5371 17.9231 85.4431 17.9266 85.3526 17.9335H85.7251C86.3377 17.9335 86.9156 18.2816 87.1453 18.849C87.5282 19.8028 86.7415 20.7391 85.826 20.7391H75.9716C72.8423 20.7391 70.3047 23.2767 70.3047 26.406V34.8472H75.9716V26.3747H80.2496L86.1532 34.8472H93.0002L87.0617 26.2842Z" fill="white"/>
<path d="M92.6346 17.5262C93.7242 21.5919 91.0021 25.6054 87.0687 26.2842C88.7395 25.6924 89.9335 24.0982 89.9335 22.2289C89.9335 19.8515 88.005 17.9231 85.6276 17.9231C85.5371 17.9231 85.4431 17.9265 85.3526 17.9335H75.9716C72.8423 17.9335 70.3047 15.3959 70.3047 12.2666H85.6032C88.8544 12.2666 91.7957 14.3865 92.6381 17.5262H92.6346Z" fill="white"/>
<path d="M117.999 20.7843C117.975 25.3686 114.223 29.1454 109.645 29.2046C112.59 29.0131 114.912 26.5661 114.912 23.5725C114.912 20.7356 112.82 18.3859 110.091 17.9926C110.08 17.9891 110.073 17.9856 110.063 17.9856C109.889 17.9508 109.708 17.9334 109.527 17.9334H109.416C109.367 17.9299 109.318 17.9299 109.269 17.9299C109.221 17.9299 109.172 17.9299 109.127 17.9334H95.4224V12.2979H109.36C114.028 12.2979 118.024 16.1164 117.999 20.7843Z" fill="white"/>
<path d="M75.9716 26.3748V34.8473H70.3047V32.0417C70.3047 28.9123 72.8423 26.3748 75.9716 26.3748Z" fill="white"/>
<path d="M51.3962 13.325C51.0899 13.325 50.8393 13.5721 50.8393 13.8819V34.8474H45.1724V13.8715C45.1724 13.8401 45.1759 13.8123 45.1793 13.7809C45.1793 13.7775 45.1793 13.774 45.1828 13.7705C45.2037 13.6661 45.2559 13.5651 45.336 13.4851C45.4369 13.3841 45.5622 13.3319 45.6945 13.325H51.3962Z" fill="white"/>
<path d="M101.058 17.9336H95.4224V34.8473H101.058V17.9336Z" fill="white"/>
<path d="M37.3195 34.8471C37.2325 34.8402 37.149 34.8297 37.0689 34.8158C36.0421 34.6522 35.1684 34.0256 34.6775 33.1519C34.5731 32.9709 34.4861 32.776 34.42 32.5741C34.3329 32.3235 34.2772 32.0554 34.2563 31.7839C35.9446 31.7909 37.3126 33.1624 37.323 34.8471H37.3195Z" fill="white"/>
<path d="M36.1985 31.14C36.1985 31.3767 36.2194 31.6099 36.2681 31.8397C36.0349 31.683 35.7843 31.5543 35.5197 31.4533C35.4606 31.0843 35.464 30.7084 35.5371 30.3359C35.7808 30.3986 36.0175 30.4891 36.2368 30.6109C36.2089 30.785 36.1985 30.959 36.1985 31.14Z" fill="white"/>
<path d="M38.0368 32.6891C37.9776 32.7901 37.908 32.891 37.8384 32.9885C37.7688 33.0825 37.6922 33.173 37.6086 33.26C37.0656 32.6926 36.7593 31.9338 36.7593 31.1401C36.7593 30.3465 37.0656 29.5877 37.6086 29.0203C38.1516 29.5911 38.458 30.35 38.458 31.1401C38.458 31.6901 38.3118 32.2227 38.0402 32.6891H38.0368Z" fill="white"/>
<path d="M39.0149 31.14C39.0149 30.9624 39.0009 30.7849 38.9766 30.6109C39.1959 30.4925 39.4326 30.402 39.6762 30.3394C39.7493 30.7083 39.7528 31.0843 39.6936 31.4498C39.4291 31.5472 39.1785 31.676 38.9487 31.8292C38.994 31.6029 39.0149 31.3732 39.0149 31.14Z" fill="white"/>
<path d="M37.793 28.4215L37.6085 28.2579L37.424 28.4215C36.9262 28.8636 36.5677 29.4275 36.3693 30.0506C36.0595 29.9009 35.7253 29.793 35.3772 29.7373L35.1335 29.6955L35.0639 29.9322C34.9351 30.3778 34.8934 30.8373 34.9351 31.2863C34.7158 31.2445 34.4861 31.2237 34.2563 31.2202C34.3991 29.4971 35.8402 28.1431 37.6015 28.1431C39.3628 28.1431 40.8039 29.4971 40.9466 31.2202C40.7204 31.2202 40.4976 31.2411 40.2853 31.2828C40.327 30.8338 40.2853 30.3743 40.1565 29.9288L40.0869 29.6921L39.8432 29.7338C39.4951 29.7895 39.1609 29.8974 38.8511 30.0471C38.6562 29.424 38.2942 28.8601 37.7964 28.4181L37.793 28.4215Z" fill="white"/>
<path d="M40.9431 31.7805C40.9222 32.0555 40.8665 32.3201 40.7795 32.5707C40.7133 32.7726 40.6263 32.9675 40.5219 33.152C40.0311 34.0187 39.1678 34.6453 38.1514 34.8124C38.0609 34.8263 37.9704 34.8402 37.8799 34.8472C37.8799 34.2833 38.0365 33.7542 38.308 33.3017C38.3637 33.2042 38.4264 33.1102 38.496 33.0162C39.0529 32.2713 39.9441 31.7875 40.9431 31.784V31.7805Z" fill="white"/>
<path d="M37.8384 32.9883C37.9115 32.8943 37.9776 32.7934 38.0368 32.689C37.9637 32.7829 37.8976 32.8839 37.8384 32.9883Z" fill="white"/>
<path d="M38.3042 33.2981C38.3703 33.2076 38.433 33.1136 38.4922 33.0127C38.4225 33.1032 38.3599 33.1972 38.3042 33.2981Z" fill="white"/>
</svg>
