<svg width="338" height="131" viewBox="0 0 338 131" fill="none" xmlns="http://www.w3.org/2000/svg">
<path d="M314.52 52.0463C318.72 52.9063 321.86 57.0663 320.87 61.6463C320.04 65.4663 316.47 68.0763 312.56 68.0763H272.38V84.2663H312.9C313.02 84.2663 313.13 84.2663 313.24 84.2563C321.7 83.7063 328.37 76.6763 328.37 68.0763C328.37 59.9263 322.36 53.1763 314.52 52.0463ZM312.16 51.8663C312.02 51.8663 311.88 51.8663 311.75 51.8763H312.58C312.44 51.8663 312.3 51.8663 312.16 51.8663Z" fill="url(#paint0_linear_1398_33719)"/>
<path d="M192.81 40.2263V100.466H176.53V58.8063L189.88 39.3363C189.88 39.3363 189.89 39.3163 189.9 39.3063C189.96 39.2263 190.02 39.1463 190.1 39.0763C190.37 38.8163 190.74 38.6463 191.15 38.6263H191.28C191.79 38.6463 192.24 38.9163 192.52 39.3063C192.53 39.3163 192.54 39.3263 192.54 39.3363C192.71 39.5963 192.81 39.8963 192.81 40.2263Z" fill="url(#paint1_linear_1398_33719)"/>
<path d="M169.74 65.4362H151.1C149.8 65.4362 148.63 64.8562 147.85 63.9362L144.31 59.4162V40.2362C144.31 39.3462 145.03 38.6362 145.91 38.6362C146.45 38.6362 146.93 38.9062 147.22 39.3162C147.23 39.3262 147.24 39.3362 147.24 39.3462L160.43 56.1762L166.22 63.5662C166.31 63.6962 166.4 63.8162 166.5 63.9362C167.28 64.8562 168.45 65.4362 169.75 65.4362H169.74Z" fill="url(#paint2_linear_1398_33719)"/>
<path d="M191.15 38.6263C190.74 38.6463 190.37 38.8163 190.1 39.0763C190.02 39.1463 189.96 39.2263 189.9 39.3063C189.89 39.3163 189.88 39.3263 189.88 39.3363L176.53 58.8063L173.27 63.5663C173.18 63.6963 173.09 63.8163 172.98 63.9363C172.21 64.8563 171.04 65.4363 169.74 65.4363C168.44 65.4363 167.27 64.8563 166.49 63.9363C166.39 63.8163 166.3 63.6963 166.21 63.5663L160.42 56.1763L173.6 39.3463C173.6 39.3463 173.61 39.3263 173.62 39.3163C173.91 38.9063 174.39 38.6363 174.93 38.6363H190.36L191.15 38.6263Z" fill="url(#paint3_linear_1398_33719)"/>
<path d="M94.5199 62.5063C94.2999 63.6763 94.0499 64.8363 93.7399 65.9763C90.8899 76.7663 84.2599 86.0363 75.3399 92.2563C71.0699 95.2363 66.3099 97.4963 61.2899 98.9063C58.6899 99.6363 56.0199 100.136 53.3299 100.396C50.4299 100.686 47.4499 100.456 44.5199 100.546C39.1699 100.696 34.0799 101.296 28.9999 103.056C24.5399 104.606 20.3199 106.846 16.5199 109.666C12.0099 113.016 8.42989 117.106 5.22989 121.686C3.43989 124.416 1.93989 127.336 0.759888 130.426C2.44989 121.836 5.36989 113.676 9.31989 106.156C9.34988 106.086 9.38989 106.016 9.41989 105.946C10.1499 104.556 10.9199 103.176 11.7199 101.826C11.7499 101.766 11.7899 101.716 11.8199 101.666C14.2999 97.7863 17.3999 94.3463 20.9699 91.4763C24.9899 88.2363 29.5899 85.7263 34.5099 84.1263C40.0199 82.3363 45.7499 82.1363 51.4799 81.6563C59.5799 80.9763 67.8199 78.5863 75.3599 75.6163C75.3899 75.6163 75.4199 75.5963 75.4399 75.5763C77.0199 75.0063 78.5799 74.3463 80.0699 73.6063C85.5899 70.8963 90.4999 67.0963 94.4999 62.5063H94.5199Z" fill="url(#paint4_linear_1398_33719)"/>
<path d="M137.73 0.356262C137.73 0.356262 137.72 0.426262 137.71 0.466262C137.42 2.00626 137.08 3.54626 136.69 5.04626C132.82 19.6863 123.82 32.2463 111.74 40.6763C105.49 45.0263 98.4599 48.2563 91.0599 50.1063C82.6899 52.2063 74.0299 51.6163 65.4799 52.2363C45.6599 53.6563 27.6099 63.7963 16.6999 80.5563C14.2799 84.2763 12.2299 88.2663 10.6299 92.4763C12.9899 80.4763 17.0899 69.1163 22.6699 58.6463C23.4899 57.1163 24.3399 55.6063 25.2199 54.1163C28.6599 48.5863 32.9999 43.6663 38.0499 39.5963C43.2999 35.3763 49.2599 32.0763 55.6299 29.9063C64.7899 26.7863 74.4199 27.1363 83.8599 25.6763C93.4099 24.1963 102.79 21.6563 111.78 18.1163C111.81 18.0963 111.85 18.0763 111.89 18.0663C114.19 17.2363 116.44 16.2763 118.61 15.1863C125.92 11.5163 132.42 6.45626 137.73 0.356262Z" fill="url(#paint5_linear_1398_33719)"/>
<path d="M137.73 0.356262C137.73 0.356262 137.72 0.426262 137.71 0.466262C132.77 10.8063 125.97 19.7063 117.86 26.4963C111.23 32.0463 103.78 36.1563 95.9399 38.5163C87.0599 41.1963 77.8699 40.4363 68.7999 41.2163C47.7799 43.0263 28.6399 55.9463 17.0699 77.2863C14.4999 82.0363 12.3199 87.1163 10.6299 92.4763C12.9899 80.4763 17.0899 69.1163 22.6699 58.6463C23.4899 57.1163 24.3399 55.6063 25.2199 54.1163C28.6599 48.5863 32.9999 43.6663 38.0499 39.5963C43.2999 35.3763 49.2599 32.0763 55.6299 29.9063C64.7899 26.7863 74.4199 27.1363 83.8599 25.6763C93.4099 24.1963 102.79 21.6563 111.78 18.1163C111.81 18.0963 111.85 18.0763 111.89 18.0663C114.19 17.2363 116.44 16.2763 118.61 15.1863C125.92 11.5163 132.42 6.45626 137.73 0.356262Z" fill="url(#paint6_linear_1398_33719)"/>
<path d="M94.5199 62.5063C94.5199 62.5063 94.5199 62.5563 94.5099 62.5863C90.8699 70.2163 85.8499 76.7763 79.8699 81.7863C74.9799 85.8763 69.4899 88.9063 63.6999 90.6563C57.1499 92.6363 50.3699 92.0763 43.6799 92.6463C28.1799 93.9763 14.0599 103.506 5.52991 119.246C3.62991 122.746 2.02991 126.496 0.779907 130.446C2.51991 121.596 5.53991 113.216 9.65991 105.496C10.2599 104.366 10.8899 103.256 11.5399 102.156C14.0799 98.0763 17.2799 94.4463 20.9999 91.4463C24.8699 88.3363 29.2699 85.8963 33.9699 84.2963C40.7299 81.9963 47.8299 82.2563 54.7899 81.1763C61.8299 80.0863 68.7499 78.2063 75.3799 75.5963C75.3999 75.5863 75.4299 75.5663 75.4599 75.5563C77.1599 74.9463 78.8199 74.2363 80.4199 73.4363C85.8099 70.7263 90.6099 66.9963 94.5199 62.4963V62.5063Z" fill="url(#paint7_linear_1398_33719)"/>
<path d="M248.35 75.8663H248.37C253.17 74.1663 256.6 69.5863 256.6 64.2163C256.6 57.3863 251.06 51.8463 244.23 51.8463C243.97 51.8463 243.7 51.8563 243.44 51.8763H244.51C246.27 51.8763 247.93 52.8763 248.59 54.5063C249.69 57.2463 247.43 59.9363 244.8 59.9363H216.49C207.5 59.9363 200.21 67.2263 200.21 76.2163V100.466H216.49V76.1262H228.78L245.74 100.466H265.41L248.35 75.8663Z" fill="url(#paint8_linear_1398_33719)"/>
<path d="M264.36 50.7062C267.49 62.3862 259.67 73.9163 248.37 75.8663C253.17 74.1663 256.6 69.5863 256.6 64.2163C256.6 57.3863 251.06 51.8463 244.23 51.8463C243.97 51.8463 243.7 51.8563 243.44 51.8763H216.49C207.5 51.8763 200.21 44.5863 200.21 35.5963H244.16C253.5 35.5963 261.95 41.6862 264.37 50.7062H264.36Z" fill="url(#paint9_linear_1398_33719)"/>
<path d="M337.24 60.0663C337.17 73.2363 326.39 84.0863 313.24 84.2563C321.7 83.7063 328.37 76.6763 328.37 68.0763C328.37 59.9263 322.36 53.1763 314.52 52.0463C314.49 52.0363 314.47 52.0263 314.44 52.0263C313.94 51.9263 313.42 51.8763 312.9 51.8763H312.58C312.44 51.8663 312.3 51.8663 312.16 51.8663C312.02 51.8663 311.88 51.8663 311.75 51.8763H272.38V35.6863H312.42C325.83 35.6863 337.31 46.6563 337.24 60.0663Z" fill="url(#paint10_linear_1398_33719)"/>
<path d="M216.49 76.1263V100.466H200.21V92.4063C200.21 83.4163 207.5 76.1263 216.49 76.1263Z" fill="url(#paint11_linear_1398_33719)"/>
<path d="M145.9 38.6362C145.02 38.6362 144.3 39.3462 144.3 40.2362V100.466H128.02V40.2062C128.02 40.1162 128.03 40.0362 128.04 39.9462C128.04 39.9362 128.04 39.9262 128.05 39.9162C128.11 39.6162 128.26 39.3262 128.49 39.0962C128.78 38.8062 129.14 38.6562 129.52 38.6362H145.9Z" fill="url(#paint12_linear_1398_33719)"/>
<path d="M288.57 51.8763H272.38V100.466H288.57V51.8763Z" fill="url(#paint13_linear_1398_33719)"/>
<path d="M105.45 100.466C105.2 100.446 104.96 100.416 104.73 100.376C101.78 99.9063 99.2699 98.1063 97.8599 95.5963C97.5599 95.0763 97.3099 94.5163 97.1199 93.9363C96.8699 93.2163 96.7099 92.4463 96.6499 91.6663C101.5 91.6863 105.43 95.6263 105.46 100.466H105.45Z" fill="url(#paint14_linear_1398_33719)"/>
<path d="M102.24 89.8162C102.24 90.4962 102.3 91.1662 102.44 91.8262C101.77 91.3762 101.05 91.0062 100.29 90.7162C100.12 89.6562 100.13 88.5762 100.34 87.5062C101.04 87.6862 101.72 87.9462 102.35 88.2962C102.27 88.7962 102.24 89.2962 102.24 89.8162Z" fill="url(#paint15_linear_1398_33719)"/>
<path d="M107.52 94.2663C107.35 94.5563 107.15 94.8463 106.95 95.1263C106.75 95.3963 106.53 95.6563 106.29 95.9063C104.73 94.2763 103.85 92.0963 103.85 89.8163C103.85 87.5363 104.73 85.3563 106.29 83.7263C107.85 85.3663 108.73 87.5463 108.73 89.8163C108.73 91.3963 108.31 92.9263 107.53 94.2663H107.52Z" fill="url(#paint16_linear_1398_33719)"/>
<path d="M110.33 89.8162C110.33 89.3062 110.29 88.7962 110.22 88.2962C110.85 87.9562 111.53 87.6962 112.23 87.5162C112.44 88.5762 112.45 89.6562 112.28 90.7062C111.52 90.9862 110.8 91.3562 110.14 91.7962C110.27 91.1462 110.33 90.4862 110.33 89.8162Z" fill="url(#paint17_linear_1398_33719)"/>
<path d="M106.81 82.0062L106.28 81.5362L105.75 82.0062C104.32 83.2762 103.29 84.8962 102.72 86.6862C101.83 86.2562 100.87 85.9462 99.8699 85.7862L99.1699 85.6662L98.9699 86.3462C98.5999 87.6262 98.4799 88.9462 98.5999 90.2362C97.9699 90.1162 97.3099 90.0562 96.6499 90.0462C97.0599 85.0962 101.2 81.2062 106.26 81.2062C111.32 81.2062 115.46 85.0962 115.87 90.0462C115.22 90.0462 114.58 90.1062 113.97 90.2262C114.09 88.9362 113.97 87.6162 113.6 86.3362L113.4 85.6562L112.7 85.7762C111.7 85.9362 110.74 86.2462 109.85 86.6762C109.29 84.8862 108.25 83.2662 106.82 81.9962L106.81 82.0062Z" fill="url(#paint18_linear_1398_33719)"/>
<path d="M115.86 91.6562C115.8 92.4463 115.64 93.2062 115.39 93.9262C115.2 94.5062 114.95 95.0662 114.65 95.5962C113.24 98.0862 110.76 99.8862 107.84 100.366C107.58 100.406 107.32 100.446 107.06 100.466C107.06 98.8462 107.51 97.3262 108.29 96.0262C108.45 95.7462 108.63 95.4762 108.83 95.2062C110.43 93.0662 112.99 91.6762 115.86 91.6662V91.6562Z" fill="url(#paint19_linear_1398_33719)"/>
<path d="M106.94 95.1262C107.15 94.8562 107.34 94.5662 107.51 94.2662C107.3 94.5362 107.11 94.8262 106.94 95.1262Z" fill="url(#paint20_linear_1398_33719)"/>
<path d="M108.29 96.0162C108.48 95.7562 108.66 95.4862 108.83 95.1962C108.63 95.4562 108.45 95.7262 108.29 96.0162Z" fill="url(#paint21_linear_1398_33719)"/>
<path d="M228.78 76.1263C228.78 76.1263 241.5 76.4863 248.37 75.8663L265.41 100.466H245.74" fill="url(#paint22_linear_1398_33719)"/>
<defs>
<linearGradient id="paint0_linear_1398_33719" x1="272.38" y1="68.0663" x2="328.37" y2="68.0663" gradientUnits="userSpaceOnUse">
<stop stop-color="#0375F3"/>
<stop offset="1" stop-color="#013DA0"/>
</linearGradient>
<linearGradient id="paint1_linear_1398_33719" x1="206.56" y1="49.9163" x2="171.17" y2="96.3762" gradientUnits="userSpaceOnUse">
<stop stop-color="#013DA0"/>
<stop offset="1" stop-color="#0375F3"/>
</linearGradient>
<linearGradient id="paint2_linear_1398_33719" x1="163.6" y1="70.5062" x2="140.54" y2="42.5762" gradientUnits="userSpaceOnUse">
<stop stop-color="#0375F3"/>
<stop offset="1" stop-color="#013DA0"/>
</linearGradient>
<linearGradient id="paint3_linear_1398_33719" x1="185.14" y1="34.3263" x2="164.73" y2="62.8363" gradientUnits="userSpaceOnUse">
<stop stop-color="#0375F3"/>
<stop offset="1" stop-color="#013DA0"/>
</linearGradient>
<linearGradient id="paint4_linear_1398_33719" x1="-7.97011" y1="132.846" x2="98.3599" y2="55.1663" gradientUnits="userSpaceOnUse">
<stop stop-color="#0375F3"/>
<stop offset="1" stop-color="#013DA0"/>
</linearGradient>
<linearGradient id="paint5_linear_1398_33719" x1="5.43988" y1="89.0663" x2="134.21" y2="-1.77371" gradientUnits="userSpaceOnUse">
<stop stop-color="#0375F3"/>
<stop offset="1" stop-color="#013DA0"/>
</linearGradient>
<linearGradient id="paint6_linear_1398_33719" x1="11.8399" y1="96.5563" x2="112.62" y2="-0.303715" gradientUnits="userSpaceOnUse">
<stop stop-color="#013DA0"/>
<stop offset="1" stop-color="#0375F3"/>
</linearGradient>
<linearGradient id="paint7_linear_1398_33719" x1="-3.26009" y1="130.936" x2="71.4599" y2="69.2463" gradientUnits="userSpaceOnUse">
<stop stop-color="#013DA0"/>
<stop offset="1" stop-color="#0375F3"/>
</linearGradient>
<linearGradient id="paint8_linear_1398_33719" x1="257.39" y1="62.9163" x2="187.71" y2="124.596" gradientUnits="userSpaceOnUse">
<stop stop-color="#013DA0"/>
<stop offset="1" stop-color="#0375F3"/>
</linearGradient>
<linearGradient id="paint9_linear_1398_33719" x1="200.21" y1="55.7263" x2="265.06" y2="55.7263" gradientUnits="userSpaceOnUse">
<stop stop-color="#013DA0"/>
<stop offset="1" stop-color="#0375F3"/>
</linearGradient>
<linearGradient id="paint10_linear_1398_33719" x1="336.39" y1="71.5063" x2="275.81" y2="37.0563" gradientUnits="userSpaceOnUse">
<stop stop-color="#0375F3"/>
<stop offset="1" stop-color="#013DA0"/>
</linearGradient>
<linearGradient id="paint11_linear_1398_33719" x1="216.2" y1="102.106" x2="202.64" y2="78.2463" gradientUnits="userSpaceOnUse">
<stop stop-color="#013DA0"/>
<stop offset="1" stop-color="#0375F3"/>
</linearGradient>
<linearGradient id="paint12_linear_1398_33719" x1="136.96" y1="38.6362" x2="136.96" y2="100.466" gradientUnits="userSpaceOnUse">
<stop stop-color="#0375F3"/>
<stop offset="1" stop-color="#013DA0"/>
</linearGradient>
<linearGradient id="paint13_linear_1398_33719" x1="274.17" y1="46.7763" x2="287.2" y2="107.546" gradientUnits="userSpaceOnUse">
<stop stop-color="#0375F3"/>
<stop offset="1" stop-color="#013DA0"/>
</linearGradient>
<linearGradient id="paint14_linear_1398_33719" x1="101.05" y1="100.616" x2="101.05" y2="81.1663" gradientUnits="userSpaceOnUse">
<stop stop-color="#0375F3"/>
<stop offset="1" stop-color="#013DA0"/>
</linearGradient>
<linearGradient id="paint15_linear_1398_33719" x1="101.3" y1="100.616" x2="101.3" y2="81.1662" gradientUnits="userSpaceOnUse">
<stop stop-color="#0375F3"/>
<stop offset="1" stop-color="#013DA0"/>
</linearGradient>
<linearGradient id="paint16_linear_1398_33719" x1="106.28" y1="100.616" x2="106.28" y2="81.1663" gradientUnits="userSpaceOnUse">
<stop stop-color="#0375F3"/>
<stop offset="1" stop-color="#013DA0"/>
</linearGradient>
<linearGradient id="paint17_linear_1398_33719" x1="111.26" y1="100.616" x2="111.26" y2="81.1662" gradientUnits="userSpaceOnUse">
<stop stop-color="#0375F3"/>
<stop offset="1" stop-color="#013DA0"/>
</linearGradient>
<linearGradient id="paint18_linear_1398_33719" x1="106.26" y1="100.616" x2="106.26" y2="81.1662" gradientUnits="userSpaceOnUse">
<stop stop-color="#0375F3"/>
<stop offset="1" stop-color="#013DA0"/>
</linearGradient>
<linearGradient id="paint19_linear_1398_33719" x1="111.46" y1="100.616" x2="111.46" y2="81.1663" gradientUnits="userSpaceOnUse">
<stop stop-color="#0375F3"/>
<stop offset="1" stop-color="#013DA0"/>
</linearGradient>
<linearGradient id="paint20_linear_1398_33719" x1="107.23" y1="100.616" x2="107.23" y2="81.1663" gradientUnits="userSpaceOnUse">
<stop stop-color="#0375F3"/>
<stop offset="1" stop-color="#013DA0"/>
</linearGradient>
<linearGradient id="paint21_linear_1398_33719" x1="108.55" y1="100.616" x2="108.55" y2="81.1661" gradientUnits="userSpaceOnUse">
<stop stop-color="#0375F3"/>
<stop offset="1" stop-color="#013DA0"/>
</linearGradient>
<linearGradient id="paint22_linear_1398_33719" x1="233.58" y1="69.0263" x2="252.29" y2="95.6063" gradientUnits="userSpaceOnUse">
<stop stop-color="#1F9285"/>
<stop offset="1" stop-color="#1FC583"/>
</linearGradient>
</defs>
</svg>
