<svg width="418" height="150" viewBox="0 0 418 150" fill="none" xmlns="http://www.w3.org/2000/svg">
<path d="M0.0200204 149.362C0.290296 148.602 0.590602 147.861 0.830846 147.09C3.65372 138.111 7.30745 129.512 12.4527 121.604C16.5168 115.358 21.2216 109.682 27.1477 105.097C33.9346 99.8519 41.5724 96.5586 50.0009 95.047C56.1172 93.9559 62.2734 93.1951 68.4998 93.065C71.5429 93.0049 74.576 93.105 77.6191 93.055C84.5661 92.9349 90.9927 90.9729 96.8487 87.2891C99.9618 85.3371 102.915 83.1349 105.938 81.0427C106.128 80.9126 106.318 80.7925 106.649 80.5723C106.579 80.8926 106.569 81.0327 106.509 81.1629C104.536 85.7475 102.554 90.3322 99.9218 94.5966C95.5774 101.624 89.9316 107.269 82.464 110.953C77.9294 113.195 73.1345 114.577 68.1494 115.388C61.8931 116.399 55.6067 116.439 49.3002 116.068C45.9168 115.868 42.5233 115.708 39.1399 116.189C33.9446 116.939 29.1497 118.761 24.7552 121.644C20.581 124.377 17.1174 127.88 13.8741 131.614C9.29947 136.88 5.36547 142.625 1.5716 148.461C1.33136 148.832 1.06108 149.192 0.740755 149.472C0.570581 149.623 0.250255 149.593 0 149.643C0 149.553 0 149.462 0 149.382L0.0200204 149.362Z" fill="#F7F9FC"/>
<path d="M10.0902 113.255C10.3105 112.124 10.5107 110.993 10.7609 109.872C12.793 100.792 15.3056 91.8533 18.699 83.1845C22.3728 73.8049 26.8773 64.8658 32.9435 56.7776C39.4301 48.1288 47.3982 41.2217 57.1582 36.4569C63.0442 33.584 69.2305 31.5819 75.6771 30.4708C82.464 29.2996 89.2809 28.3286 96.0778 27.2475C106.468 25.6058 116.799 23.7339 126.879 20.6408C135.488 17.9981 143.736 14.5345 151.174 9.40932C154.617 7.0369 157.811 4.31413 161.104 1.74151C161.615 1.3411 162.105 0.910663 162.606 0.490234C162.676 0.520265 162.736 0.550296 162.806 0.580326C162.025 3.13293 161.364 5.73558 160.443 8.23813C157.02 17.5877 152.395 26.2765 145.929 33.9043C136.339 45.2058 124.407 52.7935 109.982 56.4172C105.337 57.5884 100.622 58.2791 95.8376 58.5394C91.7234 58.7596 87.5992 58.8297 83.495 59.0699C64.0752 60.2111 46.8177 66.6376 32.3729 79.9612C23.3137 88.3097 16.6269 98.2899 11.8721 109.601C11.4316 110.652 11.0212 111.724 10.5908 112.785C10.5107 112.975 10.4206 113.155 10.3405 113.345C10.2504 113.315 10.1603 113.295 10.0702 113.265L10.0902 113.255Z" fill="#F7F9FC"/>
<path d="M192.026 101.172C193.377 99.4607 194.638 97.8491 195.9 96.2374C204.829 84.8759 213.758 73.5143 222.687 62.1527C223.107 61.6122 223.638 61.3319 224.329 61.3319C228.743 61.3319 233.148 61.3319 237.562 61.3319C238.854 61.3319 239.644 62.1527 239.474 63.454C239.274 64.9556 238.944 66.4371 238.643 67.9186C237.472 73.8646 236.291 79.8107 235.12 85.7467C233.989 91.4526 232.867 97.1584 231.736 102.874C230.475 109.251 229.224 115.627 227.972 122.004C227.542 124.176 227.122 126.358 226.671 128.53C226.461 129.571 225.77 130.132 224.719 130.132C220.084 130.132 215.46 130.142 210.825 130.132C209.444 130.132 208.613 129.071 208.883 127.689C209.824 122.885 210.775 118.08 211.716 113.275C212.957 106.938 214.188 100.612 215.43 94.2754C215.44 94.2154 215.42 94.1453 215.39 93.9451C215.159 94.2154 214.999 94.3956 214.839 94.5958C207.632 103.865 200.424 113.125 193.227 122.404C192.757 123.015 192.196 123.335 191.435 123.335C189.403 123.335 187.381 123.335 185.349 123.335C184.348 123.335 183.727 122.835 183.347 121.924C179.533 112.894 175.709 103.865 171.885 94.836C171.765 94.5557 171.625 94.2955 171.405 93.835C171.094 95.3565 170.824 96.6879 170.554 98.0092C169.022 105.607 167.501 113.215 165.969 120.822C165.469 123.315 164.968 125.818 164.468 128.31C164.217 129.581 163.567 130.142 162.296 130.142C157.801 130.142 153.296 130.142 148.802 130.142C147.22 130.142 146.439 129.141 146.76 127.589C148.191 120.482 149.603 113.365 151.024 106.258C152.325 99.771 153.617 93.2844 154.918 86.7978C156.45 79.14 157.981 71.4722 159.513 63.8144C159.583 63.444 159.663 63.0837 159.763 62.7233C159.983 61.8924 160.614 61.3419 161.465 61.3319C165.879 61.3219 170.284 61.3119 174.698 61.3319C175.569 61.3319 176.08 61.8724 176.4 62.6632C178.062 66.7774 179.733 70.8916 181.405 75.0058C184.828 83.4444 188.242 91.873 191.655 100.312C191.756 100.552 191.866 100.782 192.036 101.152L192.026 101.172Z" fill="#F7F9FC"/>
<path d="M284.29 61.3721C293.459 61.3721 302.638 61.3421 311.808 61.3821C315.211 61.3922 318.505 62.0929 321.528 63.7345C325.342 65.8067 327.294 69.0399 327.374 73.3744C327.524 81.3024 325.682 88.8201 322.489 96.0074C319.866 101.903 315.061 105.287 308.905 106.878C307.373 107.269 307.383 107.249 308.154 108.61C311.648 114.777 315.141 120.943 318.625 127.109C319.225 128.18 319.145 129.021 318.354 129.662C318.034 129.922 317.574 130.142 317.173 130.142C311.818 130.172 306.462 130.172 301.097 130.142C299.946 130.142 299.225 129.271 298.694 128.38C297.914 127.059 297.263 125.658 296.542 124.296C294.07 119.631 291.567 114.977 289.115 110.302C288.654 109.421 288.024 109.011 287.022 109.021C278.864 109.051 270.706 109.061 262.548 109.071C262.287 109.071 262.017 109.071 261.757 109.091C261.166 109.141 260.876 109.501 260.756 110.062C260.235 112.694 259.715 115.317 259.184 117.94C258.533 121.163 257.893 124.396 257.202 127.62C256.812 129.441 256.051 130.132 254.209 130.172C250.575 130.242 246.932 130.212 243.298 130.222C242.457 130.222 241.616 130.222 240.785 130.162C239.694 130.082 239.134 129.401 239.344 128.32C240.015 124.917 240.725 121.523 241.436 118.13C242.958 110.843 244.499 103.565 246.021 96.2777C247.502 89.1805 248.954 82.0832 250.435 74.996C251.186 71.4024 251.947 67.8187 252.748 64.2451C253.208 62.183 254.299 61.3821 256.411 61.3821C265.691 61.3821 274.98 61.3821 284.26 61.3821L284.29 61.3721ZM263.979 95.1465C264.359 95.1666 264.66 95.1866 264.95 95.1866C275.481 95.1866 286.021 95.1866 296.552 95.1866C297.824 95.1866 299.105 95.1666 300.376 95.0665C303.319 94.8362 305.481 93.5049 306.612 90.662C307.834 87.6089 308.464 84.4456 308.554 81.1623C308.604 79.3004 307.643 78.0591 305.792 77.6788C304.53 77.4185 303.229 77.1883 301.938 77.1883C291.227 77.1482 280.516 77.1582 269.805 77.1682C268.203 77.1682 267.723 77.5987 267.382 79.1703C266.572 82.9942 265.741 86.8081 264.92 90.6219C264.6 92.0934 264.289 93.5749 263.959 95.1365L263.979 95.1465Z" fill="#F7F9FC"/>
<path d="M374.611 61.3721C383.741 61.3721 392.87 61.3421 401.999 61.3821C405.723 61.4022 409.307 62.1529 412.56 64.0749C415.693 65.9268 417.395 68.7497 417.835 72.3233C418.276 75.947 417.785 79.5206 416.914 83.0342C415.933 87.0183 415.043 91.0324 413.821 94.9463C412.29 99.8614 409.377 103.865 404.892 106.588C402.139 108.25 399.146 109.281 395.963 109.631C393.411 109.922 390.828 110.062 388.255 110.072C376.233 110.122 364.221 110.102 352.199 110.082C351.538 110.082 351.258 110.242 351.107 110.933C349.916 116.538 348.685 122.134 347.444 127.72C347.043 129.522 346.333 130.132 344.521 130.152C340.196 130.192 335.882 130.172 331.558 130.132C330.296 130.132 329.736 129.552 329.906 128.3C330.156 126.458 330.546 124.627 330.927 122.805C332.258 116.268 333.59 109.731 334.951 103.195C336.362 96.4479 337.804 89.711 339.245 82.9741C340.547 76.898 341.848 70.8318 343.159 64.7556C343.219 64.4953 343.269 64.2451 343.34 63.9848C343.85 62.193 344.951 61.3621 346.813 61.3621C356.072 61.3621 365.332 61.3621 374.601 61.3621L374.611 61.3721ZM354.581 94.8863C354.991 94.9063 355.322 94.9363 355.642 94.9363C366.163 94.9363 376.673 94.9363 387.194 94.9363C388.425 94.9363 389.657 94.8863 390.888 94.8162C394.011 94.636 396.364 92.9143 397.254 89.9312C398.025 87.3686 398.646 84.766 399.216 82.1533C399.687 80.0111 398.506 78.2193 396.374 77.7188C395.353 77.4786 394.291 77.3184 393.24 77.3184C382.239 77.2884 371.238 77.2984 360.227 77.2884C358.805 77.2884 358.185 77.8089 357.894 79.1903C357.033 83.2945 356.153 87.3886 355.282 91.4928C355.041 92.604 354.821 93.7151 354.571 94.8963L354.581 94.8863Z" fill="#F7F9FC"/>
<path d="M124.957 125.568C129.212 121.414 133.406 117.33 137.61 113.226C138.081 114.066 138.311 115.077 138.381 116.118C138.902 123.156 134.527 129.082 127.64 130.593C121.304 131.985 113.355 127.951 111.864 120.072C110.282 111.684 116.258 105.247 123.336 104.236C127.32 103.666 130.863 104.947 133.896 107.56C134.427 108.02 134.897 108.551 135.368 109.071C135.768 109.522 135.758 109.982 135.318 110.413C132.004 113.706 128.691 116.999 125.378 120.293C124.957 120.703 124.637 120.763 124.177 120.273C122.565 118.561 120.893 116.889 119.262 115.198C119.091 115.027 119.001 114.787 118.811 114.487C117.95 115.548 117.249 116.409 116.509 117.32C119.352 120.103 122.164 122.855 124.937 125.568H124.957Z" fill="#F7F9FC"/>
</svg>
