<svg width="158" height="47" viewBox="0 0 158 47" fill="none" xmlns="http://www.w3.org/2000/svg">
<path d="M109.349 19.1847C110.811 19.4841 111.904 20.9321 111.559 22.5264C111.27 23.8561 110.027 24.7646 108.666 24.7646H94.6802V30.4002H108.785C108.827 30.4002 108.865 30.4002 108.903 30.3967C111.848 30.2053 114.17 27.7582 114.17 24.7646C114.17 21.9277 112.078 19.5781 109.349 19.1847ZM108.527 19.1221C108.478 19.1221 108.43 19.1221 108.384 19.1256H108.673C108.625 19.1221 108.576 19.1221 108.527 19.1221Z" fill="white"/>
<path d="M66.9828 15.0704V36.0393H61.3159V21.5379L65.9629 14.7606C65.9629 14.7606 65.9664 14.7536 65.9699 14.7501C65.9908 14.7223 66.0117 14.6944 66.0395 14.6701C66.1335 14.5796 66.2623 14.5204 66.405 14.5134H66.4502C66.6278 14.5204 66.7844 14.6144 66.8819 14.7501C66.8854 14.7536 66.8888 14.7571 66.8888 14.7606C66.948 14.8511 66.9828 14.9555 66.9828 15.0704Z" fill="white"/>
<path d="M58.9525 23.8457H52.4641C52.0116 23.8457 51.6043 23.6438 51.3328 23.3235L50.1006 21.7502V15.0738C50.1006 14.764 50.3512 14.5168 50.6575 14.5168C50.8455 14.5168 51.0126 14.6108 51.1135 14.7535C51.117 14.757 51.1205 14.7605 51.1205 14.764L55.7118 20.6223L57.7272 23.1947C57.7586 23.24 57.7899 23.2818 57.8247 23.3235C58.0962 23.6438 58.5035 23.8457 58.956 23.8457H58.9525Z" fill="white"/>
<path d="M66.4048 14.5134C66.2621 14.5204 66.1333 14.5796 66.0393 14.6701C66.0115 14.6944 65.9906 14.7223 65.9697 14.7501C65.9662 14.7536 65.9627 14.7571 65.9627 14.7606L61.3157 21.5379L60.181 23.1948C60.1496 23.24 60.1183 23.2818 60.08 23.3236C59.812 23.6438 59.4047 23.8457 58.9522 23.8457C58.4997 23.8457 58.0924 23.6438 57.8209 23.3236C57.7861 23.2818 57.7548 23.24 57.7234 23.1948L55.708 20.6224L60.2958 14.7641C60.2958 14.7641 60.2993 14.7571 60.3028 14.7536C60.4037 14.6109 60.5708 14.5169 60.7588 14.5169H66.1298L66.4048 14.5134Z" fill="white"/>
<path d="M32.769 22.8257C32.6924 23.2329 32.6054 23.6367 32.4975 24.0336C31.5054 27.7894 29.1976 31.0162 26.0926 33.1814C24.6063 34.2187 22.9494 35.0054 21.202 35.4962C20.2969 35.7503 19.3675 35.9243 18.4311 36.0148C17.4217 36.1158 16.3844 36.0357 15.3645 36.067C13.5022 36.1192 11.7304 36.3281 9.96214 36.9407C8.40966 37.4803 6.9407 38.26 5.61796 39.2416C4.04807 40.4077 2.80192 41.8314 1.68803 43.4256C1.06495 44.3759 0.542826 45.3924 0.13208 46.468C0.720352 43.4779 1.73677 40.6374 3.11173 38.0198C3.12217 37.9954 3.13609 37.9711 3.14653 37.9467C3.40064 37.4629 3.66866 36.9825 3.94713 36.5126C3.95757 36.4917 3.97151 36.4743 3.98195 36.4569C4.84522 35.1063 5.92428 33.9089 7.16696 32.9098C8.56629 31.782 10.1675 30.9083 11.8801 30.3514C13.7981 29.7283 15.7926 29.6587 17.7872 29.4916C20.6067 29.2549 23.475 28.423 26.0996 27.3891C26.11 27.3891 26.1205 27.3822 26.1274 27.3752C26.6774 27.1768 27.2204 26.9471 27.7391 26.6895C29.6605 25.7462 31.3697 24.4234 32.762 22.8257H32.769Z" fill="white"/>
<path d="M47.8133 1.19189C47.8133 1.19189 47.8098 1.21626 47.8063 1.23018C47.7054 1.76624 47.587 2.3023 47.4513 2.82444C46.1042 7.92047 42.9714 12.2925 38.7664 15.2269C36.5909 16.7411 34.1438 17.8654 31.5679 18.5094C28.6544 19.2404 25.64 19.035 22.6638 19.2508C15.7646 19.7451 9.48161 23.2747 5.68395 29.1087C4.84158 30.4036 4.12799 31.7925 3.57104 33.2579C4.39254 29.0809 5.81972 25.1266 7.76206 21.4821C8.04749 20.9495 8.34337 20.4239 8.64969 19.9052C9.84712 17.9803 11.3578 16.2677 13.1157 14.8509C14.9432 13.382 17.0178 12.2333 19.2351 11.478C22.4236 10.3919 25.7757 10.5137 29.0617 10.0055C32.3859 9.49036 35.651 8.60621 38.7803 7.37397C38.7908 7.36701 38.8047 7.36005 38.8186 7.35657C39.6192 7.06765 40.4025 6.73349 41.1578 6.35407C43.7023 5.07658 45.9649 3.31524 47.8133 1.19189Z" fill="white"/>
<path d="M47.8133 1.19189C47.8133 1.19189 47.8098 1.21626 47.8063 1.23018C46.0868 4.82943 43.7198 7.92743 40.8967 10.291C38.5889 12.2229 35.9956 13.6535 33.2666 14.475C30.1756 15.4079 26.9766 15.1433 23.8195 15.4148C16.5026 16.0449 9.84015 20.5422 5.81274 27.9705C4.91815 29.6239 4.15932 31.3922 3.57104 33.2579C4.39254 29.0809 5.81972 25.1266 7.76206 21.4821C8.04749 20.9495 8.34337 20.4239 8.64969 19.9052C9.84712 17.9803 11.3578 16.2677 13.1157 14.8509C14.9432 13.382 17.0178 12.2333 19.2351 11.478C22.4236 10.3919 25.7757 10.5137 29.0617 10.0055C32.3859 9.49036 35.651 8.60621 38.7803 7.37397C38.7908 7.36701 38.8047 7.36005 38.8186 7.35657C39.6192 7.06765 40.4025 6.73349 41.1578 6.35407C43.7023 5.07658 45.9649 3.31524 47.8133 1.19189Z" fill="white"/>
<path d="M32.7689 22.8257C32.7689 22.8257 32.7689 22.8432 32.7654 22.8536C31.4984 25.5095 29.7509 27.793 27.6694 29.5369C25.9672 30.9606 24.0562 32.0153 22.0408 32.6245C19.7608 33.3137 17.4007 33.1188 15.072 33.3172C9.67659 33.7801 4.76155 37.0974 1.79234 42.5764C1.13097 43.7947 0.574028 45.1 0.138916 46.475C0.744592 43.3944 1.79583 40.4774 3.22996 37.7901C3.43881 37.3968 3.65811 37.0104 3.88437 36.6275C4.76852 35.2073 5.88241 33.9437 7.17731 32.8995C8.52441 31.8169 10.056 30.9676 11.692 30.4106C14.0451 29.61 16.5166 29.7005 18.9393 29.3246C21.3898 28.9452 23.7986 28.2908 26.1064 27.3822C26.1134 27.3788 26.1238 27.3718 26.1343 27.3683C26.726 27.156 27.3039 26.9088 27.8608 26.6304C29.737 25.687 31.4078 24.3887 32.7689 22.8223V22.8257Z" fill="white"/>
<path d="M86.3193 27.4761H86.3263C87.9971 26.8844 89.191 25.2901 89.191 23.4209C89.191 21.0434 87.2626 19.115 84.8852 19.115C84.7947 19.115 84.7007 19.1185 84.6102 19.1254H84.9826C85.5953 19.1254 86.1731 19.4735 86.4029 20.0409C86.7858 20.9947 85.9991 21.931 85.0836 21.931H75.2292C72.0998 21.931 69.5623 24.4686 69.5623 27.5979V36.0391H75.2292V27.5666H79.5072L85.4108 36.0391H92.2577L86.3193 27.4761Z" fill="white"/>
<path d="M91.8922 18.7181C92.9817 22.7838 90.2597 26.7973 86.3263 27.4761C87.9971 26.8843 89.191 25.2901 89.191 23.4208C89.191 21.0434 87.2626 19.115 84.8852 19.115C84.7947 19.115 84.7007 19.1184 84.6102 19.1254H75.2292C72.0998 19.1254 69.5623 16.5878 69.5623 13.4585H84.8608C88.112 13.4585 91.0533 15.5784 91.8957 18.7181H91.8922Z" fill="white"/>
<path d="M117.257 21.9762C117.233 26.5605 113.481 30.3373 108.903 30.3965C111.848 30.205 114.17 27.758 114.17 24.7644C114.17 21.9274 112.078 19.5778 109.349 19.1845C109.338 19.181 109.331 19.1775 109.321 19.1775C109.147 19.1427 108.966 19.1253 108.785 19.1253H108.673C108.625 19.1218 108.576 19.1218 108.527 19.1218C108.478 19.1218 108.43 19.1218 108.384 19.1253H94.6802V13.4897H108.618C113.286 13.4897 117.282 17.3083 117.257 21.9762Z" fill="white"/>
<path d="M75.2292 27.5667V36.0392H69.5623V33.2336C69.5623 30.1042 72.0998 27.5667 75.2292 27.5667Z" fill="white"/>
<path d="M50.654 14.5168C50.3477 14.5168 50.0971 14.764 50.0971 15.0738V36.0392H44.4302V15.0633C44.4302 15.032 44.4337 15.0042 44.4371 14.9728C44.4371 14.9694 44.4371 14.9659 44.4406 14.9624C44.4615 14.858 44.5137 14.757 44.5938 14.677C44.6947 14.576 44.82 14.5238 44.9523 14.5168H50.654Z" fill="white"/>
<path d="M100.316 19.1255H94.6802V36.0392H100.316V19.1255Z" fill="white"/>
<path d="M36.5771 36.039C36.4901 36.0321 36.4065 36.0216 36.3265 36.0077C35.2996 35.8441 34.4259 35.2175 33.9351 34.3438C33.8307 34.1628 33.7437 33.9679 33.6775 33.766C33.5905 33.5154 33.5348 33.2473 33.5139 32.9758C35.2022 32.9828 36.5701 34.3543 36.5806 36.039H36.5771Z" fill="white"/>
<path d="M35.4563 32.3319C35.4563 32.5686 35.4772 32.8018 35.5259 33.0316C35.2927 32.8749 35.0421 32.7461 34.7775 32.6452C34.7184 32.2762 34.7218 31.9003 34.7949 31.5278C35.0386 31.5905 35.2753 31.681 35.4946 31.8028C35.4668 31.9769 35.4563 32.1509 35.4563 32.3319Z" fill="white"/>
<path d="M37.2941 33.881C37.2349 33.982 37.1653 34.0829 37.0957 34.1804C37.0261 34.2744 36.9495 34.3649 36.8659 34.4519C36.3229 33.8845 36.0166 33.1257 36.0166 32.332C36.0166 31.5384 36.3229 30.7795 36.8659 30.2122C37.409 30.783 37.7153 31.5419 37.7153 32.332C37.7153 32.882 37.5691 33.4146 37.2976 33.881H37.2941Z" fill="white"/>
<path d="M38.2724 32.3319C38.2724 32.1543 38.2585 31.9768 38.2342 31.8028C38.4534 31.6844 38.6902 31.5939 38.9338 31.5312C39.0069 31.9002 39.0104 32.2762 38.9512 32.6417C38.6867 32.7391 38.436 32.8679 38.2063 33.0211C38.2516 32.7948 38.2724 32.5651 38.2724 32.3319Z" fill="white"/>
<path d="M37.0505 29.6134L36.866 29.4498L36.6815 29.6134C36.1838 30.0555 35.8252 30.6194 35.6268 31.2425C35.317 31.0928 34.9829 30.9849 34.6348 30.9292L34.3911 30.8874L34.3215 31.1241C34.1927 31.5697 34.1509 32.0292 34.1927 32.4782C33.9734 32.4364 33.7437 32.4156 33.5139 32.4121C33.6566 30.689 35.0977 29.335 36.8591 29.335C38.6204 29.335 40.0615 30.689 40.2042 32.4121C39.978 32.4121 39.7552 32.433 39.5428 32.4747C39.5846 32.0257 39.5428 31.5662 39.414 31.1207L39.3444 30.884L39.1008 30.9257C38.7527 30.9814 38.4185 31.0893 38.1087 31.239C37.9138 30.6159 37.5518 30.052 37.054 29.61L37.0505 29.6134Z" fill="white"/>
<path d="M40.2009 32.9724C40.18 33.2474 40.1243 33.512 40.0373 33.7626C39.9711 33.9645 39.8841 34.1594 39.7797 34.3439C39.2889 35.2106 38.4256 35.8372 37.4092 36.0043C37.3187 36.0182 37.2282 36.0321 37.1377 36.0391C37.1377 35.4752 37.2943 34.9461 37.5658 34.4936C37.6215 34.3961 37.6842 34.3021 37.7538 34.2081C38.3107 33.4632 39.2019 32.9794 40.2009 32.9759V32.9724Z" fill="white"/>
<path d="M37.0959 34.1802C37.169 34.0862 37.2352 33.9853 37.2943 33.8809C37.2212 33.9748 37.1551 34.0758 37.0959 34.1802Z" fill="white"/>
<path d="M37.562 34.49C37.6281 34.3995 37.6908 34.3055 37.75 34.2046C37.6804 34.2951 37.6177 34.3891 37.562 34.49Z" fill="white"/>
<g filter="url(#filter0_d_2110_55915)">
<rect x="119" y="1.19189" width="36" height="20" rx="2" fill="url(#paint0_radial_2110_55915)" shape-rendering="crispEdges"/>
<path d="M124.092 16.1919V7.79189H127.74C128.3 7.79189 128.772 7.87589 129.156 8.04389C129.548 8.20389 129.844 8.43989 130.044 8.75189C130.244 9.06389 130.344 9.43589 130.344 9.86789C130.344 10.3479 130.224 10.7479 129.984 11.0679C129.744 11.3879 129.4 11.6079 128.952 11.7279L128.94 11.4879C129.308 11.5759 129.632 11.7199 129.912 11.9199C130.192 12.1199 130.408 12.3679 130.56 12.6639C130.712 12.9599 130.788 13.2959 130.788 13.6719C130.788 14.0879 130.72 14.4559 130.584 14.7759C130.448 15.0879 130.248 15.3479 129.984 15.5559C129.72 15.7639 129.408 15.9239 129.048 16.0359C128.696 16.1399 128.3 16.1919 127.86 16.1919H124.092ZM125.82 14.6319H127.788C128.044 14.6319 128.26 14.5959 128.436 14.5239C128.62 14.4439 128.76 14.3239 128.856 14.1639C128.952 14.0039 129 13.8159 129 13.5999C129 13.3919 128.948 13.2159 128.844 13.0719C128.74 12.9279 128.592 12.8199 128.4 12.7479C128.216 12.6679 127.992 12.6279 127.728 12.6279H125.82V14.6319ZM125.82 11.1999H127.524C127.74 11.1999 127.928 11.1599 128.088 11.0799C128.248 10.9999 128.368 10.8919 128.448 10.7559C128.536 10.6199 128.58 10.4599 128.58 10.2759C128.58 9.97989 128.484 9.75189 128.292 9.59189C128.1 9.43189 127.812 9.35189 127.428 9.35189H125.82V11.1999ZM135.184 16.3119C134.496 16.3119 133.896 16.1719 133.384 15.8919C132.872 15.6119 132.472 15.2279 132.184 14.7399C131.896 14.2519 131.752 13.6919 131.752 13.0599C131.752 12.5719 131.832 12.1239 131.992 11.7159C132.152 11.3079 132.376 10.9559 132.664 10.6599C132.952 10.3559 133.292 10.1239 133.684 9.96389C134.084 9.79589 134.516 9.71189 134.98 9.71189C135.412 9.71189 135.812 9.79189 136.18 9.95189C136.548 10.1039 136.864 10.3239 137.128 10.6119C137.4 10.8919 137.608 11.2239 137.752 11.6079C137.896 11.9919 137.96 12.4119 137.944 12.8679L137.932 13.3959H132.832L132.556 12.3519H136.528L136.336 12.5679V12.3039C136.32 12.0879 136.248 11.8919 136.12 11.7159C136 11.5399 135.844 11.4039 135.652 11.3079C135.46 11.2119 135.244 11.1639 135.004 11.1639C134.652 11.1639 134.352 11.2319 134.104 11.3679C133.864 11.5039 133.68 11.7039 133.552 11.9679C133.424 12.2319 133.36 12.5519 133.36 12.9279C133.36 13.3119 133.44 13.6439 133.6 13.9239C133.768 14.2039 134 14.4239 134.296 14.5839C134.6 14.7359 134.956 14.8119 135.364 14.8119C135.644 14.8119 135.9 14.7679 136.132 14.6799C136.364 14.5919 136.612 14.4399 136.876 14.2239L137.692 15.3639C137.46 15.5719 137.204 15.7479 136.924 15.8919C136.644 16.0279 136.356 16.1319 136.06 16.2039C135.764 16.2759 135.472 16.3119 135.184 16.3119ZM139.816 16.1919V8.23589H141.52V16.1919H139.816ZM138.628 11.3679V9.84389H142.816V11.3679H138.628ZM146.244 16.3119C145.716 16.3119 145.24 16.1679 144.816 15.8799C144.392 15.5919 144.056 15.1999 143.808 14.7039C143.56 14.2079 143.436 13.6399 143.436 12.9999C143.436 12.3599 143.56 11.7959 143.808 11.3079C144.064 10.8119 144.408 10.4239 144.84 10.1439C145.272 9.85589 145.764 9.71189 146.316 9.71189C146.628 9.71189 146.912 9.75989 147.168 9.85589C147.432 9.94389 147.66 10.0679 147.852 10.2279C148.052 10.3879 148.22 10.5719 148.356 10.7799C148.492 10.9879 148.588 11.2119 148.644 11.4519L148.284 11.3919V9.84389H149.976V16.1919H148.26V14.6679L148.644 14.6319C148.58 14.8559 148.476 15.0679 148.332 15.2679C148.188 15.4679 148.008 15.6479 147.792 15.8079C147.584 15.9599 147.348 16.0839 147.084 16.1799C146.82 16.2679 146.54 16.3119 146.244 16.3119ZM146.712 14.8359C147.032 14.8359 147.312 14.7599 147.552 14.6079C147.792 14.4559 147.976 14.2439 148.104 13.9719C148.24 13.6919 148.308 13.3679 148.308 12.9999C148.308 12.6399 148.24 12.3239 148.104 12.0519C147.976 11.7799 147.792 11.5679 147.552 11.4159C147.312 11.2559 147.032 11.1759 146.712 11.1759C146.4 11.1759 146.124 11.2559 145.884 11.4159C145.652 11.5679 145.468 11.7799 145.332 12.0519C145.196 12.3239 145.128 12.6399 145.128 12.9999C145.128 13.3679 145.196 13.6919 145.332 13.9719C145.468 14.2439 145.652 14.4559 145.884 14.6079C146.124 14.7599 146.4 14.8359 146.712 14.8359Z" fill="white"/>
</g>
<defs>
<filter id="filter0_d_2110_55915" x="118" y="0.191895" width="40" height="24" filterUnits="userSpaceOnUse" color-interpolation-filters="sRGB">
<feFlood flood-opacity="0" result="BackgroundImageFix"/>
<feColorMatrix in="SourceAlpha" type="matrix" values="0 0 0 0 0 0 0 0 0 0 0 0 0 0 0 0 0 0 127 0" result="hardAlpha"/>
<feOffset dx="1" dy="1"/>
<feGaussianBlur stdDeviation="1"/>
<feComposite in2="hardAlpha" operator="out"/>
<feColorMatrix type="matrix" values="0 0 0 0 0 0 0 0 0 0 0 0 0 0 0 0 0 0 0.25 0"/>
<feBlend mode="normal" in2="BackgroundImageFix" result="effect1_dropShadow_2110_55915"/>
<feBlend mode="normal" in="SourceGraphic" in2="effect1_dropShadow_2110_55915" result="shape"/>
</filter>
<radialGradient id="paint0_radial_2110_55915" cx="0" cy="0" r="1" gradientUnits="userSpaceOnUse" gradientTransform="translate(152.75 1.90618) rotate(131.079) scale(25.1106 15.7602)">
<stop stop-color="#1FC583"/>
<stop offset="1" stop-color="#1F9285"/>
</radialGradient>
</defs>
</svg>
