<svg width="88" height="32" viewBox="0 0 88 32" fill="none" xmlns="http://www.w3.org/2000/svg">
<path d="M0.00421482 31.5837C0.0611148 31.4235 0.124337 31.2676 0.174915 31.1053C0.769204 29.2149 1.53841 27.4047 2.62162 25.7398C3.47722 24.4248 4.4677 23.2299 5.71529 22.2647C7.14411 21.1604 8.75206 20.4671 10.5265 20.1489C11.8141 19.9192 13.1102 19.759 14.421 19.7316C15.0616 19.719 15.7002 19.74 16.3408 19.7295C17.8034 19.7042 19.1563 19.2912 20.3892 18.5156C21.0446 18.1047 21.6663 17.6411 22.3027 17.2006C22.3427 17.1732 22.3828 17.1479 22.4523 17.1016C22.4376 17.169 22.4355 17.1985 22.4228 17.2259C22.0077 18.1911 21.5904 19.1563 21.0361 20.054C20.1215 21.5334 18.933 22.722 17.3608 23.4975C16.4062 23.9696 15.3967 24.2604 14.3472 24.4311C13.0301 24.644 11.7066 24.6524 10.379 24.5744C9.66668 24.5323 8.95227 24.4986 8.23996 24.5997C7.14622 24.7578 6.13677 25.1413 5.21162 25.7483C4.33283 26.3236 3.60367 27.0612 2.92087 27.8472C1.95778 28.9557 1.12957 30.1654 0.330863 31.394C0.280285 31.472 0.223385 31.5478 0.155948 31.6069C0.120122 31.6385 0.0526852 31.6321 0 31.6427C0 31.6237 0 31.6047 0 31.5879L0.00421482 31.5837Z" fill="#1760B9"/>
<path d="M2.12397 23.9821C2.17033 23.744 2.21248 23.5059 2.26516 23.2698C2.69297 21.3584 3.22193 19.4765 3.93634 17.6515C4.70976 15.6768 5.65809 13.7949 6.93518 12.0921C8.30078 10.2713 9.97827 8.81723 12.033 7.8141C13.2722 7.20928 14.5745 6.7878 15.9317 6.55387C17.3605 6.30731 18.7957 6.10289 20.2266 5.87529C22.4141 5.52967 24.5889 5.13559 26.7111 4.4844C28.5235 3.92804 30.26 3.19888 31.8258 2.11989C32.5507 1.62043 33.223 1.04722 33.9163 0.505613C34.0238 0.421317 34.1271 0.330699 34.2324 0.242188C34.2472 0.24851 34.2598 0.254832 34.2746 0.261154C34.1102 0.798543 33.9711 1.34647 33.7772 1.87332C33.0565 3.84164 32.0829 5.67087 30.7215 7.27671C28.7026 9.65598 26.1906 11.2534 23.1538 12.0163C22.1759 12.2628 21.1834 12.4083 20.176 12.463C19.3099 12.5094 18.4416 12.5242 17.5776 12.5747C13.4892 12.815 9.85604 14.1679 6.81506 16.9729C4.90785 18.7305 3.5001 20.8316 2.49908 23.2129C2.40636 23.4342 2.31995 23.6597 2.22934 23.8831C2.21248 23.9231 2.19351 23.9611 2.17665 24.0011C2.15768 23.9948 2.13872 23.9906 2.11975 23.9842L2.12397 23.9821Z" fill="#1760B9"/>
<path d="M40.4267 21.4387C40.7112 21.0784 40.9767 20.7391 41.2423 20.3998C43.1221 18.0079 45.0019 15.616 46.8817 13.2241C46.9702 13.1103 47.0819 13.0513 47.2273 13.0513C48.1567 13.0513 49.0839 13.0513 50.0133 13.0513C50.2851 13.0513 50.4516 13.2241 50.4158 13.498C50.3737 13.8141 50.3041 14.126 50.2409 14.4379C49.9943 15.6897 49.7456 16.9415 49.4991 18.1912C49.2609 19.3925 49.0249 20.5937 48.7868 21.797C48.5212 23.1394 48.2578 24.4818 47.9944 25.8243C47.9038 26.2816 47.8153 26.741 47.7204 27.1983C47.6762 27.4175 47.5308 27.5355 47.3095 27.5355C46.3338 27.5355 45.3601 27.5376 44.3844 27.5355C44.0936 27.5355 43.9187 27.3121 43.9756 27.0213C44.1737 26.0097 44.3739 24.9982 44.572 23.9866C44.8333 22.6526 45.0925 21.3207 45.3538 19.9867C45.3559 19.9741 45.3517 19.9593 45.3454 19.9172C45.2969 19.9741 45.2632 20.012 45.2295 20.0542C43.7121 22.0056 42.1948 23.955 40.6796 25.9086C40.5805 26.0371 40.4625 26.1045 40.3024 26.1045C39.8746 26.1045 39.4489 26.1045 39.0211 26.1045C38.8103 26.1045 38.6797 25.9992 38.5996 25.8074C37.7966 23.9065 36.9916 22.0056 36.1866 20.1048C36.1613 20.0457 36.1318 19.991 36.0854 19.894C36.0201 20.2143 35.9632 20.4946 35.9063 20.7728C35.5839 22.3723 35.2635 23.974 34.9411 25.5756C34.8357 26.1003 34.7304 26.6272 34.625 27.1519C34.5723 27.4196 34.4353 27.5376 34.1677 27.5376C33.2215 27.5376 32.2731 27.5376 31.3269 27.5376C30.9939 27.5376 30.8296 27.3268 30.897 27.0002C31.1984 25.5039 31.4955 24.0056 31.7948 22.5093C32.0687 21.1437 32.3406 19.7781 32.6145 18.4125C32.937 16.8003 33.2594 15.1861 33.5818 13.5739C33.5966 13.4959 33.6134 13.4201 33.6345 13.3442C33.6809 13.1693 33.8136 13.0534 33.9928 13.0513C34.9221 13.0492 35.8494 13.047 36.7788 13.0513C36.9621 13.0513 37.0696 13.1651 37.137 13.3315C37.4869 14.1977 37.8388 15.0638 38.1907 15.93C38.9115 17.7065 39.6301 19.481 40.3487 21.2575C40.3698 21.3081 40.393 21.3566 40.4288 21.4345L40.4267 21.4387Z" fill="#1760B9"/>
<path d="M59.8506 13.0599C61.781 13.0599 63.7135 13.0536 65.6439 13.062C66.3604 13.0641 67.0537 13.2116 67.6902 13.5572C68.4931 13.9935 68.904 14.6742 68.9209 15.5867C68.9525 17.2557 68.5648 18.8384 67.8925 20.3515C67.3404 21.5928 66.3288 22.3051 65.0327 22.6402C64.7103 22.7224 64.7124 22.7181 64.8747 23.0048C65.6102 24.3029 66.3457 25.6011 67.079 26.8992C67.2055 27.1247 67.1886 27.3018 67.0221 27.4366C66.9547 27.4914 66.8578 27.5378 66.7735 27.5378C65.646 27.5441 64.5185 27.5441 63.389 27.5378C63.1466 27.5378 62.9949 27.3544 62.8832 27.1669C62.7188 26.8887 62.5818 26.5937 62.4301 26.3071C61.9096 25.325 61.3827 24.3451 60.8664 23.3609C60.7695 23.1755 60.6367 23.089 60.4259 23.0912C58.7084 23.0975 56.9909 23.0996 55.2733 23.1017C55.2185 23.1017 55.1616 23.1017 55.1069 23.1059C54.9825 23.1164 54.9214 23.1923 54.8961 23.3103C54.7865 23.8646 54.6769 24.4167 54.5652 24.9689C54.4283 25.6474 54.2934 26.3281 54.148 27.0067C54.0658 27.3903 53.9056 27.5357 53.5179 27.5441C52.7529 27.5589 51.9858 27.5525 51.2208 27.5546C51.0438 27.5546 50.8667 27.5546 50.6918 27.542C50.4621 27.5251 50.3441 27.3818 50.3884 27.1542C50.5296 26.4377 50.6792 25.7233 50.8288 25.0089C51.1491 23.4747 51.4737 21.9426 51.794 20.4084C52.1059 18.9143 52.4115 17.4201 52.7234 15.9281C52.8814 15.1715 53.0416 14.4171 53.2102 13.6647C53.3071 13.2306 53.5368 13.062 53.9815 13.062C55.9351 13.062 57.8907 13.062 59.8443 13.062L59.8506 13.0599ZM55.5747 20.1703C55.6548 20.1745 55.718 20.1787 55.7791 20.1787C57.9961 20.1787 60.2152 20.1787 62.4322 20.1787C62.6998 20.1787 62.9696 20.1745 63.2372 20.1534C63.8568 20.105 64.312 19.8247 64.5501 19.2262C64.8073 18.5834 64.94 17.9175 64.959 17.2262C64.9695 16.8343 64.7672 16.5729 64.3773 16.4929C64.1118 16.4381 63.8378 16.3896 63.566 16.3896C61.3111 16.3812 59.0561 16.3833 56.8012 16.3854C56.464 16.3854 56.3629 16.476 56.2912 16.8069C56.1205 17.6119 55.9456 18.4148 55.7728 19.2177C55.7054 19.5275 55.64 19.8394 55.5705 20.1682L55.5747 20.1703Z" fill="#1760B9"/>
<path d="M78.8657 13.0599C80.7876 13.0599 82.7096 13.0536 84.6315 13.062C85.4155 13.0662 86.17 13.2243 86.8549 13.6289C87.5145 14.0188 87.8727 14.6131 87.9655 15.3654C88.0582 16.1283 87.9549 16.8806 87.7716 17.6203C87.5651 18.4591 87.3775 19.3041 87.1204 20.1281C86.798 21.1629 86.1847 22.0058 85.2406 22.5791C84.661 22.9289 84.0309 23.1459 83.3608 23.2197C82.8234 23.2808 82.2797 23.3103 81.7381 23.3124C79.2071 23.323 76.6782 23.3188 74.1472 23.3145C74.0081 23.3145 73.9491 23.3483 73.9175 23.4937C73.6667 24.6738 73.4075 25.8519 73.1462 27.0278C73.0619 27.4071 72.9122 27.5357 72.5308 27.5399C71.6204 27.5483 70.7121 27.5441 69.8017 27.5357C69.5362 27.5357 69.4182 27.4134 69.454 27.15C69.5067 26.7623 69.5889 26.3766 69.669 25.9931C69.9492 24.6169 70.2295 23.2408 70.5161 21.8646C70.8133 20.4443 71.1167 19.026 71.4202 17.6077C71.6942 16.3285 71.9681 15.0514 72.2442 13.7722C72.2568 13.7174 72.2674 13.6647 72.2821 13.6099C72.3896 13.2327 72.6214 13.0578 73.0134 13.0578C74.9628 13.0578 76.9121 13.0578 78.8636 13.0578L78.8657 13.0599ZM74.6488 20.1155C74.7352 20.1197 74.8047 20.126 74.8721 20.126C77.087 20.126 79.2998 20.126 81.5147 20.126C81.7739 20.126 82.0331 20.1155 82.2923 20.1007C82.9498 20.0628 83.4451 19.7003 83.6326 19.0723C83.7949 18.5328 83.9256 17.9849 84.0457 17.4349C84.1447 16.9839 83.8961 16.6067 83.4472 16.5013C83.2322 16.4507 83.0088 16.417 82.7876 16.417C80.4715 16.4107 78.1555 16.4128 75.8373 16.4107C75.5381 16.4107 75.4074 16.5203 75.3463 16.8111C75.1651 17.6751 74.9796 18.537 74.7963 19.4011C74.7457 19.635 74.6993 19.8689 74.6466 20.1176L74.6488 20.1155Z" fill="#1760B9"/>
<path d="M26.3067 26.5747C27.2023 25.7001 28.0853 24.8403 28.9704 23.9763C29.0695 24.1533 29.118 24.3662 29.1327 24.5853C29.2423 26.0668 28.3213 27.3144 26.8715 27.6326C25.5375 27.9256 23.8642 27.0763 23.5502 25.4178C23.2172 23.6517 24.4753 22.2967 25.9653 22.0838C26.804 21.9637 27.55 22.2335 28.1886 22.7835C28.3003 22.8804 28.3993 22.9921 28.4984 23.1017C28.5827 23.1965 28.5806 23.2935 28.4878 23.3841C27.7903 24.0774 27.0927 24.7708 26.3952 25.4641C26.3067 25.5505 26.2392 25.5632 26.1423 25.4599C25.803 25.0995 25.4511 24.7476 25.1076 24.3914C25.0717 24.3556 25.0528 24.305 25.0127 24.2418C24.8315 24.4652 24.684 24.6464 24.528 24.8382C25.1265 25.4241 25.7187 26.0036 26.3025 26.5747H26.3067Z" fill="#1760B9"/>
</svg>
