<svg width="911" height="866" viewBox="0 0 911 866" fill="none" xmlns="http://www.w3.org/2000/svg">
<mask id="mask0_740_11427" style="mask-type:luminance" maskUnits="userSpaceOnUse" x="0" y="413" width="624" height="453">
<path d="M527.598 487.172C517.634 492.087 507.295 496.449 496.781 500.245C496.594 500.372 496.399 500.426 496.221 500.502C446.101 520.259 391.235 536.177 337.386 540.68C299.244 543.852 261.172 545.152 224.493 557.089C191.8 567.719 161.206 584.414 134.448 605.979C110.715 625.1 90.1104 648.004 73.6042 673.783C73.3528 674.097 73.107 674.467 72.9262 674.845C67.5701 683.8 62.457 692.967 57.6066 702.235C57.3523 702.678 57.1094 703.114 56.9201 703.605C30.6368 753.672 11.2718 807.904 0.00878906 865.061C7.85648 844.508 17.8229 825.09 29.7074 806.906C51.0216 776.46 74.8613 749.266 104.828 726.981C130.055 708.229 158.124 693.351 187.817 683.04C221.611 671.32 255.468 667.377 291.054 666.345C298.396 666.139 305.772 666.224 313.162 666.292C325.374 666.422 337.587 666.555 349.627 665.365C367.52 663.589 385.263 660.278 402.58 655.433C435.957 646.08 467.599 631.027 496.026 611.208C555.311 569.855 599.456 508.223 618.386 436.421C620.437 428.836 622.121 421.11 623.556 413.328C596.964 443.895 564.345 469.113 527.598 487.172Z" fill="white"/>
</mask>
<g mask="url(#mask0_740_11427)">
<path d="M-130.52 454.869L566.229 233.187L754.077 823.544L57.3272 1045.23L-130.52 454.869Z" fill="url(#paint0_linear_740_11427)"/>
</g>
<mask id="mask1_740_11427" style="mask-type:luminance" maskUnits="userSpaceOnUse" x="65" y="0" width="846" height="613">
<path d="M783.824 98.6347C769.385 105.886 754.419 112.273 739.116 117.79C738.85 117.858 738.588 117.993 738.382 118.123C678.586 141.674 616.203 158.569 552.681 168.405C489.885 178.128 425.833 175.789 364.907 196.546C322.527 210.981 282.888 232.925 247.966 261.003C214.377 288.068 185.506 320.797 162.63 357.576C156.777 367.486 151.118 377.525 145.66 387.709C108.558 457.352 81.2827 532.914 65.5789 612.721C76.2232 584.718 89.8564 558.173 105.956 533.439C178.523 421.96 298.58 354.517 430.412 345.076C487.292 340.955 544.89 344.867 600.567 330.898C649.783 318.596 696.55 297.113 738.116 268.181C818.469 212.108 878.332 128.57 904.081 31.1946C906.672 21.2145 908.935 10.9717 910.864 0.725982C910.923 0.457623 910.923 0.268359 910.997 0C875.685 40.5759 832.441 74.2338 783.824 98.6347Z" fill="white"/>
</mask>
<g mask="url(#mask1_740_11427)">
<path d="M-111.464 56.3397L833.279 -244.251L1088.04 556.4L143.3 856.991L-111.464 56.3397Z" fill="url(#paint1_linear_740_11427)"/>
</g>
<mask id="mask2_740_11427" style="mask-type:luminance" maskUnits="userSpaceOnUse" x="65" y="0" width="846" height="613">
<path d="M783.823 98.6376C769.385 105.889 754.419 112.276 739.116 117.793C738.85 117.861 738.588 117.996 738.381 118.126C678.586 141.677 616.203 158.572 552.681 168.408C489.885 178.131 425.833 175.792 364.907 196.549C322.527 210.984 282.888 232.927 247.966 261.006C214.377 288.071 185.506 320.8 162.63 357.579C156.777 367.488 151.118 377.528 145.66 387.711C108.558 457.355 81.2827 532.916 65.5789 612.724C76.8193 577.08 91.3197 543.286 108.411 511.691C185.373 369.751 312.685 283.814 452.5 271.772C512.829 266.585 573.964 271.645 633.02 253.814C685.182 238.122 734.726 210.778 778.832 173.863C832.777 128.708 877.999 69.5079 910.867 0.725993C910.926 0.457634 910.926 0.268359 911 0C875.685 40.5787 832.441 74.2366 783.823 98.6376Z" fill="white"/>
</mask>
<g mask="url(#mask2_740_11427)">
<path d="M-240.555 294.244L505.009 -422.365L1217.13 318.476L471.573 1035.08L-240.555 294.244Z" fill="url(#paint2_linear_740_11427)"/>
</g>
<mask id="mask3_740_11427" style="mask-type:luminance" maskUnits="userSpaceOnUse" x="0" y="413" width="624" height="453">
<path d="M529.756 486.152C519.1 491.491 508.06 496.208 496.778 500.276C496.58 500.33 496.388 500.423 496.235 500.516C452.129 517.886 406.12 530.352 359.262 537.615C312.95 544.773 265.706 543.053 220.764 558.366C189.511 569.01 160.273 585.199 134.521 605.905C109.743 625.86 88.4518 650.006 71.5784 677.125C67.2591 684.441 63.0923 691.856 59.0696 699.353C31.6959 750.723 11.5738 806.446 0 865.324C8.28838 839.025 18.9864 814.104 31.5942 790.799C88.3529 686.108 182.26 622.735 285.376 613.846C329.877 610.015 374.963 613.75 418.529 600.6C456.994 589.03 493.543 568.866 526.061 541.634C565.856 508.321 599.216 464.661 623.451 413.935C623.505 413.737 623.505 413.596 623.55 413.398C597.492 443.319 565.61 468.141 529.756 486.152Z" fill="white"/>
</mask>
<g mask="url(#mask3_740_11427)">
<path d="M-221.881 596.554L370.814 107.256L845.433 682.126L252.74 1171.43L-221.881 596.554Z" fill="url(#paint3_linear_740_11427)"/>
</g>
<defs>
<linearGradient id="paint0_linear_740_11427" x1="-64.6139" y1="759.222" x2="1991.48" y2="104.983" gradientUnits="userSpaceOnUse">
<stop stopColor="#166846"/>
<stop offset="1" stopColor="#00AA59"/>
</linearGradient>
<linearGradient id="paint1_linear_740_11427" x1="-147.095" y1="509.153" x2="1911.07" y2="-145.742" gradientUnits="userSpaceOnUse">
<stop stopColor="#166846"/>
<stop offset="1" stopColor="#00AA59"/>
</linearGradient>
<linearGradient id="paint2_linear_740_11427" x1="106.401" y1="673.651" x2="776.63" y2="29.3971" gradientUnits="userSpaceOnUse">
<stop stopColor="#166846"/>
<stop offset="1" stopColor="#00AA59"/>
</linearGradient>
<linearGradient id="paint3_linear_740_11427" x1="-2.00942" y1="898.378" x2="494.841" y2="488.172" gradientUnits="userSpaceOnUse">
<stop stopColor="#166846"/>
<stop offset="1" stopColor="#00AA59"/>
</linearGradient>
</defs>
</svg>
