<svg width="150" height="143" viewBox="0 0 150 143" fill="none" xmlns="http://www.w3.org/2000/svg">
<mask id="mask0_468_64" style="mask-type:luminance" maskUnits="userSpaceOnUse" x="0" y="68" width="103" height="75">
<path d="M86.8713 80.229C85.2307 81.0383 83.5283 81.7564 81.7971 82.3816C81.7664 82.4025 81.7343 82.4113 81.705 82.4239C73.4525 85.6769 64.4185 88.2979 55.5521 89.0393C49.2718 89.5616 43.0031 89.7756 36.9637 91.7412C31.5807 93.4914 26.5432 96.2403 22.1374 99.791C18.2298 102.939 14.8371 106.711 12.1193 110.955C12.0779 111.007 12.0374 111.068 12.0076 111.13C11.1257 112.605 10.2838 114.114 9.48518 115.64C9.44332 115.713 9.40332 115.785 9.37216 115.865C5.0445 124.109 1.85597 133.039 0.00146484 142.45C1.29362 139.066 2.93463 135.868 4.89147 132.874C8.40094 127.861 12.3263 123.384 17.2604 119.714C21.4141 116.627 26.0358 114.177 30.9248 112.479C36.4893 110.55 42.064 109.9 47.9233 109.731C49.1322 109.697 50.3467 109.711 51.5635 109.722C53.5743 109.743 55.5851 109.765 57.5675 109.569C60.5137 109.277 63.4352 108.731 66.2866 107.934C71.7822 106.394 76.9922 103.915 81.6729 100.652C91.4343 93.843 98.703 83.6951 101.82 71.8727C102.158 70.6238 102.435 69.3517 102.671 68.0703C98.2928 73.1034 92.9218 77.2555 86.8713 80.229Z" fill="white"/>
</mask>
<g mask="url(#mask0_468_64)">
<path d="M-21.4908 74.9099L93.2319 38.4092L124.162 135.613L9.43903 172.116L-21.4908 74.9099Z" fill="url(#paint0_linear_468_64)"/>
</g>
<mask id="mask1_468_64" style="mask-type:luminance" maskUnits="userSpaceOnUse" x="10" y="0" width="140" height="101">
<path d="M129.06 16.2552C126.683 17.4492 124.218 18.5008 121.699 19.4092C121.655 19.4203 121.612 19.4427 121.578 19.4641C111.732 23.3418 101.46 26.1236 91.0013 27.7432C80.6617 29.3441 70.1152 28.959 60.0835 32.3767C53.1055 34.7535 46.5787 38.3665 40.8286 42.9898C35.2981 47.4461 30.5444 52.835 26.7777 58.8908C25.8139 60.5225 24.8823 62.1755 23.9836 63.8522C17.8745 75.3193 13.3836 87.7608 10.7979 100.901C12.5505 96.2906 14.7953 91.9199 17.4461 87.8473C29.3946 69.4918 49.1625 58.3871 70.8691 56.8327C80.2347 56.1541 89.7184 56.7983 98.8859 54.4982C106.99 52.4726 114.69 48.9354 121.534 44.1717C134.764 34.939 144.621 21.1841 148.861 5.15096C149.287 3.50769 149.66 1.82117 149.978 0.134184C149.987 0.0899977 149.987 0.0588348 150 0.0146484C144.185 6.69562 137.065 12.2375 129.06 16.2552Z" fill="white"/>
</mask>
<g mask="url(#mask1_468_64)">
<path d="M-18.3528 9.29118L137.203 -40.2021L179.151 91.6279L23.5953 141.121L-18.3528 9.29118Z" fill="url(#paint1_linear_468_64)"/>
</g>
<mask id="mask2_468_64" style="mask-type:luminance" maskUnits="userSpaceOnUse" x="10" y="0" width="140" height="101">
<path d="M129.06 16.2557C126.683 17.4496 124.218 18.5013 121.699 19.4097C121.655 19.4208 121.612 19.4431 121.578 19.4645C111.732 23.3422 101.46 26.1241 91.0013 27.7437C80.6617 29.3446 70.1152 28.9595 60.0835 32.3772C53.1055 34.7539 46.5787 38.367 40.8286 42.9903C35.2981 47.4466 30.5444 52.8354 26.7777 58.8913C25.8139 60.5229 24.8823 62.176 23.9836 63.8527C17.8745 75.3198 13.3836 87.7612 10.7979 100.902C12.6486 95.0329 15.0362 89.4687 17.8503 84.2663C30.5225 60.8955 51.4849 46.7456 74.5061 44.7628C84.4396 43.9089 94.5056 44.7419 104.229 41.8061C112.818 39.2223 120.976 34.72 128.238 28.6418C137.12 21.2069 144.566 11.4594 149.978 0.134186C149.988 0.0899995 149.988 0.0588348 150 0.0146484C144.185 6.69608 137.065 12.238 129.06 16.2557Z" fill="white"/>
</mask>
<g mask="url(#mask2_468_64)">
<path d="M-39.6084 48.4631L83.152 -69.5293L200.406 52.4528L77.6466 170.445L-39.6084 48.4631Z" fill="url(#paint2_linear_468_64)"/>
</g>
<mask id="mask3_468_64" style="mask-type:luminance" maskUnits="userSpaceOnUse" x="0" y="68" width="103" height="75">
<path d="M87.2266 80.0612C85.4721 80.9402 83.6543 81.717 81.7965 82.3868C81.764 82.3956 81.7323 82.411 81.7072 82.4263C74.445 85.2863 66.8693 87.3389 59.154 88.5347C51.5286 89.7133 43.7496 89.4301 36.3497 91.9515C31.2038 93.704 26.3897 96.3696 22.1494 99.779C18.0697 103.065 14.564 107.04 11.7857 111.506C11.0745 112.71 10.3884 113.931 9.72605 115.166C5.21886 123.624 1.90567 132.799 0 142.493C1.36472 138.163 3.1262 134.06 5.20211 130.222C14.5477 112.985 30.0098 102.55 46.9883 101.086C54.3157 100.456 61.7393 101.071 68.9127 98.9055C75.246 97.0003 81.2639 93.6803 86.6182 89.1966C93.1706 83.7114 98.6634 76.5225 102.654 68.1704C102.663 68.1378 102.663 68.1146 102.67 68.082C98.3797 73.0086 93.1301 77.0956 87.2266 80.0612Z" fill="white"/>
</mask>
<g mask="url(#mask3_468_64)">
<path d="M-36.5337 98.2395L61.0562 17.6748L139.204 112.329L41.6148 192.894L-36.5337 98.2395Z" fill="url(#paint3_linear_468_64)"/>
</g>
<defs>
<linearGradient id="paint0_linear_468_64" x1="-10.6391" y1="125.023" x2="327.906" y2="17.2991" gradientUnits="userSpaceOnUse">
<stop stopColor="#166846"/>
<stop offset="1" stopColor="#00AA59"/>
</linearGradient>
<linearGradient id="paint1_linear_468_64" x1="-24.2195" y1="83.8486" x2="314.665" y2="-23.983" gradientUnits="userSpaceOnUse">
<stop stopColor="#166846"/>
<stop offset="1" stopColor="#00AA59"/>
</linearGradient>
<linearGradient id="paint2_linear_468_64" x1="17.5194" y1="110.934" x2="127.875" y2="4.85453" gradientUnits="userSpaceOnUse">
<stop stopColor="#166846"/>
<stop offset="1" stopColor="#00AA59"/>
</linearGradient>
<linearGradient id="paint3_linear_468_64" x1="-0.330845" y1="147.936" x2="81.4774" y2="80.3937" gradientUnits="userSpaceOnUse">
<stop stopColor="#166846"/>
<stop offset="1" stopColor="#00AA59"/>
</linearGradient>
</defs>
</svg>
