<svg width="64" height="65" viewBox="0 0 64 65" fill="none" xmlns="http://www.w3.org/2000/svg">
<path opacity="0.2" d="M56 14.6846V52.6846H8V12.6846H54C54.5304 12.6846 55.0391 12.8953 55.4142 13.2704C55.7893 13.6454 56 14.1541 56 14.6846Z" fill="url(#paint0_linear_3310_6072)"/>
<path d="M58 52.6846C58 53.215 57.7893 53.7237 57.4142 54.0988C57.0391 54.4739 56.5304 54.6846 56 54.6846H8C7.46957 54.6846 6.96086 54.4739 6.58579 54.0988C6.21071 53.7237 6 53.215 6 52.6846V12.6846C6 12.1541 6.21071 11.6454 6.58579 11.2704C6.96086 10.8953 7.46957 10.6846 8 10.6846C8.53043 10.6846 9.03914 10.8953 9.41421 11.2704C9.78929 11.6454 10 12.1541 10 12.6846V39.8571L22.585 27.2696C22.7707 27.0836 22.9913 26.9361 23.2341 26.8355C23.4769 26.7348 23.7372 26.683 24 26.683C24.2628 26.683 24.5231 26.7348 24.7659 26.8355C25.0087 26.9361 25.2293 27.0836 25.415 27.2696L32 33.8571L45.1725 20.6846H40C39.4696 20.6846 38.9609 20.4739 38.5858 20.0988C38.2107 19.7237 38 19.215 38 18.6846C38 18.1541 38.2107 17.6454 38.5858 17.2704C38.9609 16.8953 39.4696 16.6846 40 16.6846H50C50.5304 16.6846 51.0391 16.8953 51.4142 17.2704C51.7893 17.6454 52 18.1541 52 18.6846V28.6846C52 29.215 51.7893 29.7237 51.4142 30.0988C51.0391 30.4739 50.5304 30.6846 50 30.6846C49.4696 30.6846 48.9609 30.4739 48.5858 30.0988C48.2107 29.7237 48 29.215 48 28.6846V23.5121L33.415 38.0996C33.2293 38.2855 33.0087 38.433 32.7659 38.5337C32.5231 38.6343 32.2628 38.6861 32 38.6861C31.7372 38.6861 31.4769 38.6343 31.2341 38.5337C30.9913 38.433 30.7707 38.2855 30.585 38.0996L24 31.5121L10 45.5121V50.6846H56C56.5304 50.6846 57.0391 50.8953 57.4142 51.2704C57.7893 51.6454 58 52.1541 58 52.6846Z" fill="url(#paint1_linear_3310_6072)"/>
<defs>
<linearGradient id="paint0_linear_3310_6072" x1="32" y1="12.6846" x2="32" y2="52.6846" gradientUnits="userSpaceOnUse">
<stop stop-color="#9DFFB3"/>
<stop offset="1" stop-color="#1AA37A"/>
</linearGradient>
<linearGradient id="paint1_linear_3310_6072" x1="11.605" y1="47.3038" x2="58.6316" y2="35.2245" gradientUnits="userSpaceOnUse">
<stop stop-color="#0375F3"/>
<stop offset="0.111111" stop-color="#036EEA"/>
<stop offset="0.222222" stop-color="#0267E1"/>
<stop offset="0.333333" stop-color="#0261D7"/>
<stop offset="0.444444" stop-color="#025ACE"/>
<stop offset="0.555556" stop-color="#0254C5"/>
<stop offset="0.666667" stop-color="#024EBC"/>
<stop offset="0.777778" stop-color="#0148B3"/>
<stop offset="0.888889" stop-color="#0142A9"/>
<stop offset="1" stop-color="#013DA0"/>
</linearGradient>
</defs>
</svg>
