<svg width="64" height="65" viewBox="0 0 64 65" fill="none" xmlns="http://www.w3.org/2000/svg">
<path opacity="0.2" d="M50 16.6846V20.6846H44C42.9391 20.6846 41.9217 21.106 41.1716 21.8561C40.4214 22.6063 40 23.6237 40 24.6846V44.6846H10C8.93913 44.6846 7.92172 44.2631 7.17157 43.513C6.42143 42.7629 6 41.7454 6 40.6846V16.6846C6 15.6237 6.42143 14.6063 7.17157 13.8561C7.92172 13.106 8.93913 12.6846 10 12.6846H46C47.0609 12.6846 48.0783 13.106 48.8284 13.8561C49.5786 14.6063 50 15.6237 50 16.6846Z" fill="url(#paint0_linear_3310_6866)"/>
<path d="M56 18.6846H52V16.6846C52 15.0933 51.3679 13.5671 50.2426 12.4419C49.1174 11.3167 47.5913 10.6846 46 10.6846H10C8.4087 10.6846 6.88258 11.3167 5.75736 12.4419C4.63214 13.5671 4 15.0933 4 16.6846V40.6846C4 42.2759 4.63214 43.802 5.75736 44.9272C6.88258 46.0524 8.4087 46.6846 10 46.6846H38V48.6846C38 50.2759 38.6321 51.802 39.7574 52.9272C40.8826 54.0524 42.4087 54.6846 44 54.6846H56C57.5913 54.6846 59.1174 54.0524 60.2426 52.9272C61.3679 51.802 62 50.2759 62 48.6846V24.6846C62 23.0933 61.3679 21.5671 60.2426 20.4419C59.1174 19.3167 57.5913 18.6846 56 18.6846ZM10 42.6846C9.46957 42.6846 8.96086 42.4739 8.58579 42.0988C8.21071 41.7237 8 41.215 8 40.6846V16.6846C8 16.1541 8.21071 15.6454 8.58579 15.2704C8.96086 14.8953 9.46957 14.6846 10 14.6846H46C46.5304 14.6846 47.0391 14.8953 47.4142 15.2704C47.7893 15.6454 48 16.1541 48 16.6846V18.6846H44C42.4087 18.6846 40.8826 19.3167 39.7574 20.4419C38.6321 21.5671 38 23.0933 38 24.6846V42.6846H10ZM58 48.6846C58 49.215 57.7893 49.7237 57.4142 50.0988C57.0391 50.4739 56.5304 50.6846 56 50.6846H44C43.4696 50.6846 42.9609 50.4739 42.5858 50.0988C42.2107 49.7237 42 49.215 42 48.6846V24.6846C42 24.1541 42.2107 23.6454 42.5858 23.2704C42.9609 22.8953 43.4696 22.6846 44 22.6846H56C56.5304 22.6846 57.0391 22.8953 57.4142 23.2704C57.7893 23.6454 58 24.1541 58 24.6846V48.6846ZM34 52.6846C34 53.215 33.7893 53.7237 33.4142 54.0988C33.0391 54.4739 32.5304 54.6846 32 54.6846H22C21.4696 54.6846 20.9609 54.4739 20.5858 54.0988C20.2107 53.7237 20 53.215 20 52.6846C20 52.1541 20.2107 51.6454 20.5858 51.2704C20.9609 50.8953 21.4696 50.6846 22 50.6846H32C32.5304 50.6846 33.0391 50.8953 33.4142 51.2704C33.7893 51.6454 34 52.1541 34 52.6846ZM54 28.6846C54 29.215 53.7893 29.7237 53.4142 30.0988C53.0391 30.4739 52.5304 30.6846 52 30.6846H48C47.4696 30.6846 46.9609 30.4739 46.5858 30.0988C46.2107 29.7237 46 29.215 46 28.6846C46 28.1541 46.2107 27.6454 46.5858 27.2704C46.9609 26.8953 47.4696 26.6846 48 26.6846H52C52.5304 26.6846 53.0391 26.8953 53.4142 27.2704C53.7893 27.6454 54 28.1541 54 28.6846Z" fill="url(#paint1_linear_3310_6866)"/>
<defs>
<linearGradient id="paint0_linear_3310_6866" x1="28" y1="12.6846" x2="28" y2="44.6846" gradientUnits="userSpaceOnUse">
<stop stop-color="#9DFFB3"/>
<stop offset="1" stop-color="#1AA37A"/>
</linearGradient>
<linearGradient id="paint1_linear_3310_6866" x1="10.2517" y1="47.3038" x2="61.9238" y2="32.4998" gradientUnits="userSpaceOnUse">
<stop stop-color="#0375F3"/>
<stop offset="0.111111" stop-color="#036EEA"/>
<stop offset="0.222222" stop-color="#0267E1"/>
<stop offset="0.333333" stop-color="#0261D7"/>
<stop offset="0.444444" stop-color="#025ACE"/>
<stop offset="0.555556" stop-color="#0254C5"/>
<stop offset="0.666667" stop-color="#024EBC"/>
<stop offset="0.777778" stop-color="#0148B3"/>
<stop offset="0.888889" stop-color="#0142A9"/>
<stop offset="1" stop-color="#013DA0"/>
</linearGradient>
</defs>
</svg>
