<svg width="64" height="65" viewBox="0 0 64 65" fill="none" xmlns="http://www.w3.org/2000/svg">
<path opacity="0.2" d="M4 38.6847H12V52.6847H4C3.46957 52.6847 2.96086 52.4739 2.58579 52.0989C2.21071 51.7238 2 51.2151 2 50.6847V40.6847C2 40.1542 2.21071 39.6455 2.58579 39.2704C2.96086 38.8954 3.46957 38.6847 4 38.6847ZM51 14.6847C49.9621 14.6853 48.9374 14.9167 48 15.3622C47.9319 13.8608 47.3825 12.4213 46.4329 11.2564C45.4834 10.0915 44.1841 9.26314 42.7273 8.89384C41.2705 8.52453 39.7335 8.63389 38.3437 9.20572C36.9539 9.77756 35.785 10.7815 35.0099 12.0691C34.2348 13.3567 33.8947 14.8596 34.0399 16.3554C34.1851 17.8512 34.8078 19.2606 35.816 20.3752C36.8243 21.4897 38.1644 22.2501 39.6382 22.544C41.1121 22.8379 42.6414 22.6497 44 22.0072C44.0631 23.3761 44.5267 24.6964 45.3333 25.8044C46.1398 26.9123 47.2538 27.7592 48.5371 28.2399C49.8205 28.7206 51.2167 28.814 52.5527 28.5086C53.8886 28.2032 55.1055 27.5123 56.0525 26.5217C56.9995 25.5311 57.6348 24.2843 57.8798 22.936C58.1248 21.5877 57.9686 20.1971 57.4306 18.9367C56.8926 17.6763 55.9965 16.6015 54.8534 15.8456C53.7103 15.0898 52.3704 14.6861 51 14.6847Z" fill="url(#paint0_linear_3310_6054)"/>
<path d="M57.5825 35.9496C56.8383 35.377 55.972 34.9837 55.0511 34.8003C54.1301 34.6169 53.1793 34.6483 52.2725 34.8921L41.8125 37.2971C42.0559 36.2691 42.0634 35.1993 41.8345 34.1679C41.6056 33.1366 41.1462 32.1705 40.4909 31.3419C39.8355 30.5133 39.001 29.8439 38.0501 29.3837C37.0992 28.9235 36.0564 28.6845 35 28.6846H22.485C21.434 28.6819 20.3929 28.8876 19.4218 29.2897C18.4508 29.6917 17.569 30.2822 16.8275 31.0271L11.1725 36.6846H4C2.93913 36.6846 1.92172 37.106 1.17157 37.8561C0.421427 38.6063 0 39.6237 0 40.6846L0 50.6846C0 51.7454 0.421427 52.7629 1.17157 53.513C1.92172 54.2631 2.93913 54.6846 4 54.6846H30C30.1635 54.6847 30.3264 54.6645 30.485 54.6246L46.485 50.6246C46.587 50.6003 46.6866 50.5668 46.7825 50.5246L56.5 46.3896L56.61 46.3396C57.5439 45.8729 58.3437 45.1762 58.9339 44.315C59.5241 43.4538 59.8854 42.4565 59.9837 41.4171C60.082 40.3778 59.914 39.3304 59.4957 38.3739C59.0774 37.4173 58.4224 36.583 57.5925 35.9496H57.5825ZM4 40.6846H10V50.6846H4V40.6846ZM54.8575 42.7371L45.3575 46.7821L29.75 50.6846H14V39.5121L19.6575 33.8571C20.0276 33.484 20.4681 33.1883 20.9535 32.987C21.4389 32.7857 21.9595 32.6829 22.485 32.6846H35C35.7957 32.6846 36.5587 33.0006 37.1213 33.5633C37.6839 34.1259 38 34.8889 38 35.6846C38 36.4802 37.6839 37.2433 37.1213 37.8059C36.5587 38.3685 35.7957 38.6846 35 38.6846H28C27.4696 38.6846 26.9609 38.8953 26.5858 39.2704C26.2107 39.6454 26 40.1541 26 40.6846C26 41.215 26.2107 41.7237 26.5858 42.0988C26.9609 42.4739 27.4696 42.6846 28 42.6846H36C36.1505 42.6842 36.3006 42.6674 36.4475 42.6346L53.1975 38.7821L53.275 38.7621C53.7863 38.6201 54.3321 38.6723 54.8073 38.9085C55.2824 39.1448 55.6535 39.5484 55.8489 40.0417C56.0444 40.5351 56.0505 41.0833 55.8661 41.5809C55.6817 42.0785 55.3198 42.4903 54.85 42.7371H54.8575ZM41 24.6846C41.4941 24.6851 41.9875 24.645 42.475 24.5646C43.0234 26.1934 44.0267 27.6312 45.3663 28.7079C46.7059 29.7847 48.3259 30.4553 50.0345 30.6405C51.7432 30.8258 53.4692 30.5179 55.0085 29.7533C56.5477 28.9887 57.8358 27.7993 58.7206 26.3258C59.6053 24.8523 60.0496 23.1563 60.001 21.4383C59.9524 19.7203 59.4128 18.0522 58.4462 16.6311C57.4795 15.21 56.1262 14.0954 54.5462 13.4191C52.9661 12.7427 51.2255 12.533 49.53 12.8146C49.002 11.2452 48.0512 9.85189 46.7824 8.78802C45.5135 7.72414 43.9758 7.03093 42.3384 6.78467C40.701 6.5384 39.0274 6.74864 37.5017 7.39223C35.9761 8.03583 34.6576 9.08784 33.6913 10.4325C32.725 11.7771 32.1484 13.3623 32.0249 15.0135C31.9015 16.6647 32.2359 18.318 32.9915 19.7914C33.7471 21.2648 34.8945 22.5012 36.3075 23.3645C37.7204 24.2278 39.3442 24.6846 41 24.6846ZM56 21.6846C56 22.6735 55.7068 23.6402 55.1573 24.4624C54.6079 25.2847 53.827 25.9255 52.9134 26.304C51.9998 26.6824 50.9945 26.7814 50.0245 26.5885C49.0546 26.3956 48.1637 25.9194 47.4645 25.2201C46.7652 24.5208 46.289 23.6299 46.0961 22.66C45.9031 21.6901 46.0022 20.6848 46.3806 19.7712C46.759 18.8575 47.3999 18.0766 48.2221 17.5272C49.0444 16.9778 50.0111 16.6846 51 16.6846C52.3261 16.6846 53.5979 17.2114 54.5355 18.149C55.4732 19.0867 56 20.3585 56 21.6846ZM41 10.6846C42.0908 10.6851 43.1514 11.0423 44.0203 11.7018C44.8892 12.3612 45.5185 13.2867 45.8125 14.3371C44.7882 15.0578 43.9256 15.9844 43.2798 17.0576C42.6341 18.1308 42.2195 19.327 42.0625 20.5696C41.7133 20.645 41.3572 20.6835 41 20.6846C39.6739 20.6846 38.4021 20.1578 37.4645 19.2201C36.5268 18.2824 36 17.0107 36 15.6846C36 14.3585 36.5268 13.0867 37.4645 12.149C38.4021 11.2114 39.6739 10.6846 41 10.6846Z" fill="url(#paint1_linear_3310_6054)"/>
<defs>
<linearGradient id="paint0_linear_3310_6054" x1="29.9963" y1="8.6792" x2="29.9963" y2="52.6847" gradientUnits="userSpaceOnUse">
<stop stop-color="#9DFFB3"/>
<stop offset="1" stop-color="#1AA37A"/>
</linearGradient>
<linearGradient id="paint1_linear_3310_6054" x1="6.46851" y1="46.6328" x2="60.3427" y2="31.9936" gradientUnits="userSpaceOnUse">
<stop stop-color="#0375F3"/>
<stop offset="0.111111" stop-color="#036EEA"/>
<stop offset="0.222222" stop-color="#0267E1"/>
<stop offset="0.333333" stop-color="#0261D7"/>
<stop offset="0.444444" stop-color="#025ACE"/>
<stop offset="0.555556" stop-color="#0254C5"/>
<stop offset="0.666667" stop-color="#024EBC"/>
<stop offset="0.777778" stop-color="#0148B3"/>
<stop offset="0.888889" stop-color="#0142A9"/>
<stop offset="1" stop-color="#013DA0"/>
</linearGradient>
</defs>
</svg>
