<svg width="40" height="40" viewBox="0 0 40 40" fill="none" xmlns="http://www.w3.org/2000/svg">
<g clipPath="url(#clip0_3265_1997)">
<path d="M0 20C-3.9137e-08 22.6264 0.517315 25.2272 1.52241 27.6537C2.5275 30.0802 4.00069 32.285 5.85787 34.1421C7.71504 35.9993 9.91982 37.4725 12.3463 38.4776C14.7728 39.4827 17.3736 40 20 40C22.6264 40 25.2272 39.4827 27.6537 38.4776C30.0802 37.4725 32.285 35.9993 34.1421 34.1421C35.9993 32.285 37.4725 30.0802 38.4776 27.6537C39.4827 25.2272 40 22.6264 40 20C40 17.3736 39.4827 14.7728 38.4776 12.3463C37.4725 9.91982 35.9993 7.71504 34.1421 5.85786C32.285 4.00069 30.0802 2.5275 27.6537 1.52241C25.2272 0.517315 22.6264 0 20 0C17.3736 0 14.7728 0.517315 12.3463 1.52241C9.91982 2.5275 7.71504 4.00069 5.85787 5.85786C4.00069 7.71504 2.5275 9.91982 1.52241 12.3463C0.517315 14.7728 -3.9137e-08 17.3736 0 20Z" fill="#FFF1DC"/>
<path d="M33.9104 15.9965C33.6567 14.9493 32.6966 13.2083 31.7017 11.7756C31.264 11.1464 30.2939 11.3006 30.0651 12.0343C29.7069 13.1685 29.1374 14.4718 28.1474 15.6433C27.9659 15.8572 27.6127 15.7477 27.5953 15.4667C27.4063 12.5641 26.0308 5.06009 16.3306 4.00551C15.6615 3.93338 15.1392 4.58254 15.3581 5.21927C16.0893 7.35829 16.6763 11.4697 13.326 13.9893C13.1892 14.0912 13.0002 14.0564 12.8933 13.9246C11.7765 12.5019 10.3836 11.6289 8.49582 11.2757C7.83671 11.1538 7.28205 11.7532 7.43377 12.4074C7.72727 13.6684 7.84914 15.8199 6.64781 18.7498C4.63066 23.6621 2.3051 35.5262 20.8126 35.5262C39.3201 35.5262 34.266 17.4664 33.9104 15.9965ZM12.3038 29.2534C12.1626 29.3858 11.9968 29.489 11.8157 29.5571C11.6346 29.6253 11.4418 29.657 11.2484 29.6505C11.055 29.6441 10.8648 29.5995 10.6887 29.5194C10.5125 29.4393 10.3539 29.3253 10.222 29.1838C7.75711 26.5473 8.82911 21.63 8.95845 21.0779C9.14499 20.2869 9.93842 19.7945 10.7294 19.9835C10.9174 20.0277 11.0948 20.1085 11.2516 20.2213C11.4084 20.3341 11.5414 20.4767 11.643 20.6409C11.7446 20.8051 11.8129 20.9878 11.8439 21.1784C11.8749 21.3691 11.8681 21.5639 11.8237 21.7519C11.5899 22.7568 11.1895 25.9056 12.3709 27.1716C12.9281 27.766 12.8982 28.6988 12.3038 29.2534Z" fill="#FC7032"/>
<path d="M33.5969 15.0911C33.1715 14.0937 32.4453 12.8476 31.7016 11.7756C31.2638 11.1463 30.2938 11.3006 30.065 12.0343C29.7068 13.1685 29.1372 14.4718 28.1473 15.6433C27.9658 15.8572 27.6126 15.7477 27.5952 15.4667C27.4061 12.5641 26.0307 5.06009 16.3305 4.00551C15.6614 3.93338 15.1391 4.58254 15.358 5.21927C16.0892 7.35829 16.6762 11.4697 13.3259 13.9893C13.1891 14.0912 13.0001 14.0564 12.8931 13.9246C11.7764 12.5019 10.3835 11.6289 8.4957 11.2757C7.83658 11.1538 7.28193 11.7532 7.43365 12.4074C7.72714 13.6684 7.84901 15.8199 6.64768 18.7498C4.88672 23.0378 2.89445 32.6186 14.7188 34.989C25.0084 33.9717 33.1118 25.5275 33.5969 15.0911ZM12.3036 29.2534C12.1625 29.3858 11.9966 29.489 11.8155 29.5571C11.6344 29.6253 11.4417 29.657 11.2483 29.6505C11.0549 29.6441 10.8647 29.5995 10.6886 29.5194C10.5124 29.4393 10.3538 29.3253 10.2218 29.1838C7.75699 26.5473 8.82898 21.63 8.95832 21.0779C9.14486 20.2869 9.93829 19.7945 10.7292 19.9835C10.9172 20.0277 11.0947 20.1085 11.2515 20.2213C11.4082 20.3341 11.5412 20.4767 11.6429 20.6409C11.7445 20.8051 11.8128 20.9878 11.8438 21.1784C11.8748 21.3691 11.868 21.5639 11.8236 21.7519C11.5898 22.7568 11.1894 25.9056 12.3708 27.1716C12.9279 27.766 12.8981 28.6987 12.3036 29.2534Z" fill="#FF7C33"/>
<path d="M27.0675 12.4298C26.1049 9.06951 23.4834 4.78401 16.3276 4.00551C15.6585 3.93338 15.1362 4.58254 15.3551 5.21927C16.0863 7.35829 16.6733 11.4697 13.323 13.9893C13.1862 14.0912 12.9972 14.0564 12.8902 13.9246C11.7735 12.5019 10.3806 11.6289 8.4928 11.2757C7.83368 11.1538 7.27903 11.7532 7.43075 12.4074C7.72425 13.6684 7.84612 15.8199 6.64479 18.7498C5.76431 20.8938 4.82413 24.3635 5.58771 27.5944C6.02049 27.6218 6.45327 27.6392 6.89351 27.6392C7.66704 27.6392 8.42813 27.5944 9.17928 27.5123C8.1222 24.8634 8.85096 21.5305 8.95543 21.0804C9.14197 20.2894 9.9354 19.7969 10.7263 19.986C10.9143 20.0302 11.0918 20.111 11.2486 20.2238C11.4053 20.3366 11.5384 20.4792 11.64 20.6434C11.7416 20.8076 11.8099 20.9903 11.8409 21.1809C11.8719 21.3715 11.8651 21.5664 11.8207 21.7544C11.5994 22.707 11.2312 25.5847 12.1988 26.9577C19.3695 25.0898 25.0379 19.5283 27.0675 12.4298Z" fill="#FF8D4D"/>
<path d="M16.3275 4.00551C15.6584 3.93338 15.1361 4.58254 15.355 5.21927C16.0862 7.35829 16.6732 11.4697 13.3229 13.9893C13.1861 14.0912 12.9971 14.0564 12.8901 13.9246C11.7734 12.5019 10.3805 11.6289 8.4927 11.2757C7.83359 11.1538 7.27894 11.7532 7.43066 12.4074C7.72415 13.6684 7.84602 15.8199 6.64469 18.7498C6.51996 19.0572 6.4022 19.3673 6.2915 19.68C13.5691 18.0211 19.4092 12.5865 21.6303 5.54013C20.2225 4.79147 18.4814 4.23931 16.3275 4.00551Z" fill="#FFA56A"/>
</g>
<defs>
<clipPath id="clip0_3265_1997">
<rect width="40" height="40" fill="white"/>
</clipPath>
</defs>
</svg>
