<svg width="73" height="72" viewBox="0 0 73 72" fill="none" xmlns="http://www.w3.org/2000/svg">
<path opacity="0.2" d="M59 13.5V56.25C59 58.0402 58.2888 59.7571 57.023 61.023C55.7571 62.2888 54.0402 63 52.25 63H20.75C18.9598 63 17.2429 62.2888 15.977 61.023C14.7112 59.7571 14 58.0402 14 56.25V13.5C14 12.9033 14.2371 12.331 14.659 11.909C15.081 11.4871 15.6533 11.25 16.25 11.25H56.75C57.3467 11.25 57.919 11.4871 58.341 11.909C58.7629 12.331 59 12.9033 59 13.5Z" fill="#809FB8"/>
<path d="M47.75 36C47.75 36.5967 47.5129 37.169 47.091 37.591C46.669 38.0129 46.0967 38.25 45.5 38.25H27.5C26.9033 38.25 26.331 38.0129 25.909 37.591C25.4871 37.169 25.25 36.5967 25.25 36C25.25 35.4033 25.4871 34.831 25.909 34.409C26.331 33.9871 26.9033 33.75 27.5 33.75H45.5C46.0967 33.75 46.669 33.9871 47.091 34.409C47.5129 34.831 47.75 35.4033 47.75 36ZM45.5 42.75H27.5C26.9033 42.75 26.331 42.9871 25.909 43.409C25.4871 43.831 25.25 44.4033 25.25 45C25.25 45.5967 25.4871 46.169 25.909 46.591C26.331 47.0129 26.9033 47.25 27.5 47.25H45.5C46.0967 47.25 46.669 47.0129 47.091 46.591C47.5129 46.169 47.75 45.5967 47.75 45C47.75 44.4033 47.5129 43.831 47.091 43.409C46.669 42.9871 46.0967 42.75 45.5 42.75ZM61.25 13.5V56.25C61.25 58.6369 60.3018 60.9261 58.614 62.614C56.9261 64.3018 54.6369 65.25 52.25 65.25H20.75C18.3631 65.25 16.0739 64.3018 14.386 62.614C12.6982 60.9261 11.75 58.6369 11.75 56.25V13.5C11.75 12.3065 12.2241 11.1619 13.068 10.318C13.9119 9.47411 15.0565 9 16.25 9H20.75V6.75C20.75 6.15326 20.9871 5.58097 21.409 5.15901C21.831 4.73705 22.4033 4.5 23 4.5C23.5967 4.5 24.169 4.73705 24.591 5.15901C25.0129 5.58097 25.25 6.15326 25.25 6.75V9H34.25V6.75C34.25 6.15326 34.4871 5.58097 34.909 5.15901C35.331 4.73705 35.9033 4.5 36.5 4.5C37.0967 4.5 37.669 4.73705 38.091 5.15901C38.5129 5.58097 38.75 6.15326 38.75 6.75V9H47.75V6.75C47.75 6.15326 47.9871 5.58097 48.409 5.15901C48.831 4.73705 49.4033 4.5 50 4.5C50.5967 4.5 51.169 4.73705 51.591 5.15901C52.0129 5.58097 52.25 6.15326 52.25 6.75V9H56.75C57.9435 9 59.0881 9.47411 59.932 10.318C60.7759 11.1619 61.25 12.3065 61.25 13.5ZM56.75 13.5H52.25V15.75C52.25 16.3467 52.0129 16.919 51.591 17.341C51.169 17.7629 50.5967 18 50 18C49.4033 18 48.831 17.7629 48.409 17.341C47.9871 16.919 47.75 16.3467 47.75 15.75V13.5H38.75V15.75C38.75 16.3467 38.5129 16.919 38.091 17.341C37.669 17.7629 37.0967 18 36.5 18C35.9033 18 35.331 17.7629 34.909 17.341C34.4871 16.919 34.25 16.3467 34.25 15.75V13.5H25.25V15.75C25.25 16.3467 25.0129 16.919 24.591 17.341C24.169 17.7629 23.5967 18 23 18C22.4033 18 21.831 17.7629 21.409 17.341C20.9871 16.919 20.75 16.3467 20.75 15.75V13.5H16.25V56.25C16.25 57.4435 16.7241 58.5881 17.568 59.432C18.4119 60.2759 19.5565 60.75 20.75 60.75H52.25C53.4435 60.75 54.5881 60.2759 55.432 59.432C56.2759 58.5881 56.75 57.4435 56.75 56.25V13.5Z" fill="#809FB8"/>
</svg>
