<svg width="61" height="60" viewBox="0 0 61 60" fill="none" xmlns="http://www.w3.org/2000/svg">
<path fill-rule="evenodd" clip-rule="evenodd" d="M18.4549 13.6525V17.2025L14.22 17.5475C12.765 17.6646 11.3914 18.2661 10.3186 19.256C9.24588 20.2458 8.53598 21.5667 8.30245 23.0075C8.19912 23.6525 8.10412 24.2983 8.01745 24.945C7.998 25.1015 8.02835 25.2601 8.1042 25.3983C8.18004 25.5365 8.29753 25.6474 8.43995 25.715L8.63245 25.805C22.2049 32.23 38.4575 32.23 52.0275 25.805L52.2199 25.715C52.3619 25.647 52.4789 25.536 52.5542 25.3978C52.6296 25.2596 52.6596 25.1012 52.6399 24.945C52.5552 24.2978 52.461 23.6519 52.3575 23.0075C52.1239 21.5667 51.414 20.2458 50.3413 19.256C49.2685 18.2661 47.8949 17.6646 46.4399 17.5475L42.2049 17.205V13.655C42.2052 12.6071 41.8293 11.594 41.1457 10.7998C40.4621 10.0056 39.5162 9.48319 38.4799 9.32751L35.4299 8.87001C32.0487 8.36462 28.6112 8.36462 25.2299 8.87001L22.1799 9.32751C21.1441 9.48312 20.1985 10.0052 19.515 10.7989C18.8314 11.5925 18.4553 12.6051 18.4549 13.6525ZM34.8724 12.5775C31.8608 12.1277 28.7991 12.1277 25.7874 12.5775L22.7375 13.035C22.5895 13.0572 22.4543 13.1316 22.3566 13.245C22.2589 13.3583 22.2051 13.5029 22.2049 13.6525V16.94C27.6172 16.6309 33.0427 16.6309 38.4549 16.94V13.6525C38.4548 13.5029 38.401 13.3583 38.3033 13.245C38.2055 13.1316 38.0704 13.0572 37.9224 13.035L34.8724 12.5775Z" fill="url(#paint0_linear_4990_2375)"/>
<path d="M53.1249 30.1749C53.12 30.0941 53.0955 30.0157 53.0535 29.9464C53.0115 29.8772 52.9534 29.8192 52.884 29.7774C52.8147 29.7355 52.7362 29.7112 52.6554 29.7064C52.5745 29.7017 52.4937 29.7166 52.4199 29.7499C38.4924 35.9174 22.1674 35.9174 8.23993 29.7499C8.16614 29.7166 8.08535 29.7017 8.00452 29.7064C7.92368 29.7112 7.84521 29.7355 7.77586 29.7774C7.7065 29.8192 7.64834 29.8772 7.60638 29.9464C7.56441 30.0157 7.53989 30.0941 7.53493 30.1749C7.28173 34.9612 7.53901 39.7607 8.30243 44.4924C8.53546 45.9337 9.24513 47.2552 10.3179 48.2455C11.3907 49.2358 12.7646 49.8377 14.2199 49.9549L18.8999 50.3299C26.5074 50.9449 34.1499 50.9449 41.7599 50.3299L46.4399 49.9549C47.8952 49.8377 49.2691 49.2358 50.3419 48.2455C51.4147 47.2552 52.1244 45.9337 52.3574 44.4924C53.1224 39.7549 53.3824 34.9549 53.1249 30.1774" fill="url(#paint1_linear_4990_2375)"/>
<defs>
<linearGradient id="paint0_linear_4990_2375" x1="8.01172" y1="19.5574" x2="52.6458" y2="19.5574" gradientUnits="userSpaceOnUse">
<stop offset="0.509615" stop-color="#F3654A"/>
<stop offset="0.932692" stop-color="#FFB9AC"/>
</linearGradient>
<linearGradient id="paint1_linear_4990_2375" x1="7.44067" y1="40.2484" x2="53.2212" y2="40.2484" gradientUnits="userSpaceOnUse">
<stop offset="0.509615" stop-color="#F3654A"/>
<stop offset="0.932692" stop-color="#FFB9AC"/>
</linearGradient>
</defs>
</svg>
