<svg width="61" height="60" viewBox="0 0 61 60" fill="none" xmlns="http://www.w3.org/2000/svg">
<path d="M40.23 30C47.13 30 52.73 24.4 52.73 17.5C52.73 10.6 47.13 5 40.23 5C33.33 5 27.73 10.6 27.73 17.5C27.73 24.4 33.33 30 40.23 30ZM53.855 44C52.88 43 51.655 42.5 50.23 42.5H32.73L27.53 40.675L28.355 38.325L32.73 40H39.73C40.605 40 41.305 39.65 41.88 39.075C42.455 38.5 42.73 37.8 42.73 37.025C42.73 35.675 42.08 34.75 40.78 34.225L22.605 27.5H17.73V50L35.23 55L55.305 47.5C55.33 46.175 54.83 45 53.855 44ZM12.73 27.5H2.69V55H12.73V27.5Z" fill="url(#paint0_linear_4990_2368)"/>
<defs>
<linearGradient id="paint0_linear_4990_2368" x1="2.69" y1="30" x2="55.3059" y2="30" gradientUnits="userSpaceOnUse">
<stop offset="0.509615" stop-color="#F3654A"/>
<stop offset="0.932692" stop-color="#FFB9AC"/>
</linearGradient>
</defs>
</svg>
