<svg width="54" height="53" viewBox="0 0 54 53" fill="none" xmlns="http://www.w3.org/2000/svg">
<g clip-path="url(#clip0_4990_2382)">
<path d="M46.0866 28.4433C46.0936 28.3611 46.0812 28.2783 46.0506 28.2016C46.0199 28.1249 45.9717 28.0564 45.9099 28.0017L44.4966 26.5C44.4042 26.441 44.297 26.4097 44.1874 26.4097C44.0778 26.4097 43.9706 26.441 43.8782 26.5C41.991 27.2941 39.9632 27.6996 37.9157 27.6925C36.2796 27.6989 34.6535 27.4378 33.1016 26.9196C32.9695 26.8752 32.8256 26.8825 32.6986 26.9398C32.5716 26.9971 32.471 27.1004 32.417 27.2288C31.8413 28.5268 31.099 29.7443 30.2086 30.8504C30.1758 30.9272 30.1589 31.0098 30.1589 31.0933C30.1589 31.1768 30.1758 31.2595 30.2086 31.3363C30.3588 31.8774 30.5432 32.4085 30.7607 32.9263C30.8217 33.0591 30.9329 33.1624 31.0699 33.2133C36.4582 35.2008 43.4586 38.4913 43.4586 48.6717V51.9842C43.4676 52.146 43.4676 52.3082 43.4586 52.47C43.4476 52.5488 43.4537 52.6291 43.4766 52.7053C43.4995 52.7816 43.5385 52.852 43.5911 52.9117C43.7021 53.0237 43.853 53.0873 44.0107 53.0883H52.2257C52.5186 53.0883 52.7994 52.972 53.0065 52.7649C53.2136 52.5579 53.3299 52.277 53.3299 51.9842V50.1071C53.3299 43.2613 48.5599 41.5608 44.342 40.0592L43.2599 39.6617C43.1229 39.6107 43.0117 39.5074 42.9507 39.3746C42.8837 39.2333 42.8319 39.0852 42.7961 38.9329C42.5987 38.0308 42.5987 37.0967 42.7961 36.1946C44.7889 34.0902 45.9569 31.3386 46.0866 28.4433Z" fill="url(#paint0_linear_4990_2382)"/>
<path d="M22.4133 12.1458C22.4133 10.6037 22.6441 9.07036 23.0979 7.5966C23.1544 7.45481 23.1544 7.29673 23.0979 7.15493C23.0084 7.02464 22.8752 6.93065 22.7225 6.88993C21.8956 6.70909 21.0513 6.62022 20.205 6.62493C14.9712 6.62493 9.71537 10.0699 9.71537 17.6666C9.71537 26.8533 13.4475 29.0616 13.8891 29.9891C14.332 31.3541 14.3779 32.8169 14.0216 34.207C13.867 34.7812 13.6462 35.0241 13.4916 35.0904L11.8133 35.6866C6.42496 37.6741 0.329956 39.7499 0.329956 48.5833V51.8958C0.329956 52.1886 0.446288 52.4695 0.653359 52.6765C0.86043 52.8836 1.14128 52.9999 1.43412 52.9999H38.9758C39.2686 52.9999 39.5495 52.8836 39.7566 52.6765C39.9636 52.4695 40.08 52.1886 40.08 51.8958V48.5833C40.08 39.8603 33.9629 37.6962 28.5525 35.7529L26.83 35.1787C26.6754 35.1787 26.4545 34.8695 26.3 34.2953C25.9146 32.9158 25.9146 31.457 26.3 30.0774C27.5261 28.7854 28.5198 27.2912 29.237 25.6608C29.2821 25.5405 29.287 25.4089 29.2512 25.2855C29.2154 25.1622 29.1407 25.0537 29.0383 24.9762C26.9731 23.5383 25.2901 21.618 24.1356 19.3821C22.9811 17.1461 22.3898 14.6621 22.4133 12.1458Z" fill="url(#paint1_linear_4990_2382)"/>
<path d="M44.4966 22.3925C44.5956 22.319 44.7156 22.2793 44.8389 22.2793C44.9622 22.2793 45.0822 22.319 45.1812 22.3925L49.5979 26.8091C49.8032 27.0161 50.0474 27.1804 50.3165 27.2925C50.5856 27.4046 50.8742 27.4624 51.1658 27.4624C51.4573 27.4624 51.7459 27.4046 52.015 27.2925C52.2842 27.1804 52.5284 27.0161 52.7337 26.8091C52.9407 26.6038 53.105 26.3596 53.2171 26.0905C53.3292 25.8214 53.3869 25.5327 53.3869 25.2412C53.3869 24.9497 53.3292 24.661 53.2171 24.3919C53.105 24.1228 52.9407 23.8786 52.7337 23.6733L48.317 19.2566C48.2435 19.1576 48.2038 19.0376 48.2038 18.9143C48.2038 18.791 48.2435 18.671 48.317 18.5721C49.9059 16.044 50.5079 13.0192 50.0079 10.0754C49.508 7.13167 47.9412 4.4752 45.6068 2.61339C43.2725 0.751577 40.3341 -0.185105 37.3528 -0.017763C34.3716 0.149579 31.5565 1.40922 29.4451 3.52058C27.3338 5.63194 26.0741 8.44706 25.9068 11.4283C25.7395 14.4095 26.6761 17.3479 28.538 19.6823C30.3998 22.0167 33.0562 23.5834 36 24.0834C38.9438 24.5833 41.9685 23.9813 44.4966 22.3925ZM30.1424 12.1458C30.1424 10.6171 30.5957 9.12276 31.445 7.8517C32.2943 6.58065 33.5015 5.58998 34.9138 5.00498C36.3261 4.41998 37.8802 4.26691 39.3795 4.56515C40.8788 4.86338 42.256 5.59951 43.337 6.68045C44.4179 7.7614 45.154 9.1386 45.4523 10.6379C45.7505 12.1372 45.5974 13.6913 45.0124 15.1036C44.4274 16.5159 43.4368 17.7231 42.1657 18.5724C40.8946 19.4217 39.4003 19.875 37.8716 19.875C35.8217 19.875 33.8558 19.0606 32.4063 17.6111C30.9568 16.1616 30.1424 14.1957 30.1424 12.1458Z" fill="url(#paint2_linear_4990_2382)"/>
</g>
<defs>
<linearGradient id="paint0_linear_4990_2382" x1="30.1589" y1="39.749" x2="53.3299" y2="39.749" gradientUnits="userSpaceOnUse">
<stop offset="0.509615" stop-color="#F3654A"/>
<stop offset="0.932692" stop-color="#FFB9AC"/>
</linearGradient>
<linearGradient id="paint1_linear_4990_2382" x1="0.329956" y1="29.8123" x2="40.08" y2="29.8123" gradientUnits="userSpaceOnUse">
<stop offset="0.509615" stop-color="#F3654A"/>
<stop offset="0.932692" stop-color="#FFB9AC"/>
</linearGradient>
<linearGradient id="paint2_linear_4990_2382" x1="25.8877" y1="13.7127" x2="53.3869" y2="13.7127" gradientUnits="userSpaceOnUse">
<stop offset="0.509615" stop-color="#F3654A"/>
<stop offset="0.932692" stop-color="#FFB9AC"/>
</linearGradient>
<clipPath id="clip0_4990_2382">
<rect width="53" height="53" fill="white" transform="translate(0.329956)"/>
</clipPath>
</defs>
</svg>
