<svg width="36" height="29" viewBox="0 0 36 29" fill="none" xmlns="http://www.w3.org/2000/svg">
<g clip-path="url(#clip0_5032_14047)">
<path d="M9.93732 7.66416C9.96762 7.54229 9.99792 7.42041 10.0888 7.29854C10.1494 7.20714 10.2403 7.11574 10.3313 7.02433C10.3616 6.99386 10.3919 6.9634 10.4222 6.9634C10.5737 6.84153 10.7252 6.75012 10.907 6.65872C10.9979 6.62825 11.0888 6.56731 11.1797 6.53685L23.9979 0.534669C24.2403 0.443266 24.5434 0.504202 24.7252 0.687009L34.4828 10.9547L34.7252 11.1984C34.8464 11.3508 34.9676 11.5031 35.0585 11.6555C35.0888 11.6859 35.0888 11.7164 35.1191 11.7469C35.1797 11.8687 35.21 11.9906 35.2403 12.1125C35.2707 12.2343 35.2707 12.3867 35.2403 12.5086C35.2403 12.539 35.21 12.5695 35.21 12.6C34.6646 14.428 28.8161 14.8546 21.9373 13.5445C15.5737 12.3257 10.5434 10.0407 9.99792 8.18211C9.93732 8.02977 9.93732 7.9079 9.93732 7.75556C9.93732 7.72509 9.93732 7.69463 9.93732 7.66416Z" fill="#1E1E1E"/>
<path d="M35.1797 12.63L9.87671 7.78563V7.75517C9.87671 7.7247 9.87671 7.69423 9.87671 7.66376C9.90701 7.54189 9.93731 7.42002 10.0282 7.29815C10.0888 7.20674 10.1797 7.08487 10.2706 6.99347C10.301 6.963 10.3313 6.93253 10.3616 6.90207C10.5131 6.78019 10.6646 6.68879 10.8767 6.59739C10.9676 6.56692 11.0585 6.50598 11.1494 6.47551L23.9676 0.503807C24.0585 0.473339 24.1494 0.442871 24.2403 0.442871C24.4222 0.442871 24.604 0.534275 24.7252 0.656146L34.4828 10.9238L34.7252 11.1676C34.8464 11.3199 34.9676 11.4722 35.0585 11.6246C35.0888 11.6551 35.0888 11.6855 35.1191 11.7465C35.1797 11.8683 35.21 11.9902 35.2403 12.1121C35.2706 12.2644 35.2706 12.3863 35.2403 12.5082C35.2403 12.5386 35.21 12.5691 35.21 12.5996V12.63H35.1797Z" fill="#DABF93"/>
<path d="M24.2403 0.473533C24.4222 0.473533 24.5737 0.534469 24.6949 0.686809L34.4525 10.9545L34.6949 11.1982C34.8161 11.3506 34.9373 11.5029 35.0282 11.6553C35.0585 11.6857 35.0585 11.7162 35.0888 11.7467C35.1494 11.8685 35.1797 11.9904 35.21 12.1123C35.2403 12.2341 35.2403 12.3865 35.21 12.5084C35.21 12.5388 35.1797 12.5693 35.1797 12.5998L9.90701 7.75536C9.90701 7.72489 9.90701 7.69443 9.90701 7.66396C9.93732 7.54209 9.96762 7.42021 10.0585 7.29834C10.1191 7.20694 10.21 7.11554 10.301 7.02413C10.3313 6.99366 10.3616 6.9632 10.3919 6.9632C10.5434 6.84132 10.6949 6.74992 10.8767 6.65852C10.9676 6.62805 11.0585 6.56711 11.1494 6.53665L23.9979 0.534469C24.0585 0.504001 24.1494 0.473533 24.2403 0.473533ZM24.2403 0.412598C24.1494 0.412598 24.0282 0.443066 23.9373 0.473533L11.1494 6.44524C11.0585 6.47571 10.9676 6.50618 10.8767 6.56711C10.6949 6.65852 10.5131 6.78039 10.3616 6.87179C10.3313 6.90226 10.301 6.93273 10.2706 6.9632C10.1797 7.0546 10.0888 7.146 10.0282 7.26787C9.93731 7.38975 9.90701 7.51162 9.87671 7.66396C9.87671 7.69443 9.87671 7.72489 9.87671 7.78583V7.84676H9.93731L35.1494 12.6607H35.21L35.2403 12.5998C35.2403 12.5693 35.2706 12.5388 35.2706 12.5084C35.301 12.3865 35.301 12.2341 35.2706 12.0818C35.2403 11.9599 35.21 11.8381 35.1494 11.7162C35.1494 11.6857 35.1191 11.6553 35.0888 11.5943C34.9979 11.442 34.907 11.2896 34.7555 11.1373L34.5131 10.8936L24.7858 0.625873C24.6343 0.504001 24.4525 0.412598 24.2403 0.412598Z" fill="#BE1E2D"/>
<path d="M29.2404 14.3362C27.0283 14.3362 24.5131 14.062 21.907 13.5745C15.604 12.3862 10.5737 10.1316 9.96765 8.24261V8.21214C9.90704 8.0598 9.90704 7.93793 9.90704 7.78559C9.90704 7.75512 9.90704 7.72465 9.93735 7.66372C9.96765 7.54185 9.99795 7.41997 10.0889 7.2981C10.1495 7.2067 10.2404 7.08483 10.3313 6.99342C10.3616 6.96296 10.3919 6.96296 10.3919 6.93249C10.5434 6.81062 10.7252 6.68874 10.907 6.59734C10.998 6.56687 11.0889 6.50594 11.1798 6.47547C12.2404 6.04892 13.8767 5.80518 15.907 5.80518C18.1192 5.80518 20.6343 6.07939 23.2404 6.56687C26.4525 7.17623 29.4525 8.09027 31.6949 9.15664C32.9676 9.73553 33.907 10.3449 34.5131 10.9238L34.7555 11.1675C34.907 11.3199 34.998 11.4722 35.0889 11.6245C35.1192 11.655 35.1192 11.6855 35.1495 11.7464C35.2101 11.8683 35.2404 11.9902 35.2707 12.112C35.301 12.2644 35.301 12.3862 35.2707 12.5081C35.2707 12.5386 35.2707 12.569 35.2404 12.5995C34.8767 13.6964 32.6949 14.3362 29.2404 14.3362Z" fill="#BF9C64"/>
<path d="M15.907 5.86631C18.0283 5.86631 20.5434 6.11005 23.2404 6.628C26.5737 7.26783 29.5434 8.21233 31.6949 9.21777C32.9373 9.79667 33.907 10.406 34.5131 10.9849L34.7555 11.2287C34.8767 11.381 34.9979 11.5333 35.0889 11.6857C35.1192 11.7161 35.1192 11.7466 35.1495 11.7771C35.2101 11.899 35.2404 12.0208 35.2707 12.1427C35.301 12.2646 35.301 12.4169 35.2707 12.5388C35.2707 12.5692 35.2707 12.5997 35.2404 12.6302C34.907 13.7575 32.604 14.3364 29.301 14.3364C27.1798 14.3364 24.6646 14.0926 21.9676 13.5747C15.604 12.3255 10.604 10.0709 9.99795 8.2428V8.21233C9.93734 8.05999 9.93734 7.93812 9.93734 7.78578C9.93734 7.75532 9.93734 7.72485 9.96765 7.69438C9.99795 7.57251 10.0283 7.45064 10.1192 7.32877C10.1798 7.23736 10.2707 7.14596 10.3616 7.05455C10.3919 7.02409 10.4222 6.99362 10.4525 6.99362C10.604 6.87175 10.7555 6.78034 10.9676 6.68894C11.0586 6.65847 11.1495 6.59754 11.2101 6.56707C12.2101 6.07958 13.8767 5.86631 15.907 5.86631ZM15.907 5.7749C13.8464 5.7749 12.2101 6.01865 11.1495 6.4452C11.0586 6.47566 10.9676 6.5366 10.8767 6.56707C10.6646 6.65847 10.5131 6.78034 10.3616 6.87175L10.3313 6.90221C10.301 6.93268 10.2707 6.93268 10.2707 6.96315C10.1798 7.05455 10.0889 7.14596 10.0283 7.26783C9.93734 7.3897 9.90704 7.51157 9.87674 7.66391C9.87674 7.69438 9.87674 7.72485 9.84644 7.78578C9.84644 7.93812 9.84644 8.09046 9.90704 8.2428C9.90704 8.2428 9.90704 8.27327 9.93734 8.30374C10.5737 10.1927 15.604 12.4474 21.907 13.6661C24.5131 14.1536 27.0586 14.4278 29.2404 14.4278C32.7252 14.4278 34.907 13.788 35.2404 12.6606V12.6302C35.2404 12.5997 35.2707 12.5692 35.2707 12.5388C35.301 12.4169 35.301 12.2646 35.2707 12.1122C35.2404 11.9904 35.2101 11.8685 35.1495 11.7466C35.1192 11.7161 35.1192 11.6552 35.0889 11.6247C34.9979 11.4724 34.907 11.3201 34.7555 11.1677L34.5131 10.924C33.907 10.3451 32.9373 9.73573 31.6949 9.12637C29.4525 8.09046 26.4525 7.14596 23.2404 6.5366C20.6343 6.04911 18.0889 5.7749 15.907 5.7749Z" fill="#BE1E2D"/>
<path d="M34.6949 11.1983C32.21 13.331 26.1797 13.8795 19.5737 12.2951C15.7252 11.3811 12.3616 9.88816 9.99792 8.24289V8.21242C9.93732 8.06009 9.93732 7.93821 9.93732 7.78587C9.93732 7.75541 9.93732 7.72494 9.93732 7.69447C9.96762 7.5726 9.99792 7.45073 10.0888 7.32886C10.1494 7.23745 10.2403 7.14605 10.3313 7.05464C10.3616 7.02418 10.3919 6.99371 10.4222 6.99371C10.5737 6.87184 10.7252 6.78043 10.9373 6.68903C11.0282 6.65856 11.1191 6.59763 11.1797 6.56716C13.3313 5.68359 17.9979 5.65312 23.2403 6.65856C26.5737 7.29839 29.5434 8.24289 31.6949 9.24833C32.9373 9.82722 33.907 10.4366 34.5131 11.0155L34.6949 11.1983Z" fill="#AD854B"/>
<path d="M0.361563 13.0872C0.361563 13.0567 0.361563 13.0262 0.33126 13.0262C0.300957 12.9348 0.300957 12.8434 0.33126 12.7215C0.361563 12.6301 0.391866 12.5387 0.422169 12.4473C0.422169 12.4169 0.452472 12.3864 0.452472 12.3559C0.513078 12.2341 0.603987 12.1122 0.725199 11.9903C0.755502 11.9294 0.816108 11.8989 0.876714 11.838L7.93732 4.25146C8.02823 4.16006 8.17974 4.09912 8.30096 4.09912C8.36156 4.09912 8.45247 4.09912 8.51308 4.12959L17.9373 8.3951L18.1494 8.4865C18.2707 8.54743 18.3919 8.60837 18.4828 8.69977C18.5131 8.73024 18.5434 8.73024 18.5434 8.76071C18.604 8.82165 18.6646 8.88258 18.7252 8.97399C18.7858 9.06539 18.8161 9.15679 18.8464 9.2482C18.8464 9.27866 18.8464 9.30913 18.8464 9.30913V9.3396H18.8161L0.391866 13.1176L0.361563 13.0872Z" fill="#DABF93"/>
<path d="M8.33129 4.12978C8.3919 4.12978 8.4525 4.12978 8.51311 4.16025L17.9374 8.42576L18.1495 8.51716C18.2707 8.5781 18.3919 8.63903 18.4828 8.73044C18.5131 8.7609 18.5131 8.7609 18.5434 8.79137C18.604 8.85231 18.6646 8.91324 18.7252 9.00465C18.7858 9.09605 18.8161 9.18746 18.8464 9.27886C18.8464 9.30933 18.8464 9.33979 18.8464 9.33979L0.361593 13.0569C0.361593 13.0264 0.361593 12.9959 0.33129 12.9959C0.300987 12.9045 0.300987 12.8131 0.33129 12.7217C0.361593 12.6303 0.361593 12.5389 0.422199 12.4475C0.422199 12.4171 0.452502 12.3866 0.452502 12.3561C0.513108 12.2342 0.604017 12.1124 0.694926 12.021C0.816138 11.9905 0.876744 11.9296 0.907047 11.8991L7.96765 4.31259C8.08887 4.19072 8.21008 4.12978 8.33129 4.12978ZM8.33129 4.06885C8.17977 4.06885 8.02826 4.12978 7.93735 4.25166L0.846441 11.8382C0.785835 11.8991 0.755532 11.9296 0.694926 11.9905C0.573714 12.1124 0.513108 12.2342 0.422199 12.3561C0.391896 12.3866 0.391896 12.4171 0.391896 12.4475C0.361593 12.5389 0.33129 12.6303 0.300987 12.7217C0.270684 12.8436 0.270684 12.935 0.300987 13.0264C0.300987 13.0569 0.300987 13.0873 0.33129 13.1178L0.361593 13.1788H0.422199L18.907 9.46167H18.9677V9.40073C18.9677 9.37026 18.9677 9.33979 18.9677 9.30933C18.9374 9.21792 18.907 9.12652 18.8464 9.00465C18.7858 8.91324 18.7252 8.85231 18.6646 8.79137C18.6343 8.7609 18.6343 8.7609 18.604 8.73044C18.5131 8.63903 18.3919 8.5781 18.2404 8.51716L18.0283 8.42576L8.60402 4.16025C8.48281 4.06885 8.4222 4.06885 8.33129 4.06885Z" fill="#BE1E2D"/>
<path d="M34.1797 15.1897C29.21 17.3529 23.4828 18.5717 17.7858 18.5412C12.0888 18.5717 6.36155 17.3834 1.39185 15.1897C1.17973 15.0983 0.997912 15.1897 1.21003 15.2811C5.45246 17.7795 11.604 19.4552 17.7858 19.3638C23.9676 19.4248 30.1494 17.749 34.3615 15.2811C34.5737 15.1897 34.4222 15.0983 34.1797 15.1897Z" fill="#BE1E2D"/>
<path d="M4.57368 14.3361C3.63429 14.3361 2.84641 14.2751 2.17974 14.1532C1.36156 14.0009 0.785805 13.7267 0.513078 13.3915C0.452472 13.3001 0.391866 13.2087 0.361563 13.1173C0.361563 13.0869 0.33126 13.0564 0.33126 13.0564C0.300957 12.965 0.300957 12.8431 0.33126 12.7517C0.361563 12.6603 0.361563 12.5689 0.422169 12.4775C0.422169 12.447 0.452472 12.4166 0.452472 12.3861C0.513078 12.2642 0.603987 12.1424 0.725199 12.0205C0.755502 11.99 0.785805 11.9596 0.816109 11.8986L0.846412 11.8682C2.11914 10.619 5.33126 9.33932 9.08884 8.57762C11.0585 8.18154 12.9979 7.96826 14.6343 7.96826C14.9373 7.96826 15.2404 7.96826 15.5434 7.99873C16.4828 8.05967 17.2404 8.18154 17.8161 8.36434L17.9373 8.42528L18.1494 8.51668C18.2707 8.57762 18.3919 8.63856 18.4828 8.72996C18.5131 8.76043 18.5131 8.76043 18.5434 8.7909C18.604 8.85183 18.6646 8.91277 18.7252 9.00417C18.7858 9.09557 18.8161 9.18698 18.8464 9.27838C18.8464 9.30885 18.8464 9.33932 18.8464 9.36979C18.9676 10.8018 15.1191 12.7213 10.0585 13.7267C8.14944 14.1228 6.24035 14.3361 4.57368 14.3361Z" fill="#BF9C64"/>
<path d="M14.6646 8.02939C14.9677 8.02939 15.2707 8.02939 15.5434 8.05986C16.4525 8.1208 17.2404 8.24267 17.8161 8.42547C17.8464 8.42547 17.907 8.45594 17.9374 8.45594L18.1495 8.54735C18.2707 8.60828 18.3919 8.66922 18.4828 8.76062C18.5131 8.79109 18.5131 8.79109 18.5434 8.82156C18.604 8.88249 18.6646 8.94343 18.7252 9.03483C18.7858 9.12624 18.8161 9.21764 18.8464 9.30904C18.8464 9.33951 18.8464 9.36998 18.8464 9.36998C19.0283 10.7715 15.1495 12.691 10.1495 13.6964C8.11917 14.123 6.17978 14.3058 4.60402 14.3058C3.69493 14.3058 2.87674 14.2448 2.21008 14.123C1.4222 13.9706 0.846441 13.7269 0.573714 13.3613C0.513108 13.2699 0.452502 13.1785 0.422199 13.0871C0.422199 13.0566 0.422199 13.0261 0.391896 13.0261C0.361593 12.9347 0.361593 12.8433 0.391896 12.7214C0.391896 12.63 0.422199 12.5386 0.482805 12.4777C0.482805 12.4472 0.513108 12.4168 0.513108 12.4168C0.573714 12.2949 0.664623 12.173 0.755532 12.0512C0.816138 11.9902 0.876744 11.9293 0.907047 11.8988C2.11917 10.7106 5.30099 9.40045 9.11917 8.63875C11.1798 8.2122 13.0889 8.02939 14.6646 8.02939ZM14.6646 7.93799C12.998 7.93799 11.0889 8.15126 9.08887 8.54735C5.36159 9.30904 2.11917 10.5887 0.846441 11.8379L0.816138 11.8683C0.785835 11.8988 0.725229 11.9598 0.694926 11.9902C0.604017 12.1121 0.513108 12.234 0.422199 12.3558C0.422199 12.3863 0.391896 12.4168 0.391896 12.4472C0.361593 12.5386 0.33129 12.63 0.300987 12.7214C0.270684 12.8129 0.270684 12.9347 0.300987 13.0261C0.300987 13.0261 0.300987 13.0566 0.300987 13.0871V13.1175C0.33129 13.2394 0.391896 13.3308 0.482805 13.4222C0.755532 13.7574 1.33129 14.0316 2.14947 14.1839C2.81614 14.3058 3.60402 14.3667 4.54341 14.3667C6.21008 14.3667 8.11917 14.1534 10.1192 13.7574C15.2101 12.7214 19.0586 10.802 18.9374 9.36998C18.9374 9.33951 18.9374 9.30904 18.9374 9.27858C18.907 9.18717 18.8767 9.09577 18.8161 9.00436C18.7555 8.91296 18.6949 8.85203 18.604 8.79109C18.5737 8.76062 18.5737 8.76062 18.5434 8.73015C18.4222 8.63875 18.3313 8.57781 18.1798 8.51688L17.9677 8.42547C17.9374 8.39501 17.8767 8.39501 17.8464 8.36454C17.2707 8.15126 16.5131 8.02939 15.5434 7.96846C15.301 7.93799 14.998 7.93799 14.6646 7.93799Z" fill="#BE1E2D"/>
<path d="M17.8464 8.42544C16.5737 10.5582 12.7252 12.6605 7.93735 13.6354C5.87675 14.0315 3.93735 14.1839 2.17978 14.1229C1.3919 13.9706 0.81614 13.7269 0.543413 13.3612C0.482807 13.2698 0.422201 13.1784 0.391897 13.087C0.391897 13.0566 0.391897 13.0261 0.361594 13.0261C0.331291 12.9347 0.331291 12.8433 0.361594 12.7214C0.361594 12.63 0.391897 12.5386 0.452504 12.4777C0.452504 12.4472 0.482807 12.4167 0.482807 12.4167C0.543413 12.2949 0.634322 12.173 0.725231 12.0511C0.81614 11.9902 0.876746 11.9292 0.907049 11.8988C2.11917 10.7105 5.30099 9.40041 9.11917 8.63871C11.5434 8.15122 13.8161 7.96842 15.5737 8.05982C16.4828 8.09029 17.2707 8.21216 17.8464 8.42544Z" fill="#AD854B"/>
<path d="M6.08884 21.3442V21.6184C6.39187 21.6489 6.60399 21.6794 6.7252 21.7403C6.90702 21.8317 6.99793 22.045 6.99793 22.3497V27.4074C6.99793 27.712 6.90702 27.8948 6.6949 28.0167C6.57368 28.0776 6.36156 28.1386 6.05853 28.1386V28.4128H9.81611V28.1386C9.42217 28.1386 9.14944 28.1081 8.96762 28.0167C8.78581 27.9253 8.6949 27.712 8.6949 27.4074V22.1973C8.6949 22.0145 8.7252 21.8927 8.81611 21.8013C8.90702 21.7403 9.08884 21.6794 9.39187 21.6794C10.21 21.6794 10.7858 21.8013 11.0888 22.0755C11.3919 22.3497 11.604 22.8067 11.7252 23.4465H11.9676V21.3442H6.08884Z" fill="url(#paint0_linear_5032_14047)"/>
<path d="M10.5433 23.0505V26.5848H10.3009C10.2403 26.0059 10.0888 25.6098 9.87667 25.3356C9.66455 25.0918 9.27061 24.9395 8.72516 24.9395V24.5739C9.27061 24.5739 9.66455 24.452 9.87667 24.2083C10.0585 23.9645 10.21 23.5684 10.3312 23.02H10.5433V23.0505Z" fill="url(#paint1_linear_5032_14047)"/>
<path d="M14.5735 28.0163C14.5129 27.9553 14.4826 27.803 14.4826 27.5897V23.6289H12.4523V23.8727C12.6645 23.9031 12.816 23.9641 12.9069 24.025C12.9675 24.1164 13.0281 24.2687 13.0281 24.482V27.5288C13.0281 27.7725 12.9978 27.9249 12.9069 28.0163C12.816 28.1077 12.6645 28.1382 12.4826 28.1686V28.4124H14.9978V28.1686C14.7857 28.1382 14.6341 28.0772 14.5735 28.0163Z" fill="url(#paint2_linear_5032_14047)"/>
<path d="M17.8464 28.1688V28.4126H15.3918V28.1688C15.5736 28.1383 15.6948 28.0774 15.7858 28.0165C15.8464 27.9555 15.8767 27.8032 15.8767 27.5899V25.0611C15.8767 24.8173 15.8464 24.6345 15.8161 24.5127C15.7252 24.2994 15.5736 24.1775 15.3312 24.1775C15.1494 24.1775 14.9979 24.2385 14.8464 24.3603C14.6948 24.4822 14.5736 24.6345 14.4827 24.7564V24.3299C14.6342 24.0861 14.8161 23.8728 15.0585 23.69C15.3009 23.5377 15.6039 23.4463 15.907 23.4463C16.3615 23.4463 16.6948 23.5682 16.9373 23.7814C17.1797 24.0252 17.3009 24.4213 17.3009 25.0002V27.529C17.3009 27.7727 17.3312 27.9251 17.4221 27.986C17.513 28.0774 17.6342 28.1383 17.8464 28.1688Z" fill="url(#paint3_linear_5032_14047)"/>
<path d="M23.6647 25.0004C23.3919 24.8176 23.0586 24.6957 22.6647 24.6348V24.5434C23.0283 24.4824 23.3616 24.2996 23.695 24.0559C23.998 23.8121 24.1798 23.4465 24.1798 23.02C24.1798 22.8067 24.1495 22.6544 24.0889 22.4716C23.9374 22.045 23.5738 21.7403 23.0283 21.5575C22.6041 21.4052 22.0889 21.3442 21.4828 21.3442H18.2404V21.6184C18.5434 21.6184 18.7556 21.6794 18.8768 21.7403C19.0586 21.8317 19.1798 22.045 19.1798 22.3497V27.4074C19.1798 27.712 19.0889 27.9253 18.8768 28.0167C18.7556 28.0776 18.5434 28.1081 18.2707 28.1386V28.4128H21.6041C22.4828 28.4128 23.2101 28.23 23.7253 27.8644C24.1495 27.5597 24.4222 27.1941 24.4828 26.7675C24.5131 26.6761 24.5131 26.5847 24.5131 26.4628C24.5131 25.8535 24.2404 25.366 23.6647 25.0004ZM20.8162 22.1669C20.8162 21.9841 20.8465 21.8317 20.9374 21.7708C21.0283 21.7099 21.1798 21.6489 21.3919 21.6489C21.8162 21.6489 22.0889 21.7708 22.2101 22.045C22.2707 22.1669 22.3313 22.3192 22.3616 22.4716C22.3919 22.6544 22.4222 22.8372 22.4222 23.0504C22.4222 23.5989 22.301 23.9645 22.0889 24.1778C21.8768 24.391 21.4222 24.4824 20.7859 24.4824V22.1669H20.8162ZM22.4222 27.6816C22.2101 27.9558 21.8768 28.0776 21.3919 28.0776C21.1495 28.0776 20.998 28.0167 20.9071 27.8644C20.8465 27.773 20.8465 27.6511 20.8162 27.4683V24.848C21.3919 24.848 21.7859 24.909 22.0586 25.0613C22.5131 25.3051 22.7253 25.7926 22.7253 26.5543C22.7253 26.7066 22.7253 26.8285 22.695 26.9808C22.6344 27.255 22.5434 27.4988 22.4222 27.6816Z" fill="url(#paint4_linear_5032_14047)"/>
<path d="M24.5131 26.4628C24.5131 26.5847 24.5131 26.6761 24.4828 26.7675L22.695 26.9503C22.7253 26.8284 22.7253 26.6761 22.7253 26.5237C22.7253 25.7925 22.5131 25.2745 22.0586 25.0308C21.7859 24.8785 21.3919 24.8175 20.8162 24.8175V24.5128C21.4525 24.5128 21.8768 24.4214 22.1192 24.2082C22.3313 23.9949 22.4525 23.6293 22.4525 23.0808C22.4525 22.8676 22.4222 22.6543 22.3919 22.502H24.0889C24.1495 22.6543 24.1798 22.8371 24.1798 23.0504C24.1798 23.4769 24.0283 23.8121 23.6949 24.0863C23.3919 24.33 23.0283 24.5128 22.6646 24.5738V24.6652C23.0586 24.7261 23.3919 24.8785 23.6646 25.0308C24.2404 25.3659 24.5131 25.8534 24.5131 26.4628Z" fill="url(#paint5_linear_5032_14047)"/>
<path d="M26.3919 20.2168V20.2777C26.301 20.2777 26.2101 20.2777 26.1798 20.3082C26.1495 20.3082 26.1192 20.3387 26.1192 20.3996C26.1192 20.4301 26.1192 20.4301 26.1192 20.4301V20.4605L26.5738 21.5269L26.9677 20.5519C26.9677 20.5215 26.998 20.5215 26.998 20.491C26.998 20.4605 27.0283 20.4301 27.0283 20.3996C27.0283 20.3387 26.998 20.3082 26.9677 20.3082C26.9374 20.3082 26.8768 20.2777 26.7556 20.2777V20.2168H27.3616V20.2777C27.301 20.2777 27.2404 20.3082 27.2101 20.3387C27.1798 20.3691 27.1495 20.4301 27.1192 20.5215L26.4525 22.2277H26.3616L25.6041 20.491C25.5738 20.4301 25.5435 20.3691 25.5131 20.3387C25.4828 20.3082 25.4222 20.2777 25.3616 20.2777V20.2168H26.3919Z" fill="url(#paint6_linear_5032_14047)"/>
<path d="M27.5132 22.1058C27.6344 22.1058 27.695 22.0753 27.7253 22.0449C27.7556 22.0144 27.7859 21.9535 27.7859 21.8621V20.491C27.695 20.3996 27.6344 20.3387 27.6344 20.3082C27.6041 20.2777 27.5738 20.2777 27.5435 20.2777V20.2168H28.1495L29.1495 21.4355V20.5824C29.1495 20.491 29.1192 20.3996 29.0889 20.3691C29.0586 20.3387 28.9677 20.3082 28.8768 20.2777V20.2168H29.5132V20.2777C29.4222 20.2777 29.3616 20.3082 29.3313 20.3387C29.301 20.3691 29.2707 20.4301 29.2707 20.5215V22.2581H29.1798L27.9071 20.7043H27.8768V21.8621C27.8768 21.9535 27.8768 22.0144 27.9071 22.0449C27.9374 22.1058 28.0283 22.1363 28.1495 22.1363V22.1972H27.4828V22.1058H27.5132Z" fill="url(#paint7_linear_5032_14047)"/>
</g>
<defs>
<linearGradient id="paint0_linear_5032_14047" x1="5.12696" y1="28.8995" x2="12.7474" y2="18.2339" gradientUnits="userSpaceOnUse">
<stop stop-color="#2F5DF4"/>
<stop offset="1" stop-color="#0000B4"/>
</linearGradient>
<linearGradient id="paint1_linear_5032_14047" x1="11.1869" y1="25.465" x2="8.77042" y2="23.478" gradientUnits="userSpaceOnUse">
<stop stop-color="#2F5DF4"/>
<stop offset="1" stop-color="#0000B4"/>
</linearGradient>
<linearGradient id="paint2_linear_5032_14047" x1="14.3213" y1="23.6362" x2="12.834" y2="29.2986" gradientUnits="userSpaceOnUse">
<stop stop-color="#D4252B"/>
<stop offset="1" stop-color="#AA003D"/>
</linearGradient>
<linearGradient id="paint3_linear_5032_14047" x1="17.2298" y1="26.8271" x2="14.0795" y2="24.7058" gradientUnits="userSpaceOnUse">
<stop stop-color="#D4252B"/>
<stop offset="1" stop-color="#AA003D"/>
</linearGradient>
<linearGradient id="paint4_linear_5032_14047" x1="18.8723" y1="24.8866" x2="25.8242" y2="24.8187" gradientUnits="userSpaceOnUse">
<stop stop-color="#FEC435"/>
<stop offset="1" stop-color="#E09C00"/>
</linearGradient>
<linearGradient id="paint5_linear_5032_14047" x1="22.7326" y1="24.7101" x2="20.8286" y2="24.7101" gradientUnits="userSpaceOnUse">
<stop stop-color="#FEC435" stop-opacity="0"/>
<stop offset="1" stop-color="#E09C00"/>
</linearGradient>
<linearGradient id="paint6_linear_5032_14047" x1="25.4051" y1="21.2299" x2="27.3955" y2="21.2299" gradientUnits="userSpaceOnUse">
<stop stop-color="#2F5DF4"/>
<stop offset="1" stop-color="#0000B4"/>
</linearGradient>
<linearGradient id="paint7_linear_5032_14047" x1="27.5033" y1="21.2299" x2="29.4936" y2="21.2299" gradientUnits="userSpaceOnUse">
<stop stop-color="#11A900"/>
<stop offset="1" stop-color="#006838"/>
</linearGradient>
<clipPath id="clip0_5032_14047">
<rect width="35" height="28" fill="white" transform="translate(0.300964 0.412598)"/>
</clipPath>
</defs>
</svg>
