<svg width="29" height="29" viewBox="0 0 29 29" fill="none" xmlns="http://www.w3.org/2000/svg">
<path d="M23.8999 28.4126H5.70197C2.99593 28.4126 0.801514 26.2182 0.801514 23.5121V5.31305C0.801514 2.60702 2.99593 0.412598 5.70197 0.412598H23.8999C26.606 0.412598 28.8004 2.60702 28.8004 5.31305V23.511C28.8015 26.2182 26.6071 28.4126 23.8999 28.4126Z" fill="#086EB8"/>
<path d="M8.05564 9.80811L9.72489 11.4762L7.48981 13.7113V17.9567C7.17358 18.0685 6.88445 18.2503 6.6405 18.4943L5.25474 19.8801V15.6008H4.22698C4.01127 15.6008 3.80459 15.5149 3.65099 15.3636C3.49062 15.2032 3.41156 14.9954 3.41156 14.7876C3.41156 14.5798 3.49062 14.372 3.65099 14.2116L8.05564 9.80811Z" fill="white"/>
<path d="M17.9198 8.80849L17.5652 9.16311L15.2397 6.83769C14.9969 6.59487 14.6039 6.59487 14.3622 6.83769L12.3891 8.81187L10.721 7.14375L14.3611 3.50145C14.6039 3.25863 14.9969 3.25863 15.2386 3.50145L18.0372 6.3001C17.7684 7.10084 17.7244 7.97047 17.9198 8.80849Z" fill="white"/>
<path d="M25.9498 15.3636C25.7985 15.5149 25.5907 15.6008 25.3738 15.6008H24.3461V19.4475L22.111 17.5286V13.7102L20.994 12.5921L21.3486 12.2374C21.692 12.3165 22.0432 12.3583 22.399 12.3583C22.9016 12.3583 23.394 12.277 23.857 12.1211L25.9487 14.2127C26.2683 14.5301 26.2683 15.0451 25.9498 15.3636Z" fill="white"/>
<path d="M25.8956 6.6763L23.7159 8.85603C23.1658 8.68549 22.6463 8.38395 22.2104 7.94687C21.7744 7.51092 21.4706 6.99027 21.3001 6.44025L23.4798 4.26052C22.2239 3.87201 20.7998 4.17694 19.8059 5.17081C18.7499 6.2268 18.4755 7.76504 18.978 9.07401L9.11389 18.9382L8.61243 18.8049C8.14599 18.6795 7.64567 18.8128 7.30233 19.1561L5.40834 21.0501C5.065 21.3935 4.93173 21.8915 5.05709 22.3602L5.43318 23.7652C5.55855 24.2339 5.92447 24.5987 6.39317 24.7241L7.79701 25.1001C8.26571 25.2255 8.7649 25.0922 9.10711 24.75L11.0022 22.8549C11.3456 22.5116 11.4788 22.0135 11.3535 21.5448L11.2202 21.0445L21.0844 11.1803C22.3933 11.6818 23.9316 11.4073 24.9864 10.3525C25.9803 9.35861 26.283 7.93219 25.8956 6.6763ZM9.20424 22.952C8.65309 23.5032 7.75748 23.5032 7.20633 22.952C6.65406 22.3998 6.65406 21.5053 7.20633 20.9541C7.75748 20.4019 8.65309 20.4019 9.20424 20.9541C9.75538 21.5053 9.75538 22.3986 9.20424 22.952ZM19.2649 11.6852L10.9345 20.0156L10.8927 20.0574C10.7989 20.1511 10.6465 20.1511 10.555 20.0574C10.4613 19.9648 10.4613 19.8134 10.555 19.7197L10.6815 19.5932L18.9261 11.3486C19.0198 11.2549 19.1723 11.2549 19.2638 11.3486C19.3101 11.3949 19.3349 11.457 19.3349 11.518C19.3349 11.579 19.3112 11.6389 19.2649 11.6852Z" fill="white"/>
<path d="M15.0928 22.1862H13.8719C13.7285 22.1862 13.6122 22.0699 13.6122 21.9264V20.7056C13.6122 20.5621 13.7285 20.4458 13.8719 20.4458H15.0928C15.2363 20.4458 15.3526 20.5621 15.3526 20.7056V21.9264C15.3515 22.071 15.2363 22.1862 15.0928 22.1862Z" fill="white"/>
<path d="M17.3279 22.1862H16.1071C15.9636 22.1862 15.8473 22.0699 15.8473 21.9264V20.7056C15.8473 20.5621 15.9636 20.4458 16.1071 20.4458H17.3279C17.4714 20.4458 17.5877 20.5621 17.5877 20.7056V21.9264C17.5866 22.071 17.4702 22.1862 17.3279 22.1862Z" fill="white"/>
<path d="M15.0927 24.4216H13.8718C13.7284 24.4216 13.6121 24.3052 13.6121 24.1618V22.9409C13.6121 22.7975 13.7284 22.6812 13.8718 22.6812H15.0927C15.2361 22.6812 15.3525 22.7975 15.3525 22.9409V24.1618C15.3513 24.3052 15.2361 24.4216 15.0927 24.4216Z" fill="white"/>
<path d="M17.3279 24.4216H16.1071C15.9636 24.4216 15.8473 24.3052 15.8473 24.1618V22.9409C15.8473 22.7975 15.9636 22.6812 16.1071 22.6812H17.3279C17.4714 22.6812 17.5877 22.7975 17.5877 22.9409V24.1618C17.5866 24.3052 17.4702 24.4216 17.3279 24.4216Z" fill="white"/>
<path d="M17.25 16.3371L18.0655 15.5217C18.2733 15.3139 18.6516 15.3839 18.8436 15.6651L19.2762 16.2998C19.3067 16.345 19.3439 16.3857 19.3846 16.4218L25.1841 21.3979C25.8877 22.001 26.2333 22.9091 26.0718 23.7245C25.9238 24.4665 25.3783 25.0131 24.6363 25.16C23.822 25.3215 22.914 24.9747 22.3097 24.2722L17.3336 18.4728C17.2975 18.431 17.2568 18.3949 17.2116 18.3644L16.5769 17.9318C16.2957 17.7398 16.2257 17.3615 16.4335 17.1537L17.25 16.3371Z" fill="white"/>
</svg>
