<svg width="30" height="29" viewBox="0 0 30 29" fill="none" xmlns="http://www.w3.org/2000/svg">
<path d="M12.4174 9.61046C12.7072 9.3067 12.9458 9.05817 13.1822 8.80751C14.1302 7.81974 15.0697 6.82348 16.0284 5.84633C16.4076 5.45972 16.8592 5.1687 17.4067 5.06037C17.5153 5.03912 17.624 5.0285 17.7348 4.99664C17.3897 4.99664 17.0445 5.00301 16.6994 4.99452C16.1541 4.98177 15.6108 4.96478 15.0654 4.93716C14.5478 4.90955 14.1004 4.76935 13.9854 4.17244C13.979 4.1427 13.9513 4.11509 13.9278 4.08959C13.1822 3.25052 13.2653 2.1438 14.1238 1.41094C14.5307 1.06257 15.0207 0.981849 15.5299 0.971228C16.872 0.947861 18.1715 1.19852 19.4327 1.63611C21.8186 2.46031 23.932 3.71785 25.6533 5.5893C26.6971 6.72576 27.5237 8.00455 28.1479 9.41504C28.3972 9.97796 28.6805 10.5303 28.8914 11.108C29.2919 12.2063 29.4964 13.3491 29.5838 14.5174C29.735 16.5291 29.4112 18.4642 28.6784 20.3336C27.7921 22.6001 26.3542 24.4673 24.4645 25.9946C23.7956 26.5342 23.1416 27.095 22.3491 27.454C22.0807 27.5751 21.791 27.6813 21.5012 27.7174C20.647 27.8257 19.8161 27.3159 19.4795 26.5172C19.4625 26.479 19.4518 26.4344 19.4263 26.4025C18.6274 25.4041 18.1715 24.2103 17.5622 23.1036C16.2968 20.8051 15.0399 18.5025 13.7745 16.2041C13.702 16.0702 13.5849 15.9385 13.4549 15.8642C13.1503 15.6921 12.8861 15.8026 12.8137 16.1446C12.7199 16.5843 12.6624 17.0304 12.607 17.4765C12.4622 18.6129 12.3301 19.7515 12.1831 20.888C12.1021 21.521 11.8422 21.7462 11.2074 21.7632C10.5172 21.7802 9.82906 21.8035 9.13883 21.8099C8.59985 21.8142 8.45285 21.6931 8.29734 21.1875C8.2803 21.1323 8.22704 21.0728 8.17591 21.0494C7.88831 20.9177 7.79884 20.6904 7.79884 20.3909C7.8031 16.5503 7.80097 12.7097 7.80097 8.87123C7.80097 8.55897 7.80097 8.24883 7.80097 7.91321C7.28116 8.08952 7.00848 8.48462 6.7294 8.84999C5.4938 10.458 4.74392 12.2594 4.5671 14.2901C4.44141 15.7304 4.61397 17.126 4.99956 18.5195C5.46185 20.1849 6.50572 21.4297 7.7541 22.5279C9.40938 23.9809 11.3672 24.8114 13.5529 25.06C14.2921 25.1428 15.0505 25.1301 15.794 25.0812C16.5077 25.0345 17.0509 25.2193 17.3854 25.8736C17.641 26.3791 17.8882 26.8889 18.1459 27.3945C18.2311 27.5623 18.3568 27.7131 18.4207 27.8873C18.5613 28.2782 18.4314 28.5713 18.0266 28.6818C17.6261 28.7901 17.2086 28.8475 16.7953 28.8878C15.0633 29.0578 13.3441 28.9707 11.6484 28.5565C9.59898 28.0573 7.76901 27.1269 6.19895 25.727C5.55558 25.1534 4.93352 24.5289 4.41798 23.8407C2.70944 21.555 1.43336 19.0718 1.09464 16.1828C0.664307 12.5058 1.44827 9.15163 3.73414 6.20108C5.2829 4.2043 7.30247 2.82568 9.6352 1.88889C10.155 1.68072 10.6897 1.50866 11.2223 1.3366C11.6441 1.20064 11.9211 1.40457 11.9402 1.84641C11.9488 2.02909 11.9722 2.17354 12.1554 2.2925C12.3833 2.43907 12.394 2.71097 12.394 2.96163C12.3983 3.8793 12.3961 4.79696 12.3983 5.71463C12.3983 6.8872 12.3983 8.05978 12.4004 9.23235C12.4025 9.33644 12.4089 9.43415 12.4174 9.61046ZM21.9465 22.8253C21.9784 22.8189 22.0061 22.8168 22.0274 22.8062C22.0871 22.7743 22.1489 22.7446 22.2042 22.7063C23.0244 22.1668 23.7061 21.4849 24.2707 20.6862C25.5851 18.8275 26.1347 16.7436 26.0048 14.4919C25.8727 12.1914 25.2954 10.0353 23.6401 8.31044C23.1949 7.84736 22.7049 7.42038 22.2064 7.01466C21.8613 6.73426 21.5119 6.78736 21.1987 7.10175C20.9644 7.33754 20.7535 7.59245 20.5191 7.82611C19.3347 9.01143 18.1481 10.1946 16.9615 11.3757C16.774 11.5605 16.5652 11.7241 16.3905 11.9195C16.0838 12.2636 16.0625 12.5695 16.2861 12.954C17.8732 15.6751 19.4625 18.3941 21.0411 21.1174C21.3628 21.6761 21.644 22.2539 21.9465 22.8253Z" fill="#CC1A22"/>
</svg>
