<svg width="31" height="29" viewBox="0 0 31 29" fill="none" xmlns="http://www.w3.org/2000/svg">
<path d="M29.7954 6.46082L25.9368 10.3194C25.4586 10.7976 25.4586 11.5397 25.9368 12.0014L29.7954 15.8765C30.0263 16.0909 30.1417 16.3877 30.1417 16.701V27.7821C30.1417 28.8375 28.872 29.3651 28.1135 28.6231L10.6673 11.1604L20.5282 1.31601C20.7425 1.08516 21.0394 0.969727 21.3527 0.969727H28.9545C29.6141 0.969727 30.1417 1.4974 30.1417 2.15699V5.61984C30.1417 5.93315 30.0263 6.22997 29.7954 6.46082Z" fill="#1EAAB1"/>
<path d="M10.6673 11.1602V19.9658C10.6673 20.2791 10.5354 20.5759 10.321 20.7903L2.48839 28.6229C1.74635 29.3649 0.460144 28.8373 0.460144 27.7819V3.80578C0.460144 2.75044 1.74635 2.22276 2.48839 2.9648L10.6673 11.1602Z" fill="#1EAAB1"/>
</svg>
