<svg width="29" height="29" viewBox="0 0 29 29" fill="none" xmlns="http://www.w3.org/2000/svg">
<path d="M13.6703 16.7925C13.7067 16.7925 13.7797 16.7925 13.8162 16.7925V18.4696H13.8891V16.7925C13.9985 16.7925 14.108 16.756 14.2174 16.756C14.5821 16.6831 14.9104 16.5373 15.2021 16.355L15.0563 16.1727C14.8374 16.3914 14.5456 16.5737 14.2174 16.6831C14.108 16.7196 13.9985 16.7196 13.8891 16.756V13.8029L16.0046 17.0477H16.0775L18.12 13.4748V17.1206C18.4847 16.7925 18.7036 16.2821 18.7036 15.7716V13.2196H18.1929L16.2963 16.5373L14.1444 13.2196H13.5244L13.8162 13.6571V16.6831C13.7797 16.6831 13.7067 16.6831 13.6703 16.6831C13.5973 16.6831 13.5609 16.6831 13.4879 16.6831C12.2843 16.5737 11.4819 15.4071 11.4819 14.0946C11.4819 12.7091 12.3572 11.506 13.6338 11.506C14.9468 11.506 15.7857 12.7456 15.7857 14.0946C15.7857 14.3862 15.7492 14.7144 15.6763 14.9696L16.0046 15.48C16.2599 15.0789 16.4422 14.605 16.4422 14.0946C16.4422 12.6362 15.1292 11.4331 13.6703 11.4331C12.2113 11.4331 10.8983 12.6362 10.8983 14.0946C10.8983 15.5164 12.1019 16.6466 13.5244 16.756C13.5609 16.7925 13.5973 16.7925 13.6703 16.7925Z" fill="#AD8B6C"/>
<path d="M14.9469 0.969727H14.801C11.8102 0.969727 9.03822 1.91764 6.74041 3.52181C6.70394 3.55827 6.66746 3.59473 6.63099 3.59473C3.0931 6.14681 0.795288 10.2666 0.795288 14.9697C0.795288 18.7979 2.32716 22.2614 4.80733 24.777C7.36045 27.3656 10.8983 28.9697 14.801 28.9697H14.9104C15.0198 28.9697 15.1292 28.9697 15.2022 28.9697C15.3116 28.9697 15.4575 28.9697 15.5669 28.9697C16.7705 28.8968 17.9377 28.6051 18.8495 27.9489C19.2142 27.6937 19.579 27.3656 19.8707 27.001C20.3449 27.0739 20.819 27.0374 21.2567 26.9281C22.4603 26.6728 23.5181 25.9072 24.4299 25.1051C24.904 24.6676 25.3417 24.2301 25.7064 23.7562C25.7429 23.7197 25.7794 23.6833 25.8159 23.6468C27.676 21.277 28.8067 18.251 28.8067 15.0062C28.7702 7.27702 22.6062 1.04264 14.9469 0.969727ZM23.7734 25.1051C22.7156 25.9801 21.4756 26.6729 20.3084 26.5999C20.0896 26.5999 19.8707 26.4906 19.6519 26.4906C19.579 26.527 19.3601 26.8916 19.2507 26.9645C18.4118 27.876 17.1717 28.3135 15.8222 28.4593C15.5304 28.4958 15.2022 28.4958 14.9104 28.4958C14.7645 28.4958 14.6551 28.4958 14.5092 28.4958C10.6066 28.4228 7.10514 26.6728 4.66144 23.9749C2.50953 21.5687 1.23297 18.3968 1.23297 14.9333C1.23297 11.652 2.40011 8.66243 4.33318 6.29264C4.33318 6.25618 4.36966 6.25618 4.40613 6.21973C6.95925 3.30306 10.643 1.62598 14.6551 1.44368C15.2751 1.40723 15.9316 1.44368 16.5517 1.5166C23.2263 2.35514 28.369 8.0791 28.369 14.9697C28.369 18.9437 26.6547 22.5166 23.9193 24.9958C23.8828 25.0322 23.8098 25.0687 23.7734 25.1051Z" fill="#AD8B6C"/>
<path d="M25.3053 19.8914L24.977 19.855C25.0135 21.8602 24.0652 24.0112 22.1686 24.8862C23.5911 23.5373 24.6488 21.4956 23.9193 19.5269L23.5546 19.4175C23.9558 20.5841 23.737 21.8966 23.2263 22.9904C22.7887 23.9383 21.8768 25.0685 20.7462 25.105C21.3662 24.5946 21.7309 24.1206 21.4391 23.2821C20.7097 21.1675 17.5365 22.5164 16.0776 22.8081C15.0928 22.9904 14.0716 23.0269 13.0503 22.881C11.5185 22.6258 9.25712 21.7508 8.27234 20.5112C7.36051 19.381 6.88636 17.4487 7.72525 16.1727C7.61583 16.0998 7.2511 16.6102 7.21462 16.6831C6.55811 17.8498 7.03226 19.0529 7.61583 20.1102C7.61583 20.1466 7.83467 20.4383 7.72525 20.3654C7.72525 20.3654 7.46993 20.1466 7.43346 20.1102C6.59458 19.3081 5.86512 17.9227 5.90159 16.7196C5.93806 16.0633 6.1569 15.5894 6.55811 15.0789C6.44869 14.8237 6.04748 14.9696 5.97454 14.9331C5.82864 14.8602 5.90159 14.6414 5.6098 14.6779C5.46391 14.6779 5.46391 14.9331 5.42744 15.0789C5.2086 16.4279 5.6098 18.105 6.33927 19.2352C6.95931 20.256 7.87114 20.9123 8.81944 21.5685L8.12645 21.3133C6.95931 20.8394 5.68275 21.3133 5.90159 22.7352C5.97454 22.9904 6.08395 23.1362 6.08395 23.1362C6.08395 23.1362 5.53686 21.3498 8.85591 21.8966C10.3513 22.3706 11.8102 23.2091 13.4151 23.355C14.5822 23.4644 15.7858 23.2821 16.88 22.9175C16.88 22.9904 16.8435 22.9904 16.8071 22.9904C15.494 23.6831 14.9469 24.3394 13.3056 24.0112C12.6126 23.8654 11.5185 23.355 10.8984 23.6831C10.789 23.7196 10.716 23.7925 10.716 23.9383H11.4455C11.6279 23.9383 12.2479 24.1935 12.4668 24.2664C14.6187 24.8498 14.9834 24.3029 16.6976 23.2821C17.7189 22.6623 19.3237 22.0789 20.4908 22.6987C21.4391 23.2091 21.4756 24.7039 20.3814 25.0321C20.1991 25.0685 19.9802 25.0685 19.8343 25.105C19.7979 25.105 19.7614 25.1414 19.7614 25.1779C20.8191 25.9071 22.2416 25.4696 23.1534 24.7404C24.5394 23.6102 25.3782 21.6779 25.3053 19.8914Z" fill="#AD8B6C"/>
<path d="M17.2812 24.1937C17.3177 24.2301 17.4636 24.0843 17.5001 24.0478C17.7189 23.9749 17.8648 24.1937 17.7919 24.376C17.7189 24.8135 16.8071 25.1781 16.4059 25.251C13.6339 25.9801 9.87719 24.376 7.6888 22.7353C7.50643 22.626 7.25112 22.3343 7.10523 22.2249C7.06876 22.1885 6.99581 22.152 6.95934 22.1885V22.2978C9.29362 24.5218 12.9409 26.2718 16.2235 25.5426C17.1718 25.3239 17.5001 25.1416 18.1201 24.376C18.1566 24.3395 18.1201 24.3031 18.1931 24.3395C18.4484 25.1416 17.5365 25.652 16.9165 25.9072C13.7798 27.1833 9.69482 25.3239 7.21465 23.3916C7.10523 23.3187 6.66755 22.8812 6.59461 22.9176C6.52166 22.9541 6.52166 23.027 6.55813 23.0635C9.07478 25.2874 12.795 27.2562 16.26 26.4176C17.2448 26.1624 19.0684 25.4333 18.4484 24.1208L18.1566 23.7562C19.579 24.2666 18.8496 25.6885 17.9377 26.3447C14.7646 28.4958 9.29362 26.2353 6.63108 24.0478C3.42144 21.4228 1.23306 16.7562 2.47314 12.527C2.54609 12.3083 2.76493 11.7979 2.8014 11.6156C2.8014 11.5062 2.76493 11.3604 2.72845 11.251H2.61903C2.58256 11.251 2.50962 11.2874 2.50962 11.3239C2.43667 11.4333 2.32725 11.8343 2.2543 11.9437C1.16011 15.2614 1.99899 18.9801 3.96854 21.751C6.41224 25.1781 11.1173 27.8395 15.3846 27.5843C16.9165 27.4749 19.3967 26.527 19.2508 24.6312C19.1414 23.3916 17.6095 22.8447 17.2812 24.1937Z" fill="#AD8B6C"/>
<path d="M4.58857 8.15187C4.69799 8.07895 5.17214 7.38624 5.31803 7.24041C6.77696 5.56333 10.2054 2.68312 12.5762 4.03208C13.9986 4.83416 12.9409 6.40187 13.4515 7.71437C14.4728 10.4123 17.573 7.93312 18.886 10.1935L19.1413 10.6675C19.2143 9.86541 18.5213 9.13624 17.7918 8.95395C16.5518 8.62583 15.3481 9.1727 14.2904 8.26124C12.7221 6.94874 14.7281 4.7977 12.6856 3.70395C10.169 2.35499 6.63106 5.12583 5.06272 6.94874C4.9533 7.09458 4.22384 8.00603 4.22384 8.07895C4.18736 8.22478 4.47915 8.22478 4.58857 8.15187Z" fill="#AD8B6C"/>
<path d="M21.0379 4.10537C24.0287 5.45432 26.3265 8.40745 26.8371 11.6522C26.983 12.6366 26.983 13.5845 26.8371 14.5689C26.8371 14.7147 27.1289 14.6783 27.1653 14.6054C27.2383 14.5324 27.2748 14.2043 27.2748 14.0949C27.5665 10.1574 25.3782 6.14703 21.9497 4.17828C21.7308 4.06891 20.3813 3.3762 20.2354 3.52203C20.199 3.59495 20.1625 3.70432 20.2719 3.77724C20.3813 3.88661 20.8555 4.03245 21.0379 4.10537Z" fill="#AD8B6C"/>
<path d="M13.7068 20.9855C16.1869 21.6782 19.3966 20.2928 20.8555 18.2147C20.9649 18.0688 21.512 17.1938 21.4026 17.0845C21.3661 17.0845 21.2932 17.0845 21.2202 17.0845C21.1838 17.1209 20.819 17.7043 20.7461 17.8136C19.3966 19.673 17.1352 21.022 14.801 20.8761C13.9986 20.8397 12.1749 20.4022 12.3937 19.3084C12.4667 18.9438 12.7585 18.798 12.9773 18.5428V18.4699C12.6491 18.2147 12.1384 18.8345 12.102 19.1261C11.8831 20.1105 12.9044 20.7303 13.7068 20.9855Z" fill="#AD8B6C"/>
<path d="M16.2599 20.0374C19.7978 19.0166 22.3874 14.9697 21.0744 11.3604H20.7461C22.2415 15.2979 18.9954 19.3812 15.1657 20.1104C14.7281 20.1833 14.3998 20.1833 13.9986 20.1833C13.9621 20.1833 13.8527 20.1468 13.8892 20.2197C14.6551 20.3656 15.494 20.2562 16.2599 20.0374Z" fill="#AD8B6C"/>
<path d="M13.7068 19.3812C13.4879 19.3812 13.0138 19.1989 12.9044 19.1989C12.5396 19.2354 13.1962 19.4906 13.2691 19.527C15.7128 20.1468 18.6671 18.1416 19.7249 16.027C20.2355 14.9697 20.4908 13.4385 20.2355 12.2718C20.199 12.1624 20.1625 11.9801 20.0531 11.9072C20.0531 11.9801 20.0896 12.0166 20.0896 12.0895C20.1625 13.3656 20.0166 14.8239 19.3966 15.9541C18.4483 17.8499 15.9316 19.5635 13.7068 19.3812Z" fill="#AD8B6C"/>
<path d="M12.5396 21.4228C15.0927 23.0269 18.4483 21.8238 20.6002 20.1103C21.0379 19.7821 21.4391 19.3082 21.8767 18.9801C22.0956 18.8342 22.2415 18.7249 22.5333 18.7613C21.9132 18.1415 21.4026 19.0165 20.9649 19.3811C18.9589 21.2769 15.3481 22.6988 12.722 21.2405C12.6126 21.1676 12.1749 20.8394 12.1019 20.8759C12.029 21.1311 12.3937 21.3134 12.5396 21.4228Z" fill="#AD8B6C"/>
<path d="M20.5272 4.65186C20.2354 4.90706 20.819 5.01644 21.0014 5.12581C24.2839 6.83935 26.0711 10.3394 25.8158 14.0216C25.8158 14.131 25.9252 14.1675 26.0346 14.131C26.0711 14.0581 26.1076 13.9852 26.1076 13.9123C26.217 12.8914 25.9982 11.3237 25.7064 10.3394C24.9405 7.86019 22.9344 5.56331 20.5272 4.65186Z" fill="#AD8B6C"/>
<path d="M4.95322 13.5115C4.55201 13.0011 4.33317 12.199 4.40612 11.5427C4.44259 11.3604 4.58849 11.0323 4.55201 10.9229C4.55201 10.85 4.22375 10.4125 4.15081 10.3396C4.00492 10.1573 3.71313 9.86566 3.45782 9.8292C3.20251 9.75628 3.09309 9.79274 3.05661 10.0844C2.98367 10.6313 3.16603 11.4334 3.42135 11.9438C3.71313 12.5636 4.2967 13.1834 4.95322 13.5115Z" fill="#AD8B6C"/>
<path d="M5.46384 13.6574C5.50031 13.6938 5.46384 13.7303 5.53678 13.6938C5.57326 13.0741 6.01093 12.6366 6.30272 12.1261C6.44861 11.8709 6.63098 11.5063 6.52156 11.2147C6.41214 10.923 6.22977 10.9959 6.04741 10.8501C5.90151 10.7407 5.82857 10.522 5.6462 10.4126C5.09911 10.923 4.77085 11.5793 4.91674 12.3084C4.95321 12.6366 5.28147 13.4022 5.46384 13.6574Z" fill="#AD8B6C"/>
<path d="M12.2479 7.53208C12.1385 6.58416 11.3361 5.52687 10.3148 5.63625C9.69481 5.70916 8.71003 6.51124 8.23588 6.91229C8.08999 7.02166 7.54289 7.56854 7.46994 7.67791C7.43347 7.75083 7.397 7.82374 7.50642 7.8602H7.61584C8.49119 7.02166 10.6796 4.68833 11.6279 6.65708C11.9197 7.24041 11.9561 7.93312 11.7008 8.55291C11.482 9.06333 10.9349 9.50083 11.0443 10.0842C11.2996 9.68312 11.7373 9.39145 11.9926 8.99041C12.2115 8.62583 12.2844 8.2977 12.3209 7.89666L13.2692 7.71437L13.1962 7.38624L12.2479 7.53208Z" fill="#AD8B6C"/>
<path d="M17.573 3.23035C17.3177 2.90222 17.0988 2.79285 16.807 3.12097C16.2964 3.70431 16.187 4.65222 16.6611 5.27201C17.3906 5.23556 17.9377 4.39701 18.0836 3.74076C18.1565 3.30326 18.1201 2.82931 17.573 3.23035Z" fill="#AD8B6C"/>
<path d="M12.2478 4.94362C10.4606 3.63112 7.6522 6.03737 6.48506 7.31341C6.37564 7.42278 5.90149 7.96966 5.90149 8.07903C5.90149 8.22487 6.04738 8.29778 6.1568 8.18841C7.251 6.98528 8.74639 5.34466 10.3877 4.98007C11.1901 4.79778 12.2113 5.01653 12.5396 5.85507C12.6125 6.00091 12.649 6.29257 12.722 6.40195C12.7584 6.43841 12.7949 6.40195 12.7949 6.40195C12.8314 6.29257 12.7949 6.00091 12.7949 5.89153C12.8314 5.56341 12.4667 5.12591 12.2478 4.94362Z" fill="#AD8B6C"/>
<path d="M7.54284 9.35538C7.54284 9.06372 7.54284 8.73559 7.28753 8.5533C7.06869 8.51684 6.52159 9.13663 6.3757 9.31893C6.30275 9.4283 5.86507 10.1575 5.97449 10.2668C6.12039 10.3033 6.12039 10.1575 6.22981 10.0846C6.33923 10.0116 6.55806 10.0116 6.66748 10.0846C6.74043 10.121 6.81338 10.2304 6.88632 10.2304C6.99574 10.2304 7.06869 10.121 7.25105 10.1575C7.57931 10.2304 7.50637 10.5585 7.8711 10.5585C8.08994 10.5585 8.08994 10.4856 8.19935 10.3033C8.60056 9.53768 8.60056 8.66268 7.54284 9.35538Z" fill="#AD8B6C"/>
<path d="M24.4663 19.0165C24.904 18.8707 25.4875 18.2509 25.1228 17.8134C24.9404 17.5946 24.7216 17.7769 24.6487 17.704C24.5757 17.6675 24.5028 17.4123 24.4298 17.303C24.211 17.0113 23.8462 17.0478 23.5909 17.303C23.0074 17.9228 23.3356 19.3446 24.4663 19.0165Z" fill="#AD8B6C"/>
<path d="M6.26628 14.3133C6.81338 14.4956 7.50637 14.2404 7.90757 13.8394C8.01699 13.6935 8.52761 13.1102 8.12641 13.0737C8.05346 13.0737 7.94404 13.1102 7.90757 13.1102C7.8711 13.0737 7.83462 13.0008 7.79815 12.9644C7.17811 12.4904 6.3757 13.1102 6.12039 13.73C5.90155 14.0581 5.86508 14.1675 6.26628 14.3133Z" fill="#AD8B6C"/>
<path d="M9.8042 13.4019C10.023 13.1832 10.6796 12.454 10.4242 12.1259C10.2054 11.8707 9.43947 12.0165 9.14769 12.0894C9.14769 12.1988 9.14769 12.3082 9.14769 12.4176C9.11121 12.5634 8.96532 12.7092 8.96532 12.8186C8.89237 13.0738 9.03827 13.1832 8.78296 13.4384C8.60059 13.6207 8.52764 13.7301 8.38175 13.9124C8.3088 14.0217 8.16291 14.0947 8.08997 14.204C8.67354 14.1311 9.33005 13.803 9.8042 13.4019Z" fill="#AD8B6C"/>
<path d="M19.7248 9.46428C19.8342 9.57365 20.126 10.1205 20.1989 10.157C20.3084 10.2299 20.4178 10.1934 20.4543 10.0841C20.4907 9.86532 19.6519 8.80803 19.4695 8.62574C18.813 7.93303 18.0835 7.49553 17.0623 7.42261C16.3693 7.38615 15.4574 7.42261 15.348 8.26115C15.5304 8.18824 15.7128 8.0424 15.8951 7.96949C17.3176 7.42261 18.8859 8.37053 19.7248 9.46428Z" fill="#AD8B6C"/>
<path d="M23.4086 16.2456C23.1898 15.9175 22.7886 16.3185 22.7156 16.2456C22.4968 15.881 22.2415 15.8081 22.132 16.282C21.9861 16.8289 22.1685 17.5945 22.4603 18.0685C22.5332 18.1779 22.9709 18.7612 23.0803 18.6883C22.9344 18.2508 22.9344 17.7404 23.0803 17.3393C23.2262 16.9748 23.6639 16.6102 23.4086 16.2456Z" fill="#AD8B6C"/>
<path d="M10.096 14.7876C9.7677 14.7147 9.43945 14.4959 9.11119 14.5324C8.8194 14.5324 8.4182 14.7511 8.08994 14.7511C7.68874 14.7876 7.25106 14.7511 6.84985 14.6418C7.61579 15.5897 9.47592 16.2459 10.096 14.7876Z" fill="#AD8B6C"/>
<path d="M26.8735 18.0687C26.7641 18.0687 26.6912 18.1417 26.6547 18.1417C26.5818 18.1417 26.3994 17.85 26.1806 17.8865C25.8158 17.9229 25.597 18.5427 25.4146 18.7979C25.1958 19.0896 25.0134 19.1625 24.6487 19.3083C24.6122 19.3083 24.5393 19.3448 24.5757 19.3812C25.3417 19.7458 26.5453 19.4177 26.9465 18.6521C27.0559 18.4333 27.2018 18.1052 26.8735 18.0687Z" fill="#AD8B6C"/>
<path d="M21.4027 6.14669C21.2932 6.07378 20.8191 5.78211 20.7097 5.81857L20.6367 5.89149C20.6367 5.9644 21.0014 6.11024 21.0744 6.18315C22.6063 7.13107 23.664 8.91753 24.0652 10.6311C24.1381 10.9227 24.2111 11.7248 24.3205 11.9071C24.357 11.9436 24.4299 12.0165 24.4664 12.0529C24.5393 11.98 24.5393 11.9071 24.5029 11.8342C24.4664 9.68315 23.2628 7.31336 21.4027 6.14669Z" fill="#AD8B6C"/>
<path d="M5.13558 21.6416C5.17206 21.7145 5.3909 22.0062 5.50032 21.9332V21.678C3.8955 19.8551 3.20251 17.5218 3.27545 15.1155C3.27545 15.0062 3.3484 14.8603 3.31193 14.7145C3.27545 14.6051 3.05662 14.4957 3.02014 14.6416C2.9472 15.1155 2.98367 15.8812 3.02014 16.3551C3.20251 18.3239 3.8955 20.1468 5.13558 21.6416Z" fill="#AD8B6C"/>
<path d="M8.67348 10.3029C8.60054 10.3758 8.3817 10.631 8.34523 10.704C8.27228 10.8498 8.45465 10.9956 8.45465 11.1779C8.67348 11.1779 8.89232 11.3602 8.9288 11.6154C8.9288 11.6883 8.85585 11.8342 8.96527 11.8706C9.33 11.7977 9.8771 11.4696 10.023 11.1415C10.2783 10.631 9.95004 10.5946 9.51237 10.704C9.58531 10.4852 9.40295 10.0477 9.14763 10.0477C9.03822 10.0113 8.7829 10.1935 8.67348 10.3029Z" fill="#AD8B6C"/>
<path d="M5.68267 8.80833C5.46383 8.84479 5.20852 9.20937 5.17205 9.17292C4.98968 8.99062 4.88026 8.62604 4.552 8.73542C4.33317 8.80833 4.36964 9.39167 4.40611 9.5375C4.40611 9.68333 4.73437 10.5948 4.80732 10.5948C5.13557 10.3031 5.53678 10.1208 5.75562 9.71979C5.82856 9.5375 6.08388 8.73542 5.68267 8.80833Z" fill="#AD8B6C"/>
<path d="M4.36971 14.9331C4.33323 14.8237 4.22381 14.8237 4.15087 14.8237C4.04145 14.8602 4.04145 15.2612 4.00497 15.3706C3.89555 17.1206 4.44265 19.3446 5.50037 20.7664C5.57332 20.8394 5.75568 21.1675 5.8651 21.131L5.93805 20.9852C5.0627 19.7821 4.47912 18.3602 4.36971 16.9019C4.36971 16.6831 4.36971 16.4644 4.33323 16.2821C4.26029 15.8446 4.44265 15.2977 4.36971 14.9331Z" fill="#AD8B6C"/>
<path d="M21.8039 24.4126C21.8768 24.4126 21.9133 24.3397 21.9862 24.2668C22.5698 23.5376 23.4087 21.4595 22.6427 20.6939C22.2051 20.2564 21.4391 20.621 21.1473 21.0949C21.2932 21.0949 21.4391 21.022 21.585 21.022C22.4604 20.9856 22.6063 21.7876 22.4968 22.4803C22.4239 23.1366 22.1321 23.8658 21.8039 24.4126Z" fill="#AD8B6C"/>
<path d="M18.0471 4.87092C17.6094 5.05321 17.4635 5.56362 16.9529 5.52717C17.427 6.03758 18.4848 5.92821 19.0318 5.60008C19.2507 5.45425 19.4695 5.30842 19.2507 5.05321C19.0318 4.76154 18.4118 4.72508 18.0471 4.87092Z" fill="#AD8B6C"/>
<path d="M14.6551 10.0114C15.421 10.1572 16.2964 9.97494 16.8435 10.6676L17.0623 11.1416C17.3176 10.4854 16.6976 9.90202 16.114 9.75619C15.6399 9.64681 15.1293 9.71973 14.6186 9.61035C13.9986 9.50098 13.488 9.13639 13.1597 8.58952C13.1232 8.5166 12.9773 8.22493 12.9773 8.18848H12.8679C13.0868 9.17285 13.6703 9.79264 14.6551 10.0114Z" fill="#AD8B6C"/>
<path d="M5.39087 14.277L5.42734 14.1311C5.09908 14.0582 4.77082 13.8759 4.47904 13.6936C4.2602 13.5478 3.74957 13.0738 3.56721 13.0009C2.98364 12.8551 2.83775 13.2197 3.166 13.6572C3.67663 14.3134 4.62493 14.4228 5.39087 14.277Z" fill="#AD8B6C"/>
<path d="M17.1352 6.21976C16.2599 6.73018 14.8739 7.20413 13.9256 7.45934L13.8527 7.20413C14.0715 7.13122 14.9104 6.87601 15.0927 6.80309C15.4575 6.65726 15.7493 6.36559 16.041 6.11038C16.1505 6.00101 16.4058 5.56351 16.5152 5.52705C16.734 5.49059 16.8435 5.78226 16.9894 5.92809C17.0258 6.03747 17.2811 6.14684 17.1352 6.21976Z" fill="#AD8B6C"/>
<path d="M14.9104 3.3397C14.9469 4.25116 15.2751 5.16261 16.2599 5.30845C16.0775 5.01678 15.9681 4.68866 15.9316 4.36053C15.9316 4.25116 15.9316 4.17824 15.9316 4.06886C15.8587 3.66782 15.3116 3.26678 14.9104 3.3397Z" fill="#AD8B6C"/>
<path d="M23.7734 15.3345C23.4816 15.2616 23.2263 15.2616 22.971 15.371C22.898 15.4804 23.4087 15.772 23.4816 15.845C23.6275 15.9543 23.7734 16.1002 23.9193 16.246C24.1381 16.0637 24.357 15.8814 24.6487 15.9908C24.8676 15.4439 24.1016 14.4595 23.7734 15.3345Z" fill="#AD8B6C"/>
<path d="M26.0346 15.9176C26.1441 15.0791 25.3052 14.7145 24.6122 14.7874C24.5757 14.8239 24.904 15.1885 24.9405 15.2614C25.0499 15.4437 25.1593 15.6624 25.1958 15.8812C25.4876 15.9176 25.6699 16.0999 25.9252 16.2093C25.9617 16.1364 25.9982 15.9541 26.0346 15.9176Z" fill="#AD8B6C"/>
<path d="M22.0955 15.2249C22.1685 15.3343 22.2779 15.2614 22.3509 15.152C22.6791 14.4958 22.7156 13.0374 22.6062 12.3083C22.5697 12.0531 22.4603 11.4333 22.1685 11.3604C22.4238 12.4541 22.4968 13.402 22.2414 14.4958C22.205 14.6781 22.0226 15.1156 22.0955 15.2249Z" fill="#AD8B6C"/>
<path d="M20.0896 6.54801C21.3297 7.20426 22.0956 8.29801 22.6427 9.5376C22.6792 9.64697 22.8616 10.1574 22.9345 10.1938C23.0439 10.2303 23.0804 10.1938 23.0804 10.0845C23.0804 9.90218 22.8251 9.28239 22.7157 9.06364C22.1686 7.96989 21.2203 6.94906 20.0896 6.4751V6.54801Z" fill="#AD8B6C"/>
<path d="M26.8735 16.5009C26.7641 16.6831 26.6547 16.829 26.5088 16.9748C26.7641 17.1571 26.8006 17.3759 26.7276 17.6675C27.4206 17.5217 27.7124 16.6831 27.4571 16.0634C27.2383 15.5529 26.9829 16.3186 26.8735 16.5009Z" fill="#AD8B6C"/>
<path d="M19.5424 6.98526C19.5424 6.98526 19.4695 7.02172 19.5059 7.05817C20.2719 7.42276 20.8919 8.15192 21.2931 8.91755C21.3661 9.06338 21.6214 9.79255 21.6943 9.82901C21.8037 9.90192 21.9132 9.86547 21.9132 9.75609C21.9496 9.39151 21.2931 8.33422 21.0378 8.04255C20.7825 7.78734 19.8707 6.91234 19.5424 6.98526Z" fill="#AD8B6C"/>
<path d="M19.6154 5.45394C19.5789 5.4904 19.506 5.70915 19.4331 5.78207C19.1413 6.11019 18.5942 6.25603 18.1565 6.25603C18.3389 6.43832 18.7765 6.43832 18.9954 6.43832C19.2872 6.40186 19.8343 6.18311 20.0531 6.00082C20.7096 5.45394 19.8343 5.23519 19.6154 5.45394Z" fill="#AD8B6C"/>
<path d="M12.2479 3.01156C12.5032 3.08447 13.0138 2.79281 13.3056 2.71989C13.7433 2.61051 14.2539 2.5376 14.728 2.57406C14.8375 2.57406 15.3481 2.75635 15.3116 2.5376C15.2751 2.35531 14.6551 2.31885 14.5092 2.31885C13.9256 2.31885 12.9409 2.5376 12.3938 2.79281C12.2479 2.82926 11.9926 2.93864 12.2479 3.01156Z" fill="#AD8B6C"/>
<path d="M19.1049 3.7041C19.1049 3.77702 19.2507 3.84993 19.2507 3.95931C19.2872 4.06868 19.2507 4.17806 19.3237 4.25098C19.6884 3.95931 19.9437 3.52181 19.9073 3.04785C19.6884 2.93848 19.4331 2.93848 19.1778 2.93848C19.2507 3.12077 19.0684 3.52181 19.1049 3.7041Z" fill="#AD8B6C"/>
<path d="M18.193 2.8291C18.4119 3.04785 18.3754 3.37598 18.3754 3.66764C18.5577 3.59473 18.7766 3.55827 18.8495 3.33952C18.9589 3.01139 18.9225 2.50098 18.5942 2.28223L18.0471 2.64681C18.0471 2.79264 18.1565 2.75618 18.193 2.8291Z" fill="#AD8B6C"/>
<path d="M26.3994 16.4645C26.3994 16.501 26.363 16.5374 26.4724 16.501L27.0924 15.5531C26.8736 15.2249 26.4724 15.1156 26.0712 15.0791C26.29 15.3343 26.363 15.5895 26.363 15.9176C26.363 15.9906 26.29 16.0999 26.29 16.1729C26.3265 16.2093 26.3994 16.3916 26.3994 16.4645Z" fill="#AD8B6C"/>
<path d="M16.2599 2.68309C16.4058 2.71955 16.5517 2.97476 16.6611 2.90184C16.7341 2.86538 16.9165 2.64663 16.9165 2.57371C16.9165 2.5008 16.6611 2.20913 16.6247 2.13621C16.5882 2.09976 16.4058 1.95392 16.3694 1.91746C16.1505 1.84455 15.8952 2.53726 15.8223 2.71955C15.9682 2.68309 16.0776 2.64663 16.2599 2.68309Z" fill="#AD8B6C"/>
<path d="M11.4819 7.82366C11.4089 7.75075 10.9713 8.04242 10.8983 8.07887C10.3877 8.407 9.87707 8.88096 9.6947 9.46429C10.023 9.09971 10.3512 8.77158 10.7524 8.47992C11.0442 8.33408 11.5548 8.22471 11.4819 7.82366Z" fill="#AD8B6C"/>
<path d="M19.2142 4.65219C19.3601 4.65219 19.4695 4.79802 19.5425 4.94386C19.5789 5.01677 19.5425 5.16261 19.6519 5.16261C19.9072 5.16261 20.3084 4.61573 20.126 4.4699C19.9801 4.36052 19.1413 4.28761 19.2142 4.65219Z" fill="#AD8B6C"/>
<path d="M17.9741 2.57395C17.7188 2.1729 17.0988 1.88124 17.0988 2.57395C17.2446 2.53749 17.5729 2.82915 17.6823 2.82915C17.7553 2.82915 17.9012 2.64686 17.9741 2.57395Z" fill="#AD8B6C"/>
<path d="M18.7765 3.8502C18.6306 3.81374 18.193 4.17832 18.2294 4.36062C18.5212 4.32416 18.7036 4.43353 18.9589 4.54291C19.0319 4.43353 19.0683 4.36062 19.0319 4.21478C19.0319 4.14187 18.886 3.88666 18.7765 3.8502Z" fill="#AD8B6C"/>
<path d="M14.1444 3.22998C13.9985 3.22998 13.2326 3.37581 13.2691 3.55811L13.342 3.66748L13.4514 3.70394L14.3997 3.44873C14.4362 3.26644 14.2539 3.22998 14.1444 3.22998Z" fill="#AD8B6C"/>
<path d="M15.8587 3.3397C15.8587 3.37616 16.0046 3.55845 16.0411 3.59491C16.0776 3.63137 16.0776 3.63137 16.1141 3.63137L16.3694 3.12095C16.187 2.9022 15.7493 3.04803 15.8587 3.3397Z" fill="#AD8B6C"/>
<path d="M24.3934 16.3915C24.1745 16.4644 24.284 16.756 24.4663 16.7196C24.7216 16.6831 24.6487 16.3185 24.3934 16.3915Z" fill="#AD8B6C"/>
<path d="M25.9982 16.6467C25.8523 16.5009 25.5605 16.6832 25.7064 16.8655C25.8888 17.0478 26.1805 16.829 25.9982 16.6467Z" fill="#AD8B6C"/>
<path d="M25.05 17.1571L25.3053 17.1935C25.4512 16.8289 24.8676 16.756 25.05 17.1571Z" fill="#AD8B6C"/>
<path d="M25.1958 16.2091C25.0135 16.1727 24.9405 16.3914 25.0499 16.5008C25.2323 16.6831 25.4876 16.2456 25.1958 16.2091Z" fill="#AD8B6C"/>
<path d="M7.32398 11.178C7.17809 11.0686 6.92278 11.2874 7.10514 11.4332C7.28751 11.5426 7.4334 11.2874 7.32398 11.178Z" fill="#AD8B6C"/>
<path d="M6.92275 12.0531C6.84981 12.0896 6.81333 12.3813 7.06865 12.3448C7.32396 12.2719 7.10512 11.9073 6.92275 12.0531Z" fill="#AD8B6C"/>
<path d="M7.54277 11.8345C7.50629 12.1262 8.01692 11.9439 7.79808 11.7616C7.72513 11.6887 7.57924 11.7251 7.54277 11.8345Z" fill="#AD8B6C"/>
<path d="M26.1806 17.5945C26.4724 17.631 26.3995 17.2299 26.1441 17.3028C25.9983 17.3757 26.0347 17.5945 26.1806 17.5945Z" fill="#AD8B6C"/>
<path d="M7.90754 11.2143C8.05343 11.1779 7.98048 10.9227 7.79812 10.9591C7.57928 10.9956 7.6887 11.3237 7.90754 11.2143Z" fill="#AD8B6C"/>
<path d="M8.49105 12.3445C8.34516 12.4903 8.60047 12.6726 8.70989 12.5268C8.85578 12.4174 8.63694 12.1986 8.49105 12.3445Z" fill="#AD8B6C"/>
<path d="M8.52763 11.6886C8.45469 11.6157 8.1629 11.6886 8.27232 11.8709C8.34527 12.0532 8.63705 11.8709 8.52763 11.6886Z" fill="#AD8B6C"/>
<path d="M8.08992 12.6002C8.19933 12.4543 7.94402 12.272 7.8346 12.4179C7.72518 12.6002 8.05344 12.7095 8.08992 12.6002Z" fill="#AD8B6C"/>
<path d="M25.6699 17.6675C25.9252 17.5946 25.7064 17.23 25.524 17.4123C25.451 17.4852 25.5605 17.704 25.6699 17.6675Z" fill="#AD8B6C"/>
<path d="M7.32403 10.7772C7.46992 10.5584 6.99577 10.4491 7.06872 10.7043C7.10519 10.8501 7.28756 10.8137 7.32403 10.7772Z" fill="#AD8B6C"/>
<path d="M6.33921 10.4126C6.19332 10.522 6.33921 10.7407 6.52158 10.6314C6.631 10.5584 6.52158 10.3032 6.33921 10.4126Z" fill="#AD8B6C"/>
<path d="M17.3541 11.6885C17.3541 11.6885 18.1565 12.7458 19.9072 11.3968C20.0531 11.3239 20.4179 11.0687 20.5273 11.0322C21.8768 10.4125 23.1898 11.1052 23.8463 12.3447C24.1746 12.9645 24.2111 13.4385 24.2111 14.1312C24.2111 14.2041 24.1746 14.277 24.1746 14.35C24.2111 14.4958 24.3934 14.4593 24.5029 14.3864C24.9405 12.3447 23.1534 10.1937 21.0379 10.4489C20.8191 10.4854 20.272 10.7041 19.9802 10.9229C19.2872 11.3604 18.4118 12.2354 17.3541 11.6885Z" fill="#AD8B6C"/>
<path d="M11.409 23.9751C10.6431 23.9751 10.4607 24.0116 10.2783 24.1574C10.2783 24.1574 10.4607 23.647 11.3725 23.647L11.409 23.9751Z" fill="#AD8B6C"/>
<path d="M10.1324 6.69385C10.1689 7.05843 9.5124 8.07926 9.29356 8.58968C9.07472 9.13656 9.22061 9.68343 9.22061 9.68343C9.22061 9.68343 9.3665 9.02718 9.9136 8.29801C10.4242 7.56885 10.3513 7.09489 10.1324 6.69385Z" fill="#AD8B6C"/>
<path d="M9.22053 16.8291C9.73116 17.9229 10.5336 18.652 11.6278 19.1624C10.3877 19.1989 9.18406 18.1051 9.22053 16.8291Z" fill="#AD8B6C"/>
<path d="M8.19928 16.5737C8.60049 18.3966 9.84057 19.7821 11.6642 20.2196C11.4454 20.2196 11.1901 20.2196 10.9712 20.1831C9.29348 19.9644 8.08986 18.2144 8.19928 16.5737Z" fill="#AD8B6C"/>
</svg>
