<svg width="60" height="61" viewBox="0 0 60 61" fill="none" xmlns="http://www.w3.org/2000/svg">
<path d="M50 5.58984H10V10.5898L24.525 21.4898C20.1168 22.9434 16.4662 26.0878 14.3754 30.2319C12.2846 34.3759 11.9248 39.1806 13.375 43.5898C14.0925 45.7741 15.2336 47.7954 16.733 49.5383C18.2324 51.2811 20.0607 52.7112 22.1133 53.7468C24.1659 54.7824 26.4025 55.4032 28.6953 55.5736C30.988 55.744 33.2919 55.4607 35.475 54.7399C38.9762 53.5891 42.0247 51.3623 44.1859 48.377C46.3471 45.3917 47.5106 41.8003 47.5106 38.1148C47.5106 34.4294 46.3471 30.838 44.1859 27.8527C42.0247 24.8674 38.9762 22.6406 35.475 21.4898L50 10.5898V5.58984ZM37.35 49.3398L30 45.0398L22.65 49.3398L24.6 41.0148L18.125 35.4148L26.65 34.6898L30 26.8398L33.35 34.6898L41.875 35.4148L35.4 41.0148L37.35 49.3398Z" fill="url(#paint0_linear_4990_2358)"/>
<defs>
<linearGradient id="paint0_linear_4990_2358" x1="10" y1="30.6058" x2="50" y2="30.6058" gradientUnits="userSpaceOnUse">
<stop offset="0.509615" stop-color="#F3654A"/>
<stop offset="0.932692" stop-color="#FFB9AC"/>
</linearGradient>
</defs>
</svg>
