<svg width="53" height="52" viewBox="0 0 53 52" fill="none" xmlns="http://www.w3.org/2000/svg">
<path d="M15.7774 6.25C15.7774 5.38805 16.1198 4.5614 16.7293 3.9519C17.3388 3.34241 18.1654 3 19.0274 3H25.5274C26.3893 3 27.216 3.34241 27.8255 3.9519C28.435 4.5614 28.7774 5.38805 28.7774 6.25V7.04625C26.6906 7.94575 24.9835 9.54591 23.9511 11.5702C22.1551 11.4766 20.3683 11.8814 18.7881 12.74C17.2079 13.5987 15.8959 14.8777 14.9974 16.4355L11.7474 22.0645C10.8482 23.6217 10.3972 25.3973 10.4443 27.1948C10.4913 28.9924 11.0345 30.7419 12.0139 32.25C11.1606 33.5642 10.6366 35.0648 10.4864 36.6245C9.81727 36.7623 9.12177 36.6857 8.49867 36.4056C7.87557 36.1256 7.35656 35.6563 7.01537 35.0645L3.76537 29.4355C3.33441 28.689 3.21762 27.802 3.44069 26.9694C3.66377 26.1368 4.20843 25.427 4.95487 24.996L5.61137 24.6157C5.74736 24.5347 5.85785 24.4171 5.93025 24.2763C6.00265 24.1355 6.03405 23.9773 6.02087 23.8195C5.94932 22.9413 5.94932 22.0587 6.02087 21.1805C6.03405 21.0227 6.00265 20.8645 5.93025 20.7237C5.85785 20.5829 5.74736 20.4653 5.61137 20.3842L4.95487 20.004C4.20843 19.573 3.66377 18.8632 3.44069 18.0306C3.21762 17.198 3.33441 16.311 3.76537 15.5645L7.01537 9.9355C7.44636 9.18906 8.15621 8.6444 8.98877 8.42133C9.82133 8.19825 10.7084 8.31504 11.4549 8.746L12.1374 9.136C12.4136 9.2985 12.7614 9.279 13.0279 9.097C13.7429 8.60517 14.4979 8.17183 15.2931 7.797C15.437 7.72983 15.5591 7.62347 15.6453 7.49011C15.7315 7.35675 15.7784 7.20179 15.7806 7.043L15.7774 6.25Z" fill="url(#paint0_linear_4990_2390)"/>
<path d="M29.6417 9.75C28.7797 9.75 27.9531 10.0924 27.3436 10.7019C26.7341 11.3114 26.3917 12.138 26.3917 13V13.793C26.3917 14.118 26.1967 14.4105 25.9042 14.547C25.1155 14.9189 24.3579 15.3536 23.639 15.847C23.5092 15.9363 23.3571 15.9877 23.1997 15.9951C23.0424 16.0026 22.8861 15.9659 22.7485 15.8892L22.066 15.496C21.3195 15.065 20.4324 14.9483 19.5999 15.1713C18.7673 15.3944 18.0574 15.9391 17.6265 16.6855L14.3765 22.3145C13.9455 23.061 13.8287 23.948 14.0518 24.7806C14.2749 25.6132 14.8195 26.323 15.566 26.754L16.2225 27.1343C16.502 27.2967 16.658 27.6055 16.632 27.9305C16.5604 28.8087 16.5604 29.6913 16.632 30.5695C16.658 30.8945 16.502 31.2065 16.2225 31.3657L15.566 31.746C14.8195 32.177 14.2749 32.8868 14.0518 33.7194C13.8287 34.552 13.9455 35.439 14.3765 36.1855L17.6265 41.8145C18.0574 42.5609 18.7673 43.1056 19.5999 43.3287C20.4324 43.5517 21.3195 43.435 22.066 43.004L22.7485 42.614C22.8858 42.5369 23.0419 42.4996 23.1993 42.5065C23.3566 42.5134 23.5089 42.5642 23.639 42.653C24.354 43.1448 25.109 43.5782 25.9042 43.953C26.0481 44.0202 26.1702 44.1265 26.2564 44.2599C26.3426 44.3933 26.3895 44.5482 26.3917 44.707V45.5C26.3917 46.362 26.7341 47.1886 27.3436 47.7981C27.9531 48.4076 28.7797 48.75 29.6417 48.75H36.1417C37.0037 48.75 37.8303 48.4076 38.4398 47.7981C39.0493 47.1886 39.3917 46.362 39.3917 45.5V44.6518C39.3917 44.3268 39.5802 44.0375 39.8695 43.901C40.6386 43.5305 41.3731 43.1026 42.073 42.6172C42.203 42.5273 42.3558 42.4756 42.5138 42.4681C42.6718 42.4607 42.8287 42.4977 42.9667 42.575L43.7142 43.004C44.4607 43.435 45.3477 43.5517 46.1803 43.3287C47.0129 43.1056 47.7227 42.5609 48.1537 41.8145L51.4037 36.1855C51.8347 35.439 51.9514 34.552 51.7284 33.7194C51.5053 32.8868 50.9606 32.177 50.2142 31.746L49.4407 31.3007C49.3052 31.22 49.1951 31.1029 49.1227 30.9627C49.0503 30.8226 49.0186 30.665 49.0312 30.5077C49.0962 29.6705 49.0962 28.8295 49.0312 27.9923C49.0186 27.835 49.0503 27.6774 49.1227 27.5373C49.1951 27.3971 49.3052 27.28 49.4407 27.1993L50.2142 26.754C50.9606 26.323 51.5053 25.6132 51.7284 24.7806C51.9514 23.948 51.8347 23.061 51.4037 22.3145L48.1537 16.6855C47.7227 15.9391 47.0129 15.3944 46.1803 15.1713C45.3477 14.9483 44.4607 15.065 43.7142 15.496L42.9667 15.925C42.8287 16.0023 42.6718 16.0393 42.5138 16.0319C42.3558 16.0244 42.203 15.9727 42.073 15.8828C41.3732 15.3978 40.6364 14.9685 39.8695 14.599C39.7277 14.5314 39.6077 14.4256 39.5227 14.2936C39.4378 14.1616 39.3913 14.0085 39.3885 13.8515V13C39.3885 12.138 39.046 11.3114 38.4366 10.7019C37.8271 10.0924 37.0004 9.75 36.1385 9.75H29.6384H29.6417ZM39.33 29.25C39.33 30.9739 38.6451 32.6272 37.4261 33.8462C36.2072 35.0652 34.5539 35.75 32.83 35.75C31.106 35.75 29.4527 35.0652 28.2338 33.8462C27.0148 32.6272 26.33 30.9739 26.33 29.25C26.33 27.5261 27.0148 25.8728 28.2338 24.6538C29.4527 23.4348 31.106 22.75 32.83 22.75C34.5539 22.75 36.2072 23.4348 37.4261 24.6538C38.6451 25.8728 39.33 27.5261 39.33 29.25Z" fill="url(#paint1_linear_4990_2390)"/>
<defs>
<linearGradient id="paint0_linear_4990_2390" x1="3.32996" y1="19.8456" x2="28.7774" y2="19.8456" gradientUnits="userSpaceOnUse">
<stop offset="0.509615" stop-color="#F3654A"/>
<stop offset="0.932692" stop-color="#FFB9AC"/>
</linearGradient>
<linearGradient id="paint1_linear_4990_2390" x1="13.941" y1="29.25" x2="51.8391" y2="29.25" gradientUnits="userSpaceOnUse">
<stop offset="0.509615" stop-color="#F3654A"/>
<stop offset="0.932692" stop-color="#FFB9AC"/>
</linearGradient>
</defs>
</svg>
