<svg width="22" height="22" viewBox="0 0 22 22" fill="none" xmlns="http://www.w3.org/2000/svg">
<rect width="22" height="22" rx="11" fill="url(#paint0_linear_3726_5510)"/>
<path d="M15.375 11.875C15.3761 12.0534 15.3219 12.2277 15.2199 12.374C15.1178 12.5203 14.973 12.6314 14.8052 12.692L11.9806 13.7311L10.9415 16.5535C10.88 16.7207 10.7687 16.8649 10.6226 16.9669C10.4765 17.0688 10.3026 17.1234 10.1245 17.1234C9.94635 17.1234 9.77251 17.0688 9.62641 16.9669C9.48031 16.8649 9.36898 16.7207 9.30745 16.5535L8.26565 13.7344L5.44268 12.6953C5.27552 12.6338 5.13125 12.5225 5.02935 12.3764C4.92744 12.2303 4.8728 12.0564 4.8728 11.8783C4.8728 11.7002 4.92744 11.5263 5.02935 11.3802C5.13125 11.2341 5.27552 11.1228 5.44268 11.0612L8.26729 10.0222L9.30635 7.19977C9.36789 7.0326 9.47921 6.88833 9.62531 6.78643C9.77141 6.68452 9.94526 6.62989 10.1234 6.62989C10.3015 6.62989 10.4754 6.68452 10.6215 6.78643C10.7676 6.88833 10.8789 7.0326 10.9404 7.19977L11.9795 10.0244L14.8019 11.0634C14.9694 11.1232 15.1144 11.2332 15.217 11.3785C15.3196 11.5237 15.3748 11.6972 15.375 11.875ZM12.3125 6.625H13.1875V7.5C13.1875 7.61603 13.2336 7.72731 13.3157 7.80936C13.3977 7.89141 13.509 7.9375 13.625 7.9375C13.7411 7.9375 13.8523 7.89141 13.9344 7.80936C14.0164 7.72731 14.0625 7.61603 14.0625 7.5V6.625H14.9375C15.0536 6.625 15.1648 6.57891 15.2469 6.49686C15.3289 6.41481 15.375 6.30353 15.375 6.1875C15.375 6.07147 15.3289 5.96019 15.2469 5.87814C15.1648 5.79609 15.0536 5.75 14.9375 5.75H14.0625V4.875C14.0625 4.75897 14.0164 4.64769 13.9344 4.56564C13.8523 4.48359 13.7411 4.4375 13.625 4.4375C13.509 4.4375 13.3977 4.48359 13.3157 4.56564C13.2336 4.64769 13.1875 4.75897 13.1875 4.875V5.75H12.3125C12.1965 5.75 12.0852 5.79609 12.0032 5.87814C11.9211 5.96019 11.875 6.07147 11.875 6.1875C11.875 6.30353 11.9211 6.41481 12.0032 6.49686C12.0852 6.57891 12.1965 6.625 12.3125 6.625ZM17.125 8.375H16.6875V7.9375C16.6875 7.82147 16.6414 7.71019 16.5594 7.62814C16.4773 7.54609 16.3661 7.5 16.25 7.5C16.134 7.5 16.0227 7.54609 15.9407 7.62814C15.8586 7.71019 15.8125 7.82147 15.8125 7.9375V8.375H15.375C15.259 8.375 15.1477 8.42109 15.0657 8.50314C14.9836 8.58519 14.9375 8.69647 14.9375 8.8125C14.9375 8.92853 14.9836 9.03981 15.0657 9.12186C15.1477 9.20391 15.259 9.25 15.375 9.25H15.8125V9.6875C15.8125 9.80353 15.8586 9.91481 15.9407 9.99686C16.0227 10.0789 16.134 10.125 16.25 10.125C16.3661 10.125 16.4773 10.0789 16.5594 9.99686C16.6414 9.91481 16.6875 9.80353 16.6875 9.6875V9.25H17.125C17.2411 9.25 17.3523 9.20391 17.4344 9.12186C17.5164 9.03981 17.5625 8.92853 17.5625 8.8125C17.5625 8.69647 17.5164 8.58519 17.4344 8.50314C17.3523 8.42109 17.2411 8.375 17.125 8.375Z" fill="white"/>
<defs>
<linearGradient id="paint0_linear_3726_5510" x1="4" y1="3" x2="6.32571" y2="22.7279" gradientUnits="userSpaceOnUse">
<stop stop-color="#0375F3"/>
<stop offset="1" stop-color="#013DA0"/>
</linearGradient>
</defs>
</svg>
