<svg width="48" height="49" viewBox="0 0 48 49" fill="none" xmlns="http://www.w3.org/2000/svg">
<mask id="mask0_2229_7988" style="mask-type:luminance" maskUnits="userSpaceOnUse" x="0" y="0" width="48" height="49">
<path d="M48 0.6362H0V48.6362H48V0.6362Z" fill="white"/>
</mask>
<g mask="url(#mask0_2229_7988)">
<path d="M48 0.6362H0V48.6362H48V0.6362Z" fill="#126343"/>
<mask id="mask1_2229_7988" style="mask-type:alpha" maskUnits="userSpaceOnUse" x="5" y="17" width="144" height="121">
<path d="M12.2337 20.3042C10.3252 20.5839 8.80644 21.4932 7.7373 23.1119L113.803 129.178C114.872 127.559 116.391 126.65 118.3 126.37L12.2337 20.3042Z" fill="url(#paint0_linear_2229_7988)"/>
<path d="M7.73797 23.1128C7.00856 24.2019 6.53894 25.4009 6.19922 26.6499L112.265 132.716C112.605 131.467 113.075 130.268 113.804 129.179L7.73797 23.1128Z" fill="url(#paint1_linear_2229_7988)"/>
<path d="M6.19917 26.6499C6.08926 27.0495 5.99933 27.4592 5.89941 27.8689L111.965 133.935C112.065 133.525 112.155 133.115 112.265 132.716L6.19917 26.6499Z" fill="url(#paint2_linear_2229_7988)"/>
<path d="M5.97949 27.8992C6.00947 27.8193 6.03944 27.7493 6.06942 27.6694L112.135 133.735C112.105 133.815 112.075 133.885 112.046 133.965L5.97949 27.8992Z" fill="url(#paint3_linear_2229_7988)"/>
<path d="M5.89941 27.8686C5.9194 27.8786 5.94937 27.8886 5.97935 27.8986L112.045 133.964C112.015 133.954 111.985 133.944 111.965 133.934L5.89941 27.8686Z" fill="url(#paint4_linear_2229_7988)"/>
<path d="M6.06934 27.6684C6.9786 25.5102 8.48737 24.0114 10.7555 23.312L116.822 129.378C114.553 130.077 113.045 131.576 112.135 133.734L6.06934 27.6684Z" fill="url(#paint5_linear_2229_7988)"/>
<path d="M15.8814 19.646C14.6724 19.9058 13.4534 20.1256 12.2344 20.3054L118.3 126.371C119.519 126.191 120.738 125.972 121.947 125.712L15.8814 19.646Z" fill="url(#paint6_linear_2229_7988)"/>
<path d="M10.7549 23.3121C11.6741 23.0323 12.6234 23.0123 13.5726 22.9624L119.639 129.028C118.689 129.078 117.74 129.098 116.821 129.378L10.7549 23.3121Z" fill="url(#paint7_linear_2229_7988)"/>
<path d="M9.94574 26.1694C8.7667 26.2893 7.73753 26.7689 6.9082 27.6382L112.974 133.704C113.804 132.835 114.833 132.355 116.012 132.235L9.94574 26.1694Z" fill="url(#paint8_linear_2229_7988)"/>
<path d="M6.90845 27.6382C5.94923 28.6373 5.38968 29.8564 5 31.1753L111.066 137.241C111.456 135.922 112.015 134.703 112.974 133.704L6.90845 27.6382Z" fill="url(#paint9_linear_2229_7988)"/>
<path d="M5.2998 30.9252C5.77942 30.3157 6.22905 29.6762 6.74863 29.1167L112.815 135.182C112.295 135.742 111.845 136.382 111.366 136.991L5.2998 30.9252Z" fill="url(#paint10_linear_2229_7988)"/>
<path d="M5 31.1753C5 31.1853 5.01998 31.2052 5.04996 31.2652L111.116 137.331C111.086 137.271 111.066 137.251 111.066 137.241L5 31.1753Z" fill="url(#paint11_linear_2229_7988)"/>
<path d="M5.0498 31.265C5.14972 31.1351 5.21967 31.0252 5.2996 30.9253L111.366 136.991C111.286 137.091 111.216 137.201 111.116 137.331L5.0498 31.265Z" fill="url(#paint12_linear_2229_7988)"/>
<path d="M19.6178 17.7573C18.5387 18.7265 17.2897 19.346 15.8809 19.6458L121.947 125.712C123.356 125.412 124.605 124.792 125.684 123.823L19.6178 17.7573Z" fill="url(#paint13_linear_2229_7988)"/>
<path d="M6.74902 29.1171C7.37851 28.4477 8.18786 28.1479 9.1171 28.1579L115.183 134.224C114.254 134.214 113.445 134.514 112.815 135.183L6.74902 29.1171Z" fill="url(#paint14_linear_2229_7988)"/>
<path d="M12.2344 26.0405C11.475 26.0805 10.7057 26.0905 9.94629 26.1704L116.012 132.236C116.772 132.156 117.541 132.146 118.3 132.106L12.2344 26.0405Z" fill="url(#paint15_linear_2229_7988)"/>
<path d="M19.778 17.6362L19.6182 17.7561L125.684 123.822L125.844 123.702L19.778 17.6362Z" fill="url(#paint16_linear_2229_7988)"/>
<path d="M13.5732 22.9618C15.9913 22.8419 17.7998 21.7228 18.9988 19.6245L125.065 125.69C123.866 127.789 122.057 128.908 119.639 129.028L13.5732 22.9618Z" fill="url(#paint17_linear_2229_7988)"/>
<path d="M18.999 19.6246C19.3487 19.0151 19.6285 18.3756 19.7784 17.6362L125.844 123.702C125.695 124.441 125.415 125.081 125.065 125.69L18.999 19.6246Z" fill="url(#paint18_linear_2229_7988)"/>
<path d="M9.11621 28.1584C9.75569 28.1584 10.3952 28.1883 11.0247 28.1284L117.091 134.194C116.461 134.254 115.822 134.224 115.182 134.224L9.11621 28.1584Z" fill="url(#paint19_linear_2229_7988)"/>
<path d="M14.0229 25.3608C13.4834 25.7405 12.9038 26.0003 12.2344 26.0403L118.3 132.106C118.97 132.066 119.549 131.806 120.089 131.427L14.0229 25.3608Z" fill="url(#paint20_linear_2229_7988)"/>
<path d="M14.652 24.9214C14.4421 25.0612 14.2323 25.2111 14.0225 25.361L120.088 131.427C120.298 131.277 120.508 131.127 120.718 130.987L14.652 24.9214Z" fill="url(#paint21_linear_2229_7988)"/>
<path d="M11.0254 28.1289C12.1445 28.009 13.0937 27.5494 13.7931 26.6401L119.859 132.706C119.16 133.615 118.211 134.075 117.091 134.195L11.0254 28.1289Z" fill="url(#paint22_linear_2229_7988)"/>
<path d="M13.793 26.64C14.1827 26.1304 14.4624 25.5508 14.6523 24.9214L120.718 130.987C120.528 131.617 120.249 132.196 119.859 132.706L13.793 26.64Z" fill="url(#paint23_linear_2229_7988)"/>
<path d="M20.2177 23.1616C19.8879 23.1616 19.818 23.2215 19.748 23.5513L125.814 129.617C125.884 129.287 125.954 129.227 126.284 129.227L20.2177 23.1616Z" fill="url(#paint24_linear_2229_7988)"/>
<path d="M17.11 27.3193C16.5904 26.8997 15.841 26.9596 15.4014 27.4592L121.467 133.525C121.907 133.025 122.656 132.965 123.176 133.385L17.11 27.3193Z" fill="url(#paint25_linear_2229_7988)"/>
<path d="M15.4918 29.1871C15.0022 28.7274 14.9622 27.9581 15.4019 27.4585L121.468 133.524C121.046 134.004 121.066 134.732 121.501 135.196L121.558 135.253C121.538 135.235 121.52 135.216 121.501 135.196L15.4918 29.1871Z" fill="url(#paint26_linear_2229_7988)"/>
<path d="M15.7807 28.0483L121.847 134.114C121.777 134.184 121.717 134.244 121.657 134.294L15.5908 28.2282C15.6508 28.1782 15.7107 28.1183 15.7807 28.0483Z" fill="url(#paint27_linear_2229_7988)"/>
<path d="M15.9004 28.1674L16.0061 28.2738L122.072 134.34L121.966 134.233L15.9004 28.1674Z" fill="url(#paint28_linear_2229_7988)"/>
<path d="M15.8139 28.449L15.5908 28.228L121.657 134.294L121.88 134.515L15.8139 28.449Z" fill="url(#paint29_linear_2229_7988)"/>
<path d="M15.698 28.334C15.6733 28.3096 15.6487 28.2851 15.7454 28.3809L121.811 134.447C121.786 134.422 121.769 134.405 121.758 134.394L121.764 134.4C121.746 134.382 121.728 134.364 121.758 134.394L15.698 28.334Z" fill="url(#paint30_linear_2229_7988)"/>
<path d="M15.8501 28.4851C15.7994 28.4353 15.7488 28.3855 15.6982 28.3354L121.764 134.401C121.815 134.451 121.865 134.501 121.916 134.551L15.8501 28.4851Z" fill="url(#paint31_linear_2229_7988)"/>
<path d="M15.7455 28.3814C15.6995 28.3358 15.6681 28.3046 15.8136 28.4485L121.88 134.514C121.836 134.471 121.808 134.443 121.792 134.427L121.811 134.447C121.779 134.415 121.754 134.391 121.792 134.427L15.7455 28.3814Z" fill="url(#paint32_linear_2229_7988)"/>
<path d="M16.0059 28.2729C16.0467 28.3142 16.0872 28.3552 16.1276 28.3965L122.194 134.462C122.153 134.421 122.113 134.38 122.072 134.339L16.0059 28.2729Z" fill="url(#paint33_linear_2229_7988)"/>
<path d="M16.1037 28.3715C16.1324 28.4008 16.1451 28.4139 16.0625 28.3296L122.129 134.395L122.164 134.432L16.1037 28.3715Z" fill="url(#paint34_linear_2229_7988)"/>
<path d="M16.0625 28.3296L16.1572 28.4262L122.223 134.492L122.129 134.395L16.0625 28.3296Z" fill="url(#paint35_linear_2229_7988)"/>
<path d="M16.1273 28.3968C16.1352 28.4049 16.1432 28.4131 16.1035 28.3725L122.17 134.438C122.181 134.45 122.188 134.457 122.193 134.462C122.199 134.467 122.205 134.474 122.193 134.462L16.1273 28.3968Z" fill="url(#paint36_linear_2229_7988)"/>
<path d="M17.2093 27.405C17.1469 27.3485 17.1293 27.3337 17.1104 27.3178L123.176 133.384C123.195 133.399 123.213 133.414 123.275 133.471L17.2093 27.405Z" fill="url(#paint37_linear_2229_7988)"/>
<path d="M17.1855 27.3817C17.1904 27.3863 17.1981 27.3934 17.2097 27.4041L123.276 133.47C123.236 133.433 123.242 133.439 123.248 133.444L17.1855 27.3817C17.1735 27.3707 17.1779 27.3746 17.1822 27.3784L17.1855 27.3817Z" fill="url(#paint38_linear_2229_7988)"/>
<path d="M17.2192 27.4139C17.2079 27.4026 17.1954 27.3908 17.1816 27.3784L123.248 133.444C123.261 133.457 123.274 133.468 123.285 133.48L17.2192 27.4139Z" fill="url(#paint39_linear_2229_7988)"/>
<path d="M15.8655 28.4977L15.915 28.5463L121.981 134.612L121.932 134.564L15.8655 28.4977Z" fill="url(#paint40_linear_2229_7988)"/>
<path d="M16.0688 28.6979L15.8506 28.4839L121.917 134.55L122.135 134.764L16.0688 28.6979Z" fill="url(#paint41_linear_2229_7988)"/>
<path d="M15.9152 28.547L16.0195 28.6493L122.086 134.715L121.981 134.613L15.9152 28.547Z" fill="url(#paint42_linear_2229_7988)"/>
<path d="M16.0835 28.7116L15.8652 28.4975L121.931 134.563L122.149 134.777L16.0835 28.7116Z" fill="url(#paint43_linear_2229_7988)"/>
<path d="M16.0189 28.65L16.0684 28.6985L122.134 134.764L122.085 134.716L16.0189 28.65Z" fill="url(#paint44_linear_2229_7988)"/>
<path d="M16.2573 28.5306C16.2796 28.5541 16.2938 28.5689 16.1953 28.4663L122.261 134.532C122.288 134.559 122.306 134.578 122.318 134.591L122.323 134.596C122.34 134.614 122.352 134.626 122.318 134.591L16.2573 28.5306Z" fill="url(#paint45_linear_2229_7988)"/>
<path d="M16.1572 28.4272C16.2033 28.4745 16.2494 28.5224 16.2961 28.5714L122.362 134.637C122.315 134.588 122.269 134.54 122.223 134.493L16.1572 28.4272Z" fill="url(#paint46_linear_2229_7988)"/>
<path d="M16.1953 28.4663L16.3202 28.5967L122.386 134.663L122.261 134.532L16.1953 28.4663Z" fill="url(#paint47_linear_2229_7988)"/>
<path d="M16.2965 28.5712C16.3023 28.5774 16.3082 28.5835 16.2578 28.5307L122.324 134.597C122.345 134.619 122.357 134.631 122.362 134.636V134.637C122.366 134.641 122.369 134.644 122.362 134.636L16.2965 28.5712Z" fill="url(#paint48_linear_2229_7988)"/>
<path d="M17.1396 27.7781C17.3189 27.607 17.3451 27.542 17.2187 27.4155L123.285 133.481C123.411 133.608 123.385 133.673 123.206 133.844L17.1396 27.7781Z" fill="url(#paint49_linear_2229_7988)"/>
<path d="M16.3203 28.5981C16.6001 28.3283 16.8699 28.0586 17.1396 27.7788L123.206 133.845C122.936 134.124 122.666 134.394 122.386 134.664L16.3203 28.5981Z" fill="url(#paint50_linear_2229_7988)"/>
<path d="M16.1214 28.7498C16.1303 28.7585 16.1503 28.7782 16.191 28.8182L122.257 134.884C122.169 134.798 122.178 134.806 122.186 134.814L16.1214 28.7498C16.1112 28.7397 16.1157 28.7441 16.1202 28.7485L16.1214 28.7498Z" fill="url(#paint51_linear_2229_7988)"/>
<path d="M16.2388 28.865L16.084 28.7124L122.15 134.778L122.305 134.931L16.2388 28.865Z" fill="url(#paint52_linear_2229_7988)"/>
<path d="M16.2002 28.8268C16.2114 28.8378 16.2241 28.8503 16.2386 28.8646L122.305 134.93C122.164 134.792 122.187 134.815 122.257 134.883L16.2002 28.8268C16.1036 28.7315 16.1284 28.7559 16.1909 28.8175L16.2002 28.8268Z" fill="url(#paint53_linear_2229_7988)"/>
<path d="M16.3505 28.9758C16.2729 28.8982 16.1962 28.8224 16.1201 28.7475L122.186 134.813C122.262 134.888 122.339 134.964 122.417 135.042L16.3505 28.9758Z" fill="url(#paint54_linear_2229_7988)"/>
<path d="M17.4197 27.8374C17.05 28.2271 16.7003 28.6067 16.3506 28.9764L122.417 135.042C122.766 134.673 123.116 134.293 123.486 133.903L17.4197 27.8374Z" fill="url(#paint55_linear_2229_7988)"/>
<path d="M19.7482 23.5522C19.3585 25.4107 18.9688 27.2792 18.5791 29.1377L124.645 135.204C125.035 133.345 125.424 131.477 125.814 129.618L19.7482 23.5522Z" fill="url(#paint56_linear_2229_7988)"/>
<path d="M15.4912 29.1877C15.9608 29.6273 16.7502 29.6173 17.2098 29.1577L123.276 135.224C122.816 135.683 122.027 135.693 121.557 135.253L15.4912 29.1877Z" fill="url(#paint57_linear_2229_7988)"/>
<path d="M25.0239 23.1721C23.4252 23.1521 21.8165 23.1621 20.2178 23.1621L126.284 129.228C127.882 129.228 129.491 129.218 131.09 129.238L25.0239 23.1721Z" fill="url(#paint58_linear_2229_7988)"/>
<path d="M17.21 29.1563C17.5497 28.8166 17.6696 28.2171 17.4198 27.8374L123.486 133.903C123.736 134.283 123.616 134.882 123.276 135.222L17.21 29.1563Z" fill="url(#paint59_linear_2229_7988)"/>
<path d="M21.1768 24.791C21.1867 24.7411 21.2967 24.6811 21.3566 24.6811L127.423 130.747C127.363 130.747 127.253 130.807 127.243 130.857L21.1768 24.791Z" fill="url(#paint60_linear_2229_7988)"/>
<path d="M20.8574 26.1794C20.9573 25.7098 21.0573 25.2501 21.1772 24.7905L127.243 130.856C127.123 131.316 127.023 131.776 126.923 132.245L20.8574 26.1794Z" fill="url(#paint61_linear_2229_7988)"/>
<path d="M20.9573 26.1992C20.9274 26.1992 20.9074 26.1892 20.8574 26.1792L126.923 132.245C126.973 132.255 126.993 132.265 127.023 132.265L20.9573 26.1992Z" fill="url(#paint62_linear_2229_7988)"/>
<path d="M21.3564 24.6808C22.3956 24.6708 23.4248 24.6708 24.4639 24.6808L130.53 130.747C129.491 130.737 128.462 130.737 127.422 130.747L21.3564 24.6808Z" fill="url(#paint63_linear_2229_7988)"/>
<path d="M18.5788 29.1382C18.5519 29.2673 18.5569 29.3472 18.6046 29.395L124.671 135.461C124.623 135.413 124.618 135.333 124.645 135.204L18.5788 29.1382Z" fill="url(#paint64_linear_2229_7988)"/>
<path d="M18.6045 29.394C18.6454 29.4349 18.7178 29.4523 18.8284 29.4569L124.894 135.523C124.784 135.518 124.711 135.501 124.671 135.46L18.6045 29.394Z" fill="url(#paint65_linear_2229_7988)"/>
<path d="M24.0645 26.1987C23.0254 26.2087 21.9962 26.1987 20.957 26.1987L127.023 132.265C128.062 132.265 129.091 132.275 130.131 132.265L24.0645 26.1987Z" fill="url(#paint66_linear_2229_7988)"/>
<path d="M20.2373 29.087C20.3372 28.6174 20.4371 28.1377 20.5471 27.6382L126.613 133.704C126.503 134.204 126.403 134.683 126.303 135.153L20.2373 29.087Z" fill="url(#paint67_linear_2229_7988)"/>
<path d="M18.8291 29.4565C19.1488 29.4665 19.4586 29.4565 19.7883 29.4565L125.854 135.522C125.525 135.522 125.215 135.532 124.895 135.522L18.8291 29.4565Z" fill="url(#paint68_linear_2229_7988)"/>
<path d="M26.0126 23.3812C25.7029 23.2713 25.3532 23.1714 25.0234 23.1714L131.089 129.237C131.419 129.237 131.769 129.337 132.079 129.447L26.0126 23.3812Z" fill="url(#paint69_linear_2229_7988)"/>
<path d="M19.7881 29.4571C20.1178 29.4571 20.1678 29.4071 20.2377 29.0874L126.304 135.153C126.234 135.473 126.184 135.523 125.854 135.523L19.7881 29.4571Z" fill="url(#paint70_linear_2229_7988)"/>
<path d="M20.5469 27.6382C21.3063 27.6382 22.0357 27.6481 22.7651 27.6382L128.831 133.704C128.102 133.714 127.372 133.704 126.613 133.704L20.5469 27.6382Z" fill="url(#paint71_linear_2229_7988)"/>
<path d="M24.4639 24.6811C24.6064 24.6811 24.7073 24.7129 24.77 24.7756L130.836 130.841C130.773 130.779 130.672 130.747 130.53 130.747L24.4639 24.6811Z" fill="url(#paint72_linear_2229_7988)"/>
<path d="M26.313 23.5737C26.231 23.4917 26.1299 23.4262 26.0127 23.3823L132.079 129.448C132.196 129.492 132.297 129.557 132.379 129.639L26.313 23.5737Z" fill="url(#paint73_linear_2229_7988)"/>
<path d="M24.7705 24.7749C24.8484 24.8528 24.8673 24.9784 24.8341 25.15L130.9 131.216C130.933 131.044 130.914 130.919 130.837 130.841L24.7705 24.7749Z" fill="url(#paint74_linear_2229_7988)"/>
<path d="M24.8335 25.1499C24.7935 25.3497 24.7435 25.5396 24.6836 25.7294L130.75 131.795C130.81 131.605 130.86 131.416 130.899 131.216L24.8335 25.1499Z" fill="url(#paint75_linear_2229_7988)"/>
<path d="M26.5527 24.1217C26.5401 23.9067 26.4551 23.7154 26.3135 23.5737L132.379 129.64C132.521 129.781 132.606 129.972 132.619 130.188L26.5527 24.1217Z" fill="url(#paint76_linear_2229_7988)"/>
<path d="M24.684 25.73C24.584 26.0297 24.3842 26.1996 24.0645 26.1996L130.13 132.265C130.45 132.265 130.65 132.096 130.75 131.796L24.684 25.73Z" fill="url(#paint77_linear_2229_7988)"/>
<path d="M22.7656 27.6391C23.3352 27.6291 23.9047 27.6391 24.4642 27.5991L130.53 133.665C129.971 133.705 129.401 133.695 128.832 133.705L22.7656 27.6391Z" fill="url(#paint78_linear_2229_7988)"/>
<path d="M25.9326 26.7784C26.4022 25.9591 26.6021 25.0598 26.5521 24.1206L132.618 130.186C132.668 131.126 132.468 132.025 131.999 132.844L25.9326 26.7784Z" fill="url(#paint79_linear_2229_7988)"/>
<path d="M29.0204 23.1421C28.5308 23.1421 28.1711 23.3819 27.9912 23.8515L134.057 129.917C134.237 129.448 134.597 129.208 135.086 129.208L29.0204 23.1421Z" fill="url(#paint80_linear_2229_7988)"/>
<path d="M27.9912 23.851C27.9212 24.0309 27.8613 24.2108 27.8213 24.4006L133.887 130.466C133.927 130.277 133.987 130.097 134.057 129.917L27.9912 23.851Z" fill="url(#paint81_linear_2229_7988)"/>
<path d="M24.4639 27.5981C25.0734 27.5482 25.6129 27.3183 25.9327 26.7788L131.999 132.845C131.679 133.384 131.139 133.614 130.53 133.664L24.4639 27.5981Z" fill="url(#paint82_linear_2229_7988)"/>
<path d="M27.8214 24.4018C27.6116 25.381 27.4018 26.3502 27.2119 27.3295L133.278 133.395C133.451 132.502 133.641 131.618 133.832 130.726L133.887 130.468L27.8214 24.4018Z" fill="url(#paint83_linear_2229_7988)"/>
<path d="M33.5468 23.1417C32.0381 23.1317 30.5293 23.1317 29.0205 23.1417L135.087 129.208C136.595 129.198 138.104 129.198 139.613 129.208L33.5468 23.1417Z" fill="url(#paint84_linear_2229_7988)"/>
<path d="M29.4502 24.9507C29.4902 24.7608 29.6001 24.6909 29.7899 24.6909L135.856 130.757C135.666 130.757 135.556 130.827 135.516 131.016L29.4502 24.9507Z" fill="url(#paint85_linear_2229_7988)"/>
<path d="M27.2118 27.3296C27.1119 27.8092 27.0419 28.2888 27.002 28.7684L133.068 134.834C133.108 134.355 133.178 133.875 133.278 133.395L27.2118 27.3296Z" fill="url(#paint86_linear_2229_7988)"/>
<path d="M28.9307 27.5086C29.1005 26.6493 29.2804 25.8 29.4502 24.9507L135.516 131.016C135.346 131.866 135.167 132.715 134.997 133.574L28.9307 27.5086Z" fill="url(#paint87_linear_2229_7988)"/>
<path d="M29.79 24.6909H32.2081L138.274 130.757H135.856L29.79 24.6909Z" fill="url(#paint88_linear_2229_7988)"/>
<path d="M27.0026 28.7671C26.9915 28.9327 27.0384 29.0587 27.1315 29.1517L133.197 135.217C133.104 135.124 133.058 134.998 133.069 134.833L27.0026 28.7671Z" fill="url(#paint89_linear_2229_7988)"/>
<path d="M27.1318 29.1518C27.2072 29.2272 27.3129 29.2809 27.4425 29.3167L133.509 135.383C133.379 135.347 133.273 135.293 133.198 135.218L27.1318 29.1518Z" fill="url(#paint90_linear_2229_7988)"/>
<path d="M28.9528 27.7774C28.9062 27.7307 28.9051 27.6499 28.9311 27.5092L134.997 133.575C134.971 133.716 134.972 133.797 135.019 133.843L28.9528 27.7774Z" fill="url(#paint91_linear_2229_7988)"/>
<path d="M29.2102 27.8384C29.0763 27.8336 28.995 27.8197 28.9521 27.7768L135.018 133.843C135.061 133.885 135.142 133.899 135.276 133.904L29.2102 27.8384Z" fill="url(#paint92_linear_2229_7988)"/>
<path d="M33.9466 23.212C33.8167 23.172 33.6768 23.1421 33.5469 23.1421L139.613 129.208C139.743 129.208 139.883 129.238 140.013 129.278L33.9466 23.212Z" fill="url(#paint93_linear_2229_7988)"/>
<path d="M27.4424 29.3178C27.5723 29.3578 27.7222 29.3778 27.862 29.3778L133.928 135.444C133.788 135.444 133.638 135.424 133.508 135.384L27.4424 29.3178Z" fill="url(#paint94_linear_2229_7988)"/>
<path d="M32.208 24.6909C32.325 24.6909 32.4003 24.7062 32.4422 24.7482L138.508 130.814C138.466 130.772 138.391 130.757 138.274 130.757L32.208 24.6909Z" fill="url(#paint95_linear_2229_7988)"/>
<path d="M32.4424 24.7495C32.49 24.7971 32.4945 24.8791 32.468 25.012L138.534 131.078C138.561 130.945 138.556 130.863 138.508 130.815L32.4424 24.7495Z" fill="url(#paint96_linear_2229_7988)"/>
<path d="M34.2622 23.3775C34.1884 23.3038 34.0828 23.2508 33.9463 23.2124L140.012 129.278C140.149 129.317 140.254 129.37 140.328 129.443L34.2622 23.3775Z" fill="url(#paint97_linear_2229_7988)"/>
<path d="M30.36 27.8296C29.9703 27.8296 29.5906 27.8296 29.2109 27.8396L135.277 133.905C135.657 133.895 136.036 133.895 136.426 133.895L30.36 27.8296Z" fill="url(#paint98_linear_2229_7988)"/>
<path d="M34.3864 23.8027C34.4036 23.6139 34.3616 23.4774 34.2627 23.3784L140.329 129.444C140.428 129.543 140.47 129.68 140.452 129.869L34.3864 23.8027Z" fill="url(#paint99_linear_2229_7988)"/>
<path d="M32.4683 25.0112C32.2985 25.8205 32.1386 26.6399 31.9688 27.4492L138.035 133.515C138.205 132.706 138.365 131.886 138.534 131.077L32.4683 25.0112Z" fill="url(#paint100_linear_2229_7988)"/>
<path d="M31.5084 27.8178L30.3594 27.8278L136.425 133.894L137.574 133.884L31.5084 27.8178Z" fill="url(#paint101_linear_2229_7988)"/>
<path d="M34.1768 25.2211C34.2667 24.7514 34.3466 24.2718 34.3866 23.8022L140.453 129.868C140.413 130.338 140.333 130.817 140.243 131.287L34.1768 25.2211Z" fill="url(#paint102_linear_2229_7988)"/>
<path d="M31.9684 27.4487C31.8985 27.7485 31.8185 27.8184 31.5088 27.8184L137.575 133.884C137.885 133.884 137.964 133.814 138.034 133.515L31.9684 27.4487Z" fill="url(#paint103_linear_2229_7988)"/>
<path d="M27.8613 29.3784H32.1479L138.214 135.444H133.927L27.8613 29.3784Z" fill="url(#paint104_linear_2229_7988)"/>
<path d="M36.6344 23.1635C36.0948 23.1635 35.7651 23.4533 35.6152 23.9729L141.681 130.039C141.831 129.519 142.161 129.229 142.7 129.229L36.6344 23.1635Z" fill="url(#paint105_linear_2229_7988)"/>
<path d="M35.6152 23.9721C35.5653 24.162 35.5253 24.3418 35.4854 24.5317L141.551 130.598C141.591 130.408 141.631 130.228 141.681 130.038L35.6152 23.9721Z" fill="url(#paint106_linear_2229_7988)"/>
<path d="M33.5674 28.1178C33.7672 27.1586 33.987 26.1894 34.1769 25.2202L140.243 131.286C140.053 132.255 139.833 133.224 139.633 134.184L33.5674 28.1178Z" fill="url(#paint107_linear_2229_7988)"/>
<path d="M35.4853 24.5327C35.3854 25.0223 35.2755 25.5219 35.1855 26.0115L141.252 132.077C141.341 131.588 141.451 131.088 141.551 130.599L35.4853 24.5327Z" fill="url(#paint108_linear_2229_7988)"/>
<path d="M35.1851 26.0112C35.1361 26.2782 35.1821 26.4799 35.3152 26.6129L141.381 132.679C141.248 132.546 141.202 132.344 141.251 132.077L35.1851 26.0112Z" fill="url(#paint109_linear_2229_7988)"/>
<path d="M32.1484 29.3783C32.9478 29.3783 33.2875 29.1185 33.5073 28.3491L139.573 134.415C139.354 135.184 139.014 135.444 138.214 135.444L32.1484 29.3783Z" fill="url(#paint110_linear_2229_7988)"/>
<path d="M33.5068 28.3484C33.5268 28.2785 33.5468 28.1986 33.5668 28.1186L139.633 134.184C139.613 134.264 139.593 134.344 139.573 134.414L33.5068 28.3484Z" fill="url(#paint111_linear_2229_7988)"/>
<path d="M37.1641 24.8311C37.204 24.6812 37.3039 24.5913 37.4738 24.5913L143.54 130.657C143.37 130.657 143.27 130.747 143.23 130.897L37.1641 24.8311Z" fill="url(#paint112_linear_2229_7988)"/>
<path d="M37.0439 25.3711C37.0739 25.1912 37.1139 25.0114 37.1638 24.8315L143.23 130.897C143.18 131.077 143.14 131.257 143.11 131.437L37.0439 25.3711Z" fill="url(#paint113_linear_2229_7988)"/>
<path d="M37.4736 24.5915C37.5736 24.5915 37.6635 24.5815 37.7634 24.5815L143.829 130.647C143.729 130.647 143.64 130.657 143.54 130.657L37.4736 24.5915Z" fill="url(#paint114_linear_2229_7988)"/>
<path d="M35.3154 26.6128C35.4263 26.7236 35.5977 26.7868 35.8248 26.8005L141.891 132.866C141.664 132.853 141.492 132.789 141.381 132.679L35.3154 26.6128Z" fill="url(#paint115_linear_2229_7988)"/>
<path d="M41.8296 23.1524C40.101 23.1524 38.3624 23.1424 36.6338 23.1624L142.7 129.228C144.428 129.208 146.167 129.218 147.896 129.218L41.8296 23.1524Z" fill="url(#paint116_linear_2229_7988)"/>
<path d="M37.0663 25.6327C37.0187 25.585 37.017 25.5031 37.0436 25.3706L143.11 131.436C143.083 131.569 143.085 131.651 143.132 131.699L37.0663 25.6327Z" fill="url(#paint117_linear_2229_7988)"/>
<path d="M35.8252 26.8003H35.9451L142.011 132.866H141.891L35.8252 26.8003Z" fill="url(#paint118_linear_2229_7988)"/>
<path d="M37.3134 25.6918C37.1868 25.6918 37.1086 25.6764 37.0664 25.6342L143.132 131.7C143.175 131.742 143.253 131.758 143.379 131.758L37.3134 25.6918Z" fill="url(#paint119_linear_2229_7988)"/>
<path d="M35.0558 27.9292C34.8459 27.9292 34.736 28.0091 34.7061 28.2189L140.772 134.285C140.802 134.075 140.912 133.995 141.122 133.995L35.0558 27.9292Z" fill="url(#paint120_linear_2229_7988)"/>
<path d="M34.706 28.2182C34.656 28.498 34.5961 28.7778 34.5361 29.0576L140.602 135.123C140.662 134.844 140.722 134.564 140.772 134.284L34.706 28.2182Z" fill="url(#paint121_linear_2229_7988)"/>
<path d="M34.5358 29.0581C34.4938 29.2419 34.4794 29.3347 34.526 29.3812L140.592 135.447C140.545 135.4 140.56 135.308 140.602 135.124L34.5358 29.0581Z" fill="url(#paint122_linear_2229_7988)"/>
<path d="M34.5264 29.3823C34.5684 29.4243 34.6601 29.4288 34.826 29.4288L140.892 135.495C140.726 135.495 140.634 135.49 140.592 135.448L34.5264 29.3823Z" fill="url(#paint123_linear_2229_7988)"/>
<path d="M37.7637 24.5817C38.9926 24.5817 40.2216 24.5817 41.4506 24.5717L147.517 130.638C146.288 130.648 145.059 130.648 143.83 130.648L37.7637 24.5817Z" fill="url(#paint124_linear_2229_7988)"/>
<path d="M35.9443 26.8003C36.9735 26.8003 38.0027 26.8103 39.0318 26.8103L145.098 132.876C144.069 132.876 143.04 132.866 142.01 132.866L35.9443 26.8003Z" fill="url(#paint125_linear_2229_7988)"/>
<path d="M40.431 25.6909H37.3135L143.379 131.757H146.497L40.431 25.6909Z" fill="url(#paint126_linear_2229_7988)"/>
<path d="M38.7726 27.9392C37.5336 27.9392 36.2946 27.9392 35.0557 27.9292L141.122 133.995C142.361 134.005 143.6 134.005 144.839 134.005L38.7726 27.9392Z" fill="url(#paint127_linear_2229_7988)"/>
<path d="M41.9999 23.1738C41.93 23.1538 41.88 23.1438 41.8301 23.1538L147.896 129.22C147.946 129.21 147.996 129.22 148.066 129.24L41.9999 23.1738Z" fill="url(#paint128_linear_2229_7988)"/>
<path d="M41.7305 24.4623C41.8404 24.0426 41.9103 23.613 42.0002 23.1733L148.066 129.239C147.976 129.679 147.906 130.108 147.796 130.528L41.7305 24.4623Z" fill="url(#paint129_linear_2229_7988)"/>
<path d="M39.0322 26.81C39.1122 26.81 39.2021 26.81 39.292 26.82L145.358 132.886C145.268 132.876 145.178 132.876 145.098 132.876L39.0322 26.81Z" fill="url(#paint130_linear_2229_7988)"/>
<path d="M41.4502 24.5723C41.5501 24.5723 41.71 24.5223 41.73 24.4624L147.796 130.528C147.776 130.588 147.616 130.638 147.516 130.638L41.4502 24.5723Z" fill="url(#paint131_linear_2229_7988)"/>
<path d="M39.292 26.8198C39.3486 26.8292 39.394 26.8453 39.4231 26.8744L145.489 132.94C145.46 132.911 145.415 132.895 145.358 132.886L39.292 26.8198Z" fill="url(#paint132_linear_2229_7988)"/>
<path d="M40.7913 25.7109C40.6714 25.6909 40.5515 25.6909 40.4316 25.6909L146.498 131.757C146.618 131.757 146.737 131.757 146.857 131.777L40.7913 25.7109Z" fill="url(#paint133_linear_2229_7988)"/>
<path d="M34.8262 29.4277C36.215 29.4277 37.6139 29.4177 39.0128 29.4077L145.079 135.474C143.68 135.483 142.281 135.493 140.892 135.493L34.8262 29.4277Z" fill="url(#paint134_linear_2229_7988)"/>
<path d="M39.4229 26.8745C39.4554 26.907 39.4674 26.9558 39.4516 27.0297L145.518 133.095C145.533 133.022 145.521 132.973 145.489 132.94L39.4229 26.8745Z" fill="url(#paint135_linear_2229_7988)"/>
<path d="M39.4516 27.0307C39.4017 27.2605 39.3717 27.4904 39.3018 27.7102L145.368 133.776C145.438 133.556 145.468 133.326 145.518 133.097L39.4516 27.0307Z" fill="url(#paint136_linear_2229_7988)"/>
<path d="M41.2528 25.9059C41.1514 25.8046 40.9972 25.7411 40.791 25.7104L146.857 131.776C147.063 131.807 147.217 131.87 147.319 131.972L41.2528 25.9059Z" fill="url(#paint137_linear_2229_7988)"/>
<path d="M39.0522 27.9194C38.9723 27.9594 38.8724 27.9394 38.7725 27.9394L144.838 134.005C144.938 134.005 145.038 134.025 145.118 133.985L39.0522 27.9194Z" fill="url(#paint138_linear_2229_7988)"/>
<path d="M39.3025 27.7085C39.2726 27.7984 39.1527 27.8783 39.0527 27.9183L145.119 133.984C145.219 133.944 145.339 133.864 145.369 133.774L39.3025 27.7085Z" fill="url(#paint139_linear_2229_7988)"/>
<path d="M41.3807 26.4896C41.4255 26.2263 41.3823 26.0351 41.2529 25.9057L147.319 131.972C147.448 132.101 147.492 132.292 147.447 132.555L41.3807 26.4896Z" fill="url(#paint140_linear_2229_7988)"/>
<path d="M41.0605 28.0385C41.1804 27.5189 41.3004 27.0093 41.3803 26.4897L147.446 132.556C147.371 133.048 147.259 133.532 147.145 134.023L147.127 134.104L41.0605 28.0385Z" fill="url(#paint141_linear_2229_7988)"/>
<path d="M39.0127 29.4079C39.3125 29.4079 39.6122 29.4179 39.902 29.3979L145.968 135.464C145.678 135.484 145.378 135.474 145.079 135.474L39.0127 29.4079Z" fill="url(#paint142_linear_2229_7988)"/>
<path d="M40.8506 28.748C40.9405 28.5182 41.0105 28.2783 41.0604 28.0385L147.126 134.104C147.076 134.344 147.007 134.584 146.917 134.814L40.8506 28.748Z" fill="url(#paint143_linear_2229_7988)"/>
<path d="M39.9014 29.397C40.341 29.377 40.6807 29.1672 40.8506 28.7475L146.917 134.813C146.747 135.233 146.407 135.443 145.967 135.463L39.9014 29.397Z" fill="url(#paint144_linear_2229_7988)"/>
</mask>
<g mask="url(#mask1_2229_7988)">
<path d="M2 10.6362H48V48.6362H2V10.6362Z" fill="url(#paint145_linear_2229_7988)"/>
</g>
<mask id="mask2_2229_7988" style="mask-type:luminance" maskUnits="userSpaceOnUse" x="5" y="17" width="37" height="15">
<path d="M42 17.6362H5V31.2651H42V17.6362Z" fill="white"/>
</mask>
<g mask="url(#mask2_2229_7988)">
<path d="M5.89941 27.8679C5.99933 27.4582 6.08926 27.0486 6.19917 26.6489C6.5389 25.3999 7.00851 24.2009 7.73792 23.1118C8.80706 21.4931 10.3258 20.5838 12.2343 20.304C13.4533 20.1242 14.6723 19.9044 15.8813 19.6446C17.2902 19.3448 18.5392 18.7253 19.6183 17.7561C19.6583 17.7261 19.6982 17.6962 19.7782 17.6362C19.6283 18.3756 19.3485 19.0151 18.9988 19.6246C17.7998 21.7229 15.9912 22.842 13.5732 22.9619C12.624 23.0118 11.6747 23.0318 10.7555 23.3116C8.48732 24.011 6.97854 25.5098 6.06928 27.6681C6.0393 27.748 6.00932 27.8179 5.97935 27.8979C5.94937 27.8879 5.9194 27.8779 5.89941 27.8679Z" fill="white"/>
<path d="M30.0901 29.3767H27.8619C27.722 29.3767 27.5721 29.3567 27.4422 29.3167C27.1524 29.2368 26.9826 29.0669 27.0026 28.7672C27.0425 28.2876 27.1125 27.808 27.2124 27.3283C27.4022 26.3491 27.6121 25.3799 27.8219 24.4007C27.8619 24.2109 27.9218 24.031 27.9918 23.8512C28.1716 23.3815 28.5313 23.1417 29.0209 23.1417C30.5297 23.1317 32.0385 23.1317 33.5473 23.1417C33.6772 23.1417 33.817 23.1717 33.9469 23.2117C34.2667 23.3016 34.4166 23.4715 34.3866 23.8012C34.3466 24.2708 34.2667 24.7504 34.1767 25.2201C33.9869 26.1893 33.7671 27.1585 33.5672 28.1177C33.5473 28.1976 33.5273 28.2776 33.5073 28.3475C33.2875 29.1169 32.9477 29.3767 32.1484 29.3767H30.0901ZM30.3598 27.8279L31.5089 27.8179C31.8187 27.8179 31.8986 27.748 31.9685 27.4482C32.1384 26.6389 32.2983 25.8196 32.4681 25.0102C32.5181 24.7604 32.4581 24.6905 32.2083 24.6905H29.7903C29.6005 24.6905 29.4905 24.7604 29.4506 24.9503C29.2807 25.7996 29.1009 26.6489 28.931 27.5082C28.881 27.778 28.931 27.8279 29.2108 27.8379C29.5905 27.8279 29.9702 27.8279 30.3598 27.8279Z" fill="white"/>
<path d="M41.9998 23.1738C41.9099 23.6134 41.8399 24.0431 41.73 24.4627C41.71 24.5227 41.5501 24.5726 41.4502 24.5726C40.2212 24.5826 38.9922 24.5826 37.7632 24.5826C37.6633 24.5826 37.5734 24.5926 37.4734 24.5926C37.3036 24.5926 37.2037 24.6826 37.1637 24.8324C37.1137 25.0123 37.0738 25.1921 37.0438 25.372C36.9938 25.6218 37.0438 25.6917 37.3136 25.6917H40.4311C40.551 25.6917 40.6709 25.6917 40.7908 25.7117C41.2604 25.7817 41.4602 26.0215 41.3803 26.4911C41.3003 27.0107 41.1804 27.5203 41.0605 28.0398C41.0106 28.2796 40.9406 28.5194 40.8507 28.7493C40.6808 29.1689 40.3411 29.3787 39.9015 29.3987C39.6117 29.4187 39.312 29.4087 39.0122 29.4087C37.6133 29.4187 36.2145 29.4287 34.8256 29.4287C34.4759 29.4287 34.4559 29.4087 34.5358 29.059C34.5958 28.7792 34.6557 28.4995 34.7057 28.2197C34.7357 28.0099 34.8456 27.9299 35.0554 27.9299C36.2944 27.9399 37.5334 27.9399 38.7724 27.9399C38.8723 27.9399 38.9722 27.9599 39.0522 27.9199C39.1521 27.88 39.272 27.8 39.302 27.7101C39.3719 27.4903 39.4019 27.2605 39.4518 27.0306C39.4818 26.8908 39.4119 26.8408 39.292 26.8208C39.202 26.8108 39.1121 26.8108 39.0322 26.8108C38.003 26.8108 36.9739 26.8008 35.9447 26.8008H35.8248C35.3252 26.7709 35.0954 26.5011 35.1853 26.0115C35.2752 25.5219 35.3851 25.0223 35.4851 24.5327C35.525 24.3428 35.565 24.163 35.615 23.9731C35.7648 23.4535 36.0946 23.1638 36.6341 23.1638C38.3627 23.1438 40.1013 23.1538 41.8299 23.1538C41.8799 23.1438 41.9298 23.1538 41.9998 23.1738Z" fill="white"/>
<path d="M20.5472 27.6385C20.4373 28.1381 20.3374 28.6177 20.2374 29.0873C20.1675 29.4071 20.1175 29.457 19.7878 29.457C19.4581 29.457 19.1483 29.467 18.8286 29.457C18.5888 29.447 18.5288 29.3771 18.5788 29.1373C18.9685 27.2788 19.3582 25.4103 19.7478 23.5518C19.8178 23.2221 19.8877 23.1621 20.2175 23.1621C21.8162 23.1621 23.4249 23.1521 25.0236 23.1721C25.3533 23.1721 25.703 23.272 26.0128 23.382C26.3325 23.5019 26.5323 23.7816 26.5523 24.1214C26.6023 25.0606 26.4024 25.9599 25.9328 26.7792C25.6131 27.3188 25.0735 27.5486 24.464 27.5985C23.9045 27.6385 23.3349 27.6285 22.7654 27.6385C22.036 27.6485 21.3066 27.6385 20.5472 27.6385ZM20.8569 26.1797C20.9069 26.1897 20.9269 26.1997 20.9569 26.1997C21.996 26.1997 23.0252 26.2097 24.0643 26.1997C24.3841 26.1997 24.5839 26.0298 24.6838 25.7301C24.7438 25.5402 24.7938 25.3504 24.8337 25.1505C24.8937 24.8408 24.7838 24.6809 24.464 24.6809C23.4249 24.6709 22.3957 24.6709 21.3565 24.6809C21.2966 24.6809 21.1867 24.7409 21.1767 24.7908C21.0568 25.2504 20.9569 25.7101 20.8569 26.1797Z" fill="white"/>
<path d="M14.6522 24.9214C14.4623 25.5508 14.1826 26.1304 13.7929 26.64C13.0934 27.5492 12.1442 28.0089 11.0251 28.1288C10.3956 28.1887 9.75614 28.1587 9.11666 28.1587C8.18742 28.1487 7.37807 28.4485 6.74858 29.118C6.229 29.6775 5.77937 30.317 5.29976 30.9265C5.21982 31.0264 5.14988 31.1363 5.04996 31.2662C5.01998 31.2063 5 31.1863 5 31.1763C5.38968 29.8574 5.94923 28.6383 6.90845 27.6392C7.73778 26.7699 8.76695 26.2902 9.94599 26.1703C10.7054 26.0904 11.4748 26.0804 12.2341 26.0404C12.9036 26.0005 13.4831 25.7407 14.0227 25.361C14.2325 25.2111 14.4423 25.0612 14.6522 24.9214Z" fill="white"/>
<path d="M16.3211 28.5983C16.1413 28.4085 15.9714 28.2386 15.7816 28.0487C15.7116 28.1187 15.6517 28.1786 15.5917 28.2286C15.8415 28.4784 16.0913 28.7182 16.3511 28.978C16.7008 28.6083 17.0505 28.2286 17.4202 27.8389C17.67 28.2186 17.5501 28.8181 17.2104 29.1578C16.7508 29.6175 15.9614 29.6275 15.4918 29.1878C15.0022 28.7282 14.9622 27.9588 15.4019 27.4592C15.8415 26.9596 16.5909 26.8997 17.1105 27.3193C17.3503 27.5192 17.3603 27.5691 17.1405 27.779C16.8707 28.0587 16.6009 28.3285 16.3211 28.5983Z" fill="white"/>
</g>
</g>
<defs>
<linearGradient id="paint0_linear_2229_7988" x1="63.0185" y1="20.3042" x2="63.0185" y2="129.178" gradientUnits="userSpaceOnUse">
<stop stopColor="#10573A"/>
<stop offset="1" stopColor="#10573A"/>
</linearGradient>
<linearGradient id="paint1_linear_2229_7988" x1="60.0016" y1="23.1128" x2="60.0016" y2="132.716" gradientUnits="userSpaceOnUse">
<stop stopColor="#10573A"/>
<stop offset="1" stopColor="#10573A"/>
</linearGradient>
<linearGradient id="paint2_linear_2229_7988" x1="59.0823" y1="26.6499" x2="59.0823" y2="133.935" gradientUnits="userSpaceOnUse">
<stop stopColor="#10573A"/>
<stop offset="1" stopColor="#10573A"/>
</linearGradient>
<linearGradient id="paint3_linear_2229_7988" x1="59.0575" y1="27.6694" x2="59.0575" y2="133.965" gradientUnits="userSpaceOnUse">
<stop stopColor="#10573A"/>
<stop offset="1" stopColor="#10573A"/>
</linearGradient>
<linearGradient id="paint4_linear_2229_7988" x1="58.9724" y1="27.8686" x2="58.9724" y2="133.964" gradientUnits="userSpaceOnUse">
<stop stopColor="#10573A"/>
<stop offset="1" stopColor="#10573A"/>
</linearGradient>
<linearGradient id="paint5_linear_2229_7988" x1="61.4454" y1="23.312" x2="61.4454" y2="133.734" gradientUnits="userSpaceOnUse">
<stop stopColor="#10573A"/>
<stop offset="1" stopColor="#10573A"/>
</linearGradient>
<linearGradient id="paint6_linear_2229_7988" x1="67.0909" y1="19.646" x2="67.0909" y2="126.371" gradientUnits="userSpaceOnUse">
<stop stopColor="#10573A"/>
<stop offset="1" stopColor="#10573A"/>
</linearGradient>
<linearGradient id="paint7_linear_2229_7988" x1="65.1968" y1="22.9624" x2="65.1968" y2="129.378" gradientUnits="userSpaceOnUse">
<stop stopColor="#10573A"/>
<stop offset="1" stopColor="#10573A"/>
</linearGradient>
<linearGradient id="paint8_linear_2229_7988" x1="61.46" y1="26.1694" x2="61.46" y2="133.704" gradientUnits="userSpaceOnUse">
<stop stopColor="#10573A"/>
<stop offset="1" stopColor="#10573A"/>
</linearGradient>
<linearGradient id="paint9_linear_2229_7988" x1="58.9872" y1="27.6382" x2="58.9872" y2="137.241" gradientUnits="userSpaceOnUse">
<stop stopColor="#10573A"/>
<stop offset="1" stopColor="#10573A"/>
</linearGradient>
<linearGradient id="paint10_linear_2229_7988" x1="59.0572" y1="29.1167" x2="59.0572" y2="136.991" gradientUnits="userSpaceOnUse">
<stop stopColor="#10573A"/>
<stop offset="1" stopColor="#10573A"/>
</linearGradient>
<linearGradient id="paint11_linear_2229_7988" x1="58.058" y1="31.1753" x2="58.058" y2="137.331" gradientUnits="userSpaceOnUse">
<stop stopColor="#10573A"/>
<stop offset="1" stopColor="#10573A"/>
</linearGradient>
<linearGradient id="paint12_linear_2229_7988" x1="58.2077" y1="30.9253" x2="58.2077" y2="137.331" gradientUnits="userSpaceOnUse">
<stop stopColor="#10573A"/>
<stop offset="1" stopColor="#10573A"/>
</linearGradient>
<linearGradient id="paint13_linear_2229_7988" x1="70.7824" y1="17.7573" x2="70.7824" y2="125.712" gradientUnits="userSpaceOnUse">
<stop stopColor="#10573A"/>
<stop offset="1" stopColor="#10573A"/>
</linearGradient>
<linearGradient id="paint14_linear_2229_7988" x1="60.9661" y1="28.1577" x2="60.9661" y2="135.183" gradientUnits="userSpaceOnUse">
<stop stopColor="#10573A"/>
<stop offset="1" stopColor="#10573A"/>
</linearGradient>
<linearGradient id="paint15_linear_2229_7988" x1="64.1234" y1="26.0405" x2="64.1234" y2="132.236" gradientUnits="userSpaceOnUse">
<stop stopColor="#10573A"/>
<stop offset="1" stopColor="#10573A"/>
</linearGradient>
<linearGradient id="paint16_linear_2229_7988" x1="72.7311" y1="17.6362" x2="72.7311" y2="123.822" gradientUnits="userSpaceOnUse">
<stop stopColor="#10573A"/>
<stop offset="1" stopColor="#10573A"/>
</linearGradient>
<linearGradient id="paint17_linear_2229_7988" x1="69.319" y1="19.6245" x2="69.319" y2="129.028" gradientUnits="userSpaceOnUse">
<stop stopColor="#10573A"/>
<stop offset="1" stopColor="#10573A"/>
</linearGradient>
<linearGradient id="paint18_linear_2229_7988" x1="72.4217" y1="17.6362" x2="72.4217" y2="125.69" gradientUnits="userSpaceOnUse">
<stop stopColor="#10573A"/>
<stop offset="1" stopColor="#10573A"/>
</linearGradient>
<linearGradient id="paint19_linear_2229_7988" x1="63.1034" y1="28.1284" x2="63.1034" y2="134.232" gradientUnits="userSpaceOnUse">
<stop stopColor="#10573A"/>
<stop offset="1" stopColor="#10573A"/>
</linearGradient>
<linearGradient id="paint20_linear_2229_7988" x1="66.1617" y1="25.3608" x2="66.1617" y2="132.106" gradientUnits="userSpaceOnUse">
<stop stopColor="#10573A"/>
<stop offset="1" stopColor="#10573A"/>
</linearGradient>
<linearGradient id="paint21_linear_2229_7988" x1="67.3702" y1="24.9214" x2="67.3702" y2="131.427" gradientUnits="userSpaceOnUse">
<stop stopColor="#10573A"/>
<stop offset="1" stopColor="#10573A"/>
</linearGradient>
<linearGradient id="paint22_linear_2229_7988" x1="65.4423" y1="26.6401" x2="65.4423" y2="134.195" gradientUnits="userSpaceOnUse">
<stop stopColor="#10573A"/>
<stop offset="1" stopColor="#10573A"/>
</linearGradient>
<linearGradient id="paint23_linear_2229_7988" x1="67.2556" y1="24.9214" x2="67.2556" y2="132.706" gradientUnits="userSpaceOnUse">
<stop stopColor="#10573A"/>
<stop offset="1" stopColor="#10573A"/>
</linearGradient>
<linearGradient id="paint24_linear_2229_7988" x1="73.0159" y1="23.1616" x2="73.0159" y2="129.617" gradientUnits="userSpaceOnUse">
<stop stopColor="#10573A"/>
<stop offset="1" stopColor="#10573A"/>
</linearGradient>
<linearGradient id="paint25_linear_2229_7988" x1="69.2887" y1="27.0405" x2="69.2887" y2="133.525" gradientUnits="userSpaceOnUse">
<stop stopColor="#10573A"/>
<stop offset="1" stopColor="#10573A"/>
</linearGradient>
<linearGradient id="paint26_linear_2229_7988" x1="68.3273" y1="27.4585" x2="68.3273" y2="135.253" gradientUnits="userSpaceOnUse">
<stop stopColor="#10573A"/>
<stop offset="1" stopColor="#10573A"/>
</linearGradient>
<linearGradient id="paint27_linear_2229_7988" x1="68.7188" y1="28.0483" x2="68.7188" y2="134.294" gradientUnits="userSpaceOnUse">
<stop stopColor="#10573A"/>
<stop offset="1" stopColor="#10573A"/>
</linearGradient>
<linearGradient id="paint28_linear_2229_7988" x1="68.9863" y1="28.1674" x2="68.9863" y2="134.34" gradientUnits="userSpaceOnUse">
<stop stopColor="#10573A"/>
<stop offset="1" stopColor="#10573A"/>
</linearGradient>
<linearGradient id="paint29_linear_2229_7988" x1="68.7354" y1="28.228" x2="68.7354" y2="134.515" gradientUnits="userSpaceOnUse">
<stop stopColor="#10573A"/>
<stop offset="1" stopColor="#10573A"/>
</linearGradient>
<linearGradient id="paint30_linear_2229_7988" x1="68.7436" y1="28.312" x2="68.7436" y2="134.447" gradientUnits="userSpaceOnUse">
<stop stopColor="#10573A"/>
<stop offset="1" stopColor="#10573A"/>
</linearGradient>
<linearGradient id="paint31_linear_2229_7988" x1="68.8072" y1="28.3354" x2="68.8072" y2="134.551" gradientUnits="userSpaceOnUse">
<stop stopColor="#10573A"/>
<stop offset="1" stopColor="#10573A"/>
</linearGradient>
<linearGradient id="paint32_linear_2229_7988" x1="68.7933" y1="28.3432" x2="68.7933" y2="134.514" gradientUnits="userSpaceOnUse">
<stop stopColor="#10573A"/>
<stop offset="1" stopColor="#10573A"/>
</linearGradient>
<linearGradient id="paint33_linear_2229_7988" x1="69.0997" y1="28.2729" x2="69.0997" y2="134.462" gradientUnits="userSpaceOnUse">
<stop stopColor="#10573A"/>
<stop offset="1" stopColor="#10573A"/>
</linearGradient>
<linearGradient id="paint34_linear_2229_7988" x1="69.127" y1="28.3296" x2="69.127" y2="134.46" gradientUnits="userSpaceOnUse">
<stop stopColor="#10573A"/>
<stop offset="1" stopColor="#10573A"/>
</linearGradient>
<linearGradient id="paint35_linear_2229_7988" x1="69.1429" y1="28.3296" x2="69.1429" y2="134.492" gradientUnits="userSpaceOnUse">
<stop stopColor="#10573A"/>
<stop offset="1" stopColor="#10573A"/>
</linearGradient>
<linearGradient id="paint36_linear_2229_7988" x1="69.1517" y1="28.3725" x2="69.1517" y2="134.469" gradientUnits="userSpaceOnUse">
<stop stopColor="#10573A"/>
<stop offset="1" stopColor="#10573A"/>
</linearGradient>
<linearGradient id="paint37_linear_2229_7988" x1="70.1928" y1="27.3178" x2="70.1928" y2="133.471" gradientUnits="userSpaceOnUse">
<stop stopColor="#10573A"/>
<stop offset="1" stopColor="#10573A"/>
</linearGradient>
<linearGradient id="paint38_linear_2229_7988" x1="70.2267" y1="27.3745" x2="70.2267" y2="133.47" gradientUnits="userSpaceOnUse">
<stop stopColor="#10573A"/>
<stop offset="1" stopColor="#10573A"/>
</linearGradient>
<linearGradient id="paint39_linear_2229_7988" x1="70.2334" y1="27.3784" x2="70.2334" y2="133.48" gradientUnits="userSpaceOnUse">
<stop stopColor="#10573A"/>
<stop offset="1" stopColor="#10573A"/>
</linearGradient>
<linearGradient id="paint40_linear_2229_7988" x1="68.9212" y1="28.4936" x2="68.9212" y2="134.612" gradientUnits="userSpaceOnUse">
<stop stopColor="#10573A"/>
<stop offset="1" stopColor="#10573A"/>
</linearGradient>
<linearGradient id="paint41_linear_2229_7988" x1="68.9927" y1="28.4839" x2="68.9927" y2="134.764" gradientUnits="userSpaceOnUse">
<stop stopColor="#10573A"/>
<stop offset="1" stopColor="#10573A"/>
</linearGradient>
<linearGradient id="paint42_linear_2229_7988" x1="68.989" y1="28.5249" x2="68.989" y2="134.715" gradientUnits="userSpaceOnUse">
<stop stopColor="#10573A"/>
<stop offset="1" stopColor="#10573A"/>
</linearGradient>
<linearGradient id="paint43_linear_2229_7988" x1="69.0074" y1="28.4975" x2="69.0074" y2="134.777" gradientUnits="userSpaceOnUse">
<stop stopColor="#10573A"/>
<stop offset="1" stopColor="#10573A"/>
</linearGradient>
<linearGradient id="paint44_linear_2229_7988" x1="69.0438" y1="28.5854" x2="69.0438" y2="134.764" gradientUnits="userSpaceOnUse">
<stop stopColor="#10573A"/>
<stop offset="1" stopColor="#10573A"/>
</linearGradient>
<linearGradient id="paint45_linear_2229_7988" x1="69.2674" y1="28.4663" x2="69.2674" y2="134.613" gradientUnits="userSpaceOnUse">
<stop stopColor="#10573A"/>
<stop offset="1" stopColor="#10573A"/>
</linearGradient>
<linearGradient id="paint46_linear_2229_7988" x1="69.2597" y1="28.4272" x2="69.2597" y2="134.637" gradientUnits="userSpaceOnUse">
<stop stopColor="#10573A"/>
<stop offset="1" stopColor="#10573A"/>
</linearGradient>
<linearGradient id="paint47_linear_2229_7988" x1="69.2908" y1="28.4663" x2="69.2908" y2="134.663" gradientUnits="userSpaceOnUse">
<stop stopColor="#10573A"/>
<stop offset="1" stopColor="#10573A"/>
</linearGradient>
<linearGradient id="paint48_linear_2229_7988" x1="69.312" y1="28.5307" x2="69.312" y2="134.641" gradientUnits="userSpaceOnUse">
<stop stopColor="#10573A"/>
<stop offset="1" stopColor="#10573A"/>
</linearGradient>
<linearGradient id="paint49_linear_2229_7988" x1="70.2514" y1="27.4155" x2="70.2514" y2="133.844" gradientUnits="userSpaceOnUse">
<stop stopColor="#10573A"/>
<stop offset="1" stopColor="#10573A"/>
</linearGradient>
<linearGradient id="paint50_linear_2229_7988" x1="69.763" y1="27.7788" x2="69.763" y2="134.664" gradientUnits="userSpaceOnUse">
<stop stopColor="#10573A"/>
<stop offset="1" stopColor="#10573A"/>
</linearGradient>
<linearGradient id="paint51_linear_2229_7988" x1="69.1861" y1="28.7436" x2="69.1861" y2="134.884" gradientUnits="userSpaceOnUse">
<stop stopColor="#10573A"/>
<stop offset="1" stopColor="#10573A"/>
</linearGradient>
<linearGradient id="paint52_linear_2229_7988" x1="69.1944" y1="28.7124" x2="69.1944" y2="134.931" gradientUnits="userSpaceOnUse">
<stop stopColor="#10573A"/>
<stop offset="1" stopColor="#10573A"/>
</linearGradient>
<linearGradient id="paint53_linear_2229_7988" x1="69.2202" y1="28.7632" x2="69.2202" y2="134.93" gradientUnits="userSpaceOnUse">
<stop stopColor="#10573A"/>
<stop offset="1" stopColor="#10573A"/>
</linearGradient>
<linearGradient id="paint54_linear_2229_7988" x1="69.2683" y1="28.7475" x2="69.2683" y2="135.042" gradientUnits="userSpaceOnUse">
<stop stopColor="#10573A"/>
<stop offset="1" stopColor="#10573A"/>
</linearGradient>
<linearGradient id="paint55_linear_2229_7988" x1="69.9182" y1="27.8374" x2="69.9182" y2="135.042" gradientUnits="userSpaceOnUse">
<stop stopColor="#10573A"/>
<stop offset="1" stopColor="#10573A"/>
</linearGradient>
<linearGradient id="paint56_linear_2229_7988" x1="72.1966" y1="23.5522" x2="72.1966" y2="135.204" gradientUnits="userSpaceOnUse">
<stop stopColor="#10573A"/>
<stop offset="1" stopColor="#10573A"/>
</linearGradient>
<linearGradient id="paint57_linear_2229_7988" x1="69.3835" y1="29.1577" x2="69.3835" y2="135.576" gradientUnits="userSpaceOnUse">
<stop stopColor="#10573A"/>
<stop offset="1" stopColor="#10573A"/>
</linearGradient>
<linearGradient id="paint58_linear_2229_7988" x1="75.6538" y1="23.1596" x2="75.6538" y2="129.238" gradientUnits="userSpaceOnUse">
<stop stopColor="#10573A"/>
<stop offset="1" stopColor="#10573A"/>
</linearGradient>
<linearGradient id="paint59_linear_2229_7988" x1="70.4144" y1="27.8374" x2="70.4144" y2="135.222" gradientUnits="userSpaceOnUse">
<stop stopColor="#10573A"/>
<stop offset="1" stopColor="#10573A"/>
</linearGradient>
<linearGradient id="paint60_linear_2229_7988" x1="74.2997" y1="24.6811" x2="74.2997" y2="130.857" gradientUnits="userSpaceOnUse">
<stop stopColor="#10573A"/>
<stop offset="1" stopColor="#10573A"/>
</linearGradient>
<linearGradient id="paint61_linear_2229_7988" x1="74.0503" y1="24.7905" x2="74.0503" y2="132.245" gradientUnits="userSpaceOnUse">
<stop stopColor="#10573A"/>
<stop offset="1" stopColor="#10573A"/>
</linearGradient>
<linearGradient id="paint62_linear_2229_7988" x1="73.9404" y1="26.1792" x2="73.9404" y2="132.265" gradientUnits="userSpaceOnUse">
<stop stopColor="#10573A"/>
<stop offset="1" stopColor="#10573A"/>
</linearGradient>
<linearGradient id="paint63_linear_2229_7988" x1="75.9432" y1="24.6733" x2="75.9432" y2="130.747" gradientUnits="userSpaceOnUse">
<stop stopColor="#10573A"/>
<stop offset="1" stopColor="#10573A"/>
</linearGradient>
<linearGradient id="paint64_linear_2229_7988" x1="71.6166" y1="29.1382" x2="71.6166" y2="135.461" gradientUnits="userSpaceOnUse">
<stop stopColor="#10573A"/>
<stop offset="1" stopColor="#10573A"/>
</linearGradient>
<linearGradient id="paint65_linear_2229_7988" x1="71.7495" y1="29.394" x2="71.7495" y2="135.523" gradientUnits="userSpaceOnUse">
<stop stopColor="#10573A"/>
<stop offset="1" stopColor="#10573A"/>
</linearGradient>
<linearGradient id="paint66_linear_2229_7988" x1="75.5438" y1="26.1987" x2="75.5438" y2="132.269" gradientUnits="userSpaceOnUse">
<stop stopColor="#10573A"/>
<stop offset="1" stopColor="#10573A"/>
</linearGradient>
<linearGradient id="paint67_linear_2229_7988" x1="73.4252" y1="27.6382" x2="73.4252" y2="135.153" gradientUnits="userSpaceOnUse">
<stop stopColor="#10573A"/>
<stop offset="1" stopColor="#10573A"/>
</linearGradient>
<linearGradient id="paint68_linear_2229_7988" x1="72.3417" y1="29.4565" x2="72.3417" y2="135.527" gradientUnits="userSpaceOnUse">
<stop stopColor="#10573A"/>
<stop offset="1" stopColor="#10573A"/>
</linearGradient>
<linearGradient id="paint69_linear_2229_7988" x1="78.551" y1="23.1714" x2="78.551" y2="129.447" gradientUnits="userSpaceOnUse">
<stop stopColor="#10573A"/>
<stop offset="1" stopColor="#10573A"/>
</linearGradient>
<linearGradient id="paint70_linear_2229_7988" x1="73.0459" y1="29.0874" x2="73.0459" y2="135.523" gradientUnits="userSpaceOnUse">
<stop stopColor="#10573A"/>
<stop offset="1" stopColor="#10573A"/>
</linearGradient>
<linearGradient id="paint71_linear_2229_7988" x1="74.689" y1="27.6382" x2="74.689" y2="133.708" gradientUnits="userSpaceOnUse">
<stop stopColor="#10573A"/>
<stop offset="1" stopColor="#10573A"/>
</linearGradient>
<linearGradient id="paint72_linear_2229_7988" x1="77.6499" y1="24.6811" x2="77.6499" y2="130.841" gradientUnits="userSpaceOnUse">
<stop stopColor="#10573A"/>
<stop offset="1" stopColor="#10573A"/>
</linearGradient>
<linearGradient id="paint73_linear_2229_7988" x1="79.1959" y1="23.3823" x2="79.1959" y2="129.639" gradientUnits="userSpaceOnUse">
<stop stopColor="#10573A"/>
<stop offset="1" stopColor="#10573A"/>
</linearGradient>
<linearGradient id="paint74_linear_2229_7988" x1="77.8431" y1="24.7749" x2="77.8431" y2="131.216" gradientUnits="userSpaceOnUse">
<stop stopColor="#10573A"/>
<stop offset="1" stopColor="#10573A"/>
</linearGradient>
<linearGradient id="paint75_linear_2229_7988" x1="77.7915" y1="25.1499" x2="77.7915" y2="131.795" gradientUnits="userSpaceOnUse">
<stop stopColor="#10573A"/>
<stop offset="1" stopColor="#10573A"/>
</linearGradient>
<linearGradient id="paint76_linear_2229_7988" x1="79.4661" y1="23.5737" x2="79.4661" y2="130.188" gradientUnits="userSpaceOnUse">
<stop stopColor="#10573A"/>
<stop offset="1" stopColor="#10573A"/>
</linearGradient>
<linearGradient id="paint77_linear_2229_7988" x1="77.4072" y1="25.7299" x2="77.4072" y2="132.265" gradientUnits="userSpaceOnUse">
<stop stopColor="#10573A"/>
<stop offset="1" stopColor="#10573A"/>
</linearGradient>
<linearGradient id="paint78_linear_2229_7988" x1="76.6479" y1="27.5991" x2="76.6479" y2="133.705" gradientUnits="userSpaceOnUse">
<stop stopColor="#10573A"/>
<stop offset="1" stopColor="#10573A"/>
</linearGradient>
<linearGradient id="paint79_linear_2229_7988" x1="79.2791" y1="24.1206" x2="79.2791" y2="132.844" gradientUnits="userSpaceOnUse">
<stop stopColor="#10573A"/>
<stop offset="1" stopColor="#10573A"/>
</linearGradient>
<linearGradient id="paint80_linear_2229_7988" x1="81.5388" y1="23.1421" x2="81.5388" y2="129.917" gradientUnits="userSpaceOnUse">
<stop stopColor="#10573A"/>
<stop offset="1" stopColor="#10573A"/>
</linearGradient>
<linearGradient id="paint81_linear_2229_7988" x1="80.9392" y1="23.851" x2="80.9392" y2="130.466" gradientUnits="userSpaceOnUse">
<stop stopColor="#10573A"/>
<stop offset="1" stopColor="#10573A"/>
</linearGradient>
<linearGradient id="paint82_linear_2229_7988" x1="78.2313" y1="26.7788" x2="78.2313" y2="133.664" gradientUnits="userSpaceOnUse">
<stop stopColor="#10573A"/>
<stop offset="1" stopColor="#10573A"/>
</linearGradient>
<linearGradient id="paint83_linear_2229_7988" x1="80.5497" y1="24.4018" x2="80.5497" y2="133.395" gradientUnits="userSpaceOnUse">
<stop stopColor="#10573A"/>
<stop offset="1" stopColor="#10573A"/>
</linearGradient>
<linearGradient id="paint84_linear_2229_7988" x1="84.3167" y1="23.1342" x2="84.3167" y2="129.208" gradientUnits="userSpaceOnUse">
<stop stopColor="#10573A"/>
<stop offset="1" stopColor="#10573A"/>
</linearGradient>
<linearGradient id="paint85_linear_2229_7988" x1="82.6531" y1="24.6909" x2="82.6531" y2="131.016" gradientUnits="userSpaceOnUse">
<stop stopColor="#10573A"/>
<stop offset="1" stopColor="#10573A"/>
</linearGradient>
<linearGradient id="paint86_linear_2229_7988" x1="80.1399" y1="27.3296" x2="80.1399" y2="134.834" gradientUnits="userSpaceOnUse">
<stop stopColor="#10573A"/>
<stop offset="1" stopColor="#10573A"/>
</linearGradient>
<linearGradient id="paint87_linear_2229_7988" x1="82.2235" y1="24.9507" x2="82.2235" y2="133.574" gradientUnits="userSpaceOnUse">
<stop stopColor="#10573A"/>
<stop offset="1" stopColor="#10573A"/>
</linearGradient>
<linearGradient id="paint88_linear_2229_7988" x1="84.0321" y1="24.6909" x2="84.0321" y2="130.757" gradientUnits="userSpaceOnUse">
<stop stopColor="#10573A"/>
<stop offset="1" stopColor="#10573A"/>
</linearGradient>
<linearGradient id="paint89_linear_2229_7988" x1="80.0993" y1="28.7671" x2="80.0993" y2="135.218" gradientUnits="userSpaceOnUse">
<stop stopColor="#10573A"/>
<stop offset="1" stopColor="#10573A"/>
</linearGradient>
<linearGradient id="paint90_linear_2229_7988" x1="80.3202" y1="29.1518" x2="80.3202" y2="135.383" gradientUnits="userSpaceOnUse">
<stop stopColor="#10573A"/>
<stop offset="1" stopColor="#10573A"/>
</linearGradient>
<linearGradient id="paint91_linear_2229_7988" x1="81.9665" y1="27.5092" x2="81.9665" y2="133.843" gradientUnits="userSpaceOnUse">
<stop stopColor="#10573A"/>
<stop offset="1" stopColor="#10573A"/>
</linearGradient>
<linearGradient id="paint92_linear_2229_7988" x1="82.1142" y1="27.7768" x2="82.1142" y2="133.904" gradientUnits="userSpaceOnUse">
<stop stopColor="#10573A"/>
<stop offset="1" stopColor="#10573A"/>
</linearGradient>
<linearGradient id="paint93_linear_2229_7988" x1="86.7797" y1="23.1421" x2="86.7797" y2="129.278" gradientUnits="userSpaceOnUse">
<stop stopColor="#10573A"/>
<stop offset="1" stopColor="#10573A"/>
</linearGradient>
<linearGradient id="paint94_linear_2229_7988" x1="80.6852" y1="29.3178" x2="80.6852" y2="135.444" gradientUnits="userSpaceOnUse">
<stop stopColor="#10573A"/>
<stop offset="1" stopColor="#10573A"/>
</linearGradient>
<linearGradient id="paint95_linear_2229_7988" x1="85.3581" y1="24.6909" x2="85.3581" y2="130.814" gradientUnits="userSpaceOnUse">
<stop stopColor="#10573A"/>
<stop offset="1" stopColor="#10573A"/>
</linearGradient>
<linearGradient id="paint96_linear_2229_7988" x1="85.4963" y1="24.7495" x2="85.4963" y2="131.078" gradientUnits="userSpaceOnUse">
<stop stopColor="#10573A"/>
<stop offset="1" stopColor="#10573A"/>
</linearGradient>
<linearGradient id="paint97_linear_2229_7988" x1="87.1373" y1="23.2124" x2="87.1373" y2="129.443" gradientUnits="userSpaceOnUse">
<stop stopColor="#10573A"/>
<stop offset="1" stopColor="#10573A"/>
</linearGradient>
<linearGradient id="paint98_linear_2229_7988" x1="82.8185" y1="27.8296" x2="82.8185" y2="133.905" gradientUnits="userSpaceOnUse">
<stop stopColor="#10573A"/>
<stop offset="1" stopColor="#10573A"/>
</linearGradient>
<linearGradient id="paint99_linear_2229_7988" x1="87.3594" y1="23.3784" x2="87.3594" y2="129.869" gradientUnits="userSpaceOnUse">
<stop stopColor="#10573A"/>
<stop offset="1" stopColor="#10573A"/>
</linearGradient>
<linearGradient id="paint100_linear_2229_7988" x1="85.2516" y1="25.0112" x2="85.2516" y2="133.515" gradientUnits="userSpaceOnUse">
<stop stopColor="#10573A"/>
<stop offset="1" stopColor="#10573A"/>
</linearGradient>
<linearGradient id="paint101_linear_2229_7988" x1="83.9669" y1="27.8178" x2="83.9669" y2="133.894" gradientUnits="userSpaceOnUse">
<stop stopColor="#10573A"/>
<stop offset="1" stopColor="#10573A"/>
</linearGradient>
<linearGradient id="paint102_linear_2229_7988" x1="87.3147" y1="23.8022" x2="87.3147" y2="131.287" gradientUnits="userSpaceOnUse">
<stop stopColor="#10573A"/>
<stop offset="1" stopColor="#10573A"/>
</linearGradient>
<linearGradient id="paint103_linear_2229_7988" x1="84.7716" y1="27.4487" x2="84.7716" y2="133.884" gradientUnits="userSpaceOnUse">
<stop stopColor="#10573A"/>
<stop offset="1" stopColor="#10573A"/>
</linearGradient>
<linearGradient id="paint104_linear_2229_7988" x1="83.0376" y1="29.3784" x2="83.0376" y2="135.444" gradientUnits="userSpaceOnUse">
<stop stopColor="#10573A"/>
<stop offset="1" stopColor="#10573A"/>
</linearGradient>
<linearGradient id="paint105_linear_2229_7988" x1="89.1578" y1="23.1635" x2="89.1578" y2="130.039" gradientUnits="userSpaceOnUse">
<stop stopColor="#10573A"/>
<stop offset="1" stopColor="#10573A"/>
</linearGradient>
<linearGradient id="paint106_linear_2229_7988" x1="88.5833" y1="23.9721" x2="88.5833" y2="130.598" gradientUnits="userSpaceOnUse">
<stop stopColor="#10573A"/>
<stop offset="1" stopColor="#10573A"/>
</linearGradient>
<linearGradient id="paint107_linear_2229_7988" x1="86.9051" y1="25.2202" x2="86.9051" y2="134.184" gradientUnits="userSpaceOnUse">
<stop stopColor="#10573A"/>
<stop offset="1" stopColor="#10573A"/>
</linearGradient>
<linearGradient id="paint108_linear_2229_7988" x1="88.3684" y1="24.5327" x2="88.3684" y2="132.077" gradientUnits="userSpaceOnUse">
<stop stopColor="#10573A"/>
<stop offset="1" stopColor="#10573A"/>
</linearGradient>
<linearGradient id="paint109_linear_2229_7988" x1="88.2736" y1="26.0112" x2="88.2736" y2="132.679" gradientUnits="userSpaceOnUse">
<stop stopColor="#10573A"/>
<stop offset="1" stopColor="#10573A"/>
</linearGradient>
<linearGradient id="paint110_linear_2229_7988" x1="85.8609" y1="28.3491" x2="85.8609" y2="135.444" gradientUnits="userSpaceOnUse">
<stop stopColor="#10573A"/>
<stop offset="1" stopColor="#10573A"/>
</linearGradient>
<linearGradient id="paint111_linear_2229_7988" x1="86.5698" y1="28.1186" x2="86.5698" y2="134.414" gradientUnits="userSpaceOnUse">
<stop stopColor="#10573A"/>
<stop offset="1" stopColor="#10573A"/>
</linearGradient>
<linearGradient id="paint112_linear_2229_7988" x1="90.3519" y1="24.5913" x2="90.3519" y2="130.897" gradientUnits="userSpaceOnUse">
<stop stopColor="#10573A"/>
<stop offset="1" stopColor="#10573A"/>
</linearGradient>
<linearGradient id="paint113_linear_2229_7988" x1="90.1369" y1="24.8315" x2="90.1369" y2="131.437" gradientUnits="userSpaceOnUse">
<stop stopColor="#10573A"/>
<stop offset="1" stopColor="#10573A"/>
</linearGradient>
<linearGradient id="paint114_linear_2229_7988" x1="90.6515" y1="24.5815" x2="90.6515" y2="130.657" gradientUnits="userSpaceOnUse">
<stop stopColor="#10573A"/>
<stop offset="1" stopColor="#10573A"/>
</linearGradient>
<linearGradient id="paint115_linear_2229_7988" x1="88.6031" y1="26.6128" x2="88.6031" y2="132.866" gradientUnits="userSpaceOnUse">
<stop stopColor="#10573A"/>
<stop offset="1" stopColor="#10573A"/>
</linearGradient>
<linearGradient id="paint116_linear_2229_7988" x1="92.2647" y1="23.1499" x2="92.2647" y2="129.228" gradientUnits="userSpaceOnUse">
<stop stopColor="#10573A"/>
<stop offset="1" stopColor="#10573A"/>
</linearGradient>
<linearGradient id="paint117_linear_2229_7988" x1="90.0794" y1="25.3706" x2="90.0794" y2="131.699" gradientUnits="userSpaceOnUse">
<stop stopColor="#10573A"/>
<stop offset="1" stopColor="#10573A"/>
</linearGradient>
<linearGradient id="paint118_linear_2229_7988" x1="88.9182" y1="26.8003" x2="88.9182" y2="132.866" gradientUnits="userSpaceOnUse">
<stop stopColor="#10573A"/>
<stop offset="1" stopColor="#10573A"/>
</linearGradient>
<linearGradient id="paint119_linear_2229_7988" x1="90.2229" y1="25.6342" x2="90.2229" y2="131.758" gradientUnits="userSpaceOnUse">
<stop stopColor="#10573A"/>
<stop offset="1" stopColor="#10573A"/>
</linearGradient>
<linearGradient id="paint120_linear_2229_7988" x1="87.9139" y1="27.9292" x2="87.9139" y2="134.285" gradientUnits="userSpaceOnUse">
<stop stopColor="#10573A"/>
<stop offset="1" stopColor="#10573A"/>
</linearGradient>
<linearGradient id="paint121_linear_2229_7988" x1="87.6541" y1="28.2182" x2="87.6541" y2="135.123" gradientUnits="userSpaceOnUse">
<stop stopColor="#10573A"/>
<stop offset="1" stopColor="#10573A"/>
</linearGradient>
<linearGradient id="paint122_linear_2229_7988" x1="87.5495" y1="29.0581" x2="87.5495" y2="135.447" gradientUnits="userSpaceOnUse">
<stop stopColor="#10573A"/>
<stop offset="1" stopColor="#10573A"/>
</linearGradient>
<linearGradient id="paint123_linear_2229_7988" x1="87.7092" y1="29.3823" x2="87.7092" y2="135.495" gradientUnits="userSpaceOnUse">
<stop stopColor="#10573A"/>
<stop offset="1" stopColor="#10573A"/>
</linearGradient>
<linearGradient id="paint124_linear_2229_7988" x1="92.6401" y1="24.5717" x2="92.6401" y2="130.648" gradientUnits="userSpaceOnUse">
<stop stopColor="#10573A"/>
<stop offset="1" stopColor="#10573A"/>
</linearGradient>
<linearGradient id="paint125_linear_2229_7988" x1="90.5211" y1="26.8003" x2="90.5211" y2="132.876" gradientUnits="userSpaceOnUse">
<stop stopColor="#10573A"/>
<stop offset="1" stopColor="#10573A"/>
</linearGradient>
<linearGradient id="paint126_linear_2229_7988" x1="91.9052" y1="25.6909" x2="91.9052" y2="131.757" gradientUnits="userSpaceOnUse">
<stop stopColor="#10573A"/>
<stop offset="1" stopColor="#10573A"/>
</linearGradient>
<linearGradient id="paint127_linear_2229_7988" x1="89.9471" y1="27.9292" x2="89.9471" y2="134.005" gradientUnits="userSpaceOnUse">
<stop stopColor="#10573A"/>
<stop offset="1" stopColor="#10573A"/>
</linearGradient>
<linearGradient id="paint128_linear_2229_7988" x1="94.948" y1="23.1499" x2="94.948" y2="129.24" gradientUnits="userSpaceOnUse">
<stop stopColor="#10573A"/>
<stop offset="1" stopColor="#10573A"/>
</linearGradient>
<linearGradient id="paint129_linear_2229_7988" x1="94.8984" y1="23.1733" x2="94.8984" y2="130.528" gradientUnits="userSpaceOnUse">
<stop stopColor="#10573A"/>
<stop offset="1" stopColor="#10573A"/>
</linearGradient>
<linearGradient id="paint130_linear_2229_7988" x1="92.1951" y1="26.81" x2="92.1951" y2="132.886" gradientUnits="userSpaceOnUse">
<stop stopColor="#10573A"/>
<stop offset="1" stopColor="#10573A"/>
</linearGradient>
<linearGradient id="paint131_linear_2229_7988" x1="94.6231" y1="24.4624" x2="94.6231" y2="130.638" gradientUnits="userSpaceOnUse">
<stop stopColor="#10573A"/>
<stop offset="1" stopColor="#10573A"/>
</linearGradient>
<linearGradient id="paint132_linear_2229_7988" x1="92.3906" y1="26.8198" x2="92.3906" y2="132.94" gradientUnits="userSpaceOnUse">
<stop stopColor="#10573A"/>
<stop offset="1" stopColor="#10573A"/>
</linearGradient>
<linearGradient id="paint133_linear_2229_7988" x1="93.6445" y1="25.6909" x2="93.6445" y2="131.777" gradientUnits="userSpaceOnUse">
<stop stopColor="#10573A"/>
<stop offset="1" stopColor="#10573A"/>
</linearGradient>
<linearGradient id="paint134_linear_2229_7988" x1="89.9525" y1="29.4077" x2="89.9525" y2="135.493" gradientUnits="userSpaceOnUse">
<stop stopColor="#10573A"/>
<stop offset="1" stopColor="#10573A"/>
</linearGradient>
<linearGradient id="paint135_linear_2229_7988" x1="92.4737" y1="26.8745" x2="92.4737" y2="133.095" gradientUnits="userSpaceOnUse">
<stop stopColor="#10573A"/>
<stop offset="1" stopColor="#10573A"/>
</linearGradient>
<linearGradient id="paint136_linear_2229_7988" x1="92.4097" y1="27.0307" x2="92.4097" y2="133.776" gradientUnits="userSpaceOnUse">
<stop stopColor="#10573A"/>
<stop offset="1" stopColor="#10573A"/>
</linearGradient>
<linearGradient id="paint137_linear_2229_7988" x1="94.0549" y1="25.7104" x2="94.0549" y2="131.972" gradientUnits="userSpaceOnUse">
<stop stopColor="#10573A"/>
<stop offset="1" stopColor="#10573A"/>
</linearGradient>
<linearGradient id="paint138_linear_2229_7988" x1="91.9454" y1="27.9194" x2="91.9454" y2="134.01" gradientUnits="userSpaceOnUse">
<stop stopColor="#10573A"/>
<stop offset="1" stopColor="#10573A"/>
</linearGradient>
<linearGradient id="paint139_linear_2229_7988" x1="92.2106" y1="27.7085" x2="92.2106" y2="133.984" gradientUnits="userSpaceOnUse">
<stop stopColor="#10573A"/>
<stop offset="1" stopColor="#10573A"/>
</linearGradient>
<linearGradient id="paint140_linear_2229_7988" x1="94.3584" y1="25.9057" x2="94.3584" y2="132.555" gradientUnits="userSpaceOnUse">
<stop stopColor="#10573A"/>
<stop offset="1" stopColor="#10573A"/>
</linearGradient>
<linearGradient id="paint141_linear_2229_7988" x1="94.2534" y1="26.4897" x2="94.2534" y2="134.104" gradientUnits="userSpaceOnUse">
<stop stopColor="#10573A"/>
<stop offset="1" stopColor="#10573A"/>
</linearGradient>
<linearGradient id="paint142_linear_2229_7988" x1="92.4903" y1="29.3979" x2="92.4903" y2="135.476" gradientUnits="userSpaceOnUse">
<stop stopColor="#10573A"/>
<stop offset="1" stopColor="#10573A"/>
</linearGradient>
<linearGradient id="paint143_linear_2229_7988" x1="93.9885" y1="28.0385" x2="93.9885" y2="134.814" gradientUnits="userSpaceOnUse">
<stop stopColor="#10573A"/>
<stop offset="1" stopColor="#10573A"/>
</linearGradient>
<linearGradient id="paint144_linear_2229_7988" x1="93.409" y1="28.7475" x2="93.409" y2="135.463" gradientUnits="userSpaceOnUse">
<stop stopColor="#10573A"/>
<stop offset="1" stopColor="#10573A"/>
</linearGradient>
<linearGradient id="paint145_linear_2229_7988" x1="20" y1="17.6362" x2="48" y2="49.1362" gradientUnits="userSpaceOnUse">
<stop stopColor="#10573B" stop-opacity="0"/>
<stop offset="0.449229" stopColor="#10573B" stop-opacity="0.75"/>
<stop offset="1" stopColor="#10573B"/>
</linearGradient>
</defs>
</svg>
