<svg width="23" height="23" viewBox="0 0 23 23" fill="none" xmlns="http://www.w3.org/2000/svg">
<path d="M18.5 13.4907C18.5019 13.7965 18.409 14.0954 18.2341 14.3462C18.0591 14.597 17.8108 14.7875 17.5232 14.8913L12.681 16.6726L10.8997 21.511C10.7942 21.7976 10.6034 22.0449 10.3529 22.2196C10.1025 22.3943 9.80445 22.488 9.49909 22.488C9.19373 22.488 8.89571 22.3943 8.64525 22.2196C8.39479 22.0449 8.20395 21.7976 8.09846 21.511L6.31253 16.6782L1.47315 14.897C1.18659 14.7915 0.939271 14.6006 0.764576 14.3502C0.589882 14.0997 0.496216 13.8017 0.496216 13.4963C0.496216 13.191 0.589882 12.893 0.764576 12.6425C0.939271 12.3921 1.18659 12.2012 1.47315 12.0957L6.31534 10.3145L8.09659 5.47604C8.20207 5.18947 8.39292 4.94215 8.64338 4.76746C8.89384 4.59277 9.19185 4.4991 9.49722 4.4991C9.80258 4.4991 10.1006 4.59277 10.3511 4.76746C10.6015 4.94215 10.7924 5.18947 10.8978 5.47604L12.6791 10.3182L17.5175 12.0995C17.8047 12.2019 18.0532 12.3905 18.2291 12.6395C18.4049 12.8886 18.4996 13.1858 18.5 13.4907ZM13.25 4.49072H14.75V5.99072C14.75 6.18963 14.829 6.3804 14.9697 6.52105C15.1103 6.66171 15.3011 6.74072 15.5 6.74072C15.6989 6.74072 15.8897 6.66171 16.0304 6.52105C16.171 6.3804 16.25 6.18963 16.25 5.99072V4.49072H17.75C17.9489 4.49072 18.1397 4.4117 18.2804 4.27105C18.421 4.1304 18.5 3.93964 18.5 3.74072C18.5 3.54181 18.421 3.35104 18.2804 3.21039C18.1397 3.06974 17.9489 2.99072 17.75 2.99072H16.25V1.49072C16.25 1.29181 16.171 1.10104 16.0304 0.960393C15.8897 0.81974 15.6989 0.740723 15.5 0.740723C15.3011 0.740723 15.1103 0.81974 14.9697 0.960393C14.829 1.10104 14.75 1.29181 14.75 1.49072V2.99072H13.25C13.0511 2.99072 12.8603 3.06974 12.7197 3.21039C12.579 3.35104 12.5 3.54181 12.5 3.74072C12.5 3.93964 12.579 4.1304 12.7197 4.27105C12.8603 4.4117 13.0511 4.49072 13.25 4.49072ZM21.5 7.49072H20.75V6.74072C20.75 6.54181 20.671 6.35105 20.5304 6.21039C20.3897 6.06974 20.1989 5.99072 20 5.99072C19.8011 5.99072 19.6103 6.06974 19.4697 6.21039C19.329 6.35105 19.25 6.54181 19.25 6.74072V7.49072H18.5C18.3011 7.49072 18.1103 7.56974 17.9697 7.71039C17.829 7.85105 17.75 8.04181 17.75 8.24072C17.75 8.43963 17.829 8.6304 17.9697 8.77105C18.1103 8.91171 18.3011 8.99072 18.5 8.99072H19.25V9.74072C19.25 9.93964 19.329 10.1304 19.4697 10.2711C19.6103 10.4117 19.8011 10.4907 20 10.4907C20.1989 10.4907 20.3897 10.4117 20.5304 10.2711C20.671 10.1304 20.75 9.93964 20.75 9.74072V8.99072H21.5C21.6989 8.99072 21.8897 8.91171 22.0304 8.77105C22.171 8.6304 22.25 8.43963 22.25 8.24072C22.25 8.04181 22.171 7.85105 22.0304 7.71039C21.8897 7.56974 21.6989 7.49072 21.5 7.49072Z" fill="#5599EC"/>
</svg>
