<svg width="120" height="25" viewBox="0 0 120 25" fill="none" xmlns="http://www.w3.org/2000/svg">
<path fillRule="evenodd" clipRule="evenodd" d="M47.0807 20.3578V20.5415H43.5189L37.0879 13.7289H34.1904V5.17773H37.0879V11.6794L42.9111 5.17773H46.5153V5.27667L39.6885 12.6264L47.0807 20.3578ZM34.1904 20.5274V13.7289L37.0879 16.6405V20.5274H34.1904Z" fill="#1EAAB1"/>
<path fillRule="evenodd" clipRule="evenodd" d="M59.4481 17.644H51.42L50.1055 20.5274H46.9677L53.851 5.17773H57.017L63.9004 20.5274H60.7343L59.4481 17.644ZM55.434 8.41444L52.5931 14.9444H58.2891L55.434 8.41444Z" fill="#1EAAB1"/>
<path d="M75.052 5.16309H77.9495V20.5268H76.1545V20.5551L68.0839 10.1807V20.5268H65.1864V5.17722H67.5327L75.052 14.6895V5.16309Z" fill="#1EAAB1"/>
<path d="M114.401 20.5274H111.942L110.034 15.7076L108.408 10.8596L106.811 15.75L104.946 20.5274H102.486L96.8467 5.17773H100.098L103.716 16.2589L107.433 5.17773H109.341L113.172 16.2589L116.677 5.17773H119.928L114.401 20.5274Z" fill="#1EAAB1"/>
<path fillRule="evenodd" clipRule="evenodd" d="M87.8151 4.88086C88.6914 4.88086 89.497 4.98922 90.232 5.20594C90.9669 5.41324 91.6265 5.70535 92.2107 6.08226C92.7949 6.45917 93.3085 6.90204 93.7514 7.41086C94.1942 7.91969 94.557 8.47092 94.8397 9.06455C95.1318 9.66761 95.3485 10.2989 95.4899 10.9585C95.6218 11.6181 95.6877 12.2777 95.6877 12.9373C95.6783 13.6063 95.6029 14.2659 95.4616 14.9161C95.3202 15.5662 95.1082 16.1834 94.8255 16.7676C94.5429 17.3613 94.1848 17.9078 93.7514 18.4072C93.3274 18.9066 92.8232 19.34 92.239 19.7075C91.6548 20.075 90.9952 20.3624 90.2603 20.5697C89.5253 20.777 88.7102 20.8807 87.8151 20.8807C86.9199 20.8807 86.1001 20.7817 85.3557 20.5838C84.6207 20.3765 83.9611 20.0891 83.3769 19.7217C82.7833 19.3636 82.2745 18.9349 81.8505 18.4355C81.417 17.9455 81.059 17.4037 80.7763 16.81C80.4842 16.2258 80.2674 15.6039 80.1261 14.9443C79.9942 14.2942 79.9282 13.6346 79.9282 12.9656C79.9282 12.2965 79.9989 11.6275 80.1402 10.9585C80.2816 10.2989 80.4983 9.67232 80.7904 9.07869C81.0825 8.47563 81.4453 7.91969 81.8787 7.41086C82.3122 6.90204 82.8257 6.45917 83.4193 6.08226C84.0035 5.70535 84.6584 5.41324 85.384 5.20594C86.119 4.98922 86.9293 4.88086 87.8151 4.88086ZM87.8151 7.49567C86.9105 7.49567 86.1378 7.66528 85.497 8.0045C84.8469 8.33429 84.3192 8.76302 83.914 9.2907C83.4994 9.81837 83.2026 10.4073 83.0236 11.0575C82.8445 11.7171 82.7598 12.3672 82.7692 13.008C82.788 13.6393 82.8917 14.2659 83.0801 14.8878C83.2686 15.5097 83.5607 16.0704 83.9564 16.5698C84.3616 17.0597 84.8799 17.4602 85.5112 17.7712C86.1425 18.0727 86.9105 18.2234 87.8151 18.2234C88.4181 18.2234 88.9599 18.1528 89.4405 18.0114C89.921 17.8701 90.3451 17.6769 90.7125 17.4319C91.0895 17.1869 91.4098 16.8948 91.6737 16.5556C91.9375 16.2164 92.1542 15.8536 92.3238 15.4673C92.4934 15.0715 92.6206 14.6664 92.7054 14.2518C92.7808 13.8277 92.8232 13.4037 92.8327 12.9797C92.8421 12.5557 92.8091 12.1222 92.7337 11.6794C92.6489 11.2459 92.5217 10.8219 92.3521 10.4073C92.1825 10.0021 91.9658 9.62521 91.7019 9.27656C91.4287 8.9185 91.1036 8.60755 90.7267 8.34371C90.3592 8.07988 89.9305 7.87258 89.4405 7.72181C88.9599 7.57105 88.4181 7.49567 87.8151 7.49567Z" fill="#1EAAB1"/>
<path d="M25.1446 5.58751L21.8372 8.89489C21.4273 9.30478 21.4273 9.94082 21.8372 10.3366L25.1446 13.6581C25.3425 13.8418 25.4414 14.0962 25.4414 14.3648V23.8629C25.4414 24.7675 24.3531 25.2198 23.7029 24.5837L8.74902 9.61573L17.2012 1.17768C17.3849 0.979798 17.6394 0.880859 17.9079 0.880859H24.4237C24.9891 0.880859 25.4414 1.33315 25.4414 1.89851V4.86667C25.4414 5.13522 25.3425 5.38964 25.1446 5.58751Z" fill="#1EAAB1"/>
<path d="M8.74901 9.61571V17.1633C8.74901 17.4319 8.63594 17.6863 8.4522 17.87L1.7385 24.5837C1.10247 25.2198 0 24.7675 0 23.8629V3.3119C0 2.40732 1.10247 1.95503 1.7385 2.59106L8.74901 9.61571Z" fill="#1EAAB1"/>
</svg>
