<svg width="205" height="60" viewBox="0 0 205 60" fill="none" xmlns="http://www.w3.org/2000/svg">
<path d="M203.596 52.6957C203.596 55.8399 200.996 58.3867 197.78 58.3867H7.45796C4.24368 58.3867 1.63463 55.8399 1.63463 52.6957V7.31162C1.63463 4.16892 4.24368 1.61316 7.45796 1.61316H197.779C200.996 1.61316 203.595 4.16892 203.595 7.31162L203.596 52.6957Z" fill="black"/>
<path d="M197.167 1.68185C200.669 1.68185 203.519 4.46038 203.519 7.87501V52.125C203.519 55.5396 200.669 58.3182 197.167 58.3182H8.0641C4.56192 58.3182 1.71215 55.5396 1.71215 52.125V7.87501C1.71215 4.46038 4.56192 1.68185 8.0641 1.68185H197.167ZM197.167 0.500005H8.0641C3.90574 0.500005 0.5 3.8206 0.5 7.87501V52.125C0.5 56.1794 3.90574 59.5 8.0641 59.5H197.167C201.325 59.5 204.731 56.1794 204.731 52.125V7.87501C204.731 3.8206 201.325 0.500005 197.167 0.500005Z" fill="#A6A6A6"/>
<path d="M46.0783 29.6814C46.0344 24.9274 50.0706 22.6146 50.2552 22.507C47.9693 19.2575 44.4263 18.8136 43.1812 18.7782C40.2055 18.4728 37.3191 20.5142 35.8032 20.5142C34.2571 20.5142 31.9228 18.8077 29.407 18.8578C26.1696 18.9065 23.1409 20.734 21.4798 23.5719C18.0518 29.3583 20.6084 37.8617 23.8928 42.5389C25.5357 44.8296 27.4555 47.3873 29.9683 47.2973C32.4266 47.1985 33.3449 45.7692 36.3115 45.7692C39.2509 45.7692 40.1132 47.2973 42.6759 47.2398C45.3143 47.1985 46.9754 44.9388 48.5608 42.6274C50.4594 40.0019 51.2219 37.4163 51.2521 37.2835C51.1901 37.2629 46.1282 35.3793 46.0783 29.6814Z" fill="white"/>
<path d="M41.2373 15.7013C42.5595 14.0891 43.4641 11.8958 43.213 9.67004C41.2993 9.75264 38.906 10.9607 37.5278 12.5374C36.3085 13.9269 35.2193 16.2043 35.5006 18.346C37.6504 18.5023 39.8576 17.2884 41.2373 15.7013Z" fill="white"/>
<path d="M81.6553 46.9684H78.2196L76.3377 41.2026H69.7963L68.0036 46.9684H64.6587L71.1396 27.3391H75.1426L81.6553 46.9684ZM75.7704 38.7836L74.0685 33.658C73.8884 33.1344 73.5511 31.9013 73.0534 29.9602H72.9928C72.7947 30.795 72.4755 32.0281 72.0367 33.658L70.3651 38.7836H75.7704Z" fill="white"/>
<path d="M98.322 39.7174C98.322 42.1246 97.6548 44.0273 96.3205 45.4242C95.1254 46.6676 93.6413 47.2886 91.8698 47.2886C89.9576 47.2886 88.584 46.6189 87.7474 45.2796H87.6869V52.7357H84.4615V37.4739C84.4615 35.9606 84.4207 34.4074 84.342 32.8144H87.1785L87.3586 35.0579H87.4191C88.4947 33.3675 90.127 32.5238 92.3176 32.5238C94.0301 32.5238 95.4597 33.1831 96.6034 34.5033C97.7501 35.8249 98.322 37.5624 98.322 39.7174ZM95.0361 39.8324C95.0361 38.4548 94.7184 37.319 94.08 36.4252C93.3826 35.493 92.4462 35.0269 91.2722 35.0269C90.4765 35.0269 89.7534 35.2865 89.1074 35.7983C88.4599 36.3146 88.0363 36.9886 87.8381 37.8235C87.7383 38.2129 87.6884 38.5315 87.6884 38.7822V41.1422C87.6884 42.1718 88.0121 43.0406 88.6596 43.75C89.3071 44.4595 90.1482 44.8135 91.183 44.8135C92.3978 44.8135 93.3433 44.3563 94.0195 43.4447C94.6973 42.5317 95.0361 41.3281 95.0361 39.8324Z" fill="white"/>
<path d="M115.019 39.7174C115.019 42.1246 114.352 44.0273 113.016 45.4242C111.822 46.6676 110.338 47.2886 108.567 47.2886C106.655 47.2886 105.281 46.6189 104.446 45.2796H104.385V52.7357H101.16V37.4739C101.16 35.9606 101.119 34.4074 101.041 32.8144H103.877L104.057 35.0579H104.118C105.192 33.3675 106.824 32.5238 109.016 32.5238C110.727 32.5238 112.157 33.1831 113.303 34.5033C114.446 35.8249 115.019 37.5624 115.019 39.7174ZM111.733 39.8324C111.733 38.4548 111.414 37.319 110.776 36.4252C110.078 35.493 109.145 35.0269 107.969 35.0269C107.172 35.0269 106.45 35.2865 105.803 35.7983C105.155 36.3146 104.733 36.9886 104.535 37.8235C104.437 38.2129 104.385 38.5315 104.385 38.7822V41.1422C104.385 42.1718 104.709 43.0406 105.354 43.75C106.001 44.458 106.842 44.8135 107.88 44.8135C109.095 44.8135 110.04 44.3563 110.717 43.4447C111.394 42.5317 111.733 41.3281 111.733 39.8324Z" fill="white"/>
<path d="M133.687 41.4637C133.687 43.1334 133.093 44.4919 131.899 45.5406C130.587 46.6867 128.761 47.259 126.415 47.259C124.249 47.259 122.512 46.8519 121.197 46.0362L121.945 43.4152C123.361 44.25 124.914 44.6689 126.607 44.6689C127.822 44.6689 128.767 44.4005 129.447 43.8665C130.123 43.3326 130.46 42.6157 130.46 41.7219C130.46 40.9254 130.182 40.2542 129.624 39.71C129.069 39.1657 128.141 38.6598 126.846 38.1922C123.321 36.9104 121.56 35.0327 121.56 32.5636C121.56 30.9499 122.178 29.6269 123.414 28.5973C124.645 27.5663 126.288 27.0515 128.342 27.0515C130.174 27.0515 131.696 27.3627 132.911 27.9837L132.105 30.5473C130.97 29.9455 129.687 29.6446 128.252 29.6446C127.117 29.6446 126.23 29.9174 125.595 30.4602C125.058 30.9455 124.789 31.537 124.789 32.2376C124.789 33.0135 125.096 33.6551 125.713 34.1595C126.25 34.6256 127.226 35.1301 128.642 35.6744C130.374 36.3543 131.646 37.1494 132.465 38.0609C133.28 38.9695 133.687 40.1067 133.687 41.4637Z" fill="white"/>
<path d="M144.351 35.1743H140.796V42.0463C140.796 43.7942 141.422 44.6674 142.678 44.6674C143.254 44.6674 143.732 44.6187 144.111 44.5214L144.2 46.9094C143.564 47.141 142.728 47.2575 141.692 47.2575C140.418 47.2575 139.422 46.8784 138.704 46.1218C137.988 45.3636 137.628 44.0922 137.628 42.3059V35.1714H135.51V32.8114H137.628V30.2198L140.796 29.2876V32.8114H144.351V35.1743Z" fill="white"/>
<path d="M160.391 39.7749C160.391 41.9505 159.753 43.7367 158.479 45.1336C157.143 46.5717 155.37 47.2885 153.16 47.2885C151.03 47.2885 149.334 46.5997 148.07 45.2221C146.805 43.8444 146.172 42.1054 146.172 40.0094C146.172 37.8161 146.823 36.0195 148.129 34.6227C149.431 33.2244 151.189 32.5253 153.399 32.5253C155.529 32.5253 157.243 33.2141 158.537 34.5932C159.774 35.931 160.391 37.6583 160.391 39.7749ZM157.045 39.8767C157.045 38.5713 156.759 37.4518 156.18 36.5181C155.504 35.3882 154.537 34.8248 153.284 34.8248C151.988 34.8248 151.003 35.3897 150.327 36.5181C149.747 37.4532 149.461 38.5905 149.461 39.9357C149.461 41.241 149.747 42.3606 150.327 43.2928C151.024 44.4226 151.998 44.9861 153.256 44.9861C154.487 44.9861 155.454 44.4108 156.151 43.2633C156.746 42.3119 157.045 41.1806 157.045 39.8767Z" fill="white"/>
<path d="M170.875 35.58C170.556 35.5225 170.216 35.493 169.859 35.493C168.724 35.493 167.847 35.9104 167.229 36.7467C166.692 37.4842 166.423 38.4164 166.423 39.5419V46.9685H163.199L163.23 37.2718C163.23 35.6405 163.189 34.1552 163.109 32.8159H165.918L166.036 35.524H166.125C166.465 34.5932 167.003 33.8439 167.738 33.282C168.456 32.776 169.232 32.5238 170.069 32.5238C170.367 32.5238 170.636 32.5445 170.875 32.5813V35.58Z" fill="white"/>
<path d="M185.3 39.2217C185.3 39.7852 185.262 40.2601 185.182 40.648H175.506C175.544 42.0463 176.011 43.1157 176.91 43.8532C177.725 44.5125 178.78 44.8429 180.075 44.8429C181.507 44.8429 182.815 44.6202 183.99 44.1733L184.495 46.3563C183.122 46.9404 181.5 47.231 179.629 47.231C177.377 47.231 175.61 46.5849 174.325 45.2943C173.042 44.0037 172.399 42.2705 172.399 40.0964C172.399 37.9621 172.996 36.1847 174.193 34.7672C175.446 33.2539 177.138 32.4972 179.268 32.4972C181.361 32.4972 182.945 33.2539 184.02 34.7672C184.872 35.9693 185.3 37.4561 185.3 39.2217ZM182.225 38.406C182.246 37.4738 182.035 36.6685 181.598 35.9885C181.04 35.1138 180.182 34.6772 179.028 34.6772C177.974 34.6772 177.116 35.1035 176.461 35.959C175.924 36.639 175.604 37.4547 175.506 38.4046H182.225V38.406Z" fill="white"/>
<path d="M74.7038 15.2633C74.7038 16.9994 74.1698 18.3063 73.1033 19.1839C72.1154 19.9937 70.7115 20.3993 68.8931 20.3993C67.9915 20.3993 67.2199 20.3609 66.5739 20.2842V10.7985C67.4166 10.6657 68.3243 10.5979 69.3046 10.5979C71.0368 10.5979 72.3423 10.9652 73.2228 11.6997C74.2092 12.5302 74.7038 13.7175 74.7038 15.2633ZM73.0322 15.3061C73.0322 14.1807 72.7266 13.3178 72.1154 12.716C71.5042 12.1157 70.6117 11.8148 69.4362 11.8148C68.937 11.8148 68.5119 11.8472 68.1594 11.9151V19.1264C68.3545 19.1559 68.7116 19.1691 69.2305 19.1691C70.4437 19.1691 71.3802 18.8402 72.0398 18.1824C72.6994 17.5245 73.0322 16.5658 73.0322 15.3061Z" fill="white"/>
<path d="M83.5675 16.7796C83.5675 17.849 83.2543 18.7252 82.628 19.4125C81.9715 20.119 81.1016 20.4716 80.0154 20.4716C78.9685 20.4716 78.135 20.1338 77.5132 19.4553C76.8929 18.7783 76.5828 17.9242 76.5828 16.8947C76.5828 15.8179 76.902 14.9344 77.5434 14.2485C78.1849 13.5627 79.0472 13.219 80.1334 13.219C81.1803 13.219 82.0214 13.5568 82.6583 14.2338C83.2634 14.8916 83.5675 15.7412 83.5675 16.7796ZM81.9231 16.8298C81.9231 16.1882 81.7809 15.638 81.498 15.1793C81.1651 14.6247 80.6916 14.3474 80.0759 14.3474C79.439 14.3474 78.9549 14.6247 78.6221 15.1793C78.3377 15.638 78.197 16.197 78.197 16.8578C78.197 17.4994 78.3392 18.0496 78.6221 18.5083C78.9655 19.0629 79.4435 19.3402 80.0608 19.3402C80.6659 19.3402 81.1409 19.0585 81.4828 18.4936C81.7763 18.026 81.9231 17.4714 81.9231 16.8298Z" fill="white"/>
<path d="M95.4522 13.3606L93.2208 20.3137H91.7685L90.8442 17.2944C90.6097 16.5407 90.4191 15.7914 90.2708 15.048H90.2421C90.1044 15.812 89.9138 16.5599 89.6687 17.2944L88.6869 20.3137H87.2179L85.1197 13.3606H86.749L87.5553 16.6661C87.7504 17.4478 87.9108 18.1927 88.0394 18.8977H88.0681C88.1861 18.3166 88.3813 17.5761 88.6566 16.6808L89.6687 13.3621H90.9607L91.9304 16.61C92.1649 17.4021 92.3555 18.1647 92.5022 18.8992H92.5461C92.6535 18.1838 92.8154 17.4213 93.0302 16.61L93.8955 13.3621H95.4522V13.3606Z" fill="white"/>
<path d="M103.671 20.3138H102.086V16.3313C102.086 15.1041 101.608 14.4905 100.649 14.4905C100.178 14.4905 99.7986 14.6586 99.5036 14.9964C99.2116 15.3342 99.0633 15.7324 99.0633 16.1882V20.3123H97.4779V15.3475C97.4779 14.7368 97.4582 14.0745 97.4204 13.3577H98.8137L98.8878 14.4448H98.9317C99.1163 14.107 99.3916 13.8282 99.7532 13.6055C100.183 13.3459 100.664 13.2146 101.19 13.2146C101.856 13.2146 102.41 13.424 102.85 13.8444C103.398 14.3592 103.671 15.1277 103.671 16.1484V20.3138Z" fill="white"/>
<path d="M108.043 20.3137H106.46V10.1702H108.043V20.3137Z" fill="white"/>
<path d="M117.377 16.7796C117.377 17.849 117.064 18.7252 116.438 19.4125C115.781 20.119 114.91 20.4716 113.825 20.4716C112.777 20.4716 111.943 20.1338 111.323 19.4553C110.703 18.7783 110.393 17.9242 110.393 16.8947C110.393 15.8179 110.712 14.9344 111.353 14.2485C111.995 13.5627 112.857 13.219 113.942 13.219C114.99 13.219 115.83 13.5568 116.468 14.2338C117.073 14.8916 117.377 15.7412 117.377 16.7796ZM115.732 16.8298C115.732 16.1882 115.589 15.638 115.306 15.1793C114.975 14.6247 114.5 14.3474 113.886 14.3474C113.247 14.3474 112.763 14.6247 112.432 15.1793C112.148 15.638 112.007 16.197 112.007 16.8578C112.007 17.4994 112.149 18.0496 112.432 18.5083C112.775 19.0629 113.254 19.3402 113.871 19.3402C114.476 19.3402 114.949 19.0585 115.291 18.4936C115.586 18.026 115.732 17.4714 115.732 16.8298Z" fill="white"/>
<path d="M125.051 20.3137H123.627L123.509 19.5128H123.465C122.978 20.1515 122.284 20.4716 121.382 20.4716C120.709 20.4716 120.164 20.2606 119.754 19.8417C119.382 19.4612 119.196 18.9877 119.196 18.4257C119.196 17.5761 119.559 16.9286 120.29 16.4802C121.019 16.0318 122.045 15.812 123.365 15.8224V15.6926C123.365 14.7766 122.872 14.3193 121.884 14.3193C121.181 14.3193 120.56 14.4919 120.025 14.8341L119.703 13.8193C120.365 13.4196 121.184 13.219 122.149 13.219C124.013 13.219 124.948 14.1777 124.948 16.0952V18.6558C124.948 19.3506 124.982 19.9037 125.051 20.3137ZM123.405 17.9242V16.8519C121.656 16.8224 120.781 17.29 120.781 18.2532C120.781 18.616 120.881 18.8874 121.085 19.0688C121.29 19.2503 121.55 19.3402 121.86 19.3402C122.208 19.3402 122.533 19.2326 122.83 19.0187C123.128 18.8033 123.311 18.5305 123.379 18.1956C123.396 18.1204 123.405 18.029 123.405 17.9242Z" fill="white"/>
<path d="M134.059 20.3137H132.652L132.578 19.1972H132.534C132.085 20.0468 131.32 20.4716 130.244 20.4716C129.385 20.4716 128.669 20.1426 128.102 19.4848C127.535 18.8269 127.252 17.9729 127.252 16.9242C127.252 15.7988 127.559 14.8872 128.176 14.191C128.774 13.542 129.506 13.2175 130.377 13.2175C131.335 13.2175 132.005 13.5317 132.386 14.1615H132.416V10.1702H134.003V18.4405C134.003 19.1175 134.022 19.7414 134.059 20.3137ZM132.416 17.3814V16.2221C132.416 16.0215 132.401 15.8592 132.373 15.7353C132.283 15.3636 132.091 15.0509 131.799 14.7987C131.504 14.5465 131.149 14.4196 130.739 14.4196C130.147 14.4196 129.684 14.6483 129.344 15.107C129.007 15.5657 128.836 16.1513 128.836 16.8667C128.836 17.554 128.997 18.1116 129.323 18.5408C129.666 18.998 130.129 19.2267 130.708 19.2267C131.229 19.2267 131.645 19.0364 131.961 18.6544C132.267 18.3018 132.416 17.877 132.416 17.3814Z" fill="white"/>
<path d="M147.619 16.7796C147.619 17.849 147.306 18.7252 146.679 19.4125C146.023 20.119 145.154 20.4716 144.067 20.4716C143.021 20.4716 142.188 20.1338 141.564 19.4553C140.944 18.7783 140.634 17.9242 140.634 16.8947C140.634 15.8179 140.953 14.9344 141.595 14.2485C142.236 13.5627 143.098 13.219 144.186 13.219C145.232 13.219 146.074 13.5568 146.71 14.2338C147.315 14.8916 147.619 15.7412 147.619 16.7796ZM145.976 16.8298C145.976 16.1882 145.834 15.638 145.551 15.1793C145.216 14.6247 144.744 14.3474 144.127 14.3474C143.492 14.3474 143.008 14.6247 142.673 15.1793C142.389 15.638 142.248 16.197 142.248 16.8578C142.248 17.4994 142.39 18.0496 142.673 18.5083C143.017 19.0629 143.495 19.3402 144.112 19.3402C144.717 19.3402 145.194 19.0585 145.536 18.4936C145.828 18.026 145.976 17.4714 145.976 16.8298Z" fill="white"/>
<path d="M156.144 20.3138H154.56V16.3313C154.56 15.1041 154.082 14.4905 153.121 14.4905C152.65 14.4905 152.271 14.6586 151.977 14.9964C151.684 15.3342 151.537 15.7324 151.537 16.1882V20.3123H149.95V15.3475C149.95 14.7368 149.932 14.0745 149.894 13.3577H151.286L151.36 14.4448H151.404C151.59 14.107 151.865 13.8282 152.225 13.6055C152.657 13.3459 153.136 13.2146 153.664 13.2146C154.328 13.2146 154.882 13.424 155.322 13.8444C155.871 14.3592 156.144 15.1277 156.144 16.1484V20.3138Z" fill="white"/>
<path d="M166.813 14.5184H165.068V17.8962C165.068 18.7546 165.378 19.1839 165.992 19.1839C166.276 19.1839 166.512 19.1603 166.698 19.1116L166.739 20.2842C166.426 20.3993 166.015 20.4568 165.508 20.4568C164.882 20.4568 164.394 20.2709 164.042 19.8992C163.688 19.5275 163.512 18.9021 163.512 18.0245V14.5184H162.47V13.3606H163.512V12.0862L165.066 11.6289V13.3591H166.812V14.5184H166.813Z" fill="white"/>
<path d="M175.207 20.3137H173.62V16.3607C173.62 15.1144 173.142 14.4904 172.184 14.4904C171.449 14.4904 170.946 14.8518 170.671 15.5746C170.624 15.7265 170.597 15.9123 170.597 16.1306V20.3123H169.013V10.1702H170.597V14.3606H170.627C171.127 13.5981 171.842 13.2175 172.769 13.2175C173.426 13.2175 173.969 13.427 174.4 13.8473C174.937 14.371 175.207 15.1498 175.207 16.1793V20.3137Z" fill="white"/>
<path d="M183.864 16.5082C183.864 16.7855 183.843 17.0186 183.805 17.2088H179.051C179.072 17.8962 179.299 18.4198 179.739 18.7827C180.141 19.1072 180.66 19.2694 181.296 19.2694C181.999 19.2694 182.641 19.1603 183.218 18.9405L183.467 20.0143C182.79 20.3004 181.995 20.4435 181.073 20.4435C179.969 20.4435 179.099 20.1264 178.47 19.4921C177.837 18.8579 177.524 18.0068 177.524 16.9389C177.524 15.8902 177.816 15.017 178.405 14.3208C179.019 13.5774 179.849 13.2057 180.898 13.2057C181.924 13.2057 182.703 13.5774 183.229 14.3208C183.654 14.9108 183.864 15.6409 183.864 16.5082ZM182.352 16.1085C182.364 15.6498 182.259 15.2545 182.045 14.9211C181.769 14.4919 181.35 14.2765 180.783 14.2765C180.265 14.2765 179.843 14.486 179.521 14.9064C179.258 15.2412 179.102 15.6409 179.051 16.1085H182.352Z" fill="white"/>
</svg>
