<svg width="205" height="60" viewBox="0 0 205 60" fill="none" xmlns="http://www.w3.org/2000/svg">
<path d="M197.127 59.5H8.28448C4.13183 59.5 0.730774 56.1794 0.730774 52.125V7.875C0.730774 3.82059 4.13183 0.500001 8.28448 0.500001H197.127C201.28 0.500001 204.681 3.82059 204.681 7.875V52.125C204.681 56.1794 201.28 59.5 197.127 59.5Z" fill="black"/>
<path d="M197.127 1.68184C200.624 1.68184 203.47 4.46037 203.47 7.875V52.125C203.47 55.5396 200.624 58.3182 197.127 58.3182H8.28448C4.78711 58.3182 1.94125 55.5396 1.94125 52.125V7.875C1.94125 4.46037 4.78711 1.68184 8.28448 1.68184H197.127ZM197.127 0.500001H8.28448C4.13183 0.500001 0.730774 3.82059 0.730774 7.875V52.125C0.730774 56.1794 4.13183 59.5 8.28448 59.5H197.127C201.28 59.5 204.681 56.1794 204.681 52.125V7.875C204.681 3.82059 201.28 0.500001 197.127 0.500001Z" fill="#A6A6A6"/>
<path d="M72.3663 15.6095C72.3663 16.8411 71.9887 17.8275 71.2446 18.5632C70.3892 19.4353 69.275 19.8741 67.9097 19.8741C66.6048 19.8741 65.4906 19.4279 64.5766 18.5484C63.6607 17.6561 63.2037 16.5609 63.2037 15.25C63.2037 13.9391 63.6607 12.8439 64.5766 11.9589C65.4906 11.072 66.6048 10.6259 67.9097 10.6259C68.5593 10.6259 69.1787 10.7568 69.7698 11.0001C70.3589 11.2454 70.8386 11.5772 71.1861 11.9865L70.3967 12.7646C69.7905 12.0658 68.9653 11.721 67.9097 11.721C66.9579 11.721 66.1327 12.0455 65.432 12.7001C64.739 13.3564 64.3915 14.2064 64.3915 15.25C64.3915 16.2935 64.739 17.1509 65.432 17.8073C66.1327 18.4544 66.9579 18.7863 67.9097 18.7863C68.92 18.7863 69.7698 18.4544 70.4402 17.7999C70.882 17.3666 71.1332 16.7692 71.1993 16.0059H67.9097V14.9402H72.2984C72.3512 15.1707 72.3663 15.3938 72.3663 15.6095Z" fill="white" stroke="white" stroke-width="0.16" stroke-miterlimit="10"/>
<path d="M79.329 11.9146H75.2065V14.7171H78.923V15.7828H75.2065V18.5853H79.329V19.6712H74.0395V10.8286H79.329V11.9146Z" fill="white" stroke="white" stroke-width="0.16" stroke-miterlimit="10"/>
<path d="M84.2426 19.6712H83.0755V11.9146H80.5469V10.8286H86.7731V11.9146H84.2426V19.6712Z" fill="white" stroke="white" stroke-width="0.16" stroke-miterlimit="10"/>
<path d="M91.2789 19.6712V10.8286H92.4441V19.6712H91.2789Z" fill="white" stroke="white" stroke-width="0.16" stroke-miterlimit="10"/>
<path d="M97.6089 19.6712H96.4513V11.9146H93.9133V10.8286H100.147V11.9146H97.6089V19.6712Z" fill="white" stroke="white" stroke-width="0.16" stroke-miterlimit="10"/>
<path d="M111.935 18.5337C111.041 19.4279 109.935 19.8741 108.615 19.8741C107.287 19.8741 106.18 19.4279 105.287 18.5337C104.396 17.6413 103.952 16.5461 103.952 15.25C103.952 13.9538 104.396 12.8586 105.287 11.9663C106.18 11.072 107.287 10.6259 108.615 10.6259C109.927 10.6259 111.034 11.072 111.927 11.9736C112.826 12.8734 113.27 13.9612 113.27 15.25C113.27 16.5461 112.826 17.6413 111.935 18.5337ZM106.15 17.7925C106.823 18.4544 107.64 18.7863 108.615 18.7863C109.582 18.7863 110.407 18.4544 111.072 17.7925C111.742 17.1306 112.082 16.2806 112.082 15.25C112.082 14.2193 111.742 13.3694 111.072 12.7074C110.407 12.0455 109.582 11.7137 108.615 11.7137C107.64 11.7137 106.823 12.0455 106.15 12.7074C105.48 13.3694 105.14 14.2193 105.14 15.25C105.14 16.2806 105.48 17.1306 106.15 17.7925Z" fill="white" stroke="white" stroke-width="0.16" stroke-miterlimit="10"/>
<path d="M114.907 19.6712V10.8286H116.323L120.727 17.7058H120.778L120.727 16.0059V10.8286H121.892V19.6712H120.676L116.064 12.4548H116.013L116.064 14.1621V19.6712H114.907Z" fill="white" stroke="white" stroke-width="0.16" stroke-miterlimit="10"/>
<path d="M103.665 32.5849C100.117 32.5849 97.218 35.2215 97.218 38.8592C97.218 42.4674 100.117 45.1316 103.665 45.1316C107.221 45.1316 110.12 42.4674 110.12 38.8592C110.12 35.2215 107.221 32.5849 103.665 32.5849ZM103.665 42.661C101.718 42.661 100.043 41.092 100.043 38.8592C100.043 36.5969 101.718 35.0555 103.665 35.0555C105.612 35.0555 107.295 36.5969 107.295 38.8592C107.295 41.092 105.612 42.661 103.665 42.661ZM89.5982 32.5849C86.0423 32.5849 83.1511 35.2215 83.1511 38.8592C83.1511 42.4674 86.0423 45.1316 89.5982 45.1316C93.1522 45.1316 96.0453 42.4674 96.0453 38.8592C96.0453 35.2215 93.1522 32.5849 89.5982 32.5849ZM89.5982 42.661C87.6493 42.661 85.9686 41.092 85.9686 38.8592C85.9686 36.5969 87.6493 35.0555 89.5982 35.0555C91.5452 35.0555 93.2202 36.5969 93.2202 38.8592C93.2202 41.092 91.5452 42.661 89.5982 42.661ZM72.8592 34.5079V37.174H79.3799C79.1892 38.6638 78.6793 39.7589 77.8975 40.5223C76.9457 41.4441 75.4633 42.4674 72.8592 42.4674C68.8463 42.4674 65.7039 39.3054 65.7039 35.3874C65.7039 31.4694 68.8463 28.3074 72.8592 28.3074C75.029 28.3074 76.6077 29.1353 77.7729 30.2083L79.6972 28.3295C78.0675 26.8103 75.8996 25.6432 72.8592 25.6432C67.3563 25.6432 62.7316 30.0147 62.7316 35.3874C62.7316 40.7601 67.3563 45.1316 72.8592 45.1316C75.8335 45.1316 78.0675 44.1803 79.8237 42.3955C81.6234 40.6384 82.1842 38.1678 82.1842 36.1728C82.1842 35.5533 82.1314 34.9836 82.0369 34.5079H72.8592ZM141.307 36.5748C140.776 35.1717 139.139 32.5849 135.804 32.5849C132.499 32.5849 129.748 35.1274 129.748 38.8592C129.748 42.3734 132.471 45.1316 136.121 45.1316C139.073 45.1316 140.776 43.3745 141.477 42.3513L139.286 40.926C138.556 41.9696 137.56 42.661 136.121 42.661C134.692 42.661 133.666 42.0212 133.009 40.7601L141.604 37.2883L141.307 36.5748ZM132.545 38.6638C132.471 36.2448 134.469 35.0058 135.901 35.0058C137.022 35.0058 137.974 35.5533 138.291 36.3369L132.545 38.6638ZM125.559 44.75H128.385V26.3125H125.559V44.75ZM120.933 33.9825H120.838C120.204 33.2487 118.993 32.5849 117.46 32.5849C114.242 32.5849 111.3 35.3432 111.3 38.8795C111.3 42.3955 114.242 45.1316 117.46 45.1316C118.993 45.1316 120.204 44.4623 120.838 43.7064H120.933V44.6062C120.933 47.0049 119.62 48.2937 117.503 48.2937C115.777 48.2937 114.707 47.0768 114.265 46.0535L111.808 47.0547C112.516 48.7177 114.391 50.7643 117.503 50.7643C120.816 50.7643 123.611 48.8615 123.611 44.2319V32.9666H120.933V33.9825ZM117.702 42.661C115.755 42.661 114.125 41.0698 114.125 38.8795C114.125 36.6688 115.755 35.0555 117.702 35.0555C119.62 35.0555 121.133 36.6688 121.133 38.8795C121.133 41.0698 119.62 42.661 117.702 42.661ZM154.534 26.3125H147.777V44.75H150.594V37.764H154.534C157.663 37.764 160.731 35.5533 160.731 32.0373C160.731 28.5231 157.655 26.3125 154.534 26.3125ZM154.607 35.1993H150.594V28.8771H154.607C156.711 28.8771 157.912 30.5826 157.912 32.0373C157.912 33.4644 156.711 35.1993 154.607 35.1993ZM172.024 32.5499C169.988 32.5499 167.872 33.4275 167.001 35.3727L169.501 36.3959C170.039 35.3727 171.029 35.0408 172.075 35.0408C173.537 35.0408 175.019 35.8981 175.042 37.4118V37.6054C174.532 37.3178 173.441 36.8919 172.098 36.8919C169.405 36.8919 166.661 38.3393 166.661 41.0403C166.661 43.511 168.867 45.1021 171.346 45.1021C173.242 45.1021 174.288 44.2669 174.946 43.2953H175.042V44.7205H177.763V37.6478C177.763 34.3789 175.263 32.5499 172.024 32.5499ZM171.684 42.6536C170.763 42.6536 169.479 42.2074 169.479 41.092C169.479 39.6649 171.08 39.1173 172.466 39.1173C173.707 39.1173 174.288 39.3847 175.042 39.7368C174.821 41.4441 173.316 42.6536 171.684 42.6536ZM187.677 32.9537L184.439 40.9463H184.342L180.994 32.9537H177.956L182.987 44.1231L180.116 50.3384H183.06L190.812 32.9537H187.677ZM162.28 44.75H165.105V26.3125H162.28V44.75Z" fill="white"/>
<path d="M16.4954 11.6197C16.0516 12.0732 15.7948 12.7794 15.7948 13.6939V46.3135C15.7948 47.228 16.0516 47.9342 16.4954 48.3877L16.6049 48.4873L35.3268 30.2157V29.7843L16.6049 11.5127L16.4954 11.6197Z" fill="url(#paint0_linear_2110_55811)"/>
<path d="M41.5604 36.3093L35.3267 30.2157V29.7843L41.568 23.6907L41.7077 23.77L49.099 27.876C51.2084 29.0413 51.2084 30.9588 49.099 32.1314L41.7077 36.23L41.5604 36.3093Z" fill="url(#paint1_linear_2110_55811)"/>
<path d="M41.7077 36.23L35.3267 30L16.4953 48.3877C17.1959 49.1068 18.3384 49.1934 19.6377 48.4744L41.7077 36.23Z" fill="url(#paint2_linear_2110_55811)"/>
<path d="M41.7077 23.77L19.6377 11.5256C18.3384 10.8139 17.1959 10.9006 16.4953 11.6197L35.3267 30L41.7077 23.77Z" fill="url(#paint3_linear_2110_55811)"/>
<defs>
<linearGradient id="paint0_linear_2110_55811" x1="33.6645" y1="46.6532" x2="8.91754" y2="21.3066" gradientUnits="userSpaceOnUse">
<stop stop-color="#00A0FF"/>
<stop offset="0.0066" stop-color="#00A1FF"/>
<stop offset="0.2601" stop-color="#00BEFF"/>
<stop offset="0.5122" stop-color="#00D2FF"/>
<stop offset="0.7604" stop-color="#00DFFF"/>
<stop offset="1" stop-color="#00E3FF"/>
</linearGradient>
<linearGradient id="paint1_linear_2110_55811" x1="51.8458" y1="29.9979" x2="15.2905" y2="29.9979" gradientUnits="userSpaceOnUse">
<stop stop-color="#FFE000"/>
<stop offset="0.4087" stop-color="#FFBD00"/>
<stop offset="0.7754" stop-color="#FFA500"/>
<stop offset="1" stop-color="#FF9C00"/>
</linearGradient>
<linearGradient id="paint2_linear_2110_55811" x1="38.2379" y1="26.6132" x2="4.67904" y2="-7.7588" gradientUnits="userSpaceOnUse">
<stop stop-color="#FF3A44"/>
<stop offset="1" stop-color="#C31162"/>
</linearGradient>
<linearGradient id="paint3_linear_2110_55811" x1="11.7551" y1="59.2401" x2="26.7406" y2="43.8916" gradientUnits="userSpaceOnUse">
<stop stop-color="#32A071"/>
<stop offset="0.0685" stop-color="#2DA771"/>
<stop offset="0.4762" stop-color="#15CF74"/>
<stop offset="0.8009" stop-color="#06E775"/>
<stop offset="1" stop-color="#00F076"/>
</linearGradient>
</defs>
</svg>
