<svg width="88" height="50" viewBox="0 0 88 50" fill="none" xmlns="http://www.w3.org/2000/svg">
<path d="M0 -8.20006C5.33333 10.6491 32.9 48.6426 100.5 49.8236C107.667 15.8157 97.6 -43.4001 0 -8.20006Z" fill="#10805B"/>
<path d="M70.81 17.5228L58.7725 29.5603C58.4913 29.8414 58.1099 29.9993 57.7122 29.9993C57.3146 29.9993 56.9332 29.8414 56.6519 29.5603L49.9375 22.8103C49.6567 22.5291 49.499 22.1479 49.499 21.7505C49.499 21.353 49.6567 20.9719 49.9375 20.6906L51.8125 18.8156C52.0937 18.5357 52.4742 18.3785 52.871 18.3785C53.2677 18.3785 53.6483 18.5357 53.9294 18.8156L57.7497 22.5206L66.821 13.5609C67.1021 13.2807 67.4829 13.1234 67.8799 13.1234C68.2769 13.1234 68.6576 13.2807 68.9388 13.5609L70.8091 15.3928C70.9498 15.5322 71.0614 15.6981 71.1377 15.8808C71.2139 16.0636 71.2532 16.2596 71.2533 16.4576C71.2534 16.6556 71.2142 16.8517 71.1382 17.0345C71.0621 17.2174 70.9506 17.3833 70.81 17.5228Z" fill="white"/>
</svg>
