<svg width="73" height="91" viewBox="0 0 73 91" fill="none" xmlns="http://www.w3.org/2000/svg">
<rect width="72" height="90.0003" transform="translate(0.898438 0.490234)" fill="white"/>
<mask id="path-1-inside-1_1418_21468" fill="white">
<path fill-rule="evenodd" clip-rule="evenodd" d="M59.0842 1.79672C58.7091 1.42165 58.2004 1.21094 57.67 1.21094H2.89844C1.79387 1.21094 0.898438 2.10637 0.898438 3.21094V88.4909C0.898438 89.5955 1.79387 90.4909 2.89844 90.4909H70.8984C72.003 90.4909 72.8984 89.5955 72.8984 88.4909V16.4394C72.8984 15.9089 72.6877 15.4002 72.3127 15.0252L59.0842 1.79672Z"/>
</mask>
<path d="M72.3127 15.0252L73.3309 14.0069L72.3127 15.0252ZM59.0842 1.79672L58.066 2.81496L59.0842 1.79672ZM2.89844 2.65094H57.67V-0.229063H2.89844V2.65094ZM2.33844 88.4909V3.21094H-0.541563V88.4909H2.33844ZM70.8984 89.0509H2.89844V91.9309H70.8984V89.0509ZM71.4584 16.4394V88.4909H74.3384V16.4394H71.4584ZM73.3309 14.0069L60.1025 0.77849L58.066 2.81496L71.2944 16.0434L73.3309 14.0069ZM74.3384 16.4394C74.3384 15.527 73.976 14.652 73.3309 14.0069L71.2944 16.0434C71.3994 16.1484 71.4584 16.2908 71.4584 16.4394H74.3384ZM70.8984 91.9309C72.7983 91.9309 74.3384 90.3908 74.3384 88.4909H71.4584C71.4584 88.8002 71.2077 89.0509 70.8984 89.0509V91.9309ZM-0.541563 88.4909C-0.541563 90.3908 0.99858 91.9309 2.89844 91.9309V89.0509C2.58916 89.0509 2.33844 88.8002 2.33844 88.4909H-0.541563ZM57.67 2.65094C57.8185 2.65094 57.961 2.70994 58.066 2.81496L60.1025 0.77849C59.4573 0.133364 58.5824 -0.229063 57.67 -0.229063V2.65094ZM2.89844 -0.229063C0.998577 -0.229063 -0.541563 1.31108 -0.541563 3.21094H2.33844C2.33844 2.90166 2.58916 2.65094 2.89844 2.65094V-0.229063Z" fill="#B2B9C8" mask="url(#path-1-inside-1_1418_21468)"/>
<path d="M9.38844 18.4402V17.5402H12.0684V18.4402H9.38844ZM9.87844 21.4902V14.4902H12.6184C13.1184 14.4902 13.5684 14.5736 13.9684 14.7402C14.3751 14.9069 14.7218 15.1469 15.0084 15.4602C15.2951 15.7736 15.5151 16.1436 15.6684 16.5702C15.8218 16.9969 15.8984 17.4702 15.8984 17.9902C15.8984 18.5102 15.8218 18.9869 15.6684 19.4202C15.5151 19.8469 15.2951 20.2169 15.0084 20.5302C14.7284 20.8369 14.3851 21.0736 13.9784 21.2402C13.5718 21.4069 13.1184 21.4902 12.6184 21.4902H9.87844ZM10.9584 20.5602L10.9284 20.4502H12.5684C12.9218 20.4502 13.2351 20.3936 13.5084 20.2802C13.7884 20.1669 14.0218 20.0069 14.2084 19.8002C14.4018 19.5869 14.5484 19.3269 14.6484 19.0202C14.7484 18.7136 14.7984 18.3702 14.7984 17.9902C14.7984 17.6102 14.7484 17.2702 14.6484 16.9702C14.5484 16.6636 14.4018 16.4036 14.2084 16.1902C14.0151 15.9769 13.7818 15.8136 13.5084 15.7002C13.2351 15.5869 12.9218 15.5302 12.5684 15.5302H10.8984L10.9584 15.4402V20.5602ZM20.2889 21.5902C19.7956 21.5902 19.3389 21.5002 18.9189 21.3202C18.5056 21.1402 18.1422 20.8902 17.8289 20.5702C17.5222 20.2436 17.2822 19.8636 17.1089 19.4302C16.9422 18.9902 16.8589 18.5102 16.8589 17.9902C16.8589 17.4702 16.9422 16.9936 17.1089 16.5602C17.2822 16.1202 17.5222 15.7402 17.8289 15.4202C18.1422 15.0936 18.5056 14.8402 18.9189 14.6602C19.3389 14.4802 19.7956 14.3902 20.2889 14.3902C20.4556 14.3902 20.6022 14.4002 20.7289 14.4202C20.8622 14.4336 20.9822 14.4536 21.0889 14.4802C21.1756 14.5002 21.2556 14.5169 21.3289 14.5302C21.4089 14.5369 21.4889 14.5402 21.5689 14.5402C21.7689 14.5402 21.9356 14.4969 22.0689 14.4102C22.2022 14.3169 22.2989 14.1836 22.3589 14.0102C22.4256 13.8302 22.4589 13.6102 22.4589 13.3502H23.3789C23.3789 13.6036 23.3522 13.8369 23.2989 14.0502C23.2522 14.2569 23.1789 14.4402 23.0789 14.6002C22.9789 14.7602 22.8489 14.8902 22.6889 14.9902C22.5289 15.0902 22.3389 15.1569 22.1189 15.1902L22.1889 14.9502C22.5022 15.1569 22.7722 15.4169 22.9989 15.7302C23.2322 16.0369 23.4089 16.3802 23.5289 16.7602C23.6556 17.1402 23.7189 17.5502 23.7189 17.9902C23.7189 18.5036 23.6322 18.9802 23.4589 19.4202C23.2922 19.8536 23.0522 20.2336 22.7389 20.5602C22.4322 20.8869 22.0689 21.1402 21.6489 21.3202C21.2356 21.5002 20.7822 21.5902 20.2889 21.5902ZM20.2889 20.5402C20.6289 20.5402 20.9389 20.4769 21.2189 20.3502C21.5056 20.2236 21.7522 20.0469 21.9589 19.8202C22.1656 19.5869 22.3256 19.3169 22.4389 19.0102C22.5589 18.6969 22.6189 18.3569 22.6189 17.9902C22.6189 17.6236 22.5589 17.2869 22.4389 16.9802C22.3256 16.6669 22.1656 16.3969 21.9589 16.1702C21.7522 15.9369 21.5056 15.7569 21.2189 15.6302C20.9389 15.5036 20.6289 15.4402 20.2889 15.4402C19.9489 15.4402 19.6356 15.5036 19.3489 15.6302C19.0689 15.7569 18.8222 15.9336 18.6089 16.1602C18.4022 16.3869 18.2422 16.6569 18.1289 16.9702C18.0156 17.2769 17.9589 17.6169 17.9589 17.9902C17.9589 18.3569 18.0156 18.6969 18.1289 19.0102C18.2422 19.3236 18.4022 19.5936 18.6089 19.8202C18.8222 20.0469 19.0689 20.2236 19.3489 20.3502C19.6356 20.4769 19.9489 20.5402 20.2889 20.5402ZM25.1812 21.4902V14.4902H26.1512L30.4312 20.2202L30.2712 20.3102C30.2445 20.1436 30.2212 19.9636 30.2012 19.7702C30.1812 19.5702 30.1612 19.3602 30.1412 19.1402C30.1278 18.9136 30.1145 18.6769 30.1012 18.4302C30.0945 18.1769 30.0878 17.9136 30.0812 17.6402C30.0745 17.3669 30.0712 17.0836 30.0712 16.7902V14.4902H31.1512V21.4902H30.1612L25.9512 15.9702L26.0612 15.8302C26.0945 16.2369 26.1212 16.5836 26.1412 16.8702C26.1678 17.1502 26.1878 17.3902 26.2012 17.5902C26.2212 17.7836 26.2345 17.9436 26.2412 18.0702C26.2478 18.1902 26.2512 18.2902 26.2512 18.3702C26.2578 18.4502 26.2612 18.5202 26.2612 18.5802V21.4902H25.1812ZM14.4484 37.4902V30.4902H15.5284V37.4902H14.4484ZM9.87844 37.4902V30.4902H10.9584V37.4902H9.87844ZM10.3484 34.5202V33.4802H14.9284V34.5202H10.3484ZM16.7559 37.4902L19.4659 30.4902H20.5659L23.2559 37.4902H22.1059L20.5059 33.2702C20.4859 33.2236 20.4459 33.1102 20.3859 32.9302C20.3325 32.7502 20.2692 32.5502 20.1959 32.3302C20.1225 32.1102 20.0559 31.9102 19.9959 31.7302C19.9359 31.5436 19.8959 31.4236 19.8759 31.3702L20.1059 31.3602C20.0659 31.4736 20.0159 31.6169 19.9559 31.7902C19.9025 31.9636 19.8425 32.1469 19.7759 32.3402C19.7159 32.5336 19.6559 32.7169 19.5959 32.8902C19.5359 33.0569 19.4859 33.1969 19.4459 33.3102L17.8559 37.4902H16.7559ZM17.9559 35.7502L18.3559 34.7102H21.5359L21.9959 35.7502H17.9559ZM20.7659 29.9402L18.7459 29.1902L19.2359 28.2902L21.0659 29.4202L20.7659 29.9402ZM24.4878 37.4902V30.4902H25.4578L29.7378 36.2202L29.5778 36.3102C29.5511 36.1436 29.5278 35.9636 29.5078 35.7702C29.4878 35.5702 29.4678 35.3602 29.4478 35.1402C29.4345 34.9136 29.4211 34.6769 29.4078 34.4302C29.4011 34.1769 29.3945 33.9136 29.3878 33.6402C29.3811 33.3669 29.3778 33.0836 29.3778 32.7902V30.4902H30.4578V37.4902H29.4678L25.2578 31.9702L25.3678 31.8302C25.4011 32.2369 25.4278 32.5836 25.4478 32.8702C25.4745 33.1502 25.4945 33.3902 25.5078 33.5902C25.5278 33.7836 25.5411 33.9436 25.5478 34.0702C25.5545 34.1902 25.5578 34.2902 25.5578 34.3702C25.5645 34.4502 25.5678 34.5202 25.5678 34.5802V37.4902H24.4878ZM35.5475 37.5902C35.0408 37.5902 34.5675 37.5002 34.1275 37.3202C33.6875 37.1336 33.3008 36.8769 32.9675 36.5502C32.6342 36.2236 32.3742 35.8436 32.1875 35.4102C32.0075 34.9702 31.9175 34.4969 31.9175 33.9902C31.9175 33.4902 32.0075 33.0236 32.1875 32.5902C32.3742 32.1569 32.6308 31.7802 32.9575 31.4602C33.2908 31.1336 33.6775 30.8802 34.1175 30.7002C34.5575 30.5202 35.0308 30.4302 35.5375 30.4302C35.8908 30.4302 36.2342 30.4802 36.5675 30.5802C36.9075 30.6802 37.2142 30.8202 37.4875 31.0002C37.7608 31.1802 37.9842 31.3869 38.1575 31.6202L37.4575 32.3502C37.2575 32.1569 37.0508 31.9969 36.8375 31.8702C36.6308 31.7436 36.4175 31.6469 36.1975 31.5802C35.9775 31.5136 35.7575 31.4802 35.5375 31.4802C35.1775 31.4802 34.8442 31.5436 34.5375 31.6702C34.2375 31.7969 33.9708 31.9736 33.7375 32.2002C33.5108 32.4269 33.3342 32.6936 33.2075 33.0002C33.0808 33.3002 33.0175 33.6302 33.0175 33.9902C33.0175 34.3369 33.0842 34.6669 33.2175 34.9802C33.3508 35.2869 33.5342 35.5569 33.7675 35.7902C34.0075 36.0236 34.2808 36.2069 34.5875 36.3402C34.9008 36.4736 35.2308 36.5402 35.5775 36.5402C35.8375 36.5402 36.0842 36.5036 36.3175 36.4302C36.5508 36.3502 36.7575 36.2402 36.9375 36.1002C37.1175 35.9602 37.2575 35.8002 37.3575 35.6202C37.4575 35.4336 37.5075 35.2369 37.5075 35.0302V34.8302L37.6575 34.9702H35.5175V33.9002H38.6175C38.6308 33.9736 38.6408 34.0469 38.6475 34.1202C38.6542 34.1869 38.6575 34.2536 38.6575 34.3202C38.6642 34.3802 38.6675 34.4402 38.6675 34.5002C38.6675 34.9602 38.5875 35.3802 38.4275 35.7602C38.2675 36.1336 38.0442 36.4569 37.7575 36.7302C37.4775 37.0036 37.1475 37.2169 36.7675 37.3702C36.3942 37.5169 35.9875 37.5902 35.5475 37.5902ZM42.8765 37.4902V30.4902H45.7965C46.2432 30.4902 46.6198 30.5569 46.9265 30.6902C47.2332 30.8236 47.4632 31.0236 47.6165 31.2902C47.7765 31.5502 47.8565 31.8702 47.8565 32.2502C47.8565 32.6302 47.7498 32.9536 47.5365 33.2202C47.3298 33.4869 47.0398 33.6702 46.6665 33.7702V33.5702C46.9798 33.6369 47.2532 33.7569 47.4865 33.9302C47.7198 34.0969 47.8998 34.3069 48.0265 34.5602C48.1598 34.8136 48.2265 35.1036 48.2265 35.4302C48.2265 35.7636 48.1732 36.0602 48.0665 36.3202C47.9665 36.5736 47.8132 36.7869 47.6065 36.9602C47.4065 37.1336 47.1632 37.2669 46.8765 37.3602C46.5898 37.4469 46.2632 37.4902 45.8965 37.4902H42.8765ZM43.9565 36.4502H45.8365C46.1098 36.4502 46.3398 36.4102 46.5265 36.3302C46.7198 36.2502 46.8665 36.1336 46.9665 35.9802C47.0732 35.8202 47.1265 35.6302 47.1265 35.4102C47.1265 35.2036 47.0698 35.0269 46.9565 34.8802C46.8498 34.7336 46.6965 34.6236 46.4965 34.5502C46.2965 34.4702 46.0598 34.4302 45.7865 34.4302H43.9565V36.4502ZM43.9565 33.3902H45.7365C45.9365 33.3902 46.1132 33.3502 46.2665 33.2702C46.4265 33.1902 46.5498 33.0802 46.6365 32.9402C46.7298 32.8002 46.7765 32.6402 46.7765 32.4602C46.7765 32.1602 46.6765 31.9302 46.4765 31.7702C46.2765 31.6102 45.9898 31.5302 45.6165 31.5302H43.9565V33.3902ZM48.9531 37.4902L51.6631 30.4902H52.7631L55.4531 37.4902H54.3031L52.7031 33.2702C52.6831 33.2236 52.6431 33.1102 52.5831 32.9302C52.5298 32.7502 52.4665 32.5502 52.3931 32.3302C52.3198 32.1102 52.2531 31.9102 52.1931 31.7302C52.1331 31.5436 52.0931 31.4236 52.0731 31.3702L52.3031 31.3602C52.2631 31.4736 52.2131 31.6169 52.1531 31.7902C52.0998 31.9636 52.0398 32.1469 51.9731 32.3402C51.9131 32.5336 51.8531 32.7169 51.7931 32.8902C51.7331 33.0569 51.6831 33.1969 51.6431 33.3102L50.0531 37.4902H48.9531ZM50.1531 35.7502L50.5531 34.7102H53.7331L54.1931 35.7502H50.1531ZM51.5231 29.9402L51.2431 29.4202L53.0731 28.2902L53.5431 29.1902L51.5231 29.9402ZM56.6851 37.4902V30.4902H57.6551L61.9351 36.2202L61.7751 36.3102C61.7484 36.1436 61.7251 35.9636 61.7051 35.7702C61.6851 35.5702 61.6651 35.3602 61.6451 35.1402C61.6317 34.9136 61.6184 34.6769 61.6051 34.4302C61.5984 34.1769 61.5917 33.9136 61.5851 33.6402C61.5784 33.3669 61.5751 33.0836 61.5751 32.7902V30.4902H62.6551V37.4902H61.6651L57.4551 31.9702L57.5651 31.8302C57.5984 32.2369 57.6251 32.5836 57.6451 32.8702C57.6717 33.1502 57.6917 33.3902 57.7051 33.5902C57.7251 33.7836 57.7384 33.9436 57.7451 34.0702C57.7517 34.1902 57.7551 34.2902 57.7551 34.3702C57.7617 34.4502 57.7651 34.5202 57.7651 34.5802V37.4902H56.6851Z" fill="#141522"/>
<rect x="9.89844" y="46.4902" width="54" height="2" rx="1" fill="#DBDEE3"/>
<rect x="9.89844" y="54.4902" width="54" height="2" rx="1" fill="#DBDEE3"/>
<rect x="9.89844" y="62.4902" width="54" height="2" rx="1" fill="#DBDEE3"/>
<rect x="9.89844" y="70.4902" width="54" height="2" rx="1" fill="#DBDEE3"/>
</svg>
