<svg width="73" height="91" viewBox="0 0 73 91" fill="none" xmlns="http://www.w3.org/2000/svg">
<mask id="path-1-inside-1_1418_21478" fill="white">
<path fill-rule="evenodd" clip-rule="evenodd" d="M59.0842 1.79672C58.7091 1.42165 58.2004 1.21094 57.67 1.21094H2.89844C1.79387 1.21094 0.898438 2.10637 0.898438 3.21094V88.4909C0.898438 89.5955 1.79387 90.4909 2.89844 90.4909H70.8984C72.003 90.4909 72.8984 89.5955 72.8984 88.4909V16.4394C72.8984 15.9089 72.6877 15.4002 72.3127 15.0252L59.0842 1.79672Z"/>
</mask>
<path fill-rule="evenodd" clip-rule="evenodd" d="M59.0842 1.79672C58.7091 1.42165 58.2004 1.21094 57.67 1.21094H2.89844C1.79387 1.21094 0.898438 2.10637 0.898438 3.21094V88.4909C0.898438 89.5955 1.79387 90.4909 2.89844 90.4909H70.8984C72.003 90.4909 72.8984 89.5955 72.8984 88.4909V16.4394C72.8984 15.9089 72.6877 15.4002 72.3127 15.0252L59.0842 1.79672Z" fill="white"/>
<path d="M72.3127 15.0252L73.3309 14.0069L72.3127 15.0252ZM59.0842 1.79672L58.066 2.81496L59.0842 1.79672ZM2.89844 2.65094H57.67V-0.229063H2.89844V2.65094ZM2.33844 88.4909V3.21094H-0.541563V88.4909H2.33844ZM70.8984 89.0509H2.89844V91.9309H70.8984V89.0509ZM71.4584 16.4394V88.4909H74.3384V16.4394H71.4584ZM73.3309 14.0069L60.1025 0.77849L58.066 2.81496L71.2944 16.0434L73.3309 14.0069ZM74.3384 16.4394C74.3384 15.527 73.976 14.652 73.3309 14.0069L71.2944 16.0434C71.3994 16.1484 71.4584 16.2908 71.4584 16.4394H74.3384ZM70.8984 91.9309C72.7983 91.9309 74.3384 90.3908 74.3384 88.4909H71.4584C71.4584 88.8002 71.2077 89.0509 70.8984 89.0509V91.9309ZM-0.541563 88.4909C-0.541563 90.3908 0.99858 91.9309 2.89844 91.9309V89.0509C2.58916 89.0509 2.33844 88.8002 2.33844 88.4909H-0.541563ZM57.67 2.65094C57.8185 2.65094 57.961 2.70994 58.066 2.81496L60.1025 0.77849C59.4573 0.133364 58.5824 -0.229063 57.67 -0.229063V2.65094ZM2.89844 -0.229063C0.998577 -0.229063 -0.541563 1.31108 -0.541563 3.21094H2.33844C2.33844 2.90166 2.58916 2.65094 2.89844 2.65094V-0.229063Z" fill="#B2B9C8" mask="url(#path-1-inside-1_1418_21478)"/>
<path d="M10.7784 19.3702L10.7184 18.1602L14.3884 14.4902H15.8084L10.7784 19.3702ZM9.87844 21.4902V14.4902H10.9584V21.4902H9.87844ZM14.5184 21.4902L11.8384 17.9102L12.6384 17.2202L15.8684 21.4902H14.5184ZM17.2027 21.4902V14.4902H21.6127V15.5302H18.2827V20.4502H21.6127V21.4902H17.2027ZM17.6927 18.4202V17.3802H21.0627V18.4202H17.6927ZM18.2527 13.9402L17.9227 13.5802L19.1227 12.6002H19.8527L21.0527 13.5802L20.7227 13.9402L19.3427 13.3102H19.6327L18.2527 13.9402ZM21.1127 12.8502L20.5927 12.4902L21.4127 11.0302L22.2827 11.6502L21.1127 12.8502ZM30.718 21.4902V14.4902H31.798V21.4902H30.718ZM26.148 21.4902V14.4902H27.228V21.4902H26.148ZM26.618 18.5202V17.4802H31.198V18.5202H26.618ZM36.6854 21.5902C36.1921 21.5902 35.7354 21.5002 35.3154 21.3202C34.9021 21.1402 34.5387 20.8902 34.2254 20.5702C33.9187 20.2436 33.6787 19.8636 33.5054 19.4302C33.3387 18.9902 33.2554 18.5102 33.2554 17.9902C33.2554 17.4702 33.3387 16.9936 33.5054 16.5602C33.6787 16.1202 33.9187 15.7402 34.2254 15.4202C34.5387 15.0936 34.9021 14.8402 35.3154 14.6602C35.7354 14.4802 36.1921 14.3902 36.6854 14.3902C37.1787 14.3902 37.6321 14.4802 38.0454 14.6602C38.4654 14.8402 38.8287 15.0936 39.1354 15.4202C39.4487 15.7469 39.6887 16.1302 39.8554 16.5702C40.0287 17.0036 40.1154 17.4769 40.1154 17.9902C40.1154 18.5036 40.0287 18.9802 39.8554 19.4202C39.6887 19.8536 39.4487 20.2336 39.1354 20.5602C38.8287 20.8869 38.4654 21.1402 38.0454 21.3202C37.6321 21.5002 37.1787 21.5902 36.6854 21.5902ZM36.6854 20.5402C37.0254 20.5402 37.3354 20.4769 37.6154 20.3502C37.9021 20.2236 38.1487 20.0469 38.3554 19.8202C38.5621 19.5869 38.7221 19.3169 38.8354 19.0102C38.9554 18.6969 39.0154 18.3569 39.0154 17.9902C39.0154 17.6236 38.9554 17.2869 38.8354 16.9802C38.7221 16.6669 38.5621 16.3969 38.3554 16.1702C38.1487 15.9369 37.9021 15.7569 37.6154 15.6302C37.3354 15.5036 37.0254 15.4402 36.6854 15.4402C36.3454 15.4402 36.0321 15.5036 35.7454 15.6302C35.4654 15.7569 35.2187 15.9336 35.0054 16.1602C34.7987 16.3869 34.6387 16.6569 34.5254 16.9702C34.4121 17.2769 34.3554 17.6169 34.3554 17.9902C34.3554 18.3569 34.4121 18.6969 34.5254 19.0102C34.6387 19.3236 34.7987 19.5936 35.0054 19.8202C35.2187 20.0469 35.4654 20.2236 35.7454 20.3502C36.0321 20.4769 36.3454 20.5402 36.6854 20.5402ZM40.6523 21.4902L43.3623 14.4902H44.4623L47.1523 21.4902H46.0023L44.4023 17.2702C44.3823 17.2236 44.3423 17.1102 44.2823 16.9302C44.229 16.7502 44.1657 16.5502 44.0923 16.3302C44.019 16.1102 43.9523 15.9102 43.8923 15.7302C43.8323 15.5436 43.7923 15.4236 43.7723 15.3702L44.0023 15.3602C43.9623 15.4736 43.9123 15.6169 43.8523 15.7902C43.799 15.9636 43.739 16.1469 43.6723 16.3402C43.6123 16.5336 43.5523 16.7169 43.4923 16.8902C43.4323 17.0569 43.3823 17.1969 43.3423 17.3102L41.7523 21.4902H40.6523ZM41.8523 19.7502L42.2523 18.7102H45.4323L45.8923 19.7502H41.8523ZM43.9023 23.5502C43.6823 23.5502 43.5123 23.4936 43.3923 23.3802C43.2723 23.2669 43.2123 23.1069 43.2123 22.9002C43.2123 22.7069 43.2723 22.5502 43.3923 22.4302C43.519 22.3102 43.689 22.2502 43.9023 22.2502C44.1223 22.2502 44.2923 22.3069 44.4123 22.4202C44.5323 22.5336 44.5923 22.6936 44.5923 22.9002C44.5923 23.0936 44.529 23.2502 44.4023 23.3702C44.2823 23.4902 44.1157 23.5502 43.9023 23.5502ZM51.029 21.5902C50.5423 21.5902 50.0957 21.5036 49.689 21.3302C49.2823 21.1569 48.929 20.9102 48.629 20.5902C48.329 20.2636 48.0957 19.8802 47.929 19.4402C47.769 19.0002 47.689 18.5169 47.689 17.9902C47.689 17.4902 47.7757 17.0269 47.949 16.6002C48.129 16.1669 48.3757 15.7869 48.689 15.4602C49.0023 15.1336 49.3657 14.8802 49.779 14.7002C50.1923 14.5202 50.639 14.4302 51.119 14.4302C51.459 14.4302 51.789 14.4836 52.109 14.5902C52.4357 14.6902 52.729 14.8336 52.989 15.0202C53.2557 15.2002 53.4723 15.4069 53.639 15.6402L52.919 16.3902C52.7257 16.1969 52.529 16.0369 52.329 15.9102C52.1357 15.7769 51.9357 15.6769 51.729 15.6102C51.529 15.5436 51.3257 15.5102 51.119 15.5102C50.7923 15.5102 50.4857 15.5736 50.199 15.7002C49.919 15.8202 49.6723 15.9902 49.459 16.2102C49.2523 16.4302 49.089 16.6936 48.969 17.0002C48.849 17.3002 48.789 17.6302 48.789 17.9902C48.789 18.3702 48.8457 18.7169 48.959 19.0302C49.079 19.3369 49.2457 19.6002 49.459 19.8202C49.6723 20.0402 49.9257 20.2102 50.219 20.3302C50.519 20.4436 50.849 20.5002 51.209 20.5002C51.429 20.5002 51.6457 20.4702 51.859 20.4102C52.0723 20.3502 52.2723 20.2636 52.459 20.1502C52.6457 20.0369 52.8157 19.9036 52.969 19.7502L53.509 20.6302C53.3557 20.8102 53.1457 20.9736 52.879 21.1202C52.619 21.2669 52.3257 21.3836 51.999 21.4702C51.679 21.5502 51.3557 21.5902 51.029 21.5902ZM59.5461 21.4902V14.4902H60.6261V21.4902H59.5461ZM54.9761 21.4902V14.4902H56.0561V21.4902H54.9761ZM55.4461 18.5202V17.4802H60.0261V18.5202H55.4461ZM9.87844 37.4902V30.4902H10.8484L15.1284 36.2202L14.9684 36.3102C14.9418 36.1436 14.9184 35.9636 14.8984 35.7702C14.8784 35.5702 14.8584 35.3602 14.8384 35.1402C14.8251 34.9136 14.8118 34.6769 14.7984 34.4302C14.7918 34.1769 14.7851 33.9136 14.7784 33.6402C14.7718 33.3669 14.7684 33.0836 14.7684 32.7902V30.4902H15.8484V37.4902H14.8584L10.6484 31.9702L10.7584 31.8302C10.7918 32.2369 10.8184 32.5836 10.8384 32.8702C10.8651 33.1502 10.8851 33.3902 10.8984 33.5902C10.9184 33.7836 10.9318 33.9436 10.9384 34.0702C10.9451 34.1902 10.9484 34.2902 10.9484 34.3702C10.9551 34.4502 10.9584 34.5202 10.9584 34.5802V37.4902H9.87844ZM20.7381 37.5902C20.2448 37.5902 19.7881 37.5002 19.3681 37.3202C18.9548 37.1402 18.5915 36.8902 18.2781 36.5702C17.9715 36.2436 17.7315 35.8636 17.5581 35.4302C17.3915 34.9902 17.3081 34.5102 17.3081 33.9902C17.3081 33.4702 17.3915 32.9936 17.5581 32.5602C17.7315 32.1202 17.9715 31.7402 18.2781 31.4202C18.5915 31.0936 18.9548 30.8402 19.3681 30.6602C19.7881 30.4802 20.2448 30.3902 20.7381 30.3902C21.2315 30.3902 21.6848 30.4802 22.0981 30.6602C22.5181 30.8402 22.8815 31.0936 23.1881 31.4202C23.5015 31.7469 23.7415 32.1302 23.9081 32.5702C24.0815 33.0036 24.1681 33.4769 24.1681 33.9902C24.1681 34.5036 24.0815 34.9802 23.9081 35.4202C23.7415 35.8536 23.5015 36.2336 23.1881 36.5602C22.8815 36.8869 22.5181 37.1402 22.0981 37.3202C21.6848 37.5002 21.2315 37.5902 20.7381 37.5902ZM20.7381 36.5402C21.0781 36.5402 21.3881 36.4769 21.6681 36.3502C21.9548 36.2236 22.2015 36.0469 22.4081 35.8202C22.6148 35.5869 22.7748 35.3169 22.8881 35.0102C23.0081 34.6969 23.0681 34.3569 23.0681 33.9902C23.0681 33.6236 23.0081 33.2869 22.8881 32.9802C22.7748 32.6669 22.6148 32.3969 22.4081 32.1702C22.2015 31.9369 21.9548 31.7569 21.6681 31.6302C21.3881 31.5036 21.0781 31.4402 20.7381 31.4402C20.3981 31.4402 20.0848 31.5036 19.7981 31.6302C19.5181 31.7569 19.2715 31.9336 19.0581 32.1602C18.8515 32.3869 18.6915 32.6569 18.5781 32.9702C18.4648 33.2769 18.4081 33.6169 18.4081 33.9902C18.4081 34.3569 18.4648 34.6969 18.5781 35.0102C18.6915 35.3236 18.8515 35.5936 19.0581 35.8202C19.2715 36.0469 19.5181 36.2236 19.7981 36.3502C20.0848 36.4769 20.3981 36.5402 20.7381 36.5402ZM20.7381 39.5502C20.5181 39.5502 20.3481 39.4936 20.2281 39.3802C20.1081 39.2669 20.0481 39.1069 20.0481 38.9002C20.0481 38.7069 20.1081 38.5502 20.2281 38.4302C20.3548 38.3102 20.5248 38.2502 20.7381 38.2502C20.9581 38.2502 21.1281 38.3069 21.2481 38.4202C21.3681 38.5336 21.4281 38.6936 21.4281 38.9002C21.4281 39.0936 21.3648 39.2502 21.2381 39.3702C21.1181 39.4902 20.9515 39.5502 20.7381 39.5502ZM19.4981 29.9402L19.1281 29.5902L20.3681 28.5802H21.0981L22.3381 29.5902L21.9681 29.9402L20.5881 29.2902H20.8781L19.4981 29.9402ZM25.2239 37.4902V36.4902H26.3539V31.4902H25.2239V30.4902H28.5639V31.4902H27.4339V36.4902H28.5639V37.4902H25.2239ZM33.062 37.4902V30.4902H35.982C36.4287 30.4902 36.8054 30.5569 37.112 30.6902C37.4187 30.8236 37.6487 31.0236 37.802 31.2902C37.962 31.5502 38.042 31.8702 38.042 32.2502C38.042 32.6302 37.9354 32.9536 37.722 33.2202C37.5154 33.4869 37.2254 33.6702 36.852 33.7702V33.5702C37.1654 33.6369 37.4387 33.7569 37.672 33.9302C37.9054 34.0969 38.0854 34.3069 38.212 34.5602C38.3454 34.8136 38.412 35.1036 38.412 35.4302C38.412 35.7636 38.3587 36.0602 38.252 36.3202C38.152 36.5736 37.9987 36.7869 37.792 36.9602C37.592 37.1336 37.3487 37.2669 37.062 37.3602C36.7754 37.4469 36.4487 37.4902 36.082 37.4902H33.062ZM34.142 36.4502H36.022C36.2954 36.4502 36.5254 36.4102 36.712 36.3302C36.9054 36.2502 37.052 36.1336 37.152 35.9802C37.2587 35.8202 37.312 35.6302 37.312 35.4102C37.312 35.2036 37.2554 35.0269 37.142 34.8802C37.0354 34.7336 36.882 34.6236 36.682 34.5502C36.482 34.4702 36.2454 34.4302 35.972 34.4302H34.142V36.4502ZM34.142 33.3902H35.922C36.122 33.3902 36.2987 33.3502 36.452 33.2702C36.612 33.1902 36.7354 33.0802 36.822 32.9402C36.9154 32.8002 36.962 32.6402 36.962 32.4602C36.962 32.1602 36.862 31.9302 36.662 31.7702C36.462 31.6102 36.1754 31.5302 35.802 31.5302H34.142V33.3902ZM42.7987 37.5902C42.3053 37.5902 41.8487 37.5002 41.4287 37.3202C41.0153 37.1402 40.652 36.8902 40.3387 36.5702C40.032 36.2436 39.792 35.8636 39.6187 35.4302C39.452 34.9902 39.3687 34.5102 39.3687 33.9902C39.3687 33.4702 39.452 32.9936 39.6187 32.5602C39.792 32.1202 40.032 31.7402 40.3387 31.4202C40.652 31.0936 41.0153 30.8402 41.4287 30.6602C41.8487 30.4802 42.3053 30.3902 42.7987 30.3902C43.292 30.3902 43.7453 30.4802 44.1587 30.6602C44.5787 30.8402 44.942 31.0936 45.2487 31.4202C45.562 31.7469 45.802 32.1302 45.9687 32.5702C46.142 33.0036 46.2287 33.4769 46.2287 33.9902C46.2287 34.5036 46.142 34.9802 45.9687 35.4202C45.802 35.8536 45.562 36.2336 45.2487 36.5602C44.942 36.8869 44.5787 37.1402 44.1587 37.3202C43.7453 37.5002 43.292 37.5902 42.7987 37.5902ZM42.7987 36.5402C43.1387 36.5402 43.4487 36.4769 43.7287 36.3502C44.0153 36.2236 44.262 36.0469 44.4687 35.8202C44.6753 35.5869 44.8353 35.3169 44.9487 35.0102C45.0687 34.6969 45.1287 34.3569 45.1287 33.9902C45.1287 33.6236 45.0687 33.2869 44.9487 32.9802C44.8353 32.6669 44.6753 32.3969 44.4687 32.1702C44.262 31.9369 44.0153 31.7569 43.7287 31.6302C43.4487 31.5036 43.1387 31.4402 42.7987 31.4402C42.4587 31.4402 42.1453 31.5036 41.8587 31.6302C41.5787 31.7569 41.332 31.9336 41.1187 32.1602C40.912 32.3869 40.752 32.6569 40.6387 32.9702C40.5253 33.2769 40.4687 33.6169 40.4687 33.9902C40.4687 34.3569 40.5253 34.6969 40.6387 35.0102C40.752 35.3236 40.912 35.5936 41.1187 35.8202C41.332 36.0469 41.5787 36.2236 41.8587 36.3502C42.1453 36.4769 42.4587 36.5402 42.7987 36.5402ZM42.7987 39.5502C42.5787 39.5502 42.4087 39.4936 42.2887 39.3802C42.1687 39.2669 42.1087 39.1069 42.1087 38.9002C42.1087 38.7069 42.1687 38.5502 42.2887 38.4302C42.4153 38.3102 42.5853 38.2502 42.7987 38.2502C43.0187 38.2502 43.1887 38.3069 43.3087 38.4202C43.4287 38.5336 43.4887 38.6936 43.4887 38.9002C43.4887 39.0936 43.4253 39.2502 43.2987 39.3702C43.1787 39.4902 43.012 39.5502 42.7987 39.5502ZM41.5587 29.9402L41.1887 29.5902L42.4287 28.5802H43.1587L44.3987 29.5902L44.0287 29.9402L42.6487 29.2902H42.9387L41.5587 29.9402Z" fill="#141522"/>
<rect x="9.89844" y="46.4902" width="54" height="2" rx="1" fill="#DBDEE3"/>
<rect x="9.89844" y="54.4902" width="54" height="2" rx="1" fill="#DBDEE3"/>
<rect x="9.89844" y="62.4902" width="54" height="2" rx="1" fill="#DBDEE3"/>
<rect x="9.89844" y="70.4902" width="54" height="2" rx="1" fill="#DBDEE3"/>
</svg>
