<svg width="16" height="61" viewBox="0 0 16 61" fill="none" xmlns="http://www.w3.org/2000/svg">
<path d="M9.30045 0.990234C9.30045 0.43795 8.85273 -0.00976562 8.30045 -0.00976562C7.74816 -0.00976562 7.30045 0.43795 7.30045 0.990234H9.30045ZM7.59334 59.92C7.98386 60.3105 8.61703 60.3105 9.00755 59.92L15.3715 53.556C15.762 53.1655 15.762 52.5323 15.3715 52.1418C14.981 51.7513 14.3478 51.7513 13.9573 52.1418L8.30045 57.7987L2.64359 52.1418C2.25307 51.7513 1.6199 51.7513 1.22938 52.1418C0.838853 52.5323 0.838853 53.1655 1.22938 53.556L7.59334 59.92ZM7.30045 0.990234V59.2129H9.30045V0.990234H7.30045Z" fill="#3276FA"/>
</svg>
