<svg width="48" height="49" viewBox="0 0 48 49" fill="none" xmlns="http://www.w3.org/2000/svg">
<path d="M24.0007 4.05551L24.9692 5.02401C26.422 6.47677 27.2196 8.40428 27.2196 10.4457C27.2196 12.4872 26.4315 14.4052 24.9977 15.8485L17.639 23.2072C17.2592 23.587 17.0503 24.0902 17.0503 24.6314C17.0503 25.1727 17.2592 25.6854 17.639 26.0652L27.267 35.6933C29.0426 37.3929 31.8532 37.3644 33.5908 35.6268L28.4634 40.7542L23.9912 45.2169L11.2393 32.4649C8.96993 30.1956 7.83052 27.1666 8.02042 23.9573C8.18184 21.2607 9.38772 18.678 11.4007 16.6555L24.0007 4.05551Z" fill="url(#paint0_linear_2110_55645)"/>
<path d="M31.3119 11.3763L36.7621 16.8265C38.8511 18.9154 40 21.688 40 24.6504C40 27.6034 38.8511 30.376 36.7621 32.4649L33.5908 35.6363C31.8532 37.3739 29.0331 37.4024 27.267 35.7028L24.0007 32.4364L30.3719 26.0652C30.7517 25.6854 30.9606 25.1727 30.9606 24.6409C30.9606 24.0997 30.7517 23.587 30.3719 23.2072C28.9002 21.7354 28.1026 19.8079 28.1026 17.757C28.1026 15.706 28.9002 13.7785 30.3529 12.3353L31.3214 11.3668L31.3119 11.3763Z" fill="url(#paint1_linear_2110_55645)"/>
<path d="M23.996 20.093L27.7358 23.8328C28.1789 24.2759 28.1789 25.001 27.7358 25.4441L23.996 29.1839L20.2563 25.4441C19.8132 25.001 19.8132 24.2759 20.2563 23.8328L23.996 20.093Z" fill="url(#paint2_linear_2110_55645)"/>
<defs>
<linearGradient id="paint0_linear_2110_55645" x1="16.0723" y1="13.7975" x2="27.3715" y2="43.7546" gradientUnits="userSpaceOnUse">
<stop stopColor="#0375F3"/>
<stop offset="1" stopColor="#25387A"/>
</linearGradient>
<linearGradient id="paint1_linear_2110_55645" x1="33.4863" y1="23.5395" x2="27.5139" y2="46.0524" gradientUnits="userSpaceOnUse">
<stop stopColor="#1FC583"/>
<stop offset="1" stopColor="#1F9285"/>
</linearGradient>
<linearGradient id="paint2_linear_2110_55645" x1="24.0024" y1="19.6028" x2="24.0024" y2="30.4652" gradientUnits="userSpaceOnUse">
<stop stopColor="#0375F3"/>
<stop offset="1" stopColor="#013DA0"/>
</linearGradient>
</defs>
</svg>
