<svg width="64" height="65" viewBox="0 0 64 65" fill="none" xmlns="http://www.w3.org/2000/svg">
<path opacity="0.2" d="M20 36.4099V46.4099C20 47.4708 19.5786 48.4882 18.8284 49.2383C18.0783 49.9885 17.0609 50.4099 16 50.4099H12C10.9391 50.4099 9.92172 49.9885 9.17157 49.2383C8.42143 48.4882 8 47.4708 8 46.4099V32.4099H16C17.0609 32.4099 18.0783 32.8313 18.8284 33.5815C19.5786 34.3316 20 35.349 20 36.4099ZM48 32.4099C46.9391 32.4099 45.9217 32.8313 45.1716 33.5815C44.4214 34.3316 44 35.349 44 36.4099V46.4099C44 47.4708 44.4214 48.4882 45.1716 49.2383C45.9217 49.9885 46.9391 50.4099 48 50.4099H56V32.4099H48Z" fill="url(#paint0_linear_1185_64097)"/>
<path d="M50.4725 14.075C46.8402 10.4215 42.2051 7.92842 37.1546 6.91179C32.104 5.89517 26.8653 6.40072 22.1023 8.36438C17.3394 10.328 13.2666 13.6614 10.4 17.9421C7.53335 22.2228 6.00202 27.2581 6 32.41V46.41C6 48.0013 6.63214 49.5274 7.75736 50.6526C8.88258 51.7778 10.4087 52.41 12 52.41H16C17.5913 52.41 19.1174 51.7778 20.2426 50.6526C21.3679 49.5274 22 48.0013 22 46.41V36.41C22 34.8187 21.3679 33.2926 20.2426 32.1673C19.1174 31.0421 17.5913 30.41 16 30.41H10.09C10.4757 26.2398 12.0421 22.266 14.6056 18.9542C17.169 15.6425 20.6234 13.1301 24.5637 11.7114C28.5041 10.2927 32.7672 10.0266 36.8534 10.9442C40.9396 11.8619 44.6796 13.9252 47.635 16.8925C51.2472 20.5232 53.4691 25.3076 53.9125 30.41H48C46.4087 30.41 44.8826 31.0421 43.7574 32.1673C42.6321 33.2926 42 34.8187 42 36.41V46.41C42 48.0013 42.6321 49.5274 43.7574 50.6526C44.8826 51.7778 46.4087 52.41 48 52.41H54C54 54.0013 53.3679 55.5274 52.2426 56.6526C51.1174 57.7778 49.5913 58.41 48 58.41H34C33.4696 58.41 32.9609 58.6207 32.5858 58.9958C32.2107 59.3708 32 59.8795 32 60.41C32 60.9404 32.2107 61.4491 32.5858 61.8242C32.9609 62.1993 33.4696 62.41 34 62.41H48C50.6522 62.41 53.1957 61.3564 55.0711 59.481C56.9464 57.6057 58 55.0621 58 52.41V32.41C58.013 29.0089 57.3548 25.6387 56.0631 22.4925C54.7714 19.3462 52.8716 16.4857 50.4725 14.075ZM16 34.41C16.5304 34.41 17.0391 34.6207 17.4142 34.9958C17.7893 35.3708 18 35.8795 18 36.41V46.41C18 46.9404 17.7893 47.4491 17.4142 47.8242C17.0391 48.1993 16.5304 48.41 16 48.41H12C11.4696 48.41 10.9609 48.1993 10.5858 47.8242C10.2107 47.4491 10 46.9404 10 46.41V34.41H16ZM48 48.41C47.4696 48.41 46.9609 48.1993 46.5858 47.8242C46.2107 47.4491 46 46.9404 46 46.41V36.41C46 35.8795 46.2107 35.3708 46.5858 34.9958C46.9609 34.6207 47.4696 34.41 48 34.41H54V48.41H48Z" fill="url(#paint1_linear_1185_64097)"/>
<defs>
<linearGradient id="paint0_linear_1185_64097" x1="32" y1="32.4099" x2="32" y2="50.4099" gradientUnits="userSpaceOnUse">
<stop stopColor="#9DFFB3"/>
<stop offset="1" stopColor="#1AA37A"/>
</linearGradient>
<linearGradient id="paint1_linear_1185_64097" x1="32.0001" y1="6.40015" x2="32.0001" y2="62.41" gradientUnits="userSpaceOnUse">
<stop stopColor="#9DFFB3"/>
<stop offset="1" stopColor="#1AA37A"/>
</linearGradient>
</defs>
</svg>
