<svg width="24" height="25" viewBox="0 0 24 25" fill="none" xmlns="http://www.w3.org/2000/svg">
<path opacity="0.2" d="M12 2.66003C10.0109 2.66003 8.10322 3.45021 6.6967 4.85673C5.29018 6.26326 4.5 8.17091 4.5 10.16C4.5 16.91 12 22.16 12 22.16C12 22.16 19.5 16.91 19.5 10.16C19.5 8.17091 18.7098 6.26326 17.3033 4.85673C15.8968 3.45021 13.9891 2.66003 12 2.66003ZM12 13.16C11.4067 13.16 10.8266 12.9841 10.3333 12.6544C9.83994 12.3248 9.45542 11.8563 9.22836 11.3081C9.0013 10.7599 8.94189 10.1567 9.05764 9.57476C9.1734 8.99282 9.45912 8.45827 9.87868 8.03871C10.2982 7.61916 10.8328 7.33343 11.4147 7.21768C11.9967 7.10192 12.5999 7.16133 13.1481 7.3884C13.6962 7.61546 14.1648 7.99998 14.4944 8.49332C14.8241 8.98667 15 9.56669 15 10.16C15 10.9557 14.6839 11.7187 14.1213 12.2814C13.5587 12.844 12.7956 13.16 12 13.16Z" fill="url(#paint0_linear_1865_382)"/>
<path d="M12 6.41003C11.2583 6.41003 10.5333 6.62997 9.91661 7.04202C9.29993 7.45408 8.81928 8.03975 8.53545 8.72497C8.25162 9.41019 8.17736 10.1642 8.32205 10.8916C8.46675 11.6191 8.8239 12.2872 9.34835 12.8117C9.8728 13.3361 10.541 13.6933 11.2684 13.838C11.9958 13.9827 12.7498 13.9084 13.4351 13.6246C14.1203 13.3408 14.706 12.8601 15.118 12.2434C15.5301 11.6267 15.75 10.9017 15.75 10.16C15.75 9.16547 15.3549 8.21165 14.6517 7.50838C13.9484 6.80512 12.9946 6.41003 12 6.41003ZM12 12.41C11.555 12.41 11.12 12.2781 10.75 12.0308C10.38 11.7836 10.0916 11.4322 9.92127 11.0211C9.75097 10.6099 9.70642 10.1575 9.79323 9.72108C9.88005 9.28462 10.0943 8.88371 10.409 8.56904C10.7237 8.25438 11.1246 8.04008 11.561 7.95327C11.9975 7.86645 12.4499 7.91101 12.861 8.08131C13.2722 8.2516 13.6236 8.53999 13.8708 8.91C14.118 9.28001 14.25 9.71503 14.25 10.16C14.25 10.7568 14.0129 11.3291 13.591 11.751C13.169 12.173 12.5967 12.41 12 12.41ZM12 1.91003C9.81273 1.91252 7.71575 2.78251 6.16911 4.32914C4.62247 5.87578 3.75248 7.97276 3.75 10.16C3.75 13.1038 5.11031 16.2238 7.6875 19.1835C8.84552 20.5209 10.1489 21.7252 11.5734 22.7741C11.6995 22.8624 11.8498 22.9098 12.0037 22.9098C12.1577 22.9098 12.308 22.8624 12.4341 22.7741C13.856 21.7247 15.1568 20.5205 16.3125 19.1835C18.8859 16.2238 20.25 13.1038 20.25 10.16C20.2475 7.97276 19.3775 5.87578 17.8309 4.32914C16.2843 2.78251 14.1873 1.91252 12 1.91003ZM12 21.2225C10.4503 20.0038 5.25 15.5272 5.25 10.16C5.25 8.36982 5.96116 6.65293 7.22703 5.38706C8.4929 4.12119 10.2098 3.41003 12 3.41003C13.7902 3.41003 15.5071 4.12119 16.773 5.38706C18.0388 6.65293 18.75 8.36982 18.75 10.16C18.75 15.5253 13.5497 20.0038 12 21.2225Z" fill="url(#paint1_linear_1865_382)"/>
<defs>
<linearGradient id="paint0_linear_1865_382" x1="12" y1="2.66003" x2="12" y2="22.16" gradientUnits="userSpaceOnUse">
<stop stopColor="#9DFFB3"/>
<stop offset="1" stopColor="#1AA37A"/>
</linearGradient>
<linearGradient id="paint1_linear_1865_382" x1="12" y1="1.91003" x2="12" y2="22.9098" gradientUnits="userSpaceOnUse">
<stop stopColor="#9DFFB3"/>
<stop offset="1" stopColor="#1AA37A"/>
</linearGradient>
</defs>
</svg>
