<svg width="64" height="65" viewBox="0 0 64 65" fill="none" xmlns="http://www.w3.org/2000/svg">
<path opacity="0.2" d="M56 24.4099C55.9989 27.1922 55.2724 29.9261 53.892 32.3418C52.5117 34.7575 50.5252 36.7716 48.1288 38.1851C45.7323 39.5986 43.0087 40.3628 40.2267 40.4022C37.4447 40.4417 34.7005 39.755 32.265 38.4099L18.25 54.6599C17.1228 55.7871 15.594 56.4203 14 56.4203C12.4059 56.4203 10.8771 55.7871 9.74997 54.6599C8.6228 53.5327 7.98956 52.004 7.98956 50.4099C7.98956 48.8159 8.6228 47.2871 9.74997 46.1599L26 32.1449C24.4012 29.2515 23.7378 25.934 24.101 22.6483C24.4643 19.3626 25.8364 16.27 28.0286 13.7958C30.2209 11.3216 33.1257 9.58709 36.3438 8.83083C39.5618 8.07456 42.9351 8.33363 46 9.57241L36 20.4099L37.415 26.9949L44 28.4099L54.8375 18.4099C55.6081 20.3163 56.0028 22.3537 56 24.4099Z" fill="url(#paint0_linear_1185_64137)"/>
<path d="M56.69 17.6598C56.5687 17.36 56.3764 17.094 56.1298 16.8848C55.8831 16.6755 55.5893 16.5292 55.2737 16.4584C54.9581 16.3876 54.63 16.3944 54.3176 16.4783C54.0052 16.5621 53.7178 16.7205 53.48 16.9398L43.405 26.2373L39.0975 25.3123L38.1725 21.0048L47.47 10.9298C47.6893 10.692 47.8477 10.4046 47.9315 10.0922C48.0154 9.7798 48.0222 9.45171 47.9514 9.13609C47.8806 8.82046 47.7343 8.52671 47.5251 8.28004C47.3158 8.03337 47.0499 7.84113 46.75 7.71981C44.0173 6.61439 41.055 6.19702 38.1233 6.50435C35.1916 6.81169 32.3802 7.83434 29.9362 9.48244C27.4922 11.1305 25.4904 13.3536 24.1066 15.9564C22.7228 18.5592 21.9994 21.462 22 24.4098C21.9968 26.899 22.5074 29.3621 23.5 31.6448L8.4475 44.6598C8.41 44.6898 8.375 44.7248 8.34 44.7573C6.83953 46.2578 5.99658 48.2928 5.99658 50.4148C5.99658 51.4655 6.20353 52.5059 6.60562 53.4766C7.0077 54.4473 7.59704 55.3294 8.34 56.0723C9.08295 56.8153 9.96496 57.4046 10.9357 57.8067C11.9064 58.2088 12.9468 58.4157 13.9975 58.4157C16.1195 58.4157 18.1545 57.5728 19.655 56.0723C19.6875 56.0398 19.7225 56.0023 19.7525 55.9673L32.765 40.9098C35.5061 42.113 38.504 42.6137 41.4873 42.3663C44.4706 42.119 47.3451 41.1315 49.8506 39.4933C52.3561 37.855 54.4134 35.6178 55.8364 32.9841C57.2594 30.3504 58.003 27.4033 58 24.4098C58.0039 22.0963 57.559 19.8039 56.69 17.6598ZM40 38.4098C37.6327 38.4066 35.3046 37.8046 33.2325 36.6598C32.831 36.438 32.3656 36.361 31.9141 36.4415C31.4626 36.5221 31.0525 36.7554 30.7525 37.1023L16.7775 53.2873C16.0212 54.0058 15.0142 54.4004 13.9712 54.3871C12.9282 54.3737 11.9316 53.9534 11.194 53.2158C10.4564 52.4782 10.0361 51.4816 10.0227 50.4386C10.0094 49.3956 10.404 48.3886 11.1225 47.6323L27.295 33.6598C27.6425 33.3597 27.8762 32.9491 27.9568 32.4971C28.0373 32.045 27.9599 31.579 27.7375 31.1773C26.4626 28.8714 25.8642 26.2525 26.0113 23.6218C26.1584 20.991 27.0449 18.4551 28.5689 16.3057C30.0929 14.1563 32.1925 12.4805 34.6264 11.4712C37.0603 10.4618 39.7296 10.1598 42.3275 10.5998L34.5275 19.0523C34.3105 19.2877 34.1531 19.5718 34.0687 19.8807C33.9843 20.1896 33.9753 20.5142 34.0425 20.8273L35.4575 27.4098C35.5384 27.7863 35.7263 28.1314 35.9986 28.4037C36.2709 28.676 36.616 28.8639 36.9925 28.9448L43.58 30.3598C43.8931 30.427 44.2177 30.418 44.5266 30.3336C44.8355 30.2492 45.1196 30.0918 45.355 29.8748L53.8075 22.0748C54.1445 24.0823 54.0401 26.1392 53.5016 28.1022C52.9631 30.0653 52.0035 31.8876 50.6894 33.4422C49.3753 34.9968 47.7383 36.2465 45.8923 37.1044C44.0463 37.9623 42.0356 38.4078 40 38.4098Z" fill="url(#paint1_linear_1185_64137)"/>
<defs>
<linearGradient id="paint0_linear_1185_64137" x1="31.9948" y1="8.40649" x2="31.9948" y2="56.4203" gradientUnits="userSpaceOnUse">
<stop stopColor="#9DFFB3"/>
<stop offset="1" stopColor="#1AA37A"/>
</linearGradient>
<linearGradient id="paint1_linear_1185_64137" x1="31.9983" y1="6.40625" x2="31.9983" y2="58.4157" gradientUnits="userSpaceOnUse">
<stop stopColor="#9DFFB3"/>
<stop offset="1" stopColor="#1AA37A"/>
</linearGradient>
</defs>
</svg>
