<svg width="16" height="10" viewBox="0 0 16 10" fill="none" xmlns="http://www.w3.org/2000/svg">
<path d="M15.3614 8.91273C15.2976 8.97665 15.2217 9.02736 15.1383 9.06196C15.0548 9.09655 14.9654 9.11436 14.875 9.11436C14.7847 9.11436 14.6952 9.09655 14.6117 9.06196C14.5283 9.02736 14.4525 8.97665 14.3886 8.91273L8.00002 2.52327L1.61142 8.91273C1.48242 9.04173 1.30745 9.1142 1.12502 9.1142C0.942578 9.1142 0.767613 9.04173 0.63861 8.91273C0.509607 8.78373 0.437134 8.60876 0.437134 8.42632C0.437134 8.24388 0.509607 8.06892 0.63861 7.93992L7.51361 1.06492C7.57746 1.00099 7.65328 0.950285 7.73675 0.915687C7.82021 0.881089 7.90967 0.863281 8.00002 0.863281C8.09036 0.863281 8.17983 0.881089 8.26329 0.915687C8.34675 0.950285 8.42257 1.00099 8.48642 1.06492L15.3614 7.93992C15.4253 8.00377 15.4761 8.07959 15.5107 8.16305C15.5453 8.24651 15.5631 8.33597 15.5631 8.42632C15.5631 8.51667 15.5453 8.60613 15.5107 8.68959C15.4761 8.77305 15.4253 8.84888 15.3614 8.91273Z" fill="#EBF5FF"/>
</svg>
