<svg width="20" height="20" viewBox="0 0 20 20" fill="none" xmlns="http://www.w3.org/2000/svg">
<g clipPath="url(#clip0_885_23227)">
<path fillRule="evenodd" clipRule="evenodd" d="M9.1128 0.0664062H10.8796C13.3061 0.0664062 14.7241 0.422804 15.9829 1.09768C17.2416 1.77256 18.235 2.75834 18.9023 4.01712C19.5772 5.27588 19.9336 6.69388 19.9336 9.1204V10.8796C19.9336 13.3062 19.5772 14.7242 18.9023 15.9829C18.2274 17.2417 17.2416 18.2351 15.9829 18.9024C14.7241 19.5772 13.3061 19.9336 10.8796 19.9336H9.12036C6.69384 19.9336 5.27584 19.5772 4.01708 18.9024C2.75833 18.2275 1.76497 17.2417 1.09768 15.9829C0.4228 14.7242 0.0664062 13.3062 0.0664062 10.8796V9.1204C0.0664062 6.69388 0.4228 5.27588 1.09768 4.01712C1.77256 2.75834 2.75833 1.76498 4.01708 1.09768C5.26828 0.422804 6.69384 0.0664062 9.1128 0.0664062Z" fill="#FDA612"/>
<path opacity="0.12" fillRule="evenodd" clipRule="evenodd" d="M19.9334 10.5894V10.8798C19.9334 13.3063 19.5771 14.7243 18.9022 15.983C18.2273 17.2418 17.2415 18.2352 15.9828 18.9025C14.724 19.5774 13.306 19.9338 10.8795 19.9338H9.12028C7.13476 19.9338 5.82448 19.6951 4.72416 19.2386L2.91016 17.3707L19.9334 10.5894Z" fill="#FDA612"/>
<path fillRule="evenodd" clipRule="evenodd" d="M3.1116 17.4357C4.04076 17.5384 5.20244 17.2734 6.02728 16.873C9.609 18.8527 15.2079 18.7582 18.5969 16.5893C18.7284 16.3921 18.8512 16.1871 18.9651 15.9745C19.6425 14.7112 20.0002 13.288 20.0002 10.8526V9.087C20.0002 6.6516 19.6425 5.22844 18.9651 3.96509C18.2954 2.70174 17.2984 1.71237 16.0351 1.03503C14.7717 0.357696 13.3486 0 10.9132 0H9.13996C7.06576 0 5.71928 0.261102 4.58796 0.759572C4.52612 0.814948 4.46544 0.871272 4.40604 0.92854C1.08694 4.12812 0.834632 11.0637 3.64912 14.8313C3.65226 14.8368 3.65573 14.8424 3.65956 14.8481C4.09336 15.4874 3.67478 16.6062 3.02027 17.2606C2.91372 17.3596 2.95178 17.4205 3.1116 17.4357Z" fill="white"/>
<path d="M8.22565 6.79999H4.33565V7.63411H7.03513L4.37353 10.9327C4.29013 11.054 4.22949 11.1677 4.22949 11.4255V11.6379H7.89957C8.08157 11.6379 8.23325 11.4862 8.23325 11.3042V10.8568H5.39725L7.89957 7.71751C7.93749 7.67203 8.00573 7.58863 8.03609 7.55071L8.05125 7.52795C8.19533 7.31563 8.22565 7.13363 8.22565 6.91375V6.79999Z" fill="#FDA612"/>
<path d="M13.1761 11.6378H13.7296V6.79996H12.8955V11.3573C12.8955 11.509 13.0168 11.6378 13.1761 11.6378Z" fill="#FDA612"/>
<path d="M10.3254 7.87695C9.27897 7.87695 8.42969 8.72623 8.42969 9.77267C8.42969 10.8191 9.27897 11.6684 10.3254 11.6684C11.3718 11.6684 12.2211 10.8191 12.2211 9.77267C12.2287 8.72623 11.3794 7.87695 10.3254 7.87695ZM10.3254 10.8874C9.71121 10.8874 9.21073 10.3869 9.21073 9.77267C9.21073 9.15847 9.71121 8.65799 10.3254 8.65799C10.9396 8.65799 11.4401 9.15847 11.4401 9.77267C11.4401 10.3869 10.9472 10.8874 10.3254 10.8874Z" fill="#FDA612"/>
<path d="M16.1951 7.8465C15.141 7.8465 14.2842 8.70338 14.2842 9.75738C14.2842 10.8114 15.141 11.6683 16.1951 11.6683C17.2491 11.6683 18.1059 10.8114 18.1059 9.75738C18.1059 8.70338 17.2491 7.8465 16.1951 7.8465ZM16.1951 10.8873C15.5733 10.8873 15.0728 10.3868 15.0728 9.76498C15.0728 9.14318 15.5733 8.6427 16.1951 8.6427C16.8169 8.6427 17.3173 9.14318 17.3173 9.76498C17.3173 10.3868 16.8169 10.8873 16.1951 10.8873Z" fill="#FDA612"/>
<path d="M11.7819 11.6377H12.2293V7.98276H11.4482V11.3117C11.4482 11.4861 11.5999 11.6377 11.7819 11.6377Z" fill="#FDA612"/>
</g>
<defs>
<clipPath id="clip0_885_23227">
<rect width="20" height="20" fill="white"/>
</clipPath>
</defs>
</svg>
