<svg width="24" height="25" viewBox="0 0 24 25" fill="none" xmlns="http://www.w3.org/2000/svg">
<path d="M19.5 3.40991H17.25V2.65991C17.25 2.461 17.171 2.27023 17.0303 2.12958C16.8897 1.98893 16.6989 1.90991 16.5 1.90991C16.3011 1.90991 16.1103 1.98893 15.9697 2.12958C15.829 2.27023 15.75 2.461 15.75 2.65991V3.40991H8.25V2.65991C8.25 2.461 8.17098 2.27023 8.03033 2.12958C7.88968 1.98893 7.69891 1.90991 7.5 1.90991C7.30109 1.90991 7.11032 1.98893 6.96967 2.12958C6.82902 2.27023 6.75 2.461 6.75 2.65991V3.40991H4.5C4.10218 3.40991 3.72064 3.56795 3.43934 3.84925C3.15804 4.13056 3 4.51209 3 4.90991V19.9099C3 20.3077 3.15804 20.6893 3.43934 20.9706C3.72064 21.2519 4.10218 21.4099 4.5 21.4099H19.5C19.8978 21.4099 20.2794 21.2519 20.5607 20.9706C20.842 20.6893 21 20.3077 21 19.9099V4.90991C21 4.51209 20.842 4.13056 20.5607 3.84925C20.2794 3.56795 19.8978 3.40991 19.5 3.40991ZM6.75 4.90991V5.65991C6.75 5.85882 6.82902 6.04959 6.96967 6.19024C7.11032 6.33089 7.30109 6.40991 7.5 6.40991C7.69891 6.40991 7.88968 6.33089 8.03033 6.19024C8.17098 6.04959 8.25 5.85882 8.25 5.65991V4.90991H15.75V5.65991C15.75 5.85882 15.829 6.04959 15.9697 6.19024C16.1103 6.33089 16.3011 6.40991 16.5 6.40991C16.6989 6.40991 16.8897 6.33089 17.0303 6.19024C17.171 6.04959 17.25 5.85882 17.25 5.65991V4.90991H19.5V7.90991H4.5V4.90991H6.75ZM19.5 19.9099H4.5V9.40991H19.5V19.9099Z" fill="#667F93"/>
</svg>
