<svg width="32" height="32" viewBox="0 0 32 32" fill="none" xmlns="http://www.w3.org/2000/svg">
<path opacity="0.2" d="M30 16C30 18.6522 28.9464 21.1957 27.071 23.0711C25.1957 24.9464 22.6521 26 20 26H8.99997C8.00742 25.9988 7.02648 25.7865 6.12223 25.3772C5.21799 24.968 4.41112 24.3711 3.75516 23.6262C3.09921 22.8813 2.60916 22.0054 2.31755 21.0566C2.02593 20.1079 1.93941 19.108 2.06373 18.1232C2.18805 17.1385 2.52037 16.1915 3.03863 15.345C3.55689 14.4985 4.24924 13.7719 5.06975 13.2134C5.89026 12.6548 6.82016 12.2772 7.79774 12.1055C8.77533 11.9338 9.77826 11.972 10.74 12.2175V12.23C11.615 10.0836 13.2085 8.3079 15.248 7.20645C17.2875 6.10499 19.6462 5.74622 21.9209 6.19148C24.1957 6.63674 26.2451 7.85837 27.7187 9.6475C29.1924 11.4366 29.9988 13.6821 30 16Z" fill="url(#paint0_linear_1633_5445)"/>
<path d="M31 16C31.0063 18.3815 30.2337 20.6997 28.8 22.6013C28.7211 22.7063 28.6222 22.7948 28.509 22.8616C28.3959 22.9285 28.2707 22.9724 28.1405 22.9908C28.0104 23.0093 27.8779 23.0019 27.7507 22.9692C27.6234 22.9365 27.5038 22.879 27.3988 22.8C27.2937 22.721 27.2052 22.6222 27.1384 22.509C27.0715 22.3959 27.0276 22.2707 27.0092 22.1405C26.9907 22.0104 26.9981 21.8779 27.0308 21.7507C27.0636 21.6234 27.1211 21.5038 27.2 21.3988C28.3735 19.8441 29.0057 17.9479 29 16C29 13.6131 28.0518 11.3239 26.364 9.63604C24.6761 7.94822 22.387 7.00001 20 7.00001C17.6131 7.00001 15.3239 7.94822 13.636 9.63604C11.9482 11.3239 11 13.6131 11 16C11 16.2652 10.8946 16.5196 10.7071 16.7071C10.5196 16.8946 10.2652 17 10 17C9.73479 17 9.48044 16.8946 9.2929 16.7071C9.10536 16.5196 9.00001 16.2652 9.00001 16C8.99952 14.9909 9.1379 13.9864 9.41126 13.015C9.27501 13 9.13751 13 9.00001 13C7.40871 13 5.88258 13.6321 4.75737 14.7574C3.63215 15.8826 3.00001 17.4087 3.00001 19C3.00001 20.5913 3.63215 22.1174 4.75737 23.2426C5.88258 24.3679 7.40871 25 9.00001 25H12C12.2652 25 12.5196 25.1054 12.7071 25.2929C12.8946 25.4804 13 25.7348 13 26C13 26.2652 12.8946 26.5196 12.7071 26.7071C12.5196 26.8946 12.2652 27 12 27H9.00001C7.90023 27.0003 6.8122 26.7737 5.8039 26.3346C4.79559 25.8955 3.88865 25.2532 3.13972 24.4478C2.3908 23.6424 1.81598 22.6913 1.45115 21.6538C1.08633 20.6163 0.939347 19.5147 1.01938 18.4178C1.09941 17.321 1.40475 16.2524 1.91631 15.2788C2.42787 14.3053 3.13467 13.4476 3.99257 12.7595C4.85047 12.0714 5.84104 11.5675 6.90241 11.2794C7.96378 10.9913 9.07316 10.9251 10.1613 11.085C11.2693 8.86895 13.0929 7.09185 15.3369 6.04154C17.5809 4.99124 20.1137 4.72925 22.5252 5.29801C24.9366 5.86677 27.0854 7.23297 28.6236 9.17532C30.1617 11.1177 30.9991 13.5224 31 16ZM19.7075 15.2925C19.6146 15.1995 19.5043 15.1258 19.3829 15.0754C19.2615 15.0251 19.1314 14.9992 19 14.9992C18.8686 14.9992 18.7385 15.0251 18.6171 15.0754C18.4957 15.1258 18.3854 15.1995 18.2925 15.2925L14.2925 19.2925C14.1996 19.3854 14.1259 19.4957 14.0756 19.6171C14.0253 19.7385 13.9995 19.8686 13.9995 20C13.9995 20.1314 14.0253 20.2615 14.0756 20.3829C14.1259 20.5043 14.1996 20.6146 14.2925 20.7075C14.4801 20.8951 14.7346 21.0006 15 21.0006C15.1314 21.0006 15.2615 20.9747 15.3829 20.9244C15.5043 20.8741 15.6146 20.8004 15.7075 20.7075L18 18.4138V26C18 26.2652 18.1054 26.5196 18.2929 26.7071C18.4804 26.8946 18.7348 27 19 27C19.2652 27 19.5196 26.8946 19.7071 26.7071C19.8947 26.5196 20 26.2652 20 26V18.4138L22.2925 20.7075C22.3854 20.8004 22.4957 20.8741 22.6171 20.9244C22.7385 20.9747 22.8686 21.0006 23 21.0006C23.1314 21.0006 23.2615 20.9747 23.3829 20.9244C23.5043 20.8741 23.6146 20.8004 23.7075 20.7075C23.8004 20.6146 23.8741 20.5043 23.9244 20.3829C23.9747 20.2615 24.0006 20.1314 24.0006 20C24.0006 19.8686 23.9747 19.7385 23.9244 19.6171C23.8741 19.4957 23.8004 19.3854 23.7075 19.2925L19.7075 15.2925Z" fill="url(#paint1_linear_1633_5445)"/>
<defs>
<linearGradient id="paint0_linear_1633_5445" x1="16.0043" y1="6.00522" x2="16.0043" y2="26" gradientUnits="userSpaceOnUse">
<stop stopColor="#9DFFB3"/>
<stop offset="1" stopColor="#1AA37A"/>
</linearGradient>
<linearGradient id="paint1_linear_1633_5445" x1="15.9991" y1="5.00424" x2="15.9991" y2="27" gradientUnits="userSpaceOnUse">
<stop stopColor="#9DFFB3"/>
<stop offset="1" stopColor="#1AA37A"/>
</linearGradient>
</defs>
</svg>
