<svg width="32" height="33" viewBox="0 0 32 33" fill="none" xmlns="http://www.w3.org/2000/svg">
<path opacity="0.2" d="M27 9.5V22.5H5V9.5C5 8.96957 5.21071 8.46086 5.58579 8.08579C5.96086 7.71071 6.46957 7.5 7 7.5H25C25.5304 7.5 26.0391 7.71071 26.4142 8.08579C26.7893 8.46086 27 8.96957 27 9.5Z" fill="url(#paint0_linear_1628_5680)"/>
<path d="M29 21.5H28V9.5C28 8.70435 27.6839 7.94129 27.1213 7.37868C26.5587 6.81607 25.7956 6.5 25 6.5H7C6.20435 6.5 5.44129 6.81607 4.87868 7.37868C4.31607 7.94129 4 8.70435 4 9.5V21.5H3C2.73478 21.5 2.48043 21.6054 2.29289 21.7929C2.10536 21.9804 2 22.2348 2 22.5V24.5C2 25.2956 2.31607 26.0587 2.87868 26.6213C3.44129 27.1839 4.20435 27.5 5 27.5H27C27.7956 27.5 28.5587 27.1839 29.1213 26.6213C29.6839 26.0587 30 25.2956 30 24.5V22.5C30 22.2348 29.8946 21.9804 29.7071 21.7929C29.5196 21.6054 29.2652 21.5 29 21.5ZM6 9.5C6 9.23478 6.10536 8.98043 6.29289 8.79289C6.48043 8.60536 6.73478 8.5 7 8.5H25C25.2652 8.5 25.5196 8.60536 25.7071 8.79289C25.8946 8.98043 26 9.23478 26 9.5V21.5H6V9.5ZM28 24.5C28 24.7652 27.8946 25.0196 27.7071 25.2071C27.5196 25.3946 27.2652 25.5 27 25.5H5C4.73478 25.5 4.48043 25.3946 4.29289 25.2071C4.10536 25.0196 4 24.7652 4 24.5V23.5H28V24.5ZM19 11.5C19 11.7652 18.8946 12.0196 18.7071 12.2071C18.5196 12.3946 18.2652 12.5 18 12.5H14C13.7348 12.5 13.4804 12.3946 13.2929 12.2071C13.1054 12.0196 13 11.7652 13 11.5C13 11.2348 13.1054 10.9804 13.2929 10.7929C13.4804 10.6054 13.7348 10.5 14 10.5H18C18.2652 10.5 18.5196 10.6054 18.7071 10.7929C18.8946 10.9804 19 11.2348 19 11.5Z" fill="url(#paint1_linear_1628_5680)"/>
<defs>
<linearGradient id="paint0_linear_1628_5680" x1="16" y1="7.5" x2="16" y2="22.5" gradientUnits="userSpaceOnUse">
<stop stopColor="#9DFFB3"/>
<stop offset="1" stopColor="#1AA37A"/>
</linearGradient>
<linearGradient id="paint1_linear_1628_5680" x1="16" y1="6.5" x2="16" y2="27.5" gradientUnits="userSpaceOnUse">
<stop stopColor="#9DFFB3"/>
<stop offset="1" stopColor="#1AA37A"/>
</linearGradient>
</defs>
</svg>
